<svg width="285" height="325" viewBox="0 0 285 325" fill="none" xmlns="http://www.w3.org/2000/svg">
<path d="M1.56848 223.277C1.56848 220.289 3.01641 217.3 5.92376 215.553L125.815 143.14C136.249 136.84 149.303 136.84 159.738 143.14L279.628 215.553C282.536 217.311 283.984 220.289 283.984 223.277V239.981C283.984 242.855 282.478 245.523 280.019 247.005L159.738 319.659C149.303 325.959 136.249 325.959 125.815 319.659L5.53304 247.005C3.07386 245.523 1.56848 242.855 1.56848 239.981V223.277Z" stroke="#7B36B6" stroke-width="1.25" stroke-miterlimit="10"/>
<path d="M5.93549 215.553C3.02814 217.311 1.5802 220.289 1.5802 223.277C1.5802 226.267 3.02814 229.255 5.93549 231.002L125.826 303.415C136.261 309.715 149.315 309.715 159.749 303.415L279.64 231.002C282.547 229.244 283.995 226.267 283.995 223.277C283.995 220.289 282.547 217.3 279.64 215.553" stroke="#7B36B6" stroke-width="1.25" stroke-miterlimit="10"/>
<mask id="mask0_336_4075" style="mask-type:luminance" maskUnits="userSpaceOnUse" x="159" y="231" width="122" height="89">
<path d="M159.749 303.428L279.641 231.002L280.032 247.005L159.749 319.659V303.428Z" fill="white"/>
</mask>
<g mask="url(#mask0_336_4075)">
<path d="M270.642 239.268C270.642 240.005 270.044 240.601 269.309 240.601C268.574 240.601 267.976 240.005 267.976 239.268C267.976 238.532 268.574 237.935 269.309 237.935C270.044 237.935 270.642 238.532 270.642 239.268Z" fill="#7B36B6"/>
<path d="M263.759 249.039C263.022 249.039 262.426 249.637 262.426 250.373C262.426 251.11 263.022 251.707 263.759 251.707C264.494 251.707 265.092 251.11 265.092 250.373C265.092 249.637 264.494 249.039 263.759 249.039ZM270.642 250.373C270.642 251.11 270.044 251.707 269.309 251.707C268.574 251.707 267.976 251.11 267.976 250.373C267.976 249.637 268.574 249.039 269.309 249.039C270.044 249.039 270.642 249.637 270.642 250.373ZM270.642 244.821C270.642 245.556 270.044 246.155 269.309 246.155C268.574 246.155 267.976 245.556 267.976 244.821C267.976 244.086 268.574 243.487 269.309 243.487C270.044 243.487 270.642 244.086 270.642 244.821ZM265.092 244.821C265.092 245.556 264.494 246.155 263.759 246.155C263.022 246.155 262.426 245.556 262.426 244.821C262.426 244.086 263.022 243.487 263.759 243.487C264.494 243.487 265.092 244.086 265.092 244.821Z" fill="#7B36B6"/>
<path d="M265.092 255.926C265.092 256.662 264.494 257.26 263.759 257.26C263.022 257.26 262.426 256.662 262.426 255.926C262.426 255.191 263.022 254.593 263.759 254.593C264.494 254.593 265.092 255.191 265.092 255.926Z" fill="#7B36B6"/>
<path d="M252.669 249.039C251.934 249.039 251.336 249.637 251.336 250.373C251.336 251.11 251.934 251.707 252.669 251.707C253.405 251.707 254.003 251.11 254.003 250.373C254.003 249.637 253.405 249.039 252.669 249.039ZM259.552 250.373C259.552 251.11 258.956 251.707 258.219 251.707C257.484 251.707 256.887 251.11 256.887 250.373C256.887 249.637 257.484 249.039 258.219 249.039C258.956 249.039 259.552 249.637 259.552 250.373ZM259.552 244.821C259.552 245.556 258.956 246.155 258.219 246.155C257.484 246.155 256.887 245.556 256.887 244.821C256.887 244.086 257.484 243.487 258.219 243.487C258.956 243.487 259.552 244.086 259.552 244.821Z" fill="#7B36B6"/>
<path d="M252.669 260.133C251.934 260.133 251.336 260.731 251.336 261.467C251.336 262.202 251.934 262.801 252.669 262.801C253.405 262.801 254.003 262.202 254.003 261.467C254.003 260.731 253.405 260.133 252.669 260.133ZM259.552 255.913C259.552 256.651 258.956 257.247 258.219 257.247C257.484 257.247 256.887 256.651 256.887 255.913C256.887 255.178 257.484 254.581 258.219 254.581C258.956 254.581 259.552 255.178 259.552 255.913ZM254.003 255.913C254.003 256.651 253.405 257.247 252.669 257.247C251.934 257.247 251.336 256.651 251.336 255.913C251.336 255.178 251.934 254.581 252.669 254.581C253.405 254.581 254.003 255.178 254.003 255.913Z" fill="#7B36B6"/>
<path d="M248.451 250.373C248.451 251.11 247.855 251.707 247.12 251.707C246.383 251.707 245.786 251.11 245.786 250.373C245.786 249.637 246.383 249.039 247.12 249.039C247.855 249.039 248.451 249.637 248.451 250.373Z" fill="#7B36B6"/>
<path d="M241.569 260.133C240.833 260.133 240.235 260.732 240.235 261.467C240.235 262.202 240.833 262.801 241.569 262.801C242.304 262.801 242.902 262.202 242.902 261.467C242.902 260.732 242.304 260.133 241.569 260.133ZM248.452 261.467C248.452 262.202 247.855 262.801 247.12 262.801C246.383 262.801 245.787 262.202 245.787 261.467C245.787 260.732 246.383 260.133 247.12 260.133C247.855 260.133 248.452 260.732 248.452 261.467ZM248.452 255.914C248.452 256.651 247.855 257.247 247.12 257.247C246.383 257.247 245.787 256.651 245.787 255.914C245.787 255.178 246.383 254.581 247.12 254.581C247.855 254.581 248.452 255.178 248.452 255.914ZM242.902 255.914C242.902 256.651 242.304 257.247 241.569 257.247C240.833 257.247 240.235 256.651 240.235 255.914C240.235 255.178 240.833 254.581 241.569 254.581C242.304 254.581 242.902 255.178 242.902 255.914Z" fill="#7B36B6"/>
<path d="M248.452 267.019C248.452 267.756 247.855 268.353 247.12 268.353C246.383 268.353 245.787 267.756 245.787 267.019C245.787 266.283 246.383 265.687 247.12 265.687C247.855 265.687 248.452 266.283 248.452 267.019ZM242.902 267.019C242.902 267.756 242.304 268.353 241.569 268.353C240.833 268.353 240.235 267.756 240.235 267.019C240.235 266.283 240.833 265.687 241.569 265.687C242.304 265.687 242.902 266.283 242.902 267.019Z" fill="#7B36B6"/>
<path d="M230.478 260.133C229.743 260.133 229.147 260.731 229.147 261.467C229.147 262.202 229.743 262.801 230.478 262.801C231.215 262.801 231.811 262.202 231.811 261.467C231.811 260.731 231.215 260.133 230.478 260.133ZM237.363 261.467C237.363 262.202 236.765 262.801 236.03 262.801C235.294 262.801 234.696 262.202 234.696 261.467C234.696 260.731 235.294 260.133 236.03 260.133C236.765 260.133 237.363 260.731 237.363 261.467Z" fill="#7B36B6"/>
<path d="M230.478 271.239C229.743 271.239 229.147 271.837 229.147 272.572C229.147 273.308 229.743 273.906 230.478 273.906C231.215 273.906 231.811 273.308 231.811 272.572C231.811 271.837 231.215 271.239 230.478 271.239ZM237.363 272.572C237.363 273.308 236.765 273.906 236.03 273.906C235.294 273.906 234.696 273.308 234.696 272.572C234.696 271.837 235.294 271.239 236.03 271.239C236.765 271.239 237.363 271.837 237.363 272.572ZM237.363 267.019C237.363 267.756 236.765 268.353 236.03 268.353C235.294 268.353 234.696 267.756 234.696 267.019C234.696 266.283 235.294 265.687 236.03 265.687C236.765 265.687 237.363 266.283 237.363 267.019ZM231.811 267.019C231.811 267.756 231.215 268.353 230.478 268.353C229.743 268.353 229.147 267.756 229.147 267.019C229.147 266.283 229.743 265.687 230.478 265.687C231.215 265.687 231.811 266.283 231.811 267.019Z" fill="#7B36B6"/>
<path d="M219.379 271.238C218.642 271.238 218.046 271.837 218.046 272.572C218.046 273.308 218.642 273.906 219.379 273.906C220.114 273.906 220.711 273.308 220.711 272.572C220.711 271.837 220.114 271.238 219.379 271.238ZM226.262 272.572C226.262 273.308 225.664 273.906 224.929 273.906C224.194 273.906 223.596 273.308 223.596 272.572C223.596 271.837 224.194 271.238 224.929 271.238C225.664 271.238 226.262 271.837 226.262 272.572ZM226.262 267.019C226.262 267.756 225.664 268.352 224.929 268.352C224.194 268.352 223.596 267.756 223.596 267.019C223.596 266.283 224.194 265.687 224.929 265.687C225.664 265.687 226.262 266.283 226.262 267.019ZM220.711 267.019C220.711 267.756 220.114 268.352 219.379 268.352C218.642 268.352 218.046 267.756 218.046 267.019C218.046 266.283 218.642 265.687 219.379 265.687C220.114 265.687 220.711 266.283 220.711 267.019Z" fill="#7B36B6"/>
<path d="M219.379 282.332C218.642 282.332 218.046 282.929 218.046 283.666C218.046 284.402 218.642 285 219.379 285C220.114 285 220.711 284.402 220.711 283.666C220.711 282.929 220.114 282.332 219.379 282.332ZM226.262 278.113C226.262 278.848 225.664 279.446 224.929 279.446C224.194 279.446 223.596 278.848 223.596 278.113C223.596 277.377 224.194 276.779 224.929 276.779C225.664 276.779 226.262 277.377 226.262 278.113ZM220.711 278.113C220.711 278.848 220.114 279.446 219.379 279.446C218.642 279.446 218.046 278.848 218.046 278.113C218.046 277.377 218.642 276.779 219.379 276.779C220.114 276.779 220.711 277.377 220.711 278.113Z" fill="#7B36B6"/>
<path d="M208.289 271.238C207.554 271.238 206.956 271.837 206.956 272.572C206.956 273.308 207.554 273.906 208.289 273.906C209.025 273.906 209.623 273.308 209.623 272.572C209.623 271.837 209.025 271.238 208.289 271.238ZM215.172 272.572C215.172 273.308 214.576 273.906 213.839 273.906C213.104 273.906 212.506 273.308 212.506 272.572C212.506 271.837 213.104 271.238 213.839 271.238C214.576 271.238 215.172 271.837 215.172 272.572Z" fill="#7B36B6"/>
<path d="M208.289 282.332C207.554 282.332 206.956 282.929 206.956 283.666C206.956 284.402 207.554 285 208.289 285C209.025 285 209.623 284.402 209.623 283.666C209.623 282.929 209.025 282.332 208.289 282.332ZM215.172 283.666C215.172 284.402 214.576 285 213.839 285C213.104 285 212.506 284.402 212.506 283.666C212.506 282.929 213.104 282.332 213.839 282.332C214.576 282.332 215.172 282.929 215.172 283.666ZM215.172 278.113C215.172 278.848 214.576 279.446 213.839 279.446C213.104 279.446 212.506 278.848 212.506 278.113C212.506 277.377 213.104 276.779 213.839 276.779C214.576 276.779 215.172 277.377 215.172 278.113ZM209.623 278.113C209.623 278.848 209.025 279.446 208.289 279.446C207.554 279.446 206.956 278.848 206.956 278.113C206.956 277.377 207.554 276.779 208.289 276.779C209.025 276.779 209.623 277.377 209.623 278.113Z" fill="#7B36B6"/>
<path d="M209.61 289.218C209.61 289.953 209.014 290.552 208.279 290.552C207.542 290.552 206.945 289.953 206.945 289.218C206.945 288.482 207.542 287.884 208.279 287.884C209.014 287.884 209.61 288.482 209.61 289.218Z" fill="#7B36B6"/>
<path d="M197.189 282.332C196.454 282.332 195.856 282.929 195.856 283.666C195.856 284.402 196.454 285 197.189 285C197.924 285 198.522 284.402 198.522 283.666C198.522 282.929 197.924 282.332 197.189 282.332ZM204.072 283.666C204.072 284.402 203.475 285 202.738 285C202.003 285 201.407 284.402 201.407 283.666C201.407 282.929 202.003 282.332 202.738 282.332C203.475 282.332 204.072 282.929 204.072 283.666ZM204.072 278.113C204.072 278.848 203.475 279.446 202.738 279.446C202.003 279.446 201.407 278.848 201.407 278.113C201.407 277.377 202.003 276.779 202.738 276.779C203.475 276.779 204.072 277.377 204.072 278.113Z" fill="#7B36B6"/>
<path d="M197.189 293.438C196.454 293.438 195.856 294.034 195.856 294.77C195.856 295.507 196.454 296.103 197.189 296.103C197.924 296.103 198.522 295.507 198.522 294.77C198.522 294.034 197.924 293.438 197.189 293.438ZM204.072 289.218C204.072 289.953 203.475 290.552 202.738 290.552C202.003 290.552 201.407 289.953 201.407 289.218C201.407 288.482 202.003 287.884 202.738 287.884C203.475 287.884 204.072 288.482 204.072 289.218ZM198.522 289.218C198.522 289.953 197.924 290.552 197.189 290.552C196.454 290.552 195.856 289.953 195.856 289.218C195.856 288.482 196.454 287.884 197.189 287.884C197.924 287.884 198.522 288.482 198.522 289.218Z" fill="#7B36B6"/>
<path d="M192.97 283.666C192.97 284.402 192.374 285 191.637 285C190.902 285 190.306 284.402 190.306 283.666C190.306 282.929 190.902 282.332 191.637 282.332C192.374 282.332 192.97 282.929 192.97 283.666Z" fill="#7B36B6"/>
<path d="M186.099 293.438C185.364 293.438 184.766 294.034 184.766 294.77C184.766 295.507 185.364 296.103 186.099 296.103C186.836 296.103 187.432 295.507 187.432 294.77C187.432 294.034 186.836 293.438 186.099 293.438ZM192.983 294.77C192.983 295.507 192.385 296.103 191.65 296.103C190.915 296.103 190.317 295.507 190.317 294.77C190.317 294.034 190.915 293.438 191.65 293.438C192.385 293.438 192.983 294.034 192.983 294.77ZM192.983 289.218C192.983 289.953 192.385 290.552 191.65 290.552C190.915 290.552 190.317 289.953 190.317 289.218C190.317 288.482 190.915 287.884 191.65 287.884C192.385 287.884 192.983 288.482 192.983 289.218ZM187.432 289.218C187.432 289.953 186.836 290.552 186.099 290.552C185.364 290.552 184.766 289.953 184.766 289.218C184.766 288.482 185.364 287.884 186.099 287.884C186.836 287.884 187.432 288.482 187.432 289.218Z" fill="#7B36B6"/>
<path d="M192.97 300.323C192.97 301.059 192.374 301.657 191.637 301.657C190.902 301.657 190.305 301.059 190.305 300.323C190.305 299.588 190.902 298.989 191.637 298.989C192.374 298.989 192.97 299.588 192.97 300.323ZM187.42 300.323C187.42 301.059 186.822 301.657 186.087 301.657C185.352 301.657 184.754 301.059 184.754 300.323C184.754 299.588 185.352 298.989 186.087 298.989C186.822 298.989 187.42 299.588 187.42 300.323Z" fill="#7B36B6"/>
<path d="M174.998 293.438C174.263 293.438 173.666 294.034 173.666 294.77C173.666 295.507 174.263 296.103 174.998 296.103C175.734 296.103 176.331 295.507 176.331 294.77C176.331 294.034 175.734 293.438 174.998 293.438ZM181.882 294.77C181.882 295.507 181.284 296.103 180.549 296.103C179.814 296.103 179.216 295.507 179.216 294.77C179.216 294.034 179.814 293.438 180.549 293.438C181.284 293.438 181.882 294.034 181.882 294.77Z" fill="#7B36B6"/>
<path d="M174.998 304.53C174.263 304.53 173.666 305.128 173.666 305.864C173.666 306.599 174.263 307.198 174.998 307.198C175.734 307.198 176.331 306.599 176.331 305.864C176.331 305.128 175.734 304.53 174.998 304.53ZM181.882 305.864C181.882 306.599 181.284 307.198 180.549 307.198C179.814 307.198 179.216 306.599 179.216 305.864C179.216 305.128 179.814 304.53 180.549 304.53C181.284 304.53 181.882 305.128 181.882 305.864ZM181.882 300.312C181.882 301.047 181.284 301.646 180.549 301.646C179.814 301.646 179.216 301.047 179.216 300.312C179.216 299.577 179.814 298.978 180.549 298.978C181.284 298.978 181.882 299.577 181.882 300.312ZM176.331 300.312C176.331 301.047 175.734 301.646 174.998 301.646C174.263 301.646 173.666 301.047 173.666 300.312C173.666 299.577 174.263 298.978 174.998 298.978C175.734 298.978 176.331 299.577 176.331 300.312Z" fill="#7B36B6"/>
<path d="M176.331 311.417C176.331 312.153 175.734 312.751 174.998 312.751C174.263 312.751 173.666 312.153 173.666 311.417C173.666 310.68 174.263 310.084 174.998 310.084C175.734 310.084 176.331 310.68 176.331 311.417Z" fill="#7B36B6"/>
<path d="M163.909 304.53C163.174 304.53 162.576 305.128 162.576 305.864C162.576 306.599 163.174 307.198 163.909 307.198C164.645 307.198 165.243 306.599 165.243 305.864C165.243 305.128 164.645 304.53 163.909 304.53ZM170.792 305.864C170.792 306.599 170.194 307.198 169.459 307.198C168.724 307.198 168.126 306.599 168.126 305.864C168.126 305.128 168.724 304.53 169.459 304.53C170.194 304.53 170.792 305.128 170.792 305.864ZM170.792 300.312C170.792 301.047 170.194 301.646 169.459 301.646C168.724 301.646 168.126 301.047 168.126 300.312C168.126 299.577 168.724 298.978 169.459 298.978C170.194 298.978 170.792 299.577 170.792 300.312ZM165.243 300.312C165.243 301.047 164.645 301.646 163.909 301.646C163.174 301.646 162.576 301.047 162.576 300.312C162.576 299.577 163.174 298.978 163.909 298.978C164.645 298.978 165.243 299.577 165.243 300.312Z" fill="#7B36B6"/>
<path d="M163.909 315.635C163.174 315.635 162.576 316.234 162.576 316.969C162.576 317.705 163.174 318.303 163.909 318.303C164.645 318.303 165.243 317.705 165.243 316.969C165.243 316.234 164.645 315.635 163.909 315.635ZM170.792 311.417C170.792 312.153 170.194 312.751 169.459 312.751C168.724 312.751 168.126 312.153 168.126 311.417C168.126 310.68 168.724 310.084 169.459 310.084C170.194 310.084 170.792 310.68 170.792 311.417ZM165.243 311.417C165.243 312.153 164.645 312.751 163.909 312.751C163.174 312.751 162.576 312.153 162.576 311.417C162.576 310.68 163.174 310.084 163.909 310.084C164.645 310.084 165.243 310.68 165.243 311.417Z" fill="#7B36B6"/>
</g>
<path d="M49.9366 273.825L58.1186 278.757V262.525L49.9366 257.593V273.825Z" fill="#7B36B6" stroke="#7B36B6" stroke-miterlimit="10"/>
<path d="M35.1468 248.648L5.93549 231.002C3.02814 229.244 1.5802 226.267 1.5802 223.277V239.981C1.5802 242.855 3.0856 245.521 5.54478 247.005L35.1468 264.892V248.648Z" fill="#7B36B6" stroke="#7B36B6" stroke-miterlimit="10"/>
<path d="M125.826 303.428V319.659" stroke="#7B36B6" stroke-miterlimit="10"/>
<path d="M159.749 303.428V319.659" stroke="#7B36B6" stroke-miterlimit="10"/>
<path d="M279.64 231.002L273.147 234.923V251.167L280.03 247.005C282.489 245.521 283.995 242.855 283.995 239.981V223.277C283.995 226.267 282.547 229.255 279.64 231.002Z" fill="#7B36B6" stroke="#7B36B6" stroke-miterlimit="10"/>
<path d="M64.1056 168.89C64.1056 165.626 65.6914 162.36 68.8745 160.43L124.218 127C135.629 120.101 149.924 120.101 161.334 127L216.678 160.43C219.861 162.349 221.446 165.613 221.446 168.89V219.289C221.446 222.438 219.804 225.346 217.115 226.978L161.334 260.674C149.924 267.571 135.629 267.571 124.218 260.674L68.4379 226.978C65.7488 225.358 64.1056 222.438 64.1056 219.289V168.89Z" stroke="#7B36B6" stroke-width="1.25" stroke-linecap="round" stroke-linejoin="round"/>
<path d="M64.1056 168.89C64.1056 172.156 65.6914 175.42 68.8745 177.352L124.218 210.781C135.629 217.679 149.924 217.679 161.334 210.781L216.678 177.352C219.861 175.431 221.446 172.167 221.446 168.89" stroke="#7B36B6" stroke-width="1.25" stroke-linecap="round" stroke-linejoin="round"/>
<path d="M93.9488 242.383L92.1906 241.326V191.434L93.9488 192.492V242.383Z" fill="#7B36B6" stroke="#7B36B6" stroke-linecap="round" stroke-linejoin="round"/>
<path d="M124.229 214.875V257.088" stroke="#7B36B6" stroke-width="1.25" stroke-linecap="round" stroke-linejoin="round"/>
<path d="M161.345 214.875V257.088" stroke="#7B36B6" stroke-width="1.25" stroke-linecap="round" stroke-linejoin="round"/>
<path d="M81.7784 235.038L86.8692 238.108V188.215L81.7784 185.145V235.038Z" fill="#7B36B6" stroke="#7B36B6" stroke-linecap="round" stroke-linejoin="round"/>
<path d="M76.0223 181.663L68.8745 177.352C65.6914 175.431 64.1056 172.167 64.1056 168.89V219.289C64.1056 222.438 65.7488 225.347 68.4379 226.979L76.0223 231.554V181.663Z" fill="#7B36B6" stroke="#7B36B6" stroke-linecap="round" stroke-linejoin="round"/>
<path d="M216.689 177.352L209.588 181.639V231.532L217.126 226.979C219.815 225.358 221.459 222.438 221.459 219.289V168.89C221.459 172.156 219.872 175.42 216.689 177.352Z" fill="#7B36B6" stroke="#7B36B6" stroke-linecap="round" stroke-linejoin="round"/>
<path d="M148.648 64.3918L149.797 65.0815C150.659 65.6103 151.751 65.6103 152.612 65.0815L153.762 64.3803" fill="#7B36B6"/>
<path d="M148.648 64.3918L149.797 65.0815C150.659 65.6103 151.751 65.6103 152.612 65.0815L153.762 64.3803" stroke="#7B36B6" stroke-width="1.25" stroke-miterlimit="10"/>
<path d="M108.542 104.869C108.324 104.708 108.105 104.547 107.898 104.374C101.957 99.6266 98.3605 91.292 98.3605 80.1181C98.3605 55.1834 116.241 25.5584 138.293 13.9476C149.325 8.14214 159.312 7.93522 166.539 12.3036C172.963 16.1892 177.216 23.6732 178.077 34.054C178.134 34.6977 177.801 35.3184 177.26 35.6519L164.908 43.1127C164.402 43.4231 164.093 43.9635 164.093 44.5612V57.2066C164.093 57.7931 163.782 58.3447 163.276 58.6552L153.784 64.3916C152.658 65.0699 151.221 64.2652 151.221 62.9432V52.8842C151.221 52.229 150.509 51.8266 149.946 52.16L139.132 58.6897C138.627 59.0001 138.316 59.5519 138.316 60.1382L138.351 72.7491C138.351 73.3469 138.041 73.8873 137.535 74.1977L126.296 80.9802C125.791 81.2906 125.48 81.831 125.48 82.4288V95.0743C125.48 95.6606 125.17 96.2123 124.665 96.5227L111.357 104.558C110.289 105.202 108.944 105.202 107.864 104.558L101.072 100.454" stroke="#7B36B6" stroke-width="1.25" stroke-miterlimit="10"/>
<path d="M107.325 103.915C101.728 99.0863 98.3612 90.9244 98.3612 80.1181C98.3612 55.1835 116.242 25.5585 138.294 13.9477C149.326 8.14221 159.312 7.93529 166.541 12.3037L153.429 4.38309C146.2 0.0145431 136.214 0.221459 125.182 6.02693C103.13 17.6379 85.2493 47.2629 85.2493 72.1975C85.2493 84.659 89.7195 93.6028 96.9476 97.9599" stroke="#7B36B6" stroke-width="1.25" stroke-linecap="round" stroke-linejoin="round"/>
<path d="M169.826 35.1692C166.828 20.167 153.853 14.534 138.294 22.719" stroke="#7B36B6" stroke-width="1.25" stroke-linecap="round" stroke-linejoin="round"/>
<path d="M121.85 36.4796C112.427 47.7916 106.106 62.7478 106.106 76.0486C106.106 85.2797 109.151 92.1083 114.162 95.8906" stroke="#7B36B6" stroke-width="1.25" stroke-linecap="round" stroke-linejoin="round"/>
<path d="M107.692 104.202C104.325 101.443 101.728 97.5113 100.142 92.5567L87.0304 84.6359C88.9725 90.7059 92.42 95.2353 96.9476 97.9713L107.577 104.398" fill="#7B36B6"/>
<path d="M107.692 104.202C104.325 101.443 101.728 97.5113 100.142 92.5567L87.0304 84.6359C88.9725 90.7059 92.42 95.2353 96.9476 97.9713L107.577 104.398" stroke="#7B36B6" stroke-linecap="round" stroke-linejoin="round"/>
<path d="M136.765 14.8443C137.282 14.5569 137.776 14.2235 138.294 13.9477C149.325 8.14221 159.311 7.93529 166.54 12.3037L153.428 4.38309C146.2 0.0145432 136.214 0.221459 125.182 6.02693C124.665 6.30293 124.159 6.62472 123.653 6.92368L136.765 14.8443Z" fill="#7B36B6" stroke="#7B36B6" stroke-linecap="round" stroke-linejoin="round"/>
<path d="M127.826 21.0637C128.814 20.2474 129.825 19.4542 130.836 18.6954L117.725 10.7748C116.702 11.5336 115.702 12.3268 114.714 13.143L127.826 21.0637Z" fill="#7B36B6" stroke="#7B36B6" stroke-linecap="round" stroke-linejoin="round"/>
<path d="M149.142 64.6906L139.167 58.6667L149.935 52.1601C150.498 51.8152 151.21 52.229 151.21 52.8842V63.518C151.21 64.5756 150.05 65.2309 149.142 64.6906Z" stroke="#7B36B6" stroke-width="1.25" stroke-linecap="round" stroke-linejoin="round"/>
<path d="M148.568 52.9876L151.211 54.5857" stroke="#7B36B6" stroke-width="0.75" stroke-linecap="round" stroke-linejoin="round"/>
<path d="M146.189 54.4247L151.211 57.4597" stroke="#7B36B6" stroke-width="0.75" stroke-linecap="round" stroke-linejoin="round"/>
<path d="M143.81 55.8503L151.21 60.3223" stroke="#7B36B6" stroke-width="0.75" stroke-linecap="round" stroke-linejoin="round"/>
<path d="M141.431 57.287L151.21 63.1959" stroke="#7B36B6" stroke-width="0.75" stroke-linecap="round" stroke-linejoin="round"/>
<path d="M118.724 25.5931L110.852 20.8453M113.357 31.9043L105.393 27.0991M107.807 38.1006L100.705 33.8127M102.854 44.6649L96.6025 40.8941M98.2574 51.4475L93.1896 48.3895M94.7639 58.8853L90.535 56.3332M92.1093 66.8405L88.7768 64.8286M89.9489 75.0831L88.2596 74.0599" stroke="#7B36B6" stroke-width="1.25" stroke-linecap="round" stroke-linejoin="round"/>
<path d="M132.882 77.0029V79.9918C132.882 80.946 133.376 81.8311 134.204 82.3255L143.431 87.9009L144.247 88.3953C145.316 89.039 146.66 89.039 147.74 88.3953L148.556 87.9009L157.232 82.6589C158.243 82.0495 158.864 80.946 158.864 79.7734V70.1167V69.0362C158.864 67.8521 158.243 66.76 157.232 66.1507L156.473 65.6909L154.06 64.2309L152.625 65.0931C151.762 65.6218 150.671 65.6218 149.809 65.0931L142.925 60.9315L138.329 63.7135" stroke="#7B36B6" stroke-width="1.25" stroke-linecap="round" stroke-linejoin="round"/>
<path d="M148.557 87.9008L147.741 88.3952C146.672 89.0389 145.328 89.0389 144.248 88.3952L143.432 87.9008C144.558 88.5791 145.994 87.7744 145.994 86.4523C145.994 87.7629 147.431 88.5791 148.557 87.9008Z" fill="#7B36B6" stroke="#7B36B6" stroke-linecap="round" stroke-linejoin="round"/>
<path d="M156.473 65.6795L157.232 66.1392C158.243 66.7485 158.864 67.8522 158.864 69.0247V70.1054C158.864 68.7949 157.429 67.9787 156.301 68.6569L156.473 68.5535C157.566 67.8981 157.566 66.3232 156.473 65.668V65.6795Z" fill="#7B36B6" stroke="#7B36B6" stroke-linecap="round" stroke-linejoin="round"/>
<path d="M145.994 76.4396V86.4526" stroke="#7B36B6" stroke-linecap="round" stroke-linejoin="round"/>
<path d="M147.407 74.0485L156.475 68.5649" stroke="#7B36B6" stroke-linecap="round" stroke-linejoin="round"/>
<path d="M144.581 74.0483C145.443 74.5771 146.534 74.5771 147.396 74.0483L147.304 74.1059C146.489 74.6001 145.983 75.4854 145.983 76.4395C145.983 75.4854 145.489 74.6001 144.661 74.1059L144.569 74.0483H144.581Z" stroke="#7B36B6" stroke-linecap="round" stroke-linejoin="round"/>
<path d="M138.329 70.2663L144.581 74.0486" stroke="#7B36B6" stroke-linecap="round" stroke-linejoin="round"/>
<path d="M138.294 73.1518L145.993 77.7962" stroke="#7B36B6" stroke-width="0.75" stroke-linecap="round" stroke-linejoin="round"/>
<path d="M136.399 74.8763L145.994 80.6701" stroke="#7B36B6" stroke-width="0.75" stroke-linecap="round" stroke-linejoin="round"/>
<path d="M134.02 76.313L145.994 83.544" stroke="#7B36B6" stroke-width="0.75" stroke-linecap="round" stroke-linejoin="round"/>
<path d="M132.882 78.4973L145.994 86.418" stroke="#7B36B6" stroke-width="0.75" stroke-linecap="round" stroke-linejoin="round"/>
<path d="M107.107 157.257C126.539 168.994 126.539 188.02 107.107 199.757C126.539 188.02 158.037 188.02 177.468 199.757C158.037 188.02 158.037 168.994 177.468 157.257C158.037 168.994 126.539 168.994 107.107 157.257Z" fill="#7B36B6" stroke="#7B36B6" stroke-linecap="round" stroke-linejoin="round"/>
<path d="M142.787 176.018C144.05 176.018 145.074 175.401 145.074 174.638C145.074 173.876 144.05 173.258 142.787 173.258C141.524 173.258 140.5 173.876 140.5 174.638C140.5 175.401 141.524 176.018 142.787 176.018Z" fill="#1BA3FF" stroke="#1BA3FF" stroke-miterlimit="10"/>
<path d="M142.787 183.191C149.032 183.191 154.096 180.134 154.096 176.363C154.096 172.592 149.032 169.535 142.787 169.535C136.542 169.535 131.48 172.592 131.48 176.363C131.48 180.134 136.542 183.191 142.787 183.191Z" stroke="#1BA3FF" stroke-miterlimit="10"/>
<path d="M142.787 189.111C152.853 189.111 161.013 184.18 161.013 178.099C161.013 172.016 152.853 167.086 142.787 167.086C132.722 167.086 124.562 172.016 124.562 178.099C124.562 184.18 132.722 189.111 142.787 189.111Z" stroke="#1BA3FF" stroke-miterlimit="10"/>
<path d="M142.787 146.07V174.638" stroke="#1BA3FF" stroke-miterlimit="10" stroke-linecap="round"/>
<path d="M140.34 151.922L141.156 152.417C142.224 153.06 143.569 153.06 144.649 152.417L145.465 151.922L154.141 146.68C155.152 146.07 155.773 144.968 155.773 143.795V134.139V133.057C155.773 131.873 155.152 130.781 154.141 130.173L153.382 129.712L144.074 124.091C143.212 123.562 142.121 123.562 141.259 124.091L132.192 129.574L131.434 130.034C130.423 130.643 129.802 131.747 129.802 132.92V134V144.025C129.802 144.979 130.296 145.865 131.123 146.358L140.351 151.933L140.34 151.922Z" stroke="#1BA3FF" stroke-width="1.25" stroke-linecap="round" stroke-linejoin="round"/>
<path d="M145.465 151.922L144.649 152.417C143.58 153.06 142.236 153.06 141.156 152.417L140.34 151.922C141.466 152.6 142.903 151.796 142.903 150.474C142.903 151.785 144.339 152.6 145.465 151.922Z" fill="#1BA3FF" stroke="#1BA3FF" stroke-linecap="round" stroke-linejoin="round"/>
<path d="M129.79 134V132.92C129.79 131.736 130.411 130.644 131.422 130.034L132.18 129.575C131.089 130.23 131.089 131.805 132.18 132.459L132.353 132.563C131.227 131.885 129.79 132.69 129.79 134.011V134Z" fill="#1BA3FF" stroke="#1BA3FF" stroke-linecap="round" stroke-linejoin="round"/>
<path d="M153.382 129.701L154.141 130.16C155.152 130.769 155.773 131.873 155.773 133.046V134.126C155.773 132.816 154.336 131.999 153.21 132.677L153.382 132.575C154.475 131.92 154.475 130.345 153.382 129.689V129.701Z" fill="#1BA3FF" stroke="#1BA3FF" stroke-linecap="round" stroke-linejoin="round"/>
<path d="M142.902 140.461V150.474" stroke="#1BA3FF" stroke-linecap="round" stroke-linejoin="round"/>
<path d="M144.317 138.07L153.383 132.587" stroke="#1BA3FF" stroke-linecap="round" stroke-linejoin="round"/>
<path d="M141.489 138.07C142.351 138.598 143.443 138.598 144.305 138.07L144.213 138.127C143.397 138.622 142.891 139.507 142.891 140.461C142.891 139.507 142.397 138.622 141.57 138.127L141.478 138.07H141.489Z" stroke="#1BA3FF" stroke-linecap="round" stroke-linejoin="round"/>
<path d="M132.193 132.448L141.489 138.07" stroke="#1BA3FF" stroke-linecap="round" stroke-linejoin="round"/>
<path d="M129.79 133.907L142.902 141.828" stroke="#1BA3FF" stroke-width="0.75" stroke-linecap="round" stroke-linejoin="round"/>
<path d="M129.79 136.782L142.902 144.692" stroke="#1BA3FF" stroke-width="0.75" stroke-linecap="round" stroke-linejoin="round"/>
<path d="M129.79 139.655L142.902 147.565" stroke="#1BA3FF" stroke-width="0.75" stroke-linecap="round" stroke-linejoin="round"/>
<path d="M129.79 142.53L142.902 150.44" stroke="#1BA3FF" stroke-width="0.75" stroke-linecap="round" stroke-linejoin="round"/>
<path d="M158.851 118.894L159.667 119.389C160.736 120.032 162.08 120.032 163.16 119.389L163.976 118.894L172.651 113.652C173.663 113.043 174.285 111.939 174.285 110.766V101.11V100.029C174.285 98.8453 173.663 97.7532 172.651 97.1439L171.894 96.684L162.586 91.0626C161.723 90.5337 160.632 90.5337 159.769 91.0626L150.703 96.5461L149.944 97.0059C148.933 97.6152 148.313 98.7188 148.313 99.8914V100.972V110.996C148.313 111.95 148.807 112.835 149.635 113.33L158.862 118.906L158.851 118.894Z" stroke="#7B36B6" stroke-width="1.25" stroke-linecap="round" stroke-linejoin="round"/>
<path d="M161.401 107.433V115.847" stroke="#7B36B6" stroke-linecap="round" stroke-linejoin="round"/>
<path d="M162.815 105.042L170.479 100.409" stroke="#7B36B6" stroke-linecap="round" stroke-linejoin="round"/>
<path d="M160 105.041C160.861 105.57 161.954 105.57 162.815 105.041L162.722 105.099C161.907 105.593 161.402 106.478 161.402 107.433C161.402 106.478 160.907 105.593 160.08 105.099L159.987 105.041H160Z" stroke="#7B36B6" stroke-linecap="round" stroke-linejoin="round"/>
<path d="M156.034 102.65L159.999 105.042" stroke="#7B36B6" stroke-linecap="round" stroke-linejoin="round"/>
<path d="M148.301 100.926L151.749 103.007" stroke="#7B36B6" stroke-width="0.75" stroke-linecap="round" stroke-linejoin="round"/>
<path d="M148.301 103.8L152.082 106.088" stroke="#7B36B6" stroke-width="0.75" stroke-linecap="round" stroke-linejoin="round"/>
<path d="M148.301 106.674L153.162 109.605" stroke="#7B36B6" stroke-width="0.75" stroke-linecap="round" stroke-linejoin="round"/>
<path d="M148.301 109.547L155.978 114.18" stroke="#7B36B6" stroke-width="0.75" stroke-linecap="round" stroke-linejoin="round"/>
<path d="M125.286 118.836L126.102 119.331C127.17 119.974 128.515 119.974 129.595 119.331L130.411 118.836L139.087 113.594C140.098 112.985 140.719 111.881 140.719 110.708V101.052V99.9716C140.719 98.7874 140.098 97.6954 139.087 97.0861L138.329 96.6262L129.02 91.0048C128.159 90.4759 127.067 90.4759 126.205 91.0048L125.481 91.4416V95.0168C125.481 95.649 125.148 96.2468 124.608 96.5687L114.748 102.524V110.927C114.748 111.881 115.242 112.766 116.07 113.261L125.297 118.836H125.286Z" stroke="#7B36B6" stroke-width="1.25" stroke-linecap="round" stroke-linejoin="round"/>
<path d="M130.4 118.836L129.584 119.331C128.515 119.974 127.171 119.974 126.09 119.331L125.275 118.836C126.401 119.514 127.837 118.71 127.837 117.388C127.837 118.698 129.274 119.514 130.4 118.836Z" fill="#7B36B6" stroke="#7B36B6" stroke-linecap="round" stroke-linejoin="round"/>
<path d="M138.317 96.6149L139.076 97.0747C140.087 97.684 140.707 98.7877 140.707 99.9602V101.041C140.707 99.7303 139.271 98.9142 138.145 99.5923L138.317 99.489C139.409 98.8336 139.409 97.2587 138.317 96.6035V96.6149Z" fill="#7B36B6" stroke="#7B36B6" stroke-linecap="round" stroke-linejoin="round"/>
<path d="M127.848 107.375V114.135" stroke="#7B36B6" stroke-linecap="round" stroke-linejoin="round"/>
<path d="M129.25 104.984L138.317 99.5004" stroke="#7B36B6" stroke-linecap="round" stroke-linejoin="round"/>
<path d="M126.435 104.984C127.297 105.513 128.389 105.513 129.251 104.984L129.159 105.041C128.343 105.536 127.837 106.421 127.837 107.375C127.837 106.421 127.343 105.536 126.516 105.041L126.424 104.984H126.435Z" stroke="#7B36B6" stroke-linecap="round" stroke-linejoin="round"/>
<path d="M120.379 101.317L126.435 104.984" stroke="#7B36B6" stroke-linecap="round" stroke-linejoin="round"/>
<path d="M116.104 101.696L121.689 105.064" stroke="#7B36B6" stroke-width="0.75" stroke-linecap="round" stroke-linejoin="round"/>
<path d="M114.737 103.742L121.931 108.087" stroke="#7B36B6" stroke-width="0.75" stroke-linecap="round" stroke-linejoin="round"/>
<path d="M114.737 106.616L123.62 111.973" stroke="#7B36B6" stroke-width="0.75" stroke-linecap="round" stroke-linejoin="round"/>
<path d="M114.737 109.49L125.631 116.065" stroke="#7B36B6" stroke-width="0.75" stroke-linecap="round" stroke-linejoin="round"/>
</svg>
