<svg width="51" height="51" viewBox="0 0 51 51" fill="none" xmlns="http://www.w3.org/2000/svg">
<path fill-rule="evenodd" clip-rule="evenodd" d="M24.7043 4.03716C22.6131 3.48018 22.8123 0 25.302 0C27.7917 0 27.9909 3.48023 25.8996 4.03717V9.50977H31.1318V3.34205C31.1318 3.01214 31.3999 2.74438 31.7295 2.74438H35.2638C35.4774 1.95013 36.1278 1.28625 37.2151 1.28625C39.921 1.28625 39.9213 5.39819 37.2151 5.39819C36.1276 5.39819 35.4771 4.73412 35.2637 3.93972H32.3272V9.50977H39.6999C40.6723 9.50977 41.4639 10.3014 41.4639 11.2738V18.6465H47.0327V15.7395C44.9413 15.1827 45.1407 11.7023 47.6301 11.7023C50.1195 11.7023 50.319 15.1822 48.228 15.7394V19.2442C48.2286 19.5747 47.9609 19.8419 47.631 19.8419H41.4639V24.7308H46.9668C47.1803 23.9366 47.8305 23.2728 48.9175 23.2728C51.6235 23.2728 51.6237 27.3847 48.9175 27.3847C47.8303 27.3847 47.18 26.7206 46.9667 25.9262H41.4639V31.1581H47.6307C47.9606 31.1581 48.2283 31.4261 48.2283 31.7557V35.2608C50.3182 35.8185 50.119 39.298 47.6299 39.298C45.1404 39.298 44.9416 35.8172 47.0327 35.2605V32.3534H41.4639V39.726C41.4633 40.6987 40.672 41.4903 39.6996 41.4903H32.3272V47.0595H35.264C35.4777 46.2656 36.128 45.6022 37.215 45.6022C39.9206 45.6022 39.9209 49.7138 37.215 49.7138C36.1274 49.7138 35.477 49.0496 35.2636 48.2551H31.7295C31.3996 48.2551 31.1318 47.9871 31.1318 47.6575V41.4903H26.2423V46.9626C28.3339 47.519 28.1354 51 25.6455 51C23.1567 51 22.9572 47.5209 25.0469 46.9631V41.4903H19.8156V47.6578C19.8156 47.9874 19.5478 48.2549 19.2179 48.2549V48.2552H15.683C15.4696 49.0496 14.8191 49.7138 13.7316 49.7138C11.026 49.7138 11.0254 45.6022 13.7316 45.6022C14.8188 45.6022 15.4692 46.2658 15.6828 47.0599H18.6203V41.4903H11.2474C10.275 41.4903 9.4834 40.6987 9.4834 39.726V32.3534H3.91311V35.2604C6.00451 35.8173 5.8049 39.298 3.31568 39.298C0.826645 39.298 0.626879 35.8178 2.71777 35.2606V31.7557C2.71777 31.4258 2.98553 31.1581 3.31544 31.1581H9.4834V26.2693H3.98054C3.7669 27.0636 3.11646 27.7275 2.02945 27.7275C-0.675885 27.7275 -0.677081 23.6153 2.02945 23.6153C3.11718 23.6153 3.76756 24.2795 3.98084 25.074H9.4834V19.842H3.31544C2.98553 19.842 2.71777 19.5742 2.71777 19.2443V15.7394C0.627166 15.1821 0.826272 11.7023 3.31579 11.7023C5.80558 11.7023 6.00446 15.1828 3.91311 15.7396V18.6466H9.4834V11.2738C9.4834 10.3014 10.275 9.50977 11.2474 9.50977H18.6203V3.93975H15.6832C15.4697 4.73414 14.8192 5.39819 13.7317 5.39819C11.0258 5.39819 11.0255 1.28625 13.7317 1.28625C14.8191 1.28625 15.4696 1.95015 15.6831 2.74442H19.2179C19.5478 2.74442 19.8156 3.01218 19.8156 3.34209V9.50977H24.7043V4.03716ZM3.31568 36.3814L3.31544 36.3814L3.31165 36.3814C2.18283 36.3855 2.18416 38.1023 3.31568 38.1023C4.44855 38.1023 4.44825 36.3814 3.31568 36.3814ZM25.302 1.19503C24.1688 1.19503 24.1694 2.91661 25.302 2.91661C26.4342 2.91661 26.4342 1.19503 25.302 1.19503ZM37.2151 2.48159C36.0822 2.48159 36.0828 4.20316 37.2151 4.20316C38.3474 4.20316 38.348 2.48159 37.2151 2.48159ZM13.7317 2.48159C12.5988 2.48159 12.5988 4.20316 13.7317 4.20316C14.8646 4.20316 14.8649 2.48159 13.7317 2.48159ZM11.2474 10.7054C10.9339 10.7054 10.6787 10.9606 10.6787 11.2741V39.7263C10.6787 40.04 10.9339 40.2949 11.2474 40.2949H39.6999C40.0134 40.2949 40.268 40.04 40.268 39.7263V11.2744C40.268 10.9609 40.0131 10.7057 39.6999 10.7057H11.2474V10.7054ZM13.8311 20.0974C13.8311 20.4273 14.0988 20.6951 14.4287 20.6951C14.7592 20.6951 15.0264 20.4276 15.0264 20.0974V15.0531H20.0707C20.8575 15.0531 20.8575 13.8578 20.0707 13.8578H14.4287C14.0988 13.8578 13.8311 14.1255 13.8311 14.4555V20.0974ZM36.5169 20.6951C36.1871 20.6949 35.9195 20.4272 35.9195 20.0974V15.0531H30.8752C30.0884 15.0531 30.0887 13.8578 30.8752 13.8578H36.5175C36.8474 13.8578 37.1151 14.1256 37.1151 14.4555V20.0974C37.1151 20.4276 36.8471 20.6951 36.5169 20.6951ZM14.4287 37.1428C14.0988 37.1428 13.8311 36.8747 13.8311 36.5451V30.9029C13.8311 30.116 15.0264 30.1163 15.0264 30.9029V35.9472H20.0707C20.8575 35.9472 20.8572 37.1431 20.0707 37.1431V37.1428H14.4287ZM30.8752 37.1428H36.5172C36.8474 37.1428 37.1154 36.8747 37.1148 36.5451V30.9028C37.1148 30.1163 35.9195 30.116 35.9195 30.9028V35.9474H30.8752C30.0887 35.9474 30.0884 37.1428 30.8752 37.1428ZM48.9175 24.4678C47.7858 24.4678 47.7858 26.1888 48.9175 26.1888C50.0504 26.1888 50.0498 24.4678 48.9175 24.4678ZM47.6299 36.3814C46.497 36.3814 46.4976 38.1024 47.6299 38.1024C48.7622 38.1024 48.7622 36.3814 47.6299 36.3814ZM47.6301 12.8973C46.4973 12.8973 46.4979 14.6186 47.6301 14.6186C48.7624 14.6186 48.7624 12.8973 47.6301 12.8973ZM25.6455 48.0837C24.5132 48.0837 24.5132 49.8044 25.6455 49.8044C26.778 49.8044 26.778 48.0837 25.6455 48.0837ZM13.7316 46.7972C12.5987 46.7972 12.5987 48.5176 13.7316 48.5176C14.8642 48.5176 14.8648 46.7972 13.7316 46.7972ZM37.215 46.7972C36.0821 46.7972 36.0827 48.5176 37.215 48.5176C38.347 48.5176 38.3479 46.7972 37.215 46.7972ZM2.02945 24.8106C0.896275 24.8106 0.896573 26.5316 2.02945 26.5316C3.16232 26.5316 3.16173 24.8106 2.02945 24.8106ZM3.31579 12.8973C2.18262 12.8973 2.18291 14.6186 3.31579 14.6186C4.44867 14.6186 4.44867 12.8973 3.31579 12.8973ZM18.1913 25.5C18.1913 29.5151 21.4576 32.7814 25.4727 32.7814C29.4878 32.7814 32.7543 29.5151 32.7543 25.5003C32.7543 21.4852 29.4872 18.2186 25.4727 18.2186C21.4579 18.2186 18.1913 21.4852 18.1913 25.5ZM19.386 25.5003C19.386 22.1441 22.1168 19.4137 25.4727 19.4137C28.8289 19.4137 31.559 22.1444 31.559 25.5003C31.559 28.8562 28.8283 31.586 25.4727 31.586C22.1171 31.586 19.386 28.8562 19.386 25.5003Z" fill="url(#paint0_linear_336_555)"/>
<defs>
<linearGradient id="paint0_linear_336_555" x1="50.9474" y1="2.15954e-06" x2="-3.80992" y2="44.6724" gradientUnits="userSpaceOnUse">
<stop stop-color="#7B36B6"/>
<stop offset="1" stop-color="#1BA3FF"/>
</linearGradient>
</defs>
</svg>
