<svg width="41" height="47" viewBox="0 0 41 47" fill="none" xmlns="http://www.w3.org/2000/svg">
<path fill-rule="evenodd" clip-rule="evenodd" d="M24.9072 5.01187C24.9072 5.04408 24.9053 5.07658 24.9035 5.10905C24.8996 5.17968 24.8956 5.25016 24.9102 5.31706C25.2832 7.04579 24.551 8.18605 22.992 8.85094C21.2571 9.59073 20.4715 10.8166 20.8979 12.718C20.93 12.8632 20.953 13.0451 20.8934 13.1705C20.8274 13.3098 20.7259 13.4322 20.6244 13.5545C20.5801 13.6079 20.5358 13.6613 20.4944 13.7161C20.4438 13.6583 20.3811 13.6016 20.3184 13.5448C20.1821 13.4215 20.0459 13.2983 20.0344 13.1643C20.0036 12.8093 20.0016 12.4516 19.9996 12.0942C19.9973 11.6869 19.9951 11.2799 19.9503 10.8777C19.9151 10.5552 19.7057 10.1578 19.4489 9.96827C18.9364 9.59222 18.4063 9.24008 17.8763 8.88804L17.8763 8.88803L17.8763 8.88802L17.8763 8.88801L17.8763 8.888L17.8763 8.88799L17.8762 8.88799L17.8762 8.88798L17.8762 8.88797L17.8762 8.88796L17.8762 8.88795L17.8762 8.88794L17.8762 8.88793L17.8762 8.88793L17.8762 8.88792L17.8761 8.88791C17.3679 8.55029 16.8598 8.21276 16.3675 7.85436C16.1275 7.68011 15.9196 7.29952 15.9074 7.00605C15.8585 5.70989 15.8631 4.40914 15.9044 3.11145C15.9135 2.83479 16.0863 2.45419 16.3064 2.31052C17.4986 1.53404 18.7183 0.797308 19.9579 0.0972584C20.1841 -0.031135 20.6045 -0.0326641 20.8292 0.0942008C21.5008 0.470734 22.1593 0.870369 22.8182 1.27015L22.8182 1.27018C23.3334 1.58282 23.8488 1.89556 24.3707 2.19741C24.7757 2.43127 24.9393 2.7171 24.9148 3.18176C24.8914 3.60623 24.8969 4.03144 24.9024 4.45688V4.45693V4.45697V4.45701V4.45706V4.4571V4.45715V4.45719V4.45724V4.45728V4.45732V4.45737V4.45741V4.45746V4.4575V4.45755L24.9024 4.45787C24.9048 4.64251 24.9072 4.82719 24.9072 5.01187ZM20.3981 0.879847L19.1121 1.66521L19.1109 1.66594L19.1067 1.66854L19.1015 1.67169C18.501 2.03833 17.8907 2.41097 17.2449 2.80575C17.5129 2.97364 17.7731 3.13732 18.0277 3.29749L18.0277 3.29752L18.0279 3.29764L18.028 3.29768C18.756 3.75572 19.4384 4.18501 20.1291 4.60173C20.256 4.67815 20.4944 4.71331 20.606 4.64605C21.3411 4.20314 22.0674 3.7444 22.8283 3.26381L22.8283 3.2638C23.0705 3.11085 23.3161 2.95568 23.5667 2.79811C22.4647 2.13168 21.4665 1.52793 20.3981 0.881375V0.879847ZM16.8083 4.48415L16.8083 4.48703C16.8069 5.31687 16.8057 6.05872 16.8184 6.7997C16.8199 6.92962 16.9147 7.10387 17.0217 7.17724C17.7075 7.64975 18.3994 8.11193 19.1579 8.61867L19.1581 8.6188L19.1582 8.61884L19.1585 8.61907L19.1588 8.61927L19.1589 8.61933L19.1594 8.61963L19.1597 8.61986L19.16 8.62004L19.1625 8.6217C19.4135 8.78937 19.6718 8.96193 19.9396 9.14135C19.9396 8.85721 19.94 8.58202 19.9404 8.3137V8.31341C19.9417 7.43006 19.943 6.62118 19.9289 5.81229C19.9274 5.69154 19.7944 5.53564 19.6797 5.46227C18.9627 4.99813 18.2397 4.54385 17.4252 4.03209C17.2257 3.9068 17.0209 3.77806 16.8092 3.64489V3.64336C16.8092 3.93494 16.8088 4.2142 16.8083 4.48415ZM23.1956 4.14242L23.1955 4.14249L23.1953 4.14261L23.1952 4.14263L23.1949 4.14286L23.1947 4.14296L23.1943 4.14324C22.455 4.60931 21.7858 5.03113 21.1226 5.46227C21.0095 5.53564 20.8857 5.6946 20.8827 5.81535C20.8686 6.62125 20.8698 7.42625 20.8711 8.30741V8.30752V8.30762V8.30774V8.30785V8.30796V8.30808V8.3082V8.30832V8.30844V8.30856V8.30869V8.30881V8.30894V8.30907V8.3092V8.31071V8.31224V8.3138V8.31538V8.31699V8.31861V8.32027V8.32195V8.32365V8.32538V8.32714V8.32893V8.33074C20.8716 8.59201 20.872 8.86002 20.872 9.13677C21.1528 8.94821 21.423 8.76745 21.6851 8.59212C22.4342 8.09096 23.1169 7.6342 23.7929 7.16654C23.8953 7.09623 23.9748 6.9174 23.9763 6.78747C23.9877 6.05714 23.9864 5.32596 23.985 4.51777V4.51641V4.51502V4.5136V4.51214V4.51066V4.50915V4.5076V4.50603C23.9845 4.2286 23.984 3.94207 23.984 3.64336V3.64489C23.7112 3.81739 23.4492 3.98251 23.1956 4.14242ZM0.153178 13.7268V13.117C0.153178 11.8371 0.697322 10.8742 1.78561 10.2281C2.02146 10.0881 2.25588 9.94553 2.49027 9.80295C3.05945 9.45673 3.62848 9.11059 4.21744 8.80204C4.4513 8.67976 4.86094 8.66906 5.08563 8.79592C6.30384 9.48069 7.5037 10.1991 8.67147 10.9649C8.91144 11.1208 9.10709 11.5182 9.12085 11.8147C9.14778 12.4064 9.14557 12.9997 9.14335 13.5932V13.5933V13.5933V13.5933V13.5934V13.5934V13.5934V13.5935V13.5935V13.5935V13.5936V13.5936V13.5936V13.5937V13.5937V13.5937V13.5937V13.5938V13.5938V13.5938V13.5939C9.14129 14.1454 9.13924 14.6971 9.16059 15.2477C9.17129 15.5182 9.35929 15.8621 9.57481 16.0318C9.92641 16.3058 10.2955 16.5582 10.6647 16.8107L10.6647 16.8107C11.0514 17.0752 11.4381 17.3398 11.8049 17.6291C11.9531 17.7458 12.0268 17.9557 12.1007 18.1658C12.1342 18.2613 12.1678 18.3569 12.2084 18.4438C12.1094 18.4366 12.0046 18.4393 11.8998 18.442C11.6698 18.4479 11.44 18.4538 11.273 18.3551C10.553 17.9302 9.86981 17.435 9.20339 16.929C8.84419 16.6554 8.56142 16.6478 8.19305 16.9061C7.72679 17.2344 7.25317 17.5529 6.77955 17.8714L6.77948 17.8715L6.77943 17.8715L6.77938 17.8715L6.77933 17.8716L6.77928 17.8716L6.77923 17.8717L6.77918 17.8717L6.77914 17.8717L6.77909 17.8718L6.77904 17.8718L6.77899 17.8718L6.77894 17.8719L6.77889 17.8719L6.77884 17.8719L6.7788 17.872L6.77875 17.872L6.7787 17.872L6.77865 17.8721L6.7786 17.8721C6.24022 18.2342 5.70184 18.5963 5.17428 18.9726C4.80438 19.2371 4.53231 19.2416 4.15477 18.9772C3.64425 18.6194 3.12491 18.2749 2.60571 17.9306L2.60569 17.9305L2.60568 17.9305L2.60566 17.9305L2.60565 17.9305L2.60563 17.9305L2.60562 17.9305L2.6056 17.9305L2.60559 17.9305L2.60557 17.9305L2.60556 17.9304L2.60554 17.9304L2.60553 17.9304L2.60551 17.9304L2.6055 17.9304L2.60548 17.9304L2.60547 17.9304L2.60545 17.9304L2.60544 17.9303L2.60541 17.9303L2.60534 17.9303L2.6053 17.9303C1.96033 17.5025 1.31556 17.0748 0.688151 16.6218C0.428307 16.4338 0.217375 16.0364 0.177634 15.7124C0.122932 15.2554 0.133712 14.7895 0.144481 14.324C0.149059 14.1261 0.153634 13.9284 0.153178 13.7314V13.7268ZM7.80329 11.5121C7.56648 11.368 7.33393 11.2261 7.10455 11.0862C6.34343 10.6219 5.61712 10.1789 4.88539 9.74665C4.7784 9.68398 4.57358 9.66869 4.4727 9.7283C3.74108 10.1571 3.01645 10.5981 2.25651 11.0607L2.25627 11.0608C2.0113 11.2099 1.76267 11.3612 1.50895 11.5151L2.53876 12.1713L2.53992 12.1721L2.54887 12.1778L2.55102 12.1791C3.27137 12.6382 3.95819 13.0759 4.65918 13.522L5.84182 12.7659C6.47667 12.36 7.12349 11.9464 7.80329 11.5121ZM4.20369 17.8675C4.20369 17.5472 4.20431 17.2433 4.2049 16.9516V16.9515V16.9515V16.9515V16.9515V16.9514V16.9514V16.9514V16.9513V16.9513V16.9513V16.9512V16.9512V16.9512V16.9512V16.9511V16.9511V16.9511V16.951V16.951C4.20659 16.1209 4.20809 15.3893 4.19451 14.6577C4.19146 14.5033 4.09822 14.2878 3.97594 14.2068C3.31759 13.7735 2.65031 13.3556 1.92736 12.9028C1.65833 12.7343 1.38159 12.561 1.09473 12.3802C1.09473 12.664 1.09437 12.9379 1.09403 13.2043V13.2044V13.2044V13.2045V13.2045V13.2045V13.2046V13.2046V13.2047V13.2047V13.2048V13.2048V13.2048V13.2049V13.2049V13.205V13.205V13.205V13.2051L1.09403 13.2053C1.09294 14.042 1.09194 14.8049 1.10237 15.5687C1.10237 15.6757 1.19103 15.8194 1.28121 15.882C2.00012 16.3782 2.72377 16.8667 3.5314 17.4119C3.74889 17.5588 3.97247 17.7097 4.20369 17.866V17.8675ZM5.14371 17.8431L5.71898 17.4559C6.54543 16.8997 7.29332 16.3965 8.03715 15.8881C8.11357 15.8362 8.20375 15.7322 8.20528 15.6527C8.214 14.8007 8.21358 13.9487 8.21313 13.0255L8.21292 12.3848C7.97113 12.5361 7.7379 12.6814 7.51144 12.8224L7.51136 12.8225L7.51133 12.8225C6.78585 13.2744 6.12988 13.6831 5.48456 14.1059C5.33477 14.2037 5.16358 14.4101 5.15899 14.5706C5.13722 15.3429 5.1395 16.116 5.14201 16.9654V16.9654C5.14285 17.2486 5.14371 17.5402 5.14371 17.8431ZM40.7587 14.0692C40.7587 14.1417 40.755 14.2147 40.7514 14.2877C40.7434 14.4458 40.7355 14.6039 40.7648 14.7555C41.0338 16.1312 40.4285 16.9841 39.2302 17.6016C38.4562 18.0018 37.7426 18.5313 37.0383 19.054L36.9481 19.1209C36.4697 19.4755 36.0876 19.5107 35.5878 19.1438C34.6264 18.4377 33.6328 17.7697 32.6164 17.143C32.4085 17.0146 31.9943 17.0345 31.765 17.1568C31.3723 17.3661 30.9977 17.6082 30.623 17.8504C30.3355 18.0363 30.0479 18.2221 29.752 18.3933C29.6911 18.4285 29.6272 18.4725 29.5614 18.5179C29.2609 18.7251 28.921 18.9595 28.6438 18.4942C28.3933 18.0729 28.726 17.8974 29.0274 17.7384C29.1011 17.6995 29.1729 17.6617 29.2338 17.6215C29.5036 17.4424 29.7806 17.2736 30.0576 17.1048C30.4758 16.8499 30.8939 16.5951 31.2866 16.3054C31.5235 16.1296 31.7344 15.7597 31.7482 15.4678C31.7744 14.9197 31.772 14.3701 31.7696 13.8207V13.8206V13.8206V13.8205V13.8205V13.8204V13.8204V13.8204V13.8203V13.8203V13.8202V13.8202V13.8202V13.8201V13.8201V13.82V13.82V13.82V13.8199V13.8199V13.8198C31.767 13.2495 31.7645 12.6794 31.7941 12.1112C31.8109 11.7918 32.0218 11.3684 32.2801 11.1972C33.402 10.4528 34.5576 9.75583 35.7376 9.10927C36.0051 8.96254 36.4881 8.95489 36.7525 9.1001C37.934 9.74512 39.0926 10.4391 40.2099 11.1865C40.4866 11.3714 40.6884 11.8147 40.7357 12.1647C40.7949 12.6046 40.7822 13.0535 40.7694 13.5029V13.503V13.5031V13.5032V13.5033V13.5034V13.5035V13.5036V13.5037V13.5038V13.504V13.5041V13.5042V13.5043V13.5044V13.5045V13.5046V13.5047V13.5048V13.5049C40.764 13.6936 40.7587 13.8825 40.7587 14.0708V14.0692ZM39.3876 11.7795C39.145 11.6299 38.9088 11.4832 38.6772 11.3394C37.9485 10.8869 37.265 10.4625 36.5691 10.06C36.4132 9.96981 36.1166 9.95912 35.9638 10.0478C35.268 10.4501 34.5847 10.8742 33.8774 11.3134L33.8773 11.3134C33.6306 11.4666 33.381 11.6215 33.1269 11.778C33.3652 11.9329 33.5986 12.0858 33.8287 12.2366L33.8288 12.2366C34.5479 12.7077 35.235 13.1579 35.9378 13.5816C36.1014 13.681 36.4346 13.6627 36.6058 13.5602C37.2787 13.1546 37.9375 12.7247 38.6373 12.2679C38.8816 12.1084 39.1309 11.9457 39.3876 11.7795ZM36.7112 18.1289C36.9488 17.9689 37.179 17.8143 37.4033 17.6637C38.1859 17.138 38.8964 16.6607 39.5985 16.1724C39.7071 16.0975 39.811 15.9264 39.8125 15.798C39.8252 15.0433 39.824 14.2879 39.8226 13.4592V13.458C39.8222 13.1893 39.8217 12.9129 39.8217 12.6263C39.5996 12.7683 39.3841 12.9058 39.174 13.04L39.1739 13.0401C38.3773 13.5484 37.6571 14.0081 36.9436 14.4773C36.8335 14.5507 36.7219 14.7173 36.7204 14.8427C36.7063 15.6306 36.7075 16.4194 36.7089 17.2964L36.7089 17.3016C36.7093 17.5679 36.7097 17.8424 36.7097 18.1274L36.7112 18.1289ZM35.7727 18.1045C35.7727 17.8375 35.7729 17.5811 35.773 17.3327C35.7736 16.497 35.774 15.7524 35.7681 15.0077C35.7681 14.861 35.7635 14.6378 35.6764 14.5782C34.9433 14.0839 34.1992 13.6043 33.4009 13.0897C33.1673 12.9392 32.9291 12.7856 32.6852 12.6279C32.6852 12.9277 32.6841 13.2133 32.683 13.4882V13.4894V13.4906V13.4918V13.4929V13.494V13.4951V13.4961V13.4972V13.4982V13.4991V13.5001V13.501V13.5019V13.5028V13.5037V13.5045V13.5054V13.5062V13.507V13.5075V13.5077V13.5078V13.5079V13.5081V13.5082V13.5083V13.5084V13.5086V13.5087V13.5088V13.5089V13.509V13.5091V13.5092V13.5093V13.5094V13.5095V13.5096C32.6802 14.2828 32.6776 14.9724 32.6989 15.6604C32.705 15.856 32.8273 16.1174 32.9817 16.2259C33.6204 16.6785 34.2733 17.1102 34.9877 17.5825L34.9883 17.5829L34.9907 17.5845C35.243 17.7513 35.503 17.9232 35.7727 18.1029V18.1045ZM20.9145 34.114V34.1139V34.1139V34.1138V34.1138V34.1137V34.1137V34.1136V34.1135V34.1135V34.1134V34.1134V34.1133V34.1133V34.1132V34.1131V34.1131V34.113V34.113C20.9116 33.8722 20.9088 33.6315 20.9088 33.3909H20.9119C20.9119 33.1608 20.9148 32.9306 20.9177 32.7003C20.9252 32.115 20.9326 31.5297 20.892 30.9483C20.8783 30.7503 20.7558 30.5596 20.6334 30.3691L20.6334 30.369L20.6333 30.369L20.6333 30.369L20.6333 30.369L20.6333 30.369L20.6333 30.369L20.6333 30.3689L20.6333 30.3689L20.6333 30.3689L20.6333 30.3689L20.6332 30.3689L20.6332 30.3689L20.6332 30.3688L20.6332 30.3688L20.6332 30.3688L20.6332 30.3688L20.6332 30.3688L20.6332 30.3687L20.6332 30.3687C20.578 30.2829 20.5229 30.1971 20.4778 30.1107C20.4291 30.1965 20.3679 30.2819 20.3068 30.3672L20.3067 30.3673L20.3067 30.3673L20.3067 30.3673L20.3067 30.3673L20.3067 30.3673L20.3067 30.3674L20.3067 30.3674L20.3067 30.3674L20.3067 30.3674L20.3066 30.3674L20.3066 30.3674L20.3066 30.3675L20.3066 30.3675L20.3066 30.3675L20.3066 30.3675L20.3066 30.3675L20.3066 30.3675L20.3066 30.3676C20.1739 30.5527 20.0413 30.7376 20.0361 30.9269C19.9902 32.4524 19.9612 33.9839 20.03 35.5078C20.0621 36.214 19.7823 36.5518 19.2199 36.8667C18.2431 37.4108 17.2909 38.0023 16.3631 38.626C16.1354 38.7803 15.9152 39.1273 15.9061 39.3933C15.8602 40.7154 15.8618 42.0421 15.9046 43.3643C15.9122 43.6425 16.0941 44.0108 16.3157 44.1683C17.0191 44.6678 17.7382 45.1457 18.4572 45.6235C18.9459 45.9483 19.4347 46.2731 19.9184 46.6047C20.2577 46.837 20.516 46.8554 20.8722 46.6093C21.411 46.2358 21.9579 45.8739 22.5049 45.512L22.505 45.5119L22.505 45.5119L22.505 45.5119L22.5051 45.5119L22.5051 45.5118L22.5051 45.5118L22.5051 45.5118L22.5052 45.5118L22.5052 45.5117L22.5052 45.5117L22.5053 45.5117L22.5053 45.5117L22.5053 45.5117L22.5053 45.5116L22.5054 45.5116L22.5054 45.5116L22.5056 45.5115L22.5058 45.5113C23.1673 45.0736 23.8289 44.6358 24.4763 44.1774C24.698 44.02 24.8768 43.6516 24.886 43.375C24.9303 42.0513 24.9303 40.7261 24.886 39.404C24.8768 39.1349 24.6705 38.7803 24.4442 38.629C23.4721 37.9809 22.4679 37.3772 21.456 36.7918C21.0617 36.564 20.8706 36.3149 20.8966 35.8349C20.9278 35.2623 20.9211 34.6881 20.9145 34.114ZM18.0032 39.6274C17.7561 39.4697 17.5041 39.3088 17.245 39.1441V39.1426C17.4942 38.9935 17.7377 38.8474 17.977 38.7037L17.9908 38.6955L18.0031 38.6881L18.0036 38.6878C18.7629 38.232 19.4805 37.8012 20.2042 37.3818C20.3097 37.3222 20.5099 37.3252 20.6154 37.3863C21.3341 37.8034 22.0459 38.2324 22.7925 38.6823L22.793 38.6827C23.045 38.8345 23.3009 38.9887 23.5623 39.1456C23.3339 39.2905 23.1102 39.4328 22.89 39.5728L22.89 39.5728L22.8892 39.5733C22.1151 40.0657 21.3844 40.5305 20.6444 40.9814C20.5267 41.0547 20.2929 41.0654 20.1782 40.9951C19.4624 40.559 18.7561 40.1081 18.0033 39.6274L18.0032 39.6274ZM19.9384 44.84L19.9384 44.8402V44.8403V44.8403V44.8404C19.9442 45.0468 19.9504 45.2657 19.9505 45.5026C19.6854 45.3251 19.4294 45.1543 19.1805 44.9884C18.3946 44.4642 17.6799 43.9876 16.9776 43.4942C16.8644 43.4147 16.8171 43.1824 16.814 43.0204C16.8027 42.3276 16.8039 41.634 16.8054 40.8532L16.8054 40.8507C16.8059 40.578 16.8064 40.2947 16.8064 39.997C17.023 40.1344 17.2238 40.2738 17.4166 40.4077C17.8223 40.6894 18.1926 40.9466 18.6008 41.1082C19.8389 41.5989 20.1125 42.4992 19.9612 43.6975C19.9162 44.0571 19.9266 44.4229 19.9384 44.84ZM21.6641 44.9603C21.4066 45.1323 21.1422 45.3088 20.8691 45.4919C20.8691 45.2199 20.8688 44.9565 20.8685 44.7L20.8685 44.6968C20.8674 43.8247 20.8665 43.0308 20.8783 42.2378C20.8798 42.1079 20.9669 41.926 21.0724 41.8572C21.7724 41.3994 22.4794 40.9531 23.2401 40.4728L23.2423 40.4714L23.2442 40.4702C23.4855 40.3179 23.7321 40.1622 23.9857 40.0016C23.9857 40.2783 23.986 40.5455 23.9864 40.8054C23.9875 41.6208 23.9885 42.3649 23.9781 43.109C23.9765 43.2435 23.9184 43.4346 23.8191 43.5034C23.127 43.983 22.4256 44.4516 21.6644 44.96L21.6641 44.9603ZM40.7571 32.2981C41.237 34.1842 40.4391 35.3764 38.7563 36.1774C38.2259 36.4304 37.7444 36.7909 37.265 37.1499L37.265 37.1499L37.2649 37.15L37.2648 37.15L37.2648 37.1501L37.2647 37.1501L37.2646 37.1502L37.2646 37.1502L37.2645 37.1503L37.2644 37.1503L37.2643 37.1504L37.2643 37.1504L37.2631 37.1513C37.109 37.2667 36.9551 37.382 36.7998 37.4934C36.4131 37.7716 36.0845 37.7563 35.6916 37.4827C35.2422 37.1688 34.7864 36.8645 34.3307 36.5601C33.6458 36.1028 32.961 35.6455 32.2984 35.1563C32.0294 34.9576 31.8108 34.5205 31.7909 34.1812C31.7578 33.5921 31.761 33.0013 31.7641 32.4106C31.7669 31.8824 31.7697 31.3544 31.7466 30.8277C31.7359 30.5693 31.5173 30.23 31.2942 30.0863C30.85 29.799 30.3844 29.5446 29.9184 29.2901L29.9183 29.29C29.6482 29.1425 29.3779 28.9948 29.1115 28.8406C29.0721 28.8179 29.03 28.7953 28.987 28.7722C28.6864 28.6109 28.3446 28.4275 28.6147 28.0183C28.7095 27.8761 29.2567 27.9021 29.5165 28.0229C29.8919 28.1981 30.2534 28.4037 30.615 28.6095C30.9821 28.8183 31.3494 29.0273 31.7313 29.2044C31.9942 29.3251 32.4237 29.3282 32.6713 29.1922C33.6511 28.6587 34.6049 28.0702 35.5388 27.4589C36.0248 27.1409 36.4223 27.1073 36.9282 27.4359C37.9316 28.089 38.9649 28.6972 39.996 29.3041L39.9961 29.3042L40.1824 29.4138C40.5981 29.6584 40.7953 29.9686 40.7647 30.4669C40.739 30.8927 40.7448 31.3201 40.7506 31.7473V31.7474C40.7531 31.9305 40.7555 32.1136 40.7555 32.2965L40.7571 32.2981ZM33.1238 30.0573C33.3762 30.2208 33.622 30.381 33.8633 30.5382C34.5849 31.0083 35.2653 31.4516 35.9561 31.8777C36.0936 31.9633 36.3657 31.9862 36.4941 31.9068C37.1948 31.4793 37.8837 31.0326 38.6101 30.5614L38.6106 30.5611L38.6106 30.5611L38.6107 30.5611L38.6107 30.561L38.6108 30.561C38.8634 30.3971 39.1206 30.2303 39.3845 30.0604C39.1248 29.8995 38.8722 29.7416 38.6245 29.5867C37.8997 29.1335 37.2164 28.7063 36.517 28.3087C36.355 28.217 36.0248 28.2827 35.8399 28.3897C35.1992 28.761 34.5707 29.1535 33.8928 29.5768L33.8927 29.5769L33.8924 29.5771L33.8923 29.5772L33.8918 29.5775L33.891 29.578C33.6429 29.7329 33.3882 29.8921 33.1238 30.0558V30.0573ZM39.8277 30.9025C39.5533 31.0782 39.2887 31.2471 39.0316 31.4112C38.2932 31.8824 37.6161 32.3145 36.945 32.7566C36.8349 32.8284 36.7264 32.9966 36.7249 33.1219C36.7108 33.9144 36.712 34.707 36.7134 35.5733V35.5751V35.5769V35.5788V35.5807V35.5827C36.7138 35.8428 36.7142 36.1097 36.7142 36.3853C36.9937 36.2012 37.2645 36.0242 37.5284 35.8516L37.5286 35.8515L37.5286 35.8515L37.5286 35.8514L37.5287 35.8514L37.5287 35.8514L37.5287 35.8514L37.5288 35.8514L37.5294 35.851C38.2627 35.3715 38.9433 34.9264 39.6107 34.4624C39.7421 34.3707 39.814 34.1154 39.817 33.9336C39.8316 33.2469 39.8298 32.561 39.8277 31.7924V31.7924V31.7923V31.7923V31.7922V31.7921V31.7921V31.792V31.792V31.7919V31.7918V31.7918V31.7917V31.7917V31.7916V31.7915V31.7915V31.7914V31.7903V31.7892V31.788V31.7869V31.7857V31.7845V31.7832V31.7819V31.7806V31.7792V31.7778V31.7764C39.827 31.4978 39.8262 31.2084 39.8262 30.9041L39.8277 30.9025ZM32.683 31.7523V31.7473V31.7422L32.683 31.7371C32.6833 31.4697 32.6836 31.1939 32.6836 30.9066C32.919 31.0562 33.1472 31.2006 33.3695 31.3412L33.3784 31.3468L33.38 31.3478L33.381 31.3485L33.3874 31.3525L33.3881 31.3529L33.3883 31.353C34.1435 31.8307 34.8309 32.2655 35.5067 32.7184C35.6443 32.8101 35.7543 33.0455 35.7589 33.2167C35.777 33.9505 35.775 34.6843 35.7727 35.4956C35.7719 35.7776 35.7711 36.069 35.7711 36.373C35.5368 36.2171 35.3077 36.0652 35.0828 35.9161L35.0824 35.9158L35.0819 35.9155L35.0819 35.9155L35.0819 35.9155L35.0818 35.9154L35.0818 35.9154L35.0818 35.9154L35.0817 35.9154L35.0817 35.9153L35.0817 35.9153L35.0816 35.9153L35.0816 35.9153L35.0816 35.9153L35.0815 35.9152L35.0815 35.9152L35.0815 35.9152L35.0814 35.9152C34.2857 35.3875 33.543 34.8949 32.8104 34.3875C32.7172 34.3233 32.6881 34.117 32.6881 33.9748C32.6813 33.2602 32.6821 32.5455 32.683 31.7572V31.7523ZM2.21365 28.1835C0.769058 29.1674 -0.439763 29.9906 0.155025 31.6744L0.156554 31.6728C0.156554 31.9809 0.151081 32.2582 0.146032 32.514C0.135072 33.0693 0.126113 33.5233 0.179481 33.9702C0.217693 34.2957 0.422512 34.6962 0.680828 34.8842C1.81038 35.705 2.97204 36.4876 4.16273 37.2167C4.41035 37.368 4.91323 37.3665 5.16237 37.2136C6.35307 36.483 7.51472 35.7004 8.64428 34.8781C8.89801 34.6931 9.10435 34.2804 9.12117 33.961C9.17925 32.8696 9.15785 31.7737 9.13492 30.6793C9.12575 30.2513 9.22663 29.9823 9.65003 29.7867C10.3638 29.4581 11.0624 29.0836 11.7227 28.6571C11.8718 28.5615 11.9553 28.3627 12.0386 28.1643C12.0765 28.074 12.1143 27.9839 12.1583 27.9036C12.071 27.897 11.982 27.8836 11.8931 27.8703C11.6941 27.8405 11.4952 27.8108 11.3146 27.8562C11.0027 27.9341 10.6833 28.0977 10.4387 28.3071C9.22663 29.3434 8.06498 29.186 6.96446 28.1695C5.39929 26.7236 4.00071 26.9666 2.29033 28.1313L2.21365 28.1835ZM7.17034 29.4091C7.37447 29.5348 7.58121 29.6621 7.79138 29.7913H7.79444C7.53741 29.9576 7.28671 30.1207 7.0405 30.2808L7.03581 30.2838L7.03542 30.2841L7.03535 30.2841C6.29953 30.7626 5.60377 31.2151 4.89947 31.653C4.78177 31.7248 4.5418 31.7248 4.42563 31.653C3.6955 31.2002 2.97548 30.7327 2.20427 30.232L2.20418 30.2319L2.20393 30.2318C1.98073 30.0868 1.75324 29.9391 1.51997 29.7882C1.77054 29.6353 2.01543 29.4853 2.25619 29.3378L2.25633 29.3377L2.25655 29.3376L2.25724 29.3372C3.01478 28.8732 3.73154 28.4342 4.45621 28.0075C4.56014 27.9464 4.76802 27.9494 4.87348 28.0121C5.63124 28.4614 6.38127 28.9233 7.17034 29.4091ZM1.08403 31.4119V31.4117V31.4114V31.4112V31.4109V31.4107V31.4104V31.4101V31.4098C1.08419 31.1626 1.08435 30.9072 1.08435 30.6411V30.6396C1.37485 30.8239 1.65371 30.9992 1.92355 31.1688L1.92359 31.1688L1.92373 31.1689C2.63631 31.6169 3.28601 32.0253 3.92123 32.4554C4.07561 32.5594 4.18719 32.8314 4.19331 33.0286C4.21327 33.7264 4.2107 34.4241 4.20778 35.2136C4.20668 35.512 4.20553 35.8234 4.20553 36.1529C3.9561 35.9814 3.71373 35.8151 3.47697 35.6528L3.47614 35.6522L3.46805 35.6466L3.46131 35.642L3.46088 35.6417L3.46084 35.6417C2.65924 35.092 1.92169 34.5862 1.19134 34.0695C1.11339 34.0145 1.08894 33.8418 1.08894 33.7225C1.08305 32.984 1.08351 32.2446 1.08403 31.4119ZM7.4897 31.1115L7.49019 31.1112C7.72898 30.9595 7.97401 30.8039 8.227 30.6426C8.227 30.9508 8.22808 31.2436 8.22913 31.5251V31.5252V31.5253V31.5254V31.5254V31.5255V31.5256V31.5256V31.5257V31.5257V31.5258V31.5259V31.5259V31.526V31.526V31.5261V31.5261V31.5262C8.232 32.3026 8.23455 32.9931 8.21324 33.6828C8.20713 33.8769 8.08026 34.1352 7.92436 34.2453C7.27773 34.7023 6.6166 35.1387 5.89563 35.6147C5.652 35.7756 5.40154 35.9409 5.1425 36.1131C5.1425 35.8457 5.14218 35.5861 5.14187 35.3327V35.3323V35.3318V35.3314V35.331V35.3306V35.3302V35.3298V35.3294V35.329V35.3287V35.3283V35.3279V35.3275V35.3272V35.3268V35.3267C5.14082 34.4598 5.13986 33.6643 5.15167 32.8696C5.1532 32.7397 5.24032 32.5594 5.34579 32.4906C6.03406 32.036 6.73029 31.5938 7.48964 31.1115L7.4897 31.1115ZM11.904 22.3465C11.9073 22.5579 11.9106 22.7693 11.9106 22.9803H11.9091V23.8179C11.9091 26.2833 11.9595 26.3246 14.4846 26.0158C15.9428 25.837 16.7498 24.8985 16.8706 23.2432C16.9837 21.6841 16.2393 20.4399 14.8805 20.1571C14.0994 19.9951 13.2694 20.0134 12.4655 20.0517C12.2713 20.0608 11.958 20.4582 11.9366 20.6982C11.8869 21.244 11.8955 21.7954 11.904 22.3465ZM13.5397 25.1563C13.3121 25.15 13.082 25.1436 12.8537 25.1568H12.8522V21.0452C13.9909 20.715 15.1159 20.9458 15.5851 21.6C16.0712 22.2787 16.117 23.662 15.6524 24.3681C15.1063 25.1998 14.3388 25.1785 13.5397 25.1563ZM26.3528 26.1046C24.6669 26.0955 23.3585 24.7366 23.3692 23.0064C23.3814 21.296 24.7311 19.9601 26.4262 19.98C28.0861 19.9998 29.3563 21.3281 29.3548 23.0431C29.3533 24.8085 28.0709 26.1153 26.3513 26.1062L26.3528 26.1046ZM28.4591 23.0568C28.4667 21.8218 27.5848 20.8864 26.4033 20.8726C25.2386 20.8604 24.2894 21.8019 24.2664 22.9926C24.2435 24.246 25.1575 25.2059 26.3758 25.2059C27.5695 25.2059 28.4514 24.2949 28.4576 23.0568H28.4591ZM20.1472 24.5865L20.148 24.5867H20.1465L20.1472 24.5865ZM21.7545 25.6261C21.5405 24.7398 21.0883 24.3042 20.1472 24.5865C19.2123 24.3149 18.7402 24.7245 18.5324 25.623C18.5041 25.7437 18.3324 25.8319 18.1613 25.9199L18.1613 25.9199C18.0831 25.9601 18.0051 26.0002 17.9409 26.0434C17.9156 25.9692 17.878 25.8905 17.8403 25.8119C17.7593 25.6428 17.6785 25.4741 17.7223 25.351C18.3245 23.6834 18.9634 22.028 19.6222 20.3818C19.6895 20.2137 19.9692 20.0104 20.1282 20.0272C20.3299 20.0501 20.6081 20.2412 20.683 20.4277C21.3357 22.0509 21.9654 23.6834 22.5585 25.328C22.6053 25.4572 22.5301 25.6303 22.4547 25.8039L22.4547 25.804C22.4195 25.8851 22.3842 25.9664 22.3613 26.0434C22.2946 25.9996 22.2133 25.9594 22.1319 25.9191C21.9577 25.833 21.7836 25.747 21.7545 25.6261ZM20.0716 21.7223H20.252L20.2504 21.7239C20.4736 22.3291 20.6968 22.9344 20.9474 23.6131H19.3349C19.5917 22.9558 19.8316 22.3398 20.0716 21.7223ZM36.7469 23.4266C36.7469 23.6176 36.7498 23.8088 36.7526 24.0001C36.76 24.4955 36.7674 24.9909 36.7255 25.4824C36.714 25.6248 36.5805 25.7565 36.4469 25.8882C36.3855 25.9487 36.3242 26.0093 36.2746 26.0709C36.2257 26.009 36.1639 25.9473 36.1022 25.8855C35.9671 25.7504 35.8319 25.6152 35.8298 25.4778C35.8053 24.0808 35.8252 22.6822 35.8741 21.2867C35.8783 21.1612 35.9985 21.0392 36.1185 20.9174C36.1739 20.8612 36.2292 20.8051 36.2731 20.7487C36.3253 20.8052 36.3903 20.8608 36.4554 20.9165C36.5979 21.0386 36.741 21.1611 36.7515 21.2943C36.7937 21.807 36.7867 22.3245 36.7797 22.8416V22.8416V22.8417V22.8417V22.8418V22.8419V22.8419V22.842V22.842V22.8421V22.8421V22.8422C36.777 23.0372 36.7744 23.232 36.7744 23.4266H36.7469ZM30.0823 11.0183C30.4675 11.2368 30.8068 11.2353 30.975 10.6835C30.9448 10.642 30.917 10.5955 30.8889 10.5486L30.8889 10.5486C30.8259 10.4433 30.7618 10.336 30.6677 10.28C29.4495 9.55243 28.2283 8.82945 26.9856 8.14621C26.877 8.0867 26.7085 8.1363 26.54 8.1859C26.4619 8.20891 26.3837 8.23193 26.3115 8.24404C26.3347 8.31751 26.3515 8.39789 26.3683 8.47829C26.4056 8.65716 26.4429 8.83616 26.5515 8.9395C26.7232 9.10482 26.9448 9.21871 27.1665 9.33262L27.1666 9.33265L27.1666 9.33267L27.1666 9.3327L27.1667 9.33272L27.1667 9.33275L27.1668 9.33278L27.1668 9.3328L27.1669 9.33283L27.1669 9.33285L27.167 9.33288C27.2649 9.38317 27.3628 9.43347 27.4564 9.48823C27.7209 9.64269 27.9851 9.798 28.2495 9.95334L28.2498 9.95353L28.2498 9.95355L28.2499 9.95357L28.2499 9.95359L28.2499 9.95361L28.25 9.95363L28.25 9.95365L28.25 9.95367L28.2501 9.95369L28.2501 9.95371L28.2501 9.95373C28.8592 10.3117 29.4685 10.6698 30.0823 11.0183ZM10.4463 35.193C10.5265 35.2317 10.5962 35.2636 10.6586 35.2922C10.7664 35.3415 10.8526 35.381 10.9339 35.4284C11.1968 35.5821 11.4604 35.7349 11.724 35.8877L11.7241 35.8877L11.7241 35.8878L11.7242 35.8878L11.7242 35.8878L11.7243 35.8879C12.5825 36.3853 13.4411 36.8831 14.2783 37.4139C14.4249 37.5071 14.5076 37.7022 14.5904 37.8974C14.6285 37.9871 14.6665 38.0769 14.7108 38.1567C14.6197 38.163 14.5223 38.1808 14.4248 38.1986C14.2131 38.2373 14.0014 38.276 13.8549 38.1965C12.6947 37.5637 11.5621 36.882 10.4402 36.1835C10.266 36.0749 10.1345 35.8059 10.1024 35.5919C10.0908 35.5139 10.2006 35.4177 10.31 35.3219C10.3592 35.2788 10.4084 35.2358 10.4463 35.1945V35.193ZM30.4889 36.1539L30.4889 36.1539C30.5229 36.1172 30.5537 36.084 30.5813 36.0581L30.5828 36.0596C30.6195 35.5461 30.2221 35.3642 29.7636 35.6148C28.608 36.2476 27.4571 36.8881 26.3352 37.5759C26.1912 37.6631 26.1159 37.8623 26.0407 38.0612C26.0064 38.1516 25.9723 38.242 25.9316 38.3218C26.023 38.3266 26.1202 38.3424 26.2174 38.3583C26.4295 38.3928 26.6418 38.4274 26.7937 38.3478C27.8486 37.7942 28.88 37.191 29.9097 36.5889L30.164 36.4402C30.2946 36.3634 30.4023 36.2473 30.4889 36.1539ZM15.1912 8.56211L15.1901 8.56255L14.9314 8.3038C14.9268 7.88958 14.5202 7.76577 13.9898 8.06077C12.8602 8.68745 11.7307 9.32024 10.6302 9.99584C10.4963 10.0784 10.4247 10.264 10.3532 10.4494L10.3532 10.4494C10.3202 10.535 10.2872 10.6206 10.248 10.6959C10.3319 10.7076 10.4219 10.7314 10.5119 10.7552C10.7041 10.8061 10.8959 10.8568 11.026 10.7891C11.8217 10.3719 12.603 9.92721 13.3842 9.48266C13.7705 9.26282 14.1567 9.04301 14.5446 8.82654C14.6831 8.74997 14.8338 8.695 14.9848 8.63989L14.9849 8.63987L14.9849 8.63985L14.985 8.63983L14.9851 8.63981L14.9851 8.63979L14.9852 8.63977L14.9852 8.63975C15.0538 8.61472 15.1225 8.58967 15.1901 8.56255L15.1912 8.56364V8.56211ZM4.21825 22.4006L4.21825 22.4007V22.4008V22.4008V22.4008V22.4008V22.4008C4.22094 22.5839 4.22363 22.767 4.22365 22.9498H4.17779C4.17779 23.1471 4.17509 23.3447 4.17239 23.5423V23.5423V23.5423V23.5423V23.5424V23.5424V23.5424C4.16535 24.0579 4.15831 24.5735 4.19919 25.0851C4.20967 25.2255 4.34221 25.3566 4.47477 25.4876C4.53561 25.5478 4.59646 25.6079 4.64551 25.669C4.69492 25.6081 4.75683 25.5476 4.81876 25.4871C4.95415 25.3549 5.08964 25.2225 5.09489 25.0851C5.1438 23.7125 5.15297 22.3369 5.1224 20.9643C5.11928 20.8311 4.98504 20.7014 4.85047 20.5714C4.78742 20.5105 4.72429 20.4495 4.67455 20.3881C4.62755 20.4485 4.56942 20.508 4.51125 20.5676C4.38401 20.6979 4.25658 20.8283 4.24504 20.9689C4.20416 21.4429 4.2112 21.9217 4.21825 22.4006ZM27.7549 14.3724L27.7548 14.3723C27.6611 14.333 27.5677 14.2937 27.4805 14.2434C27.3089 14.1434 27.1368 14.0441 26.9647 13.9448L26.9643 13.9445C26.321 13.5733 25.6775 13.2019 25.0578 12.7944C24.9209 12.7046 24.844 12.5247 24.7671 12.3447C24.7315 12.2613 24.6959 12.178 24.6543 12.1035C24.7392 12.0904 24.8305 12.065 24.9219 12.0396L24.9219 12.0396C25.1184 11.9849 25.3151 11.9303 25.4476 11.9981C26.3265 12.4536 27.1794 12.9656 28.0124 13.5006C28.1729 13.6045 28.26 13.8965 28.286 14.112C28.2986 14.2191 28.2376 14.3356 28.1764 14.4525C28.1485 14.5058 28.1206 14.5592 28.0995 14.6118C28.0651 14.5812 28.0304 14.551 27.9956 14.5209C27.9608 14.4907 27.926 14.4605 27.8916 14.4299V14.4314C27.8465 14.4109 27.8006 14.3916 27.7549 14.3724ZM16.4128 12.3489C16.4559 12.2968 16.4991 12.2448 16.5447 12.1968C16.537 12.1112 16.5278 12.0241 16.5187 11.937C16.4358 11.9219 16.347 11.8946 16.2583 11.8674C16.067 11.8086 15.8762 11.7499 15.7468 11.8147C14.8419 12.2641 13.96 12.7623 13.104 13.2973C12.9873 13.3703 12.9374 13.5505 12.8874 13.731C12.864 13.8152 12.8407 13.8995 12.8105 13.9729C12.8936 13.9831 12.9822 14.0043 13.0708 14.0256C13.2625 14.0717 13.4542 14.1178 13.5901 14.0509C14.4424 13.6277 15.2647 13.1429 16.0853 12.659L16.0853 12.659L16.1045 12.6477C16.224 12.5764 16.3184 12.4626 16.4128 12.3489ZM13.0621 31.9878L13.0631 31.9883C13.0245 32.023 12.9738 32.0595 12.9223 32.0966C12.8062 32.1804 12.6863 32.2668 12.6937 32.3409C12.7151 32.5549 12.8282 32.8392 12.9979 32.9477C13.808 33.4689 14.6364 33.9657 15.4893 34.4105C15.6295 34.4837 15.8257 34.4509 16.0223 34.418C16.1128 34.4029 16.2034 34.3878 16.2887 34.3829C16.2494 34.302 16.2168 34.2114 16.1841 34.1206C16.1124 33.9217 16.0406 33.7224 15.8989 33.6248C15.3378 33.2398 14.7478 32.8971 14.158 32.5545C13.9799 32.4511 13.8018 32.3476 13.6245 32.2431C13.5272 32.1855 13.4221 32.1414 13.2934 32.0874C13.2243 32.0584 13.1483 32.0266 13.0631 31.9883L13.0636 31.9878H13.0621ZM28.0372 32.7991C28.0682 32.7549 28.0978 32.7126 28.1278 32.6771L28.1263 32.6755C27.9261 32.0489 27.5684 32.1268 27.2 32.3347C27.0941 32.3941 26.9881 32.4535 26.8821 32.5128C26.1677 32.9127 25.4521 33.3132 24.7667 33.7577C24.6344 33.8438 24.567 34.0294 24.4996 34.215C24.4689 34.2996 24.4382 34.3841 24.4014 34.4593C24.4858 34.4704 24.576 34.493 24.6661 34.5157C24.8617 34.5648 25.0571 34.6139 25.1931 34.5449C26.0639 34.105 26.9049 33.6012 27.7426 33.0995L27.7793 33.0775C27.8871 33.0135 27.9657 32.9012 28.0372 32.7991ZM31.7678 23.4006C31.7678 23.2504 31.7649 23.0999 31.7619 22.9495C31.7545 22.5673 31.7471 22.1852 31.7877 21.8079C31.8013 21.6754 31.9193 21.5537 32.0368 21.4324L32.0369 21.4324C32.0901 21.3774 32.1433 21.3226 32.1866 21.2668C32.2382 21.3243 32.3031 21.3812 32.368 21.4382L32.368 21.4382C32.5087 21.5618 32.6496 21.6854 32.6559 21.814C32.7002 22.8244 32.6987 23.8393 32.6497 24.8496C32.6435 24.9852 32.5092 25.1144 32.3745 25.2439C32.3117 25.3043 32.2489 25.3647 32.1988 25.4259C32.1528 25.365 32.097 25.3055 32.0412 25.246C31.9191 25.1156 31.7969 24.9853 31.777 24.8405C31.7314 24.505 31.7405 24.1619 31.7497 23.8193V23.8193C31.7534 23.6794 31.7571 23.5397 31.7571 23.4006H31.7678ZM8.2581 22.6492C8.262 22.7954 8.26591 22.9416 8.26591 23.0873V23.0888H8.25521C8.25521 23.2332 8.25147 23.3784 8.24773 23.5237C8.23837 23.8874 8.22899 24.2517 8.27814 24.6066C8.29806 24.7471 8.436 24.8704 8.57394 24.9937C8.63705 25.05 8.70015 25.1064 8.75197 25.1645C8.79586 25.1085 8.85087 25.0532 8.90584 24.9979C9.02507 24.8779 9.14415 24.7581 9.14938 24.6326C9.19523 23.6192 9.20746 22.6043 9.17077 21.5909C9.16659 21.4506 9.0412 21.3139 8.91595 21.1773C8.85835 21.1145 8.80077 21.0517 8.75502 20.9886C8.70405 21.0492 8.64189 21.1083 8.57971 21.1674C8.44425 21.2961 8.30874 21.4249 8.28883 21.5695C8.23871 21.9236 8.2484 22.2863 8.2581 22.6492Z" fill="url(#paint0_linear_336_472)"/>
<defs>
<linearGradient id="paint0_linear_336_472" x1="40.8953" y1="1.98112e-06" x2="-7.60074" y2="34.6181" gradientUnits="userSpaceOnUse">
<stop stop-color="#7B36B6"/>
<stop offset="1" stop-color="#1BA3FF"/>
</linearGradient>
</defs>
</svg>
