<svg width="47" height="47" viewBox="0 0 47 47" fill="none" xmlns="http://www.w3.org/2000/svg">
<path fill-rule="evenodd" clip-rule="evenodd" d="M32.3549 13.2111L33.0372 11.8542L31.0814 10.8763V3.76588C31.0818 3.62952 31.0453 3.49558 30.976 3.37818C30.9066 3.26077 30.8068 3.16426 30.6872 3.0988H30.6266L23.8042 0.0666394C23.7065 0.0227109 23.6005 0 23.4934 0C23.3862 0 23.2803 0.0227109 23.1826 0.0666394L16.3603 3.0988C16.2321 3.15804 16.1231 3.25187 16.0454 3.36972C15.9677 3.48758 15.9245 3.62478 15.9206 3.76588V10.8763L13.9648 11.8542L14.6471 13.2111L16.6786 12.2029L21.8788 15.1365L20.7872 15.6823L21.4694 17.0392L22.743 16.3645V17.7897C22.743 17.9907 22.8228 18.1835 22.965 18.3257C23.1071 18.4678 23.3 18.5477 23.501 18.5477C23.702 18.5477 23.8948 18.4678 24.037 18.3257C24.1791 18.1835 24.259 17.9907 24.259 17.7897V16.3645L25.5325 17.0013L26.2148 15.6444L25.1232 15.1365L30.3234 12.2029L32.3549 13.2111ZM29.5653 10.8991L24.259 13.8479V12.4834H22.743V13.8479L17.4367 10.8991V4.93326L18.7936 5.5397L19.4076 4.15248L18.5434 3.76588L23.501 1.55998L26.6014 2.93961L28.4586 3.76588L27.5944 4.15248L28.2084 5.5397L29.5653 4.93326V10.8991ZM23.4985 5.97378L21.3835 5.03381L20.7695 6.41344L22.7404 7.29279V9.45321H24.2565V7.29279L26.2274 6.41344L25.6134 5.03381L23.4985 5.97378ZM23.4987 38.53L21.5505 37.446L20.8076 38.765L22.7406 39.8414V42.0473H24.2567V39.8414L26.1897 38.765L25.4544 37.446L23.4987 38.53ZM39.799 15.2346L46.6213 19.0248C46.737 19.0915 46.833 19.1877 46.8995 19.3035C46.9661 19.4193 47.0009 19.5507 47.0004 19.6843V27.2647C47.0001 27.399 46.9642 27.5308 46.8963 27.6467C46.8284 27.7626 46.7308 27.8584 46.6138 27.9242L40.178 31.5021V33.708H38.6619V32.2829L37.3884 32.9576L36.7062 31.6007L37.7977 31.0549L32.5976 28.1213L30.566 29.1294L29.8838 27.7726L30.8996 27.2647L29.8838 26.7568L30.566 25.3999L31.8395 26.0366V20.1542L29.8989 19.1764L30.5812 17.8195L32.5976 18.8277L37.8356 15.9471L36.7441 15.4013L37.4263 14.0444L39.799 15.2346ZM40.178 29.7662L45.4843 26.8174V20.9729L44.3472 21.64L43.5892 20.3134L44.7262 19.6843L42.4521 18.4562L39.4199 16.7582L34.1591 19.6843L35.3038 20.3134L34.5457 21.64L33.3556 20.9729V26.8174L38.6619 29.7662V28.4017H40.178V29.7662ZM39.4175 22.6112L37.4618 21.5272L36.7265 22.8538L38.6595 23.9226V26.1285H40.1756V23.9226L42.1086 22.8538L41.3733 21.5272L39.4175 22.6112ZM16.4192 29.1299L14.4028 28.1217L9.20262 31.0553L10.2942 31.5632L9.61196 32.9201L8.33845 32.2833V33.7084H6.82237V31.5025L0.386621 27.9246C0.269527 27.8587 0.172027 27.763 0.104099 27.6471C0.0361714 27.5312 0.000247827 27.3994 2.04145e-05 27.2651V19.6847C-0.00099536 19.5462 0.0359136 19.4102 0.106737 19.2912C0.177561 19.1723 0.279601 19.075 0.401782 19.01L7.22413 15.2198L9.5968 14.0297L10.279 15.3866L9.18745 15.9324L14.4028 18.8281L16.4343 17.8199L17.1166 19.1768L15.1608 20.1547V26.037L16.4343 25.4003L17.1166 26.7572L16.1008 27.2651L17.1014 27.773L16.4192 29.1299ZM6.82237 29.7666V28.4021H8.33845V29.7666L13.6447 26.8178V20.9733L12.5077 21.6404L11.7496 20.3138L12.8867 19.6847L10.6126 18.4566L7.58041 16.7586L2.31963 19.6847L3.46427 20.3138L2.70623 21.6404L1.5161 20.9733V26.8178L6.82237 29.7666ZM8.33913 23.9226L10.2646 22.8538L9.52926 21.5272L7.58109 22.6112L5.63296 21.5272L4.89766 22.8538L6.82305 23.9226V26.1285H8.33913V23.9226ZM6.82237 35.2252H8.33845V37.4084L10.2942 38.3862L9.61196 39.7431L7.23929 38.553C7.11429 38.49 7.00915 38.3937 6.93554 38.2746C6.86194 38.1555 6.82282 38.0184 6.82237 37.8784V35.2252ZM33.0372 35.0956L32.3549 33.7387L30.3234 34.7469L25.108 31.8512L26.1996 31.3054L25.5174 29.9485L23.501 30.9643L21.4694 29.9485L20.7872 31.3054L21.8788 31.8512L16.6786 34.7469L14.6622 33.7387L13.98 35.0956L15.9206 36.0735V41.1978L14.6471 40.5611L13.9648 41.918L16.3299 43.1005L23.1523 46.8907C23.2675 46.9572 23.3982 46.9922 23.5313 46.9922C23.6644 46.9922 23.7951 46.9572 23.9103 46.8907L30.7327 43.1005L33.0978 41.918L32.4156 40.5611L31.0814 41.1978V36.0735L33.0372 35.0956ZM29.5653 41.9786L24.259 44.9274V43.5629H22.743V44.9274L17.4367 41.9786V36.8921L18.6268 37.5592L19.3848 36.2326L18.2402 35.6035L23.501 32.6774L26.5332 34.3754L28.8073 35.6035L27.6702 36.2326L28.4283 37.5592L29.5653 36.8921V41.9786ZM36.7061 38.3862L38.6618 37.4084V35.2252H40.1779V37.8784C40.1774 38.0184 40.1382 38.1555 40.0647 38.2746C39.9911 38.3937 39.886 38.49 39.761 38.553L37.3883 39.7431L36.7061 38.3862ZM22.7427 22.2476V20.0644H24.2587V22.2476L26.2145 23.2254L25.5322 24.5823L23.5007 23.5665L21.4691 24.5823L20.7869 23.2254L22.7427 22.2476Z" fill="url(#paint0_linear_336_509)"/>
<defs>
<linearGradient id="paint0_linear_336_509" x1="47.0007" y1="1.98983e-06" x2="-3.46586" y2="41.2218" gradientUnits="userSpaceOnUse">
<stop stop-color="#7B36B6"/>
<stop offset="1" stop-color="#1BA3FF"/>
</linearGradient>
</defs>
</svg>
