<svg width="361" height="427" viewBox="0 0 361 427" fill="none" xmlns="http://www.w3.org/2000/svg">
<path d="M180.551 227.904C182.108 227.904 183.37 227.142 183.37 226.204C183.37 225.266 182.108 224.507 180.551 224.507C178.995 224.507 177.732 225.266 177.732 226.204C177.732 227.142 178.995 227.904 180.551 227.904Z" fill="white" stroke="white" stroke-width="1.25" stroke-miterlimit="10"/>
<path d="M68.1734 295.691C69.7302 295.691 70.9923 294.929 70.9923 293.991C70.9923 293.054 69.7302 292.294 68.1734 292.294C66.6166 292.294 65.3545 293.054 65.3545 293.991C65.3545 294.929 66.6166 295.691 68.1734 295.691Z" fill="white" stroke="white" stroke-width="1.25" stroke-miterlimit="10"/>
<path d="M96.275 278.75C97.8318 278.75 99.0939 277.991 99.0939 277.053C99.0939 276.115 97.8318 275.355 96.275 275.355C94.7182 275.355 93.4561 276.115 93.4561 277.053C93.4561 277.991 94.7182 278.75 96.275 278.75Z" fill="white" stroke="white" stroke-width="1.25" stroke-miterlimit="10"/>
<path d="M124.362 261.797C125.919 261.797 127.181 261.036 127.181 260.098C127.181 259.16 125.919 258.4 124.362 258.4C122.805 258.4 121.543 259.16 121.543 260.098C121.543 261.036 122.805 261.797 124.362 261.797Z" fill="white" stroke="white" stroke-miterlimit="10"/>
<path d="M96.275 312.63C97.8318 312.63 99.0939 311.87 99.0939 310.932C99.0939 309.994 97.8318 309.233 96.275 309.233C94.7182 309.233 93.4561 309.994 93.4561 310.932C93.4561 311.87 94.7182 312.63 96.275 312.63Z" fill="white" stroke="white" stroke-miterlimit="10"/>
<path d="M124.362 295.691C125.919 295.691 127.181 294.929 127.181 293.991C127.181 293.054 125.919 292.294 124.362 292.294C122.805 292.294 121.543 293.054 121.543 293.991C121.543 294.929 122.805 295.691 124.362 295.691Z" fill="white" stroke="white" stroke-width="1.25" stroke-miterlimit="10"/>
<path d="M152.464 278.75C154.021 278.75 155.284 277.991 155.284 277.053C155.284 276.115 154.021 275.355 152.464 275.355C150.908 275.355 149.646 276.115 149.646 277.053C149.646 277.991 150.908 278.75 152.464 278.75Z" fill="white" stroke="white" stroke-width="1.25" stroke-miterlimit="10"/>
<path d="M124.362 329.584C125.919 329.584 127.181 328.825 127.181 327.887C127.181 326.947 125.919 326.188 124.362 326.188C122.805 326.188 121.543 326.947 121.543 327.887C121.543 328.825 122.805 329.584 124.362 329.584Z" fill="white" stroke="white" stroke-miterlimit="10"/>
<path d="M152.464 312.63C154.021 312.63 155.284 311.87 155.284 310.932C155.284 309.994 154.021 309.233 152.464 309.233C150.908 309.233 149.646 309.994 149.646 310.932C149.646 311.87 150.908 312.63 152.464 312.63Z" fill="white" stroke="white" stroke-miterlimit="10"/>
<path d="M180.551 295.691C182.108 295.691 183.37 294.929 183.37 293.991C183.37 293.054 182.108 292.294 180.551 292.294C178.995 292.294 177.732 293.054 177.732 293.991C177.732 294.929 178.995 295.691 180.551 295.691Z" fill="white" stroke="white" stroke-width="1.25" stroke-miterlimit="10"/>
<path d="M208.655 278.75C210.211 278.75 211.473 277.991 211.473 277.053C211.473 276.115 210.211 275.355 208.655 275.355C207.098 275.355 205.836 276.115 205.836 277.053C205.836 277.991 207.098 278.75 208.655 278.75Z" fill="white" stroke="white" stroke-miterlimit="10"/>
<path d="M236.744 261.797C238.3 261.797 239.562 261.036 239.562 260.098C239.562 259.16 238.3 258.4 236.744 258.4C235.187 258.4 233.925 259.16 233.925 260.098C233.925 261.036 235.187 261.797 236.744 261.797Z" fill="white" stroke="white" stroke-width="1.25" stroke-miterlimit="10"/>
<path d="M152.464 346.523C154.021 346.523 155.284 345.764 155.284 344.826C155.284 343.888 154.021 343.126 152.464 343.126C150.908 343.126 149.646 343.888 149.646 344.826C149.646 345.764 150.908 346.523 152.464 346.523Z" fill="white" stroke="white" stroke-width="1.25" stroke-miterlimit="10"/>
<path d="M180.551 329.584C182.108 329.584 183.37 328.825 183.37 327.887C183.37 326.947 182.108 326.188 180.551 326.188C178.995 326.188 177.732 326.947 177.732 327.887C177.732 328.825 178.995 329.584 180.551 329.584Z" fill="white" stroke="white" stroke-width="1.25" stroke-miterlimit="10"/>
<path d="M208.64 312.63C210.197 312.63 211.459 311.87 211.459 310.932C211.459 309.994 210.197 309.233 208.64 309.233C207.083 309.233 205.821 309.994 205.821 310.932C205.821 311.87 207.083 312.63 208.64 312.63Z" fill="white" stroke="white" stroke-width="1.25" stroke-miterlimit="10"/>
<path d="M236.744 295.691C238.3 295.691 239.562 294.929 239.562 293.991C239.562 293.054 238.3 292.294 236.744 292.294C235.187 292.294 233.925 293.054 233.925 293.991C233.925 294.929 235.187 295.691 236.744 295.691Z" fill="white" stroke="white" stroke-width="1.25" stroke-miterlimit="10"/>
<path d="M264.83 278.736C266.387 278.736 267.649 277.977 267.649 277.039C267.649 276.101 266.387 275.339 264.83 275.339C263.274 275.339 262.012 276.101 262.012 277.039C262.012 277.977 263.274 278.736 264.83 278.736Z" fill="white" stroke="white" stroke-miterlimit="10"/>
<path d="M180.551 363.478C182.108 363.478 183.37 362.718 183.37 361.779C183.37 360.841 182.108 360.081 180.551 360.081C178.995 360.081 177.732 360.841 177.732 361.779C177.732 362.718 178.995 363.478 180.551 363.478Z" fill="white" stroke="white" stroke-width="1.25" stroke-miterlimit="10"/>
<path d="M208.64 346.523C210.197 346.523 211.459 345.764 211.459 344.826C211.459 343.888 210.197 343.126 208.64 343.126C207.083 343.126 205.821 343.888 205.821 344.826C205.821 345.764 207.083 346.523 208.64 346.523Z" fill="white" stroke="white" stroke-miterlimit="10"/>
<path d="M236.744 329.584C238.3 329.584 239.562 328.825 239.562 327.887C239.562 326.947 238.3 326.188 236.744 326.188C235.187 326.188 233.925 326.947 233.925 327.887C233.925 328.825 235.187 329.584 236.744 329.584Z" fill="white" stroke="white" stroke-width="1.25" stroke-miterlimit="10"/>
<path d="M264.83 312.63C266.387 312.63 267.649 311.87 267.649 310.932C267.649 309.994 266.387 309.233 264.83 309.233C263.274 309.233 262.012 309.994 262.012 310.932C262.012 311.87 263.274 312.63 264.83 312.63Z" fill="white" stroke="white" stroke-miterlimit="10"/>
<path d="M292.931 295.691C294.488 295.691 295.752 294.929 295.752 293.991C295.752 293.054 294.488 292.294 292.931 292.294C291.374 292.294 290.112 293.054 290.112 293.991C290.112 294.929 291.374 295.691 292.931 295.691Z" fill="white" stroke="white" stroke-width="1.25" stroke-miterlimit="10"/>
<path d="M292.903 194.459V220.979C292.903 225.93 290.375 230.531 286.204 233.201L271.529 242.594C267.358 245.263 264.83 249.865 264.83 254.815V277.053" stroke="white" stroke-miterlimit="10"/>
<path d="M208.641 344.826V318.305C208.641 313.355 206.113 308.754 201.942 306.084L193.267 300.539C189.096 297.867 186.568 293.266 186.568 288.316V255.092" stroke="white" stroke-miterlimit="10"/>
<path d="M170.164 249.314V271.333C170.164 276.283 167.636 280.885 163.465 283.556L159.15 286.314C154.979 288.985 152.451 293.587 152.451 298.535V310.932" stroke="white" stroke-width="3" stroke-miterlimit="10"/>
<path d="M146.434 238.137V279.071C146.434 284.021 143.906 288.622 139.736 291.292L131.061 296.837C126.891 299.509 124.362 304.11 124.362 309.06V327.871" stroke="white" stroke-width="3" stroke-miterlimit="10"/>
<path d="M74.2041 189.567V230.501C74.2041 235.451 76.7325 240.053 80.9028 242.724L89.5774 248.267C93.7477 250.939 96.2761 255.54 96.2761 260.491V310.932" stroke="white" stroke-width="3" stroke-miterlimit="10"/>
<path d="M264.831 310.932V301.322C264.831 296.372 262.303 291.771 258.132 289.101L243.457 279.708C239.286 277.038 236.758 272.437 236.758 267.487V223.04" stroke="white" stroke-miterlimit="10"/>
<path d="M124.362 260.098V223.04" stroke="white" stroke-width="3" stroke-miterlimit="10"/>
<path d="M208.655 277.053V239.995" stroke="white" stroke-miterlimit="10"/>
<path d="M342.32 152.757C345.748 154.831 347.477 158.359 347.477 161.872C347.477 165.385 345.764 168.926 342.32 170.989L200.603 256.47C188.266 263.901 172.835 263.901 160.498 256.47L18.7814 170.989C15.3522 168.912 13.623 165.385 13.623 161.872C13.623 158.359 15.3377 154.817 18.7814 152.757L160.498 67.2746C172.835 59.8427 188.266 59.8427 200.603 67.2746L342.32 152.757Z" stroke="white" stroke-width="3" stroke-miterlimit="10"/>
<path d="M180.551 126.498C182.108 126.498 183.37 125.738 183.37 124.8C183.37 123.862 182.108 123.101 180.551 123.101C178.995 123.101 177.732 123.862 177.732 124.8C177.732 125.738 178.995 126.498 180.551 126.498Z" fill="white" stroke="white" stroke-width="1.25" stroke-miterlimit="10"/>
<path d="M180.551 160.391C182.108 160.391 183.37 159.631 183.37 158.693C183.37 157.755 182.108 156.994 180.551 156.994C178.995 156.994 177.732 157.755 177.732 158.693C177.732 159.631 178.995 160.391 180.551 160.391Z" fill="white" stroke="white" stroke-width="1.25" stroke-miterlimit="10"/>
<path d="M208.655 143.452C210.211 143.452 211.473 142.692 211.473 141.754C211.473 140.816 210.211 140.055 208.655 140.055C207.098 140.055 205.836 140.816 205.836 141.754C205.836 142.692 207.098 143.452 208.655 143.452Z" fill="white" stroke="white" stroke-width="1.25" stroke-miterlimit="10"/>
<path d="M180.551 194.285C182.108 194.285 183.37 193.525 183.37 192.587C183.37 191.649 182.108 190.888 180.551 190.888C178.995 190.888 177.732 191.649 177.732 192.587C177.732 193.525 178.995 194.285 180.551 194.285Z" fill="white" stroke="white" stroke-width="1.25" stroke-miterlimit="10"/>
<path d="M208.639 177.346C210.196 177.346 211.458 176.586 211.458 175.646C211.458 174.708 210.196 173.949 208.639 173.949C207.082 173.949 205.82 174.708 205.82 175.646C205.82 176.586 207.082 177.346 208.639 177.346Z" fill="white" stroke="white" stroke-width="1.25" stroke-miterlimit="10"/>
<path d="M236.742 160.391C238.298 160.391 239.56 159.631 239.56 158.693C239.56 157.755 238.298 156.994 236.742 156.994C235.185 156.994 233.923 157.755 233.923 158.693C233.923 159.631 235.185 160.391 236.742 160.391Z" fill="white" stroke="white" stroke-width="1.25" stroke-miterlimit="10"/>
<path d="M180.551 228.178C182.108 228.178 183.37 227.419 183.37 226.481C183.37 225.543 182.108 224.783 180.551 224.783C178.995 224.783 177.732 225.543 177.732 226.481C177.732 227.419 178.995 228.178 180.551 228.178Z" fill="white" stroke="white" stroke-width="1.25" stroke-miterlimit="10"/>
<path d="M208.639 211.239C210.196 211.239 211.458 210.48 211.458 209.542C211.458 208.604 210.196 207.842 208.639 207.842C207.082 207.842 205.82 208.604 205.82 209.542C205.82 210.48 207.082 211.239 208.639 211.239Z" fill="white" stroke="white" stroke-width="1.25" stroke-miterlimit="10"/>
<path d="M236.742 194.285C238.298 194.285 239.56 193.525 239.56 192.587C239.56 191.649 238.298 190.888 236.742 190.888C235.185 190.888 233.923 191.649 233.923 192.587C233.923 193.525 235.185 194.285 236.742 194.285Z" fill="white" stroke="white" stroke-width="1.25" stroke-miterlimit="10"/>
<path d="M203.237 97.7881V117.529C203.237 119.344 204.182 121.013 205.736 121.942L212.274 125.89C214.004 126.935 216.199 125.687 216.199 123.684V105.612" stroke="white" stroke-miterlimit="10"/>
<path d="M203.237 97.7881L216.185 105.598" stroke="white" stroke-miterlimit="10"/>
<path d="M203.238 97.7883L198.69 79.0344C198.515 78.3957 198.835 77.8295 199.315 77.5684C199.692 77.3652 200.172 77.3361 200.608 77.5974L208.585 82.4019C210.009 83.2585 211.041 84.6229 211.477 86.2195L216.199 105.598" stroke="white" stroke-miterlimit="10"/>
<path d="M216.185 105.598V84.8407C216.185 82.5763 215.007 80.486 213.059 79.3104L206.231 75.1879C205.446 74.7089 204.458 74.6943 203.644 75.1444L199.3 77.5393" stroke="white" stroke-miterlimit="10"/>
<path d="M216.185 105.598L211.462 86.2195C211.346 85.8131 211.201 85.4213 211.011 85.0439C211.869 84.5793 215.254 82.7069 215.719 82.4456C216.024 83.2003 216.185 84.0132 216.185 84.8551V105.612V105.598Z" fill="white" stroke="white" stroke-linecap="round" stroke-linejoin="round"/>
<path d="M213.524 79.6731L208.584 82.4019" stroke="white" stroke-miterlimit="10"/>
<path d="M182.53 94.3052V114.046C182.53 115.861 183.475 117.53 185.029 118.459L191.568 122.407C193.297 123.452 195.492 122.204 195.492 120.201V102.129" stroke="white" stroke-miterlimit="10"/>
<path d="M182.53 94.3052L195.477 102.114" stroke="white" stroke-miterlimit="10"/>
<path d="M182.532 94.3049L177.984 75.5507C177.809 74.912 178.129 74.3461 178.609 74.0847C178.986 73.8815 179.466 73.8524 179.902 74.1138L187.879 78.9185C189.303 79.7748 190.335 81.1392 190.771 82.7359L195.493 102.114" stroke="white" stroke-miterlimit="10"/>
<path d="M195.477 102.114V81.3572C195.477 79.0928 194.3 77.0025 192.353 75.8269L185.524 71.7044C184.739 71.2254 183.751 71.211 182.937 71.6609L178.593 74.056" stroke="white" stroke-miterlimit="10"/>
<path d="M195.478 102.114L190.756 82.7361C190.64 82.3296 190.494 81.9376 190.306 81.5603C191.163 81.0957 194.549 79.2233 195.013 78.9619C195.319 79.7169 195.478 80.5297 195.478 81.3715V102.129V102.114Z" fill="white" stroke="white" stroke-linecap="round" stroke-linejoin="round"/>
<path d="M192.805 76.175L187.864 78.9041" stroke="white" stroke-miterlimit="10"/>
<path d="M134.062 32.5374L146.835 24.8442" stroke="white" stroke-width="0.75" stroke-miterlimit="10"/>
<path d="M139.438 34.7151L145.527 31.0427" stroke="white" stroke-width="0.75" stroke-miterlimit="10"/>
<path d="M166.554 10.9528L179.428 3.18701" stroke="white" stroke-width="0.75" stroke-miterlimit="10"/>
<path d="M172.452 12.8107L185.326 5.04492" stroke="white" stroke-width="0.75" stroke-miterlimit="10"/>
<path d="M177.16 15.4237L190.034 7.64331" stroke="white" stroke-width="0.75" stroke-miterlimit="10"/>
<path d="M181.171 18.4137L194.06 10.6335" stroke="white" stroke-width="0.75" stroke-miterlimit="10"/>
<path d="M207.674 9.90782L220.578 2.12744" stroke="white" stroke-width="0.75" stroke-miterlimit="10"/>
<path d="M214.084 11.4608L226.972 3.69507" stroke="white" stroke-width="0.75" stroke-miterlimit="10"/>
<path d="M219.184 13.8268L232.085 6.04663" stroke="white" stroke-width="0.75" stroke-miterlimit="10"/>
<path d="M223.584 16.5993L236.474 8.81909" stroke="white" stroke-width="0.75" stroke-miterlimit="10"/>
<path d="M227.522 19.6476L240.396 11.8818" stroke="white" stroke-width="0.75" stroke-miterlimit="10"/>
<path d="M231.081 22.9279L243.971 15.1621" stroke="white" stroke-width="0.75" stroke-miterlimit="10"/>
<path d="M234.353 26.3827L247.242 18.6025" stroke="white" stroke-width="0.75" stroke-miterlimit="10"/>
<path d="M250.249 22.2314L237.375 29.9972" stroke="white" stroke-width="0.75" stroke-miterlimit="10"/>
<path d="M240.166 33.7277L253.054 25.9619" stroke="white" stroke-width="0.75" stroke-miterlimit="10"/>
<path d="M242.767 37.6031L255.64 29.8228" stroke="white" stroke-width="0.75" stroke-miterlimit="10"/>
<path d="M258.039 33.8149L245.149 41.5951" stroke="white" stroke-width="0.75" stroke-miterlimit="10"/>
<path d="M260.246 37.8936L247.372 45.6739" stroke="white" stroke-width="0.75" stroke-miterlimit="10"/>
<path d="M249.406 49.8832L262.28 42.103" stroke="white" stroke-width="0.75" stroke-miterlimit="10"/>
<path d="M251.267 54.1945L264.14 46.4287" stroke="white" stroke-width="0.75" stroke-miterlimit="10"/>
<path d="M252.938 58.5927L265.811 50.8269" stroke="white" stroke-width="0.75" stroke-miterlimit="10"/>
<path d="M254.418 63.1359L267.308 55.3701" stroke="white" stroke-width="0.75" stroke-miterlimit="10"/>
<path d="M255.698 67.7955L268.572 60.0298" stroke="white" stroke-width="0.75" stroke-miterlimit="10"/>
<path d="M269.647 64.8052L256.757 72.5711" stroke="white" stroke-width="0.75" stroke-miterlimit="10"/>
<path d="M270.462 69.7551L257.574 77.5209" stroke="white" stroke-width="0.75" stroke-miterlimit="10"/>
<path d="M258.109 82.6303L270.983 74.8645" stroke="white" stroke-width="0.75" stroke-miterlimit="10"/>
<path d="M258.284 87.943L271.172 80.1772" stroke="white" stroke-width="0.75" stroke-miterlimit="10"/>
<path d="M274.123 83.8206L261.249 91.5863" stroke="white" stroke-width="0.75" stroke-miterlimit="10"/>
<path d="M278.874 86.3899L265.986 94.1701" stroke="white" stroke-width="0.75" stroke-miterlimit="10"/>
<path d="M270.054 97.1314L282.944 89.3511" stroke="white" stroke-width="0.75" stroke-miterlimit="10"/>
<path d="M273.671 100.383L286.545 92.6172" stroke="white" stroke-width="0.75" stroke-miterlimit="10"/>
<path d="M276.928 103.852L289.816 96.0862" stroke="white" stroke-width="0.75" stroke-miterlimit="10"/>
<path d="M279.877 107.495L292.751 99.7295" stroke="white" stroke-width="0.75" stroke-miterlimit="10"/>
<path d="M282.579 111.298L295.455 103.533" stroke="white" stroke-width="0.75" stroke-miterlimit="10"/>
<path d="M285.034 115.247L297.908 107.481" stroke="white" stroke-width="0.75" stroke-miterlimit="10"/>
<path d="M287.273 119.326L300.147 111.56" stroke="white" stroke-width="0.75" stroke-miterlimit="10"/>
<path d="M289.292 123.535L302.166 115.769" stroke="white" stroke-width="0.75" stroke-miterlimit="10"/>
<path d="M291.096 127.875L303.969 120.109" stroke="white" stroke-width="0.75" stroke-miterlimit="10"/>
<path d="M292.664 132.36L305.538 124.594" stroke="white" stroke-width="0.75" stroke-miterlimit="10"/>
<path d="M294 136.976L306.874 129.21" stroke="white" stroke-width="0.75" stroke-miterlimit="10"/>
<path d="M295.075 141.766L307.949 134" stroke="white" stroke-width="0.75" stroke-miterlimit="10"/>
<path d="M295.86 146.716L308.736 138.951" stroke="white" stroke-width="0.75" stroke-miterlimit="10"/>
<path d="M296.282 151.884L309.158 144.118" stroke="white" stroke-width="0.75" stroke-miterlimit="10"/>
<path d="M296.223 157.357L309.096 149.591" stroke="white" stroke-width="0.75" stroke-miterlimit="10"/>
<path d="M295.496 163.205L308.37 155.441" stroke="white" stroke-width="0.75" stroke-miterlimit="10"/>
<path d="M293.477 169.868L306.35 162.103" stroke="white" stroke-width="0.75" stroke-miterlimit="10"/>
<path d="M140.426 35.2813C142.054 36.2683 143.638 37.444 145.178 38.7649C145.178 38.2715 145.149 37.7925 145.149 37.3135C145.149 32.6539 145.716 28.5315 146.776 24.9898C146.864 24.685 148.883 16.7014 155.32 12.8258C160.784 9.53083 168.035 9.87914 175.983 14.6838C179.645 16.8901 183.146 19.8659 186.401 23.3785C189.133 17.0352 192.925 13.7693 195.963 12.071C202.559 8.38407 211.176 8.95023 220.621 14.6403C241.413 27.1817 258.284 59.8704 258.284 87.624C258.284 88.5822 258.255 89.5257 258.225 90.4402C260.42 91.1078 262.701 92.1385 265.054 93.5464C282.318 103.969 296.325 131.098 296.325 154.134C296.325 166.413 292.345 175.051 286.023 178.869C280.486 182.208 273.135 181.845 265.071 176.995L140.499 101.37C126.84 93.1255 115.739 71.657 115.71 53.3965C115.71 43.6567 118.834 36.7908 123.847 33.7716C128.235 31.1298 134.033 31.4202 140.412 35.2667L140.426 35.2813Z" stroke="white" stroke-width="3" stroke-linecap="round" stroke-linejoin="round"/>
<path d="M123.862 33.7858L136.736 26.0201C138.393 25.0184 140.253 24.4378 142.287 24.3072C143.871 24.2056 145.397 24.3944 146.821 24.8298" stroke="white" stroke-linecap="round" stroke-linejoin="round"/>
<path d="M155.321 12.8255L168.195 5.05973C173.659 1.76477 180.91 2.11308 188.858 6.91775C191.241 8.3547 193.58 10.1255 195.803 12.1577" stroke="white" stroke-linecap="round" stroke-linejoin="round"/>
<path d="M286.024 178.897L298.898 171.131C305.219 167.313 309.2 158.677 309.2 146.397C309.2 123.346 295.208 96.2171 277.931 85.8094C275.592 84.3868 273.295 83.3708 271.102 82.7032C271.144 81.7741 271.16 80.8452 271.16 79.8872C271.16 52.1189 254.29 19.4446 233.495 6.90327C223.804 1.05346 214.97 0.617964 208.3 4.63882L195.426 12.4046" stroke="white" stroke-width="3" stroke-linecap="round" stroke-linejoin="round"/>
<path d="M257.611 130.593V108.733C257.611 106.918 256.666 105.249 255.111 104.32L248.573 100.372C246.843 99.3269 244.648 100.575 244.648 102.578V122.784" stroke="white" stroke-miterlimit="10"/>
<path d="M257.611 130.593L244.665 122.784" stroke="white" stroke-miterlimit="10"/>
<path d="M253.179 111.825L248.747 109.154C248.354 108.922 248.121 108.501 248.121 108.051V106.599C248.121 106.091 248.675 105.786 249.096 106.048L253.528 108.719C253.919 108.951 254.152 109.372 254.152 109.822V111.273C254.152 111.781 253.6 112.086 253.179 111.825Z" fill="white"/>
<path d="M244.663 122.784L239.694 143.469C239.258 145.312 240.057 147.228 241.686 148.215L249.358 152.845C250.07 153.267 250.882 153.252 251.536 152.889C252.046 152.613 252.453 152.12 252.598 151.496L257.611 130.608" stroke="white" stroke-miterlimit="10"/>
<path d="M257.611 130.593L252.597 151.481C252.453 152.105 252.046 152.599 251.538 152.875L256.114 150.349C257.045 149.841 257.611 148.868 257.611 147.809V130.593Z" fill="white" stroke="white" stroke-miterlimit="10"/>
<path d="M236.904 127.095V105.235C236.904 103.421 235.959 101.751 234.405 100.823L227.866 96.8742C226.137 95.8291 223.944 97.0774 223.944 99.0806V119.286" stroke="white" stroke-miterlimit="10"/>
<path d="M236.904 127.096L223.944 119.286" stroke="white" stroke-miterlimit="10"/>
<path d="M232.459 108.327L228.027 105.656C227.634 105.424 227.401 105.003 227.401 104.553V103.101C227.401 102.593 227.953 102.289 228.376 102.55L232.808 105.221C233.199 105.453 233.432 105.874 233.432 106.324V107.775C233.432 108.283 232.88 108.588 232.459 108.327Z" fill="white"/>
<path d="M223.943 119.286L218.974 139.971C218.539 141.814 219.337 143.73 220.964 144.717L228.638 149.348C229.35 149.769 230.163 149.754 230.817 149.391C231.326 149.116 231.731 148.622 231.878 147.998L236.891 127.11" stroke="white" stroke-miterlimit="10"/>
<path d="M236.905 127.096L231.891 147.983C231.747 148.607 231.34 149.101 230.83 149.377L235.408 146.851C236.337 146.343 236.905 145.371 236.905 144.311V127.096Z" fill="white" stroke="white" stroke-miterlimit="10"/>
<path d="M87.9192 80.8615L99.8924 73.6473C102.944 71.8037 106.925 71.5425 110.413 73.6473L156.94 101.706C164.786 106.438 169.581 114.915 169.581 124.074V178.376C169.581 182.208 167.547 185.344 164.67 187.072L152.696 194.285C149.645 196.128 145.664 196.391 142.176 194.285L95.6495 166.227C87.803 161.495 83.0078 153.018 83.0078 143.859V89.5561C83.0078 85.7241 85.0421 82.5888 87.9192 80.8615Z" stroke="white" stroke-width="3" stroke-miterlimit="10"/>
<path d="M149.646 112.52L161.604 105.291" stroke="white" stroke-width="1.25" stroke-miterlimit="10"/>
<path d="M152.886 116.323L164.859 109.108" stroke="white" stroke-width="1.25" stroke-miterlimit="10"/>
<path d="M157.391 125.308L169.364 118.094" stroke="white" stroke-width="1.25" stroke-miterlimit="10"/>
<path d="M155.444 120.895L167.417 113.681" stroke="white" stroke-width="1.25" stroke-miterlimit="10"/>
<path d="M144.967 108.92L156.94 101.706" stroke="white" stroke-width="1.25" stroke-miterlimit="10"/>
<path d="M139.809 105.799L151.767 98.5847" stroke="white" stroke-width="1.25" stroke-miterlimit="10"/>
<path d="M134.637 102.678L146.596 95.4639" stroke="white" stroke-width="1.25" stroke-miterlimit="10"/>
<path d="M129.464 99.5575L141.437 92.3433" stroke="white" stroke-width="1.25" stroke-miterlimit="10"/>
<path d="M124.29 96.4508L136.263 89.2222" stroke="white" stroke-width="1.25" stroke-miterlimit="10"/>
<path d="M119.118 93.3302L131.091 86.1016" stroke="white" stroke-width="1.25" stroke-miterlimit="10"/>
<path d="M113.959 90.2093L125.918 82.9951" stroke="white" stroke-width="1.25" stroke-miterlimit="10"/>
<path d="M108.787 87.0885L120.746 79.8743" stroke="white" stroke-width="1.25" stroke-miterlimit="10"/>
<path d="M103.612 83.9674L115.586 76.7534" stroke="white" stroke-width="1.25" stroke-miterlimit="10"/>
<path d="M98.4404 80.8468L110.414 73.6326" stroke="white" stroke-width="1.25" stroke-miterlimit="10"/>
<path d="M157.609 131.288L169.582 124.074" stroke="white" stroke-width="1.25" stroke-miterlimit="10"/>
<path d="M157.609 137.312L169.582 130.098" stroke="white" stroke-width="1.25" stroke-miterlimit="10"/>
<path d="M157.609 143.35L169.582 136.136" stroke="white" stroke-width="1.25" stroke-miterlimit="10"/>
<path d="M157.609 149.388L169.582 142.16" stroke="white" stroke-width="1.25" stroke-miterlimit="10"/>
<path d="M157.609 155.413L169.582 148.198" stroke="white" stroke-width="1.25" stroke-miterlimit="10"/>
<path d="M157.609 161.451L169.582 154.236" stroke="white" stroke-width="1.25" stroke-miterlimit="10"/>
<path d="M157.609 167.49L169.582 160.261" stroke="white" stroke-width="1.25" stroke-miterlimit="10"/>
<path d="M157.609 173.514L169.582 166.299" stroke="white" stroke-width="1.25" stroke-miterlimit="10"/>
<path d="M157.609 179.552L169.582 172.337" stroke="white" stroke-width="1.25" stroke-miterlimit="10"/>
<path d="M157.609 185.577L169.582 178.362" stroke="white" stroke-width="1.25" stroke-miterlimit="10"/>
<path d="M152.697 194.271L164.671 187.056C167.548 185.33 169.582 182.194 169.582 178.362V124.059C169.582 114.915 164.787 106.423 156.94 101.691L110.413 73.6327C106.926 71.528 102.945 71.8037 99.8931 73.6327L87.9199 80.8469" stroke="white" stroke-miterlimit="10"/>
<path d="M121.209 106.06C121.209 123.943 133.226 145.688 148.047 154.629C133.226 145.688 121.209 152.932 121.209 170.815C121.209 152.932 109.192 131.187 94.3711 122.245C109.192 131.187 121.209 123.943 121.209 106.06Z" fill="white" stroke="white" stroke-linecap="round" stroke-linejoin="round"/>
<path d="M2 297.172C2 293.398 3.83082 289.622 7.50707 287.416L159.105 195.984C172.299 188.03 188.806 188.03 201.998 195.984L353.597 287.416C357.272 289.638 359.104 293.398 359.104 297.172V318.261C359.104 321.891 357.2 325.26 354.091 327.131L201.998 418.87C188.806 426.824 172.299 426.824 159.105 418.87L7.01308 327.131C3.90352 325.26 2 321.891 2 318.261V297.172Z" stroke="white" stroke-width="3" stroke-miterlimit="10"/>
<path d="M7.50707 287.418C3.83082 289.639 2 293.398 2 297.172C2 300.946 3.83082 304.72 7.50707 306.926L159.105 398.36C172.299 406.314 188.806 406.314 201.998 398.36L353.597 306.926C357.272 304.705 359.104 300.946 359.104 297.172C359.104 293.398 357.272 289.622 353.597 287.418" stroke="white" stroke-width="3" stroke-miterlimit="10"/>
<path d="M159.105 398.374V418.87" stroke="white" stroke-width="3" stroke-miterlimit="10"/>
<mask id="mask0_336_465" style="mask-type:luminance" maskUnits="userSpaceOnUse" x="201" y="306" width="154" height="113">
<path d="M201.998 398.374L353.597 306.926L354.09 327.132L201.998 418.87V398.374Z" fill="white"/>
</mask>
<g mask="url(#mask0_336_465)">
<path d="M347.553 315.694C346.623 315.694 345.866 316.447 345.866 317.377C345.866 318.305 346.623 319.061 347.553 319.061C348.482 319.061 349.239 318.305 349.239 317.377C349.239 316.447 348.482 315.694 347.553 315.694ZM349.239 310.367C349.239 311.295 348.482 312.05 347.553 312.05C346.623 312.05 345.866 311.295 345.866 310.367C345.866 309.437 346.623 308.682 347.553 308.682C348.482 308.682 349.239 309.437 349.239 310.367Z" fill="white"/>
<path d="M347.553 329.701C346.623 329.701 345.866 330.456 345.866 331.384C345.866 332.314 346.623 333.068 347.553 333.068C348.482 333.068 349.239 332.314 349.239 331.384C349.239 330.456 348.482 329.701 347.553 329.701ZM349.239 324.374C349.239 325.302 348.482 326.057 347.553 326.057C346.623 326.057 345.866 325.302 345.866 324.374C345.866 323.444 346.623 322.69 347.553 322.69C348.482 322.69 349.239 323.444 349.239 324.374Z" fill="white"/>
<path d="M342.221 317.363C342.221 318.291 341.465 319.047 340.534 319.047C339.605 319.047 338.849 318.291 338.849 317.363C338.849 316.433 339.605 315.678 340.534 315.678C341.465 315.678 342.221 316.433 342.221 317.363Z" fill="white"/>
<path d="M333.514 329.701C332.585 329.701 331.828 330.456 331.828 331.384C331.828 332.314 332.585 333.068 333.514 333.068C334.444 333.068 335.201 332.314 335.201 331.384C335.201 330.456 334.444 329.701 333.514 329.701ZM342.218 331.384C342.218 332.314 341.462 333.068 340.533 333.068C339.602 333.068 338.848 332.314 338.848 331.384C338.848 330.456 339.602 329.701 340.533 329.701C341.462 329.701 342.218 330.456 342.218 331.384ZM342.218 324.374C342.218 325.302 341.462 326.057 340.533 326.057C339.602 326.057 338.848 325.302 338.848 324.374C338.848 323.444 339.602 322.69 340.533 322.69C341.462 322.69 342.218 323.444 342.218 324.374ZM335.201 324.374C335.201 325.302 334.444 326.057 333.514 326.057C332.585 326.057 331.828 325.302 331.828 324.374C331.828 323.444 332.585 322.69 333.514 322.69C334.444 322.69 335.201 323.444 335.201 324.374Z" fill="white"/>
<path d="M335.201 338.395C335.201 339.324 334.444 340.08 333.514 340.08C332.585 340.08 331.828 339.324 331.828 338.395C331.828 337.467 332.585 336.711 333.514 336.711C334.444 336.711 335.201 337.467 335.201 338.395Z" fill="white"/>
<path d="M319.493 329.701C318.564 329.701 317.807 330.456 317.807 331.384C317.807 332.314 318.564 333.068 319.493 333.068C320.424 333.068 321.178 332.314 321.178 331.384C321.178 330.456 320.424 329.701 319.493 329.701ZM328.198 331.384C328.198 332.314 327.441 333.068 326.51 333.068C325.581 333.068 324.825 332.314 324.825 331.384C324.825 330.456 325.581 329.701 326.51 329.701C327.441 329.701 328.198 330.456 328.198 331.384ZM328.198 324.374C328.198 325.302 327.441 326.057 326.51 326.057C325.581 326.057 324.825 325.302 324.825 324.374C324.825 323.444 325.581 322.69 326.51 322.69C327.441 322.69 328.198 323.444 328.198 324.374Z" fill="white"/>
<path d="M319.493 343.723C318.564 343.723 317.807 344.477 317.807 345.407C317.807 346.335 318.564 347.09 319.493 347.09C320.424 347.09 321.178 346.335 321.178 345.407C321.178 344.477 320.424 343.723 319.493 343.723ZM328.198 338.395C328.198 339.324 327.441 340.08 326.51 340.08C325.581 340.08 324.825 339.324 324.825 338.395C324.825 337.467 325.581 336.711 326.51 336.711C327.441 336.711 328.198 337.467 328.198 338.395ZM321.178 338.395C321.178 339.324 320.424 340.08 319.493 340.08C318.564 340.08 317.807 339.324 317.807 338.395C317.807 337.467 318.564 336.711 319.493 336.711C320.424 336.711 321.178 337.467 321.178 338.395Z" fill="white"/>
<path d="M314.16 331.384C314.16 332.314 313.406 333.068 312.475 333.068C311.546 333.068 310.79 332.314 310.79 331.384C310.79 330.456 311.546 329.701 312.475 329.701C313.406 329.701 314.16 330.456 314.16 331.384Z" fill="white"/>
<path d="M305.457 343.723C304.528 343.723 303.772 344.477 303.772 345.407C303.772 346.335 304.528 347.09 305.457 347.09C306.388 347.09 307.142 346.335 307.142 345.407C307.142 344.477 306.388 343.723 305.457 343.723ZM314.162 345.407C314.162 346.335 313.405 347.09 312.475 347.09C311.546 347.09 310.789 346.335 310.789 345.407C310.789 344.477 311.546 343.723 312.475 343.723C313.405 343.723 314.162 344.477 314.162 345.407ZM314.162 338.395C314.162 339.324 313.405 340.08 312.475 340.08C311.546 340.08 310.789 339.324 310.789 338.395C310.789 337.467 311.546 336.711 312.475 336.711C313.405 336.711 314.162 337.467 314.162 338.395ZM307.142 338.395C307.142 339.324 306.388 340.08 305.457 340.08C304.528 340.08 303.772 339.324 303.772 338.395C303.772 337.467 304.528 336.711 305.457 336.711C306.388 336.711 307.142 337.467 307.142 338.395Z" fill="white"/>
<path d="M314.162 352.403C314.162 353.331 313.405 354.087 312.475 354.087C311.546 354.087 310.789 353.331 310.789 352.403C310.789 351.473 311.546 350.72 312.475 350.72C313.405 350.72 314.162 351.473 314.162 352.403ZM307.142 352.403C307.142 353.331 306.388 354.087 305.457 354.087C304.528 354.087 303.772 353.331 303.772 352.403C303.772 351.473 304.528 350.72 305.457 350.72C306.388 350.72 307.142 351.473 307.142 352.403Z" fill="white"/>
<path d="M291.436 343.724C290.505 343.724 289.751 344.477 289.751 345.407C289.751 346.335 290.505 347.09 291.436 347.09C292.365 347.09 293.121 346.335 293.121 345.407C293.121 344.477 292.365 343.724 291.436 343.724ZM300.139 345.407C300.139 346.335 299.385 347.09 298.454 347.09C297.525 347.09 296.769 346.335 296.769 345.407C296.769 344.477 297.525 343.724 298.454 343.724C299.385 343.724 300.139 344.477 300.139 345.407Z" fill="white"/>
<path d="M291.436 357.73C290.505 357.73 289.751 358.484 289.751 359.414C289.751 360.344 290.505 361.097 291.436 361.097C292.365 361.097 293.121 360.344 293.121 359.414C293.121 358.484 292.365 357.73 291.436 357.73ZM300.139 359.414C300.139 360.344 299.385 361.097 298.454 361.097C297.525 361.097 296.769 360.344 296.769 359.414C296.769 358.484 297.525 357.73 298.454 357.73C299.385 357.73 300.139 358.484 300.139 359.414ZM300.139 352.403C300.139 353.331 299.385 354.087 298.454 354.087C297.525 354.087 296.769 353.331 296.769 352.403C296.769 351.473 297.525 350.72 298.454 350.72C299.385 350.72 300.139 351.473 300.139 352.403ZM293.121 352.403C293.121 353.331 292.365 354.087 291.436 354.087C290.505 354.087 289.751 353.331 289.751 352.403C289.751 351.473 290.505 350.72 291.436 350.72C292.365 350.72 293.121 351.473 293.121 352.403Z" fill="white"/>
<path d="M277.398 357.73C276.467 357.73 275.713 358.484 275.713 359.414C275.713 360.344 276.467 361.097 277.398 361.097C278.327 361.097 279.083 360.344 279.083 359.414C279.083 358.484 278.327 357.73 277.398 357.73ZM286.101 359.414C286.101 360.344 285.347 361.097 284.416 361.097C283.487 361.097 282.731 360.344 282.731 359.414C282.731 358.484 283.487 357.73 284.416 357.73C285.347 357.73 286.101 358.484 286.101 359.414ZM286.101 352.403C286.101 353.331 285.347 354.087 284.416 354.087C283.487 354.087 282.731 353.331 282.731 352.403C282.731 351.473 283.487 350.72 284.416 350.72C285.347 350.72 286.101 351.473 286.101 352.403ZM279.083 352.403C279.083 353.331 278.327 354.087 277.398 354.087C276.467 354.087 275.713 353.331 275.713 352.403C275.713 351.473 276.467 350.72 277.398 350.72C278.327 350.72 279.083 351.473 279.083 352.403Z" fill="white"/>
<path d="M277.398 371.751C276.467 371.751 275.713 372.507 275.713 373.437C275.713 374.365 276.467 375.12 277.398 375.12C278.327 375.12 279.083 374.365 279.083 373.437C279.083 372.507 278.327 371.751 277.398 371.751ZM286.101 366.424C286.101 367.354 285.347 368.108 284.416 368.108C283.487 368.108 282.731 367.354 282.731 366.424C282.731 365.496 283.487 364.741 284.416 364.741C285.347 364.741 286.101 365.496 286.101 366.424ZM279.083 366.424C279.083 367.354 278.327 368.108 277.398 368.108C276.467 368.108 275.713 367.354 275.713 366.424C275.713 365.496 276.467 364.741 277.398 364.741C278.327 364.741 279.083 365.496 279.083 366.424Z" fill="white"/>
<path d="M263.378 357.73C262.447 357.73 261.69 358.484 261.69 359.414C261.69 360.344 262.447 361.097 263.378 361.097C264.307 361.097 265.063 360.344 265.063 359.414C265.063 358.484 264.307 357.73 263.378 357.73ZM272.081 359.414C272.081 360.344 271.324 361.097 270.395 361.097C269.464 361.097 268.71 360.344 268.71 359.414C268.71 358.484 269.464 357.73 270.395 357.73C271.324 357.73 272.081 358.484 272.081 359.414Z" fill="white"/>
<path d="M263.378 371.751C262.447 371.751 261.69 372.507 261.69 373.437C261.69 374.365 262.447 375.12 263.378 375.12C264.307 375.12 265.063 374.365 265.063 373.437C265.063 372.507 264.307 371.751 263.378 371.751ZM272.081 373.437C272.081 374.365 271.324 375.12 270.395 375.12C269.464 375.12 268.71 374.365 268.71 373.437C268.71 372.507 269.464 371.751 270.395 371.751C271.324 371.751 272.081 372.507 272.081 373.437ZM272.081 366.424C272.081 367.354 271.324 368.108 270.395 368.108C269.464 368.108 268.71 367.354 268.71 366.424C268.71 365.496 269.464 364.741 270.395 364.741C271.324 364.741 272.081 365.496 272.081 366.424ZM265.063 366.424C265.063 367.354 264.307 368.108 263.378 368.108C262.447 368.108 261.69 367.354 261.69 366.424C261.69 365.496 262.447 364.741 263.378 364.741C264.307 364.741 265.063 365.496 265.063 366.424Z" fill="white"/>
<path d="M265.063 380.433C265.063 381.361 264.307 382.116 263.378 382.116C262.447 382.116 261.69 381.361 261.69 380.433C261.69 379.503 262.447 378.749 263.378 378.749C264.307 378.749 265.063 379.503 265.063 380.433Z" fill="white"/>
<path d="M249.339 371.751C248.411 371.751 247.654 372.507 247.654 373.437C247.654 374.365 248.411 375.12 249.339 375.12C250.27 375.12 251.027 374.365 251.027 373.437C251.027 372.507 250.27 371.751 249.339 371.751ZM258.044 373.437C258.044 374.365 257.288 375.12 256.359 375.12C255.428 375.12 254.674 374.365 254.674 373.437C254.674 372.507 255.428 371.751 256.359 371.751C257.288 371.751 258.044 372.507 258.044 373.437ZM258.044 366.424C258.044 367.354 257.288 368.108 256.359 368.108C255.428 368.108 254.674 367.354 254.674 366.424C254.674 365.496 255.428 364.741 256.359 364.741C257.288 364.741 258.044 365.496 258.044 366.424Z" fill="white"/>
<path d="M249.339 385.76C248.411 385.76 247.654 386.513 247.654 387.443C247.654 388.373 248.411 389.127 249.339 389.127C250.27 389.127 251.027 388.373 251.027 387.443C251.027 386.513 250.27 385.76 249.339 385.76ZM258.044 380.433C258.044 381.361 257.288 382.116 256.359 382.116C255.428 382.116 254.674 381.361 254.674 380.433C254.674 379.503 255.428 378.749 256.359 378.749C257.288 378.749 258.044 379.503 258.044 380.433ZM251.027 380.433C251.027 381.361 250.27 382.116 249.339 382.116C248.411 382.116 247.654 381.361 247.654 380.433C247.654 379.503 248.411 378.749 249.339 378.749C250.27 378.749 251.027 379.503 251.027 380.433Z" fill="white"/>
<path d="M244.007 373.421C244.007 374.35 243.251 375.106 242.32 375.106C241.391 375.106 240.635 374.35 240.635 373.421C240.635 372.493 241.391 371.737 242.32 371.737C243.251 371.737 244.007 372.493 244.007 373.421Z" fill="white"/>
<path d="M235.319 385.76C234.39 385.76 233.634 386.513 233.634 387.443C233.634 388.373 234.39 389.127 235.319 389.127C236.25 389.127 237.004 388.373 237.004 387.443C237.004 386.513 236.25 385.76 235.319 385.76ZM244.024 387.443C244.024 388.373 243.268 389.127 242.337 389.127C241.408 389.127 240.651 388.373 240.651 387.443C240.651 386.513 241.408 385.76 242.337 385.76C243.268 385.76 244.024 386.513 244.024 387.443ZM244.024 380.433C244.024 381.361 243.268 382.116 242.337 382.116C241.408 382.116 240.651 381.361 240.651 380.433C240.651 379.503 241.408 378.749 242.337 378.749C243.268 378.749 244.024 379.503 244.024 380.433ZM237.004 380.433C237.004 381.361 236.25 382.116 235.319 382.116C234.39 382.116 233.634 381.361 233.634 380.433C233.634 379.503 234.39 378.749 235.319 378.749C236.25 378.749 237.004 379.503 237.004 380.433Z" fill="white"/>
<path d="M244.007 394.454C244.007 395.384 243.251 396.137 242.322 396.137C241.391 396.137 240.635 395.384 240.635 394.454C240.635 393.526 241.391 392.77 242.322 392.77C243.251 392.77 244.007 393.526 244.007 394.454ZM236.99 394.454C236.99 395.384 236.233 396.137 235.302 396.137C234.374 396.137 233.617 395.384 233.617 394.454C233.617 393.526 234.374 392.77 235.302 392.77C236.233 392.77 236.99 393.526 236.99 394.454Z" fill="white"/>
<path d="M221.281 385.76C220.352 385.76 219.596 386.513 219.596 387.443C219.596 388.373 220.352 389.127 221.281 389.127C222.212 389.127 222.966 388.373 222.966 387.443C222.966 386.513 222.212 385.76 221.281 385.76ZM229.986 387.443C229.986 388.373 229.23 389.127 228.299 389.127C227.37 389.127 226.614 388.373 226.614 387.443C226.614 386.513 227.37 385.76 228.299 385.76C229.23 385.76 229.986 386.513 229.986 387.443Z" fill="white"/>
<path d="M221.281 399.781C220.352 399.781 219.596 400.536 219.596 401.466C219.596 402.394 220.352 403.15 221.281 403.15C222.212 403.15 222.966 402.394 222.966 401.466C222.966 400.536 222.212 399.781 221.281 399.781ZM229.986 401.466C229.986 402.394 229.23 403.15 228.299 403.15C227.37 403.15 226.614 402.394 226.614 401.466C226.614 400.536 227.37 399.781 228.299 399.781C229.23 399.781 229.986 400.536 229.986 401.466ZM229.986 394.454C229.986 395.384 229.23 396.137 228.299 396.137C227.37 396.137 226.614 395.384 226.614 394.454C226.614 393.526 227.37 392.77 228.299 392.77C229.23 392.77 229.986 393.526 229.986 394.454ZM222.966 394.454C222.966 395.384 222.212 396.137 221.281 396.137C220.352 396.137 219.596 395.384 219.596 394.454C219.596 393.526 220.352 392.77 221.281 392.77C222.212 392.77 222.966 393.526 222.966 394.454Z" fill="white"/>
<path d="M222.966 408.462C222.966 409.39 222.212 410.146 221.281 410.146C220.352 410.146 219.596 409.39 219.596 408.462C219.596 407.533 220.352 406.777 221.281 406.777C222.212 406.777 222.966 407.533 222.966 408.462Z" fill="white"/>
<path d="M207.259 399.781C206.329 399.781 205.574 400.536 205.574 401.466C205.574 402.394 206.329 403.15 207.259 403.15C208.188 403.15 208.945 402.394 208.945 401.466C208.945 400.536 208.188 399.781 207.259 399.781ZM215.962 401.466C215.962 402.394 215.208 403.15 214.277 403.15C213.348 403.15 212.592 402.394 212.592 401.466C212.592 400.536 213.348 399.781 214.277 399.781C215.208 399.781 215.962 400.536 215.962 401.466ZM215.962 394.454C215.962 395.384 215.208 396.137 214.277 396.137C213.348 396.137 212.592 395.384 212.592 394.454C212.592 393.526 213.348 392.77 214.277 392.77C215.208 392.77 215.962 393.526 215.962 394.454ZM208.945 394.454C208.945 395.384 208.188 396.137 207.259 396.137C206.329 396.137 205.574 395.384 205.574 394.454C205.574 393.526 206.329 392.77 207.259 392.77C208.188 392.77 208.945 393.526 208.945 394.454Z" fill="white"/>
<path d="M207.259 413.789C206.329 413.789 205.574 414.543 205.574 415.473C205.574 416.401 206.329 417.156 207.259 417.156C208.188 417.156 208.945 416.401 208.945 415.473C208.945 414.543 208.188 413.789 207.259 413.789ZM215.962 408.462C215.962 409.39 215.208 410.146 214.277 410.146C213.348 410.146 212.592 409.39 212.592 408.462C212.592 407.533 213.348 406.777 214.277 406.777C215.208 406.777 215.962 407.533 215.962 408.462ZM208.945 408.462C208.945 409.39 208.188 410.146 207.259 410.146C206.329 410.146 205.574 409.39 205.574 408.462C205.574 407.533 206.329 406.777 207.259 406.777C208.188 406.777 208.945 407.533 208.945 408.462Z" fill="white"/>
</g>
<path d="M201.998 398.374V418.87" stroke="white" stroke-width="3" stroke-miterlimit="10"/>
<path d="M63.1602 360.995L73.4913 367.238V346.728L63.1602 340.501V360.995Z" fill="white" stroke="white" stroke-width="1.25" stroke-miterlimit="10"/>
<path d="M44.4438 329.208L7.50707 306.926C3.83082 304.706 2 300.946 2 297.172V318.263C2 321.891 3.90352 325.26 7.01308 327.132L44.4438 349.718V329.208Z" fill="white" stroke="white" stroke-width="1.25" stroke-miterlimit="10"/>
<path d="M353.597 306.926L345.388 311.876V332.386L354.093 327.131C357.202 325.26 359.104 321.891 359.104 318.263V297.172C359.104 300.946 357.274 304.719 353.597 306.926Z" fill="white" stroke="white" stroke-width="1.25" stroke-miterlimit="10"/>
</svg>
