<svg width="214" height="59" viewBox="0 0 214 59" fill="none" xmlns="http://www.w3.org/2000/svg">
<path d="M195.119 32.323C194.861 29.6131 195.067 28.7976 194.72 27.25C194.572 26.5822 194.72 25.5847 193.247 25.4777C191.844 25.5847 191.767 26.5693 191.665 27.2179C191.388 28.8875 191.555 30.8037 191.549 32.5119C191.536 35.9281 191.549 39.0374 191.549 42.5717C191.6 43.3937 191.549 44.7599 193.176 44.9477C194.956 44.7599 194.521 43.4579 194.804 42.5846C194.956 41.0453 194.956 37.3307 194.956 37.3307H197.968C197.968 39.439 197.93 41.9039 197.569 43.9459C197.151 46.3219 195.608 47.6447 193.035 47.5676C190.661 47.497 188.924 46.3797 188.86 44.023C188.686 38.0831 188.68 32.1239 188.899 26.1905C188.989 23.7631 191.467 22.2366 193.551 22.6733C197.172 22.9884 197.366 24.38 197.807 26.1905C198.169 28.6969 197.968 32.323 197.968 32.323H195.119Z" fill="#7935B4"/>
<path d="M164.604 22.874V44.599C165.171 44.7452 169.055 44.599 169.055 44.599V47.5173C169.055 47.5173 163.298 47.5173 161.634 47.5173C161.634 39.7733 161.525 22.8804 161.525 22.8804C161.525 22.8804 164.604 22.874 164.604 22.8804V22.874Z" fill="#7935B4"/>
<path d="M146.366 23.0645C147.279 22.9798 147.817 23.0044 148.347 22.9523C155.541 22.3367 157.834 25.3117 155.182 33.3133C155.01 34.0369 154.394 34.2366 155.182 35.1902C157.108 37.5193 156.545 40.6516 156.479 43.1615C156.386 46.6036 154.434 47.4332 150.867 47.5506C149.477 47.5962 147.895 47.5506 146.373 47.5506C146.373 47.5506 146.373 46.1555 146.373 45.6339C146.366 38.2803 146.366 30.9267 146.366 23.2405V23.0645ZM149.702 45.1319C153.977 46.5468 153.351 40.802 153.247 38.34C153.179 36.731 152.726 35.4676 149.702 35.79V45.1319ZM149.702 33.1432C153.62 33.1627 152.793 30.5355 152.866 28.6123C152.939 26.7088 152.449 25.1246 149.702 25.7961V33.1367V33.1432Z" fill="#7935B4"/>
<path d="M182.863 35.0785C182.863 37.735 182.976 40.3979 182.83 43.0416C182.685 45.711 181.276 47.4201 178.325 47.5609C175.268 47.7082 173.35 46.2103 173.237 43.3425C173.025 37.9398 173.012 32.5116 173.217 27.1089C173.33 24.2155 175.44 22.7368 178.371 22.884C181.17 23.0249 182.784 24.6508 182.87 27.4225C182.95 29.9703 182.883 32.5243 182.883 35.0721C182.877 35.0721 182.87 35.0721 182.863 35.0721V35.0785ZM176.221 35.1297C176.221 35.1297 176.234 35.1297 176.241 35.1297C176.241 37.6838 176.221 39.9409 176.314 42.792C176.366 43.5345 176.361 44.7028 177.89 44.8602C179.755 44.502 179.681 43.5409 179.708 42.824C179.721 37.9331 179.721 32.813 179.721 27.8258C179.694 27.0321 179.897 25.5846 178.08 25.4894C176.082 25.4894 176.283 27.1909 176.307 28.1075C176.307 30.5039 176.221 32.7868 176.221 35.1297Z" fill="#7935B4"/>
<path d="M206.671 36.9307V47.1708H203.558V22.9712H206.671C206.597 25.1831 206.671 31.2083 206.671 33.4169C208.01 30.5072 209.513 26.0866 210.686 22.9712L213.899 22.9712C208.409 38.5354 208.208 32.0098 213.999 47.1708C214.054 47.3141 210.686 47.1708 210.686 47.1708C209.853 45.3265 207.56 39.342 206.671 36.9307Z" fill="#7935B4"/>
<path d="M131.307 47.5708V23.0716C133.582 23.0716 136.49 22.5881 138.523 23.1339C139.808 23.4733 140.863 25.2147 141.004 26.4326C141.287 28.8619 141.457 33.3433 139.882 33.8993C137.582 34.7117 140.405 34.5086 140.823 36.5398C141.328 40.5398 141.346 47.5708 141.346 47.5708H137.791C137.791 47.5708 137.785 39.3835 137.791 39.1804C137.871 36.4455 137.582 35.7273 134.719 35.7273C134.719 38.7024 134.719 47.5708 134.719 47.5708H131.307ZM134.719 25.5341V33.5941C138.104 33.5941 138.095 32.0053 138 29.0244C138 27.4351 137.66 24.8087 134.719 25.5408V25.5341Z" fill="#5A7CFD"/>
<path d="M87.9369 22.874H91.1495C91.0738 27.3075 91.0622 34.0544 91.076 38.488C91.076 39.3526 91.0003 40.2237 91.0898 41.0818C91.255 42.59 90.6216 44.7937 93.1345 44.7287C95.138 44.7287 94.7086 42.5881 94.7637 41.3464C94.7637 36.0143 94.7637 22.874 94.7637 22.874H98.0434C98.0434 29.5568 98.2843 36.6287 98.0434 43.4025C97.947 46.0743 96.0606 47.6215 92.9487 47.5695C89.7954 47.5175 88.1362 45.7948 88.0536 43.1685C87.7361 36.4272 87.9369 22.874 87.9369 22.874Z" fill="#5A7CFD"/>
<path d="M79.8745 31.3697V28.9263C79.8621 27.601 80.1478 25.9015 78.0715 25.9015C77.4272 26.0283 76.0883 26.3316 76.8758 29.5415C77.0245 30.7209 78.253 32.0181 79.1576 32.9503C82.5127 36.4079 83.118 37.9885 83.118 43.7181C82.6905 46.3181 81.2127 47.5383 78.6477 47.57C76.1013 47.6081 74.3807 46.3118 74.009 43.7181C73.8417 42.5767 73.9164 39.0438 73.811 37.8897L76.851 37.9885C76.851 39.2314 76.7813 40.9521 76.851 42.1608C77.1298 43.1818 76.7642 44.3622 78.6477 44.8048C80.1657 44.461 80.3949 42.7696 80.178 42.0023C80.5438 39.6679 79.4547 37.0994 77.2909 35.7306C74.4052 33.2467 73.272 30.4211 73.811 26.8255C74.2199 24.0734 75.5219 22.874 78.4646 22.874C81.8586 22.874 82.92 24.4546 82.92 27.3194C82.92 28.6302 82.92 30 82.92 31.3697H79.8745Z" fill="#5A7CFD"/>
<path d="M103.799 23.0503C112.348 22.3382 113.02 23.7675 113.57 27.6288C113.977 37.6627 112.654 38.0697 106.846 38.0697V46.1878V47.5708H103.799V23.0503ZM106.971 34.867C111.025 35.565 110.313 32.7161 110.313 29.4603C110.211 26.5097 110.415 25.187 106.971 25.433V34.867Z" fill="#5A7CFD"/>
<path d="M121.669 25.4776V33.494H125.886V36.048H121.669L121.646 44.864H125.886V47.5708C125.886 47.5708 120.596 47.5708 118.457 47.5708V22.874C120.294 22.874 125.886 22.874 125.886 22.874V25.4776H121.669Z" fill="#5A7CFD"/>
<circle cx="7.52167" cy="18.3564" r="2.31299" stroke="#7B36B6" stroke-width="2"/>
<circle cx="10.5334" cy="43.2539" r="2.31299" stroke="#7B36B6" stroke-width="2"/>
<circle cx="21.7776" cy="55.502" r="2.31299" stroke="#7B36B6" stroke-width="2"/>
<circle cx="45.6712" cy="55.502" r="2.31299" stroke="#7B36B6" stroke-width="2"/>
<circle cx="57.3168" cy="43.2539" r="2.31299" stroke="#7B36B6" stroke-width="2"/>
<circle cx="20.9744" cy="32.4114" r="2.31299" stroke="#7B36B6" stroke-width="2"/>
<circle cx="46.4744" cy="32.4114" r="2.31299" stroke="#7B36B6" stroke-width="2"/>
<circle cx="60.5294" cy="18.3564" r="2.31299" stroke="#7B36B6" stroke-width="2"/>
<circle cx="33.8248" cy="3.49805" r="2.31299" stroke="#7B36B6" stroke-width="2"/>
<circle cx="33.8248" cy="19.561" r="2.31299" stroke="#7B36B6" stroke-width="2"/>
<circle cx="33.8248" cy="45.061" r="2.31299" stroke="#7B36B6" stroke-width="2"/>
<path d="M35.933 5.20483L65.6495 35.2225L59.4251 41.4469" stroke="#7B36B6" stroke-width="2"/>
<path d="M32.3188 5.20483L2 35.472L8.35057 41.7481" stroke="#7B36B6" stroke-width="2"/>
<path d="M35.6319 43.3543L44.4665 34.3188" stroke="#7B36B6" stroke-width="2"/>
<path d="M55.6102 41.4469L48.2814 34.1182" stroke="#7B36B6" stroke-width="2"/>
<path d="M44.868 31.0059L35.431 21.4685" stroke="#7B36B6" stroke-width="2"/>
<path d="M48.3818 30.4035L58.9232 20.063" stroke="#7B36B6" stroke-width="2"/>
<path d="M47.3778 53.695L55.7105 45.3623" stroke="#7B36B6" stroke-width="2"/>
<path d="M20.2717 53.6948L12.0394 45.2617" stroke="#7B36B6" stroke-width="2"/>
<path d="M22.5807 30.9054L32.118 21.5688" stroke="#7B36B6" stroke-width="2"/>
<path d="M22.4803 33.8169L32.0177 43.2539" stroke="#7B36B6" stroke-width="2"/>
<path d="M19.2677 34.3188L11.939 41.3464" stroke="#7B36B6" stroke-width="2"/>
<path d="M19.1673 30.6041L9.32873 20.4644" stroke="#7B36B6" stroke-width="2"/>
</svg>
