<svg width="51" height="47" viewBox="0 0 51 47" fill="none" xmlns="http://www.w3.org/2000/svg">
<path fill-rule="evenodd" clip-rule="evenodd" d="M40.1764 31.841C41.1311 31.4428 42.1549 31.2369 43.1893 31.2351C44.8265 31.2366 46.4217 31.7526 47.7497 32.71C49.0777 33.6674 50.0713 35.018 50.5901 36.5707C51.1089 38.1235 51.1266 39.8 50.6409 41.3634C50.1551 42.9269 49.1903 44.2981 47.8829 45.2835C46.5755 46.2688 44.9915 46.8184 43.3547 46.8546C41.718 46.8909 40.1113 46.4119 38.7615 45.4854C37.4118 44.5588 36.3873 43.2316 35.8328 41.6912C35.2783 40.1509 35.2219 38.4752 35.6714 36.901L25.833 30.0126C24.6102 30.8161 23.182 31.2507 21.719 31.2644C20.0045 31.2644 18.3481 30.7007 16.9976 29.6759L11.4961 33.5274C11.8333 34.7079 11.7909 35.9645 11.3751 37.1196C10.9592 38.2747 10.1909 39.27 9.17868 39.9648C8.16644 40.6596 6.96146 41.0188 5.73398 40.9916C4.50651 40.9644 3.3186 40.5523 2.3381 39.8134C1.3576 39.0745 0.634075 38.0462 0.269763 36.8738C-0.0945489 35.7014 -0.0812331 34.4442 0.307827 33.2798C0.696888 32.1154 1.44202 31.1026 2.43795 30.3847C3.43388 29.6667 4.63025 29.2798 5.85803 29.2786C6.63377 29.28 7.40163 29.4344 8.11759 29.733C8.83355 30.0316 9.48354 30.4685 10.0303 31.0188L15.0421 27.5067C14.3065 26.2949 13.9082 24.8948 13.9082 23.4536C13.9082 21.9946 14.3165 20.5776 15.0697 19.3554L10.0303 15.8241C9.07782 16.7906 7.81927 17.3964 6.46966 17.5381C5.12005 17.6798 3.76311 17.3485 2.63063 16.6009C1.49816 15.8533 0.660412 14.7357 0.2605 13.439C-0.139411 12.1424 -0.0766756 10.7471 0.437989 9.49153C0.952653 8.23599 1.88731 7.19807 3.08231 6.55507C4.27731 5.91208 5.65851 5.70391 6.98996 5.96612C8.32141 6.22833 9.52051 6.94465 10.3824 7.99273C11.2443 9.0408 11.7156 10.3556 11.7157 11.7125C11.7155 12.2471 11.6416 12.7791 11.4961 13.2935L17.0456 17.1952C18.3873 16.1933 20.0247 15.6429 21.719 15.6429C23.1762 15.6391 24.6039 16.0532 25.833 16.8361L35.6714 9.91844C35.4774 9.23248 35.3789 8.52306 35.3786 7.8102C35.3787 6.00071 36.0071 4.24739 37.1564 2.84976C38.3057 1.45213 39.9046 0.496895 41.68 0.147231C43.4554 -0.202433 45.2971 0.075169 46.8905 0.932616C48.484 1.79006 49.7303 3.17416 50.4165 4.84846C51.1028 6.52277 51.1865 8.38341 50.6532 10.1125C50.12 11.8417 49.0029 13.332 47.4928 14.329C45.9828 15.326 44.1734 15.7677 42.3738 15.5788C40.5742 15.3898 38.896 14.5819 37.6259 13.2931L28.5488 19.6544C29.1871 20.8084 29.5219 22.1056 29.5219 23.4243C29.5219 24.7431 29.1871 26.0403 28.5488 27.1943L37.6259 33.5556C38.355 32.8218 39.2217 32.2392 40.1764 31.841ZM45.8435 5.10289C45.1467 4.37527 44.1959 3.94476 43.1893 3.90117C42.3707 3.89912 41.5723 4.15508 40.9074 4.63269C40.2426 5.1103 39.7451 5.78527 39.4858 6.56172C39.2264 7.33817 39.2183 8.1766 39.4627 8.9579C39.707 9.73921 40.1913 10.4236 40.8468 10.914C41.5181 11.4315 42.3418 11.712 43.1893 11.7119C44.1959 11.6683 45.1467 11.2378 45.8435 10.5102C46.5403 9.78256 46.9292 8.814 46.9292 7.80654C46.9292 6.79908 46.5403 5.83052 45.8435 5.10289ZM40.9074 42.216C41.5723 42.6936 42.3707 42.9496 43.1893 42.9475C44.1959 42.9039 45.1467 42.4734 45.8435 41.7458C46.5403 41.0182 46.9292 40.0496 46.9292 39.0422C46.9292 38.0347 46.5403 37.0661 45.8435 36.3385C45.1467 35.6109 44.1959 35.1804 43.1893 35.1368C42.3418 35.1367 41.5181 35.4172 40.8468 35.9347C40.1913 36.425 39.707 37.1095 39.4627 37.8908C39.2183 38.6721 39.2264 39.5105 39.4858 40.287C39.7451 41.0634 40.2426 41.7384 40.9074 42.216ZM3.86756 9.68233C4.39012 9.13669 5.1032 8.81385 5.85803 8.78117C6.47195 8.77963 7.07075 8.97157 7.56935 9.32973C8.06795 9.68788 8.44101 10.194 8.63551 10.7763C8.83002 11.3585 8.83608 11.9873 8.65284 12.5732C8.46961 13.1591 8.10639 13.6723 7.61478 14.04C7.11139 14.4281 6.49364 14.6385 5.85803 14.6384C5.1032 14.6057 4.39012 14.2829 3.86756 13.7372C3.34499 13.1916 3.05329 12.4653 3.05329 11.7098C3.05329 10.9543 3.34499 10.228 3.86756 9.68233ZM20.266 25.8034C19.8221 25.4867 19.4768 25.0511 19.2697 24.5468V24.5742C19.114 24.2195 19.0336 23.8363 19.0336 23.4489C19.0336 23.0615 19.114 22.6783 19.2697 22.3235C19.4693 21.8099 19.8115 21.364 20.256 21.0382C20.7004 20.7124 21.2287 20.5204 21.7786 20.4846C21.8315 20.4787 21.8849 20.4787 21.9378 20.4846C22.7138 20.4846 23.4581 20.7929 24.0068 21.3416C24.5556 21.8903 24.8639 22.6345 24.8639 23.4105C24.8639 24.1864 24.5556 24.9306 24.0068 25.4793C23.4581 26.028 22.7138 26.3363 21.9378 26.3363C21.8849 26.3422 21.8315 26.3422 21.7786 26.3363C21.2342 26.3047 20.7099 26.12 20.266 25.8034ZM7.56935 37.5131C7.07075 37.8713 6.47195 38.0632 5.85803 38.0617C5.1032 38.029 4.39012 37.7062 3.86756 37.1605C3.34499 36.6149 3.05329 35.8886 3.05329 35.1331C3.05329 34.3776 3.34499 33.6513 3.86756 33.1057C4.39012 32.56 5.1032 32.2372 5.85803 32.2045C6.49364 32.2044 7.11139 32.4148 7.61478 32.8028C8.10639 33.1705 8.46961 33.6838 8.65284 34.2697C8.83608 34.8556 8.83002 35.4843 8.63551 36.0666C8.44101 36.6488 8.06795 37.155 7.56935 37.5131Z" fill="url(#paint0_linear_336_500)"/>
<circle cx="21.9627" cy="23.4243" r="5.85622" fill="white"/>
<defs>
<linearGradient id="paint0_linear_336_500" x1="51.0004" y1="1.98409e-06" x2="6.25698e-05" y2="45.3333" gradientUnits="userSpaceOnUse">
<stop stop-color="#7B36B6"/>
<stop offset="1" stop-color="#1BA3FF"/>
</linearGradient>
</defs>
</svg>
