<svg width="402" height="520" viewBox="0 0 402 520" fill="none" xmlns="http://www.w3.org/2000/svg">
<path d="M1.42383 374.797C1.42383 370.567 3.47087 366.338 7.58129 363.865L177.083 261.385C191.835 252.47 210.292 252.47 225.042 261.385L394.545 363.865C398.655 366.354 400.703 370.567 400.703 374.797V398.436C400.703 402.502 398.574 406.278 395.097 408.376L225.042 511.197C210.292 520.112 191.835 520.112 177.083 511.197L7.02892 408.376C3.55212 406.278 1.42383 402.502 1.42383 398.436V374.797Z" stroke="#7B36B6" stroke-width="2.52767" stroke-miterlimit="10"/>
<path d="M7.58129 363.847C3.47087 366.335 1.42383 370.549 1.42383 374.779C1.42383 379.011 3.47087 383.241 7.58129 385.714L177.083 488.191C191.835 497.106 210.292 497.106 225.042 488.191L394.545 385.714C398.655 383.225 400.703 379.011 400.703 374.779C400.703 370.549 398.655 366.32 394.545 363.847" stroke="#7B36B6" stroke-width="2.52767" stroke-miterlimit="10"/>
<path d="M69.8069 446.332L81.3582 453.311V430.324L69.8069 423.342V446.332Z" stroke="#7B36B6" stroke-width="2.52767" stroke-miterlimit="10"/>
<path d="M48.8804 410.703L7.58129 385.729C3.47087 383.24 1.42383 379.027 1.42383 374.797V398.436C1.42383 402.502 3.55212 406.278 7.02892 408.376L48.8804 433.691V410.703Z" stroke="#7B36B6" stroke-width="2.52767" stroke-miterlimit="10"/>
<path d="M177.083 488.208V511.196" stroke="#7B36B6" stroke-width="2.52767" stroke-miterlimit="10"/>
<mask id="mask0_388_2164" style="mask-type:luminance" maskUnits="userSpaceOnUse" x="225" y="385" width="171" height="127">
<path d="M225.042 488.209L394.545 385.729L395.097 408.376L225.042 511.197V488.209Z" fill="white"/>
</mask>
<g mask="url(#mask0_388_2164)">
<path d="M387.787 395.539C386.747 395.539 385.901 396.386 385.901 397.428C385.901 398.468 386.747 399.315 387.787 399.315C388.826 399.315 389.672 398.468 389.672 397.428C389.672 396.386 388.826 395.539 387.787 395.539ZM389.672 389.568C389.672 390.611 388.826 391.455 387.787 391.455C386.747 391.455 385.901 390.611 385.901 389.568C385.901 388.528 386.747 387.682 387.787 387.682C388.826 387.682 389.672 388.528 389.672 389.568Z" fill="#7B36B6"/>
<path d="M387.787 411.239C386.747 411.239 385.901 412.084 385.901 413.126C385.901 414.166 386.747 415.013 387.787 415.013C388.826 415.013 389.672 414.166 389.672 413.126C389.672 412.084 388.826 411.239 387.787 411.239ZM389.672 405.269C389.672 406.309 388.826 407.156 387.787 407.156C386.747 407.156 385.901 406.309 385.901 405.269C385.901 404.227 386.747 403.38 387.787 403.38C388.826 403.38 389.672 404.227 389.672 405.269Z" fill="#7B36B6"/>
<path d="M381.824 397.428C381.824 398.468 380.979 399.314 379.94 399.314C378.899 399.314 378.054 398.468 378.054 397.428C378.054 396.385 378.899 395.539 379.94 395.539C380.979 395.539 381.824 396.385 381.824 397.428Z" fill="#7B36B6"/>
<path d="M372.089 411.239C371.051 411.239 370.205 412.084 370.205 413.126C370.205 414.166 371.051 415.013 372.089 415.013C373.13 415.013 373.976 414.166 373.976 413.126C373.976 412.084 373.13 411.239 372.089 411.239ZM381.822 413.126C381.822 414.166 380.977 415.013 379.938 415.013C378.897 415.013 378.054 414.166 378.054 413.126C378.054 412.084 378.897 411.239 379.938 411.239C380.977 411.239 381.822 412.084 381.822 413.126ZM381.822 405.269C381.822 406.309 380.977 407.156 379.938 407.156C378.897 407.156 378.054 406.309 378.054 405.269C378.054 404.227 378.897 403.38 379.938 403.38C380.977 403.38 381.822 404.227 381.822 405.269ZM373.976 405.269C373.976 406.309 373.13 407.156 372.089 407.156C371.051 407.156 370.205 406.309 370.205 405.269C370.205 404.227 371.051 403.38 372.089 403.38C373.13 403.38 373.976 404.227 373.976 405.269Z" fill="#7B36B6"/>
<path d="M373.976 420.984C373.976 422.026 373.13 422.871 372.089 422.871C371.051 422.871 370.205 422.026 370.205 420.984C370.205 419.944 371.051 419.097 372.089 419.097C373.13 419.097 373.976 419.944 373.976 420.984Z" fill="#7B36B6"/>
<path d="M356.412 411.239C355.373 411.239 354.527 412.084 354.527 413.126C354.527 414.166 355.373 415.013 356.412 415.013C357.452 415.013 358.296 414.166 358.296 413.126C358.296 412.084 357.452 411.239 356.412 411.239ZM366.144 413.126C366.144 414.166 365.299 415.013 364.258 415.013C363.219 415.013 362.374 414.166 362.374 413.126C362.374 412.084 363.219 411.239 364.258 411.239C365.299 411.239 366.144 412.084 366.144 413.126ZM366.144 405.269C366.144 406.309 365.299 407.156 364.258 407.156C363.219 407.156 362.374 406.309 362.374 405.269C362.374 404.227 363.219 403.38 364.258 403.38C365.299 403.38 366.144 404.227 366.144 405.269Z" fill="#7B36B6"/>
<path d="M356.412 426.954C355.373 426.954 354.527 427.801 354.527 428.844C354.527 429.884 355.373 430.73 356.412 430.73C357.452 430.73 358.296 429.884 358.296 428.844C358.296 427.801 357.452 426.954 356.412 426.954ZM366.144 420.984C366.144 422.026 365.299 422.871 364.258 422.871C363.219 422.871 362.374 422.026 362.374 420.984C362.374 419.944 363.219 419.097 364.258 419.097C365.299 419.097 366.144 419.944 366.144 420.984ZM358.296 420.984C358.296 422.026 357.452 422.871 356.412 422.871C355.373 422.871 354.527 422.026 354.527 420.984C354.527 419.944 355.373 419.097 356.412 419.097C357.452 419.097 358.296 419.944 358.296 420.984Z" fill="#7B36B6"/>
<path d="M350.45 413.127C350.45 414.169 349.606 415.014 348.566 415.014C347.527 415.014 346.681 414.169 346.681 413.127C346.681 412.085 347.527 411.24 348.566 411.24C349.606 411.24 350.45 412.085 350.45 413.127Z" fill="#7B36B6"/>
<path d="M340.72 426.954C339.681 426.954 338.836 427.801 338.836 428.844C338.836 429.884 339.681 430.73 340.72 430.73C341.761 430.73 342.604 429.884 342.604 428.844C342.604 427.801 341.761 426.954 340.72 426.954ZM350.453 428.844C350.453 429.884 349.607 430.73 348.566 430.73C347.528 430.73 346.682 429.884 346.682 428.844C346.682 427.801 347.528 426.954 348.566 426.954C349.607 426.954 350.453 427.801 350.453 428.844ZM350.453 420.984C350.453 422.026 349.607 422.871 348.566 422.871C347.528 422.871 346.682 422.026 346.682 420.984C346.682 419.944 347.528 419.097 348.566 419.097C349.607 419.097 350.453 419.944 350.453 420.984ZM342.604 420.984C342.604 422.026 341.761 422.871 340.72 422.871C339.681 422.871 338.836 422.026 338.836 420.984C338.836 419.944 339.681 419.097 340.72 419.097C341.761 419.097 342.604 419.944 342.604 420.984Z" fill="#7B36B6"/>
<path d="M350.453 436.701C350.453 437.741 349.607 438.588 348.566 438.588C347.528 438.588 346.682 437.741 346.682 436.701C346.682 435.659 347.528 434.814 348.566 434.814C349.607 434.814 350.453 435.659 350.453 436.701ZM342.604 436.701C342.604 437.741 341.761 438.588 340.72 438.588C339.681 438.588 338.836 437.741 338.836 436.701C338.836 435.659 339.681 434.814 340.72 434.814C341.761 434.814 342.604 435.659 342.604 436.701Z" fill="#7B36B6"/>
<path d="M325.042 426.955C324.001 426.955 323.158 427.801 323.158 428.841C323.158 429.884 324.001 430.73 325.042 430.73C326.081 430.73 326.926 429.884 326.926 428.841C326.926 427.801 326.081 426.955 325.042 426.955ZM334.773 428.841C334.773 429.884 333.929 430.73 332.888 430.73C331.85 430.73 331.004 429.884 331.004 428.841C331.004 427.801 331.85 426.955 332.888 426.955C333.929 426.955 334.773 427.801 334.773 428.841Z" fill="#7B36B6"/>
<path d="M325.042 442.671C324.001 442.671 323.158 443.518 323.158 444.558C323.158 445.6 324.001 446.445 325.042 446.445C326.081 446.445 326.926 445.6 326.926 444.558C326.926 443.518 326.081 442.671 325.042 442.671ZM334.773 444.558C334.773 445.6 333.929 446.445 332.888 446.445C331.85 446.445 331.004 445.6 331.004 444.558C331.004 443.518 331.85 442.671 332.888 442.671C333.929 442.671 334.773 443.518 334.773 444.558ZM334.773 436.701C334.773 437.741 333.929 438.588 332.888 438.588C331.85 438.588 331.004 437.741 331.004 436.701C331.004 435.659 331.85 434.814 332.888 434.814C333.929 434.814 334.773 435.659 334.773 436.701ZM326.926 436.701C326.926 437.741 326.081 438.588 325.042 438.588C324.001 438.588 323.158 437.741 323.158 436.701C323.158 435.659 324.001 434.814 325.042 434.814C326.081 434.814 326.926 435.659 326.926 436.701Z" fill="#7B36B6"/>
<path d="M309.346 442.671C308.305 442.671 307.462 443.518 307.462 444.558C307.462 445.6 308.305 446.445 309.346 446.445C310.385 446.445 311.23 445.6 311.23 444.558C311.23 443.518 310.385 442.671 309.346 442.671ZM319.077 444.558C319.077 445.6 318.233 446.445 317.193 446.445C316.154 446.445 315.308 445.6 315.308 444.558C315.308 443.518 316.154 442.671 317.193 442.671C318.233 442.671 319.077 443.518 319.077 444.558ZM319.077 436.701C319.077 437.741 318.233 438.588 317.193 438.588C316.154 438.588 315.308 437.741 315.308 436.701C315.308 435.659 316.154 434.814 317.193 434.814C318.233 434.814 319.077 435.659 319.077 436.701ZM311.23 436.701C311.23 437.741 310.385 438.588 309.346 438.588C308.305 438.588 307.462 437.741 307.462 436.701C307.462 435.659 308.305 434.814 309.346 434.814C310.385 434.814 311.23 435.659 311.23 436.701Z" fill="#7B36B6"/>
<path d="M309.346 458.37C308.305 458.37 307.462 459.217 307.462 460.257C307.462 461.299 308.305 462.146 309.346 462.146C310.385 462.146 311.23 461.299 311.23 460.257C311.23 459.217 310.385 458.37 309.346 458.37ZM319.077 452.4C319.077 453.442 318.233 454.286 317.193 454.286C316.154 454.286 315.308 453.442 315.308 452.4C315.308 451.36 316.154 450.513 317.193 450.513C318.233 450.513 319.077 451.36 319.077 452.4ZM311.23 452.4C311.23 453.442 310.385 454.286 309.346 454.286C308.305 454.286 307.462 453.442 307.462 452.4C307.462 451.36 308.305 450.513 309.346 450.513C310.385 450.513 311.23 451.36 311.23 452.4Z" fill="#7B36B6"/>
<path d="M293.669 442.671C292.628 442.671 291.782 443.518 291.782 444.558C291.782 445.6 292.628 446.445 293.669 446.445C294.708 446.445 295.553 445.6 295.553 444.558C295.553 443.518 294.708 442.671 293.669 442.671ZM303.4 444.558C303.4 445.6 302.554 446.445 301.515 446.445C300.475 446.445 299.631 445.6 299.631 444.558C299.631 443.518 300.475 442.671 301.515 442.671C302.554 442.671 303.4 443.518 303.4 444.558Z" fill="#7B36B6"/>
<path d="M293.669 458.37C292.628 458.37 291.782 459.217 291.782 460.257C291.782 461.299 292.628 462.146 293.669 462.146C294.708 462.146 295.553 461.299 295.553 460.257C295.553 459.217 294.708 458.37 293.669 458.37ZM303.4 460.257C303.4 461.299 302.554 462.146 301.515 462.146C300.475 462.146 299.631 461.299 299.631 460.257C299.631 459.217 300.475 458.37 301.515 458.37C302.554 458.37 303.4 459.217 303.4 460.257ZM303.4 452.4C303.4 453.442 302.554 454.286 301.515 454.286C300.475 454.286 299.631 453.442 299.631 452.4C299.631 451.36 300.475 450.513 301.515 450.513C302.554 450.513 303.4 451.36 303.4 452.4ZM295.553 452.4C295.553 453.442 294.708 454.286 293.669 454.286C292.628 454.286 291.782 453.442 291.782 452.4C291.782 451.36 292.628 450.513 293.669 450.513C294.708 450.513 295.553 451.36 295.553 452.4Z" fill="#7B36B6"/>
<path d="M295.553 468.117C295.553 469.157 294.708 470.004 293.669 470.004C292.628 470.004 291.782 469.157 291.782 468.117C291.782 467.075 292.628 466.23 293.669 466.23C294.708 466.23 295.553 467.075 295.553 468.117Z" fill="#7B36B6"/>
<path d="M277.974 458.37C276.935 458.37 276.089 459.217 276.089 460.257C276.089 461.299 276.935 462.146 277.974 462.146C279.014 462.146 279.86 461.299 279.86 460.257C279.86 459.217 279.014 458.37 277.974 458.37ZM287.707 460.257C287.707 461.299 286.861 462.146 285.822 462.146C284.782 462.146 283.938 461.299 283.938 460.257C283.938 459.217 284.782 458.37 285.822 458.37C286.861 458.37 287.707 459.217 287.707 460.257ZM287.707 452.4C287.707 453.442 286.861 454.286 285.822 454.286C284.782 454.286 283.938 453.442 283.938 452.4C283.938 451.36 284.782 450.513 285.822 450.513C286.861 450.513 287.707 451.36 287.707 452.4Z" fill="#7B36B6"/>
<path d="M277.974 474.087C276.935 474.087 276.089 474.932 276.089 475.974C276.089 477.016 276.935 477.861 277.974 477.861C279.014 477.861 279.86 477.016 279.86 475.974C279.86 474.932 279.014 474.087 277.974 474.087ZM287.707 468.117C287.707 469.157 286.861 470.004 285.822 470.004C284.782 470.004 283.938 469.157 283.938 468.117C283.938 467.075 284.782 466.23 285.822 466.23C286.861 466.23 287.707 467.075 287.707 468.117ZM279.86 468.117C279.86 469.157 279.014 470.004 277.974 470.004C276.935 470.004 276.089 469.157 276.089 468.117C276.089 467.075 276.935 466.23 277.974 466.23C279.014 466.23 279.86 467.075 279.86 468.117Z" fill="#7B36B6"/>
<path d="M272.012 460.257C272.012 461.299 271.166 462.146 270.125 462.146C269.087 462.146 268.241 461.299 268.241 460.257C268.241 459.217 269.087 458.37 270.125 458.37C271.166 458.37 272.012 459.217 272.012 460.257Z" fill="#7B36B6"/>
<path d="M262.297 474.087C261.258 474.087 260.412 474.932 260.412 475.974C260.412 477.016 261.258 477.861 262.297 477.861C263.338 477.861 264.181 477.016 264.181 475.974C264.181 474.932 263.338 474.087 262.297 474.087ZM272.03 475.974C272.03 477.016 271.184 477.861 270.143 477.861C269.105 477.861 268.259 477.016 268.259 475.974C268.259 474.932 269.105 474.087 270.143 474.087C271.184 474.087 272.03 474.932 272.03 475.974ZM272.03 468.117C272.03 469.157 271.184 470.004 270.143 470.004C269.105 470.004 268.259 469.157 268.259 468.117C268.259 467.075 269.105 466.23 270.143 466.23C271.184 466.23 272.03 467.075 272.03 468.117ZM264.181 468.117C264.181 469.157 263.338 470.004 262.297 470.004C261.258 470.004 260.412 469.157 260.412 468.117C260.412 467.075 261.258 466.23 262.297 466.23C263.338 466.23 264.181 467.075 264.181 468.117Z" fill="#7B36B6"/>
<path d="M272.012 483.815C272.012 484.857 271.167 485.702 270.128 485.702C269.087 485.702 268.242 484.857 268.242 483.815C268.242 482.775 269.087 481.928 270.128 481.928C271.167 481.928 272.012 482.775 272.012 483.815ZM264.166 483.815C264.166 484.857 263.32 485.702 262.279 485.702C261.241 485.702 260.395 484.857 260.395 483.815C260.395 482.775 261.241 481.928 262.279 481.928C263.32 481.928 264.166 482.775 264.166 483.815Z" fill="#7B36B6"/>
<path d="M246.601 474.087C245.563 474.087 244.717 474.931 244.717 475.974C244.717 477.016 245.563 477.861 246.601 477.861C247.642 477.861 248.485 477.016 248.485 475.974C248.485 474.931 247.642 474.087 246.601 474.087ZM256.334 475.974C256.334 477.016 255.489 477.861 254.448 477.861C253.409 477.861 252.563 477.016 252.563 475.974C252.563 474.931 253.409 474.087 254.448 474.087C255.489 474.087 256.334 474.931 256.334 475.974Z" fill="#7B36B6"/>
<path d="M246.601 489.786C245.563 489.786 244.717 490.632 244.717 491.672C244.717 492.715 245.563 493.561 246.601 493.561C247.642 493.561 248.485 492.715 248.485 491.672C248.485 490.632 247.642 489.786 246.601 489.786ZM256.334 491.672C256.334 492.715 255.489 493.561 254.448 493.561C253.409 493.561 252.563 492.715 252.563 491.672C252.563 490.632 253.409 489.786 254.448 489.786C255.489 489.786 256.334 490.632 256.334 491.672ZM256.334 483.815C256.334 484.857 255.489 485.702 254.448 485.702C253.409 485.702 252.563 484.857 252.563 483.815C252.563 482.775 253.409 481.928 254.448 481.928C255.489 481.928 256.334 482.775 256.334 483.815ZM248.485 483.815C248.485 484.857 247.642 485.702 246.601 485.702C245.563 485.702 244.717 484.857 244.717 483.815C244.717 482.775 245.563 481.928 246.601 481.928C247.642 481.928 248.485 482.775 248.485 483.815Z" fill="#7B36B6"/>
<path d="M248.485 499.532C248.485 500.572 247.642 501.419 246.601 501.419C245.563 501.419 244.717 500.572 244.717 499.532C244.717 498.49 245.563 497.643 246.601 497.643C247.642 497.643 248.485 498.49 248.485 499.532Z" fill="#7B36B6"/>
<path d="M230.924 489.786C229.883 489.786 229.04 490.632 229.04 491.672C229.04 492.715 229.883 493.561 230.924 493.561C231.963 493.561 232.808 492.715 232.808 491.672C232.808 490.632 231.963 489.786 230.924 489.786ZM240.655 491.672C240.655 492.715 239.811 493.561 238.771 493.561C237.732 493.561 236.886 492.715 236.886 491.672C236.886 490.632 237.732 489.786 238.771 489.786C239.811 489.786 240.655 490.632 240.655 491.672ZM240.655 483.815C240.655 484.857 239.811 485.702 238.771 485.702C237.732 485.702 236.886 484.857 236.886 483.815C236.886 482.775 237.732 481.928 238.771 481.928C239.811 481.928 240.655 482.775 240.655 483.815ZM232.808 483.815C232.808 484.857 231.963 485.702 230.924 485.702C229.883 485.702 229.04 484.857 229.04 483.815C229.04 482.775 229.883 481.928 230.924 481.928C231.963 481.928 232.808 482.775 232.808 483.815Z" fill="#7B36B6"/>
<path d="M230.924 505.503C229.883 505.503 229.04 506.347 229.04 507.389C229.04 508.429 229.883 509.276 230.924 509.276C231.963 509.276 232.808 508.429 232.808 507.389C232.808 506.347 231.963 505.503 230.924 505.503ZM240.655 499.532C240.655 500.572 239.811 501.419 238.771 501.419C237.732 501.419 236.886 500.572 236.886 499.532C236.886 498.49 237.732 497.643 238.771 497.643C239.811 497.643 240.655 498.49 240.655 499.532ZM232.808 499.532C232.808 500.572 231.963 501.419 230.924 501.419C229.883 501.419 229.04 500.572 229.04 499.532C229.04 498.49 229.883 497.643 230.924 497.643C231.963 497.643 232.808 498.49 232.808 499.532Z" fill="#7B36B6"/>
</g>
<path d="M225.042 488.208V511.196" stroke="#7B36B6" stroke-width="2.52767" stroke-miterlimit="10"/>
<path d="M394.545 385.729L385.366 391.277V414.265L395.099 408.376C398.576 406.278 400.703 402.502 400.703 398.436V374.797C400.703 379.027 398.657 383.256 394.545 385.729Z" stroke="#7B36B6" stroke-width="2.52767" stroke-miterlimit="10"/>
<path d="M192.518 172.475L196.921 171.336C202.006 170.035 207.839 172.199 213.217 178.153C223.973 190.062 228.829 212.577 224.054 228.474C221.665 236.412 217.326 241.196 212.241 242.513L207.839 243.652" stroke="#7B36B6" stroke-width="2.52767" stroke-miterlimit="10"/>
<path d="M180.706 186.499C183.095 178.559 187.433 173.776 192.518 172.458C197.603 171.157 203.436 173.321 208.813 179.275C219.57 191.184 224.426 213.7 219.65 229.594C217.261 237.535 212.923 242.317 207.838 243.636C202.753 244.936 196.921 242.773 191.543 236.818C180.788 224.911 175.93 202.394 180.706 186.499Z" stroke="#7B36B6" stroke-width="2.52767" stroke-miterlimit="10"/>
<path d="M195.036 209.601L202.071 217.393C205.434 221.104 207.855 228.049 207.774 233.874C203.647 236.576 198.334 235.502 193.542 230.215C188.749 224.911 185.613 216.645 184.752 208.413C187.335 205.355 191.673 205.908 195.036 209.617V209.601Z" fill="#1BA3FF"/>
<path d="M205.668 212.827C210.009 211.971 212.299 205.031 210.783 197.326C209.269 189.621 204.522 184.069 200.182 184.924C195.842 185.78 193.551 192.72 195.067 200.425C196.582 208.13 201.328 213.683 205.668 212.827Z" fill="#1BA3FF"/>
<path d="M234.954 7.16498L230.031 4.18772C224.344 0.754952 216.498 1.24303 207.822 6.49785C190.47 16.9915 176.417 42.5013 176.417 63.4722C176.417 73.9657 179.926 81.3356 185.612 84.7683L190.535 87.7456" stroke="#7B36B6" stroke-width="2.52767" stroke-miterlimit="10"/>
<path d="M244.149 28.4615C244.149 17.9678 240.638 10.598 234.952 7.16527C229.265 3.73248 221.419 4.22056 212.742 9.47551C195.392 19.969 181.339 45.4789 181.339 66.4497C181.339 76.9431 184.848 84.313 190.534 87.7459C196.221 91.1786 204.068 90.6905 212.742 85.4357C230.095 74.9422 244.149 49.4323 244.149 28.4615Z" stroke="#7B36B6" stroke-width="2.52767" stroke-miterlimit="10"/>
<path d="M218.413 51.2055L207.057 58.0711C201.647 61.3411 196.188 68.8575 194.173 75.9344C198.186 80.7175 205.01 81.3521 212.727 76.6829C220.443 72.0136 227.267 63.1307 231.28 53.4993C229.265 48.8627 223.808 47.9354 218.397 51.2055H218.413Z" fill="#1BA3FF"/>
<path d="M221.646 40.1228C226.278 31.345 226.029 22.1085 221.085 19.4928C216.144 16.8768 208.382 21.872 203.748 30.6498C199.115 39.4276 199.365 48.664 204.307 51.28C209.249 53.8957 217.012 48.9006 221.646 40.1228Z" fill="#1BA3FF"/>
<path d="M257.83 127.832L252.875 129.801C247.155 132.079 243.126 138.147 242.135 147.485C240.136 166.162 251.056 190.826 266.489 202.556C274.207 208.429 281.598 209.958 287.318 207.681L292.273 205.712" stroke="#7B36B6" stroke-width="2.52767" stroke-miterlimit="10"/>
<path d="M278.658 132.973C270.941 127.1 263.548 125.571 257.83 127.849C252.11 130.126 248.081 136.195 247.09 145.533C245.091 164.21 256.011 188.874 271.444 200.604C279.162 206.477 286.553 208.006 292.274 205.729C297.991 203.451 302.02 197.383 303.011 188.044C305.01 169.367 294.093 144.703 278.658 132.973Z" stroke="#7B36B6" stroke-width="2.52767" stroke-miterlimit="10"/>
<path d="M279.731 163.202L278.317 176.396C277.651 182.692 280.316 191.591 284.735 197.481C290.973 197.172 295.603 192.112 296.563 183.131C297.521 174.151 294.58 163.348 289.349 154.303C284.441 153.099 280.412 156.906 279.731 163.186V163.202Z" fill="#1BA3FF"/>
<path d="M273.185 175.098C277.873 172.917 278.539 164.398 274.677 156.07C270.812 147.742 263.881 142.759 259.192 144.94C254.506 147.12 253.838 155.639 257.703 163.967C261.566 172.295 268.499 177.278 273.185 175.098Z" fill="#1BA3FF"/>
<path d="M131.054 343.493C131.054 382.213 162.394 413.595 201.061 413.595C239.728 413.595 271.069 382.213 271.069 343.493" stroke="#7B36B6" stroke-width="2.52767" stroke-miterlimit="10"/>
<path d="M250.582 313.557C223.238 297.027 178.901 297.027 151.558 313.557C137.878 321.823 131.054 332.656 131.054 343.492C131.054 354.328 137.894 365.161 151.558 373.428C178.901 389.958 223.238 389.958 250.582 373.428C264.261 365.161 271.084 354.328 271.084 343.492C271.084 332.656 264.245 321.823 250.582 313.557Z" stroke="#7B36B6" stroke-width="2.52767" stroke-miterlimit="10"/>
<path d="M239.143 320.033C240.839 320.033 242.214 319.201 242.214 318.177C242.214 317.153 240.839 316.322 239.143 316.322C237.447 316.322 236.072 317.153 236.072 318.177C236.072 319.201 237.447 320.033 239.143 320.033Z" fill="#7B36B6" stroke="#7B36B6" stroke-width="2.52767" stroke-miterlimit="10"/>
<path d="M221.68 312.971C223.376 312.971 224.751 312.142 224.751 311.118C224.751 310.093 223.376 309.262 221.68 309.262C219.984 309.262 218.609 310.093 218.609 311.118C218.609 312.142 219.984 312.971 221.68 312.971Z" fill="#7B36B6" stroke="#7B36B6" stroke-width="2.52767" stroke-miterlimit="10"/>
<path d="M201.078 310.498C202.774 310.498 204.149 309.669 204.149 308.645C204.149 307.621 202.774 306.79 201.078 306.79C199.383 306.79 198.008 307.621 198.008 308.645C198.008 309.669 199.383 310.498 201.078 310.498Z" fill="#7B36B6" stroke="#7B36B6" stroke-width="2.52767" stroke-miterlimit="10"/>
<path d="M180.462 312.971C182.158 312.971 183.533 312.142 183.533 311.118C183.533 310.093 182.158 309.262 180.462 309.262C178.766 309.262 177.392 310.093 177.392 311.118C177.392 312.142 178.766 312.971 180.462 312.971Z" fill="#7B36B6" stroke="#7B36B6" stroke-width="2.52767" stroke-miterlimit="10"/>
<path d="M162.997 320.033C164.693 320.033 166.068 319.201 166.068 318.177C166.068 317.153 164.693 316.322 162.997 316.322C161.301 316.322 159.927 317.153 159.927 318.177C159.927 319.201 161.301 320.033 162.997 320.033Z" fill="#7B36B6" stroke="#7B36B6" stroke-width="2.52767" stroke-miterlimit="10"/>
<path d="M151.33 330.59C153.026 330.59 154.4 329.762 154.4 328.737C154.4 327.713 153.026 326.882 151.33 326.882C149.634 326.882 148.259 327.713 148.259 328.737C148.259 329.762 149.634 330.59 151.33 330.59Z" fill="#7B36B6" stroke="#7B36B6" stroke-width="2.52767" stroke-miterlimit="10"/>
<path d="M147.221 343.052C148.917 343.052 150.292 342.223 150.292 341.199C150.292 340.175 148.917 339.344 147.221 339.344C145.525 339.344 144.151 340.175 144.151 341.199C144.151 342.223 145.525 343.052 147.221 343.052Z" fill="#7B36B6" stroke="#7B36B6" stroke-width="2.52767" stroke-miterlimit="10"/>
<path d="M151.33 355.515C153.026 355.515 154.4 354.686 154.4 353.662C154.4 352.637 153.026 351.806 151.33 351.806C149.634 351.806 148.259 352.637 148.259 353.662C148.259 354.686 149.634 355.515 151.33 355.515Z" fill="#7B36B6" stroke="#7B36B6" stroke-width="2.52767" stroke-miterlimit="10"/>
<path d="M162.997 366.074C164.693 366.074 166.068 365.243 166.068 364.219C166.068 363.195 164.693 362.366 162.997 362.366C161.301 362.366 159.927 363.195 159.927 364.219C159.927 365.243 161.301 366.074 162.997 366.074Z" fill="#7B36B6" stroke="#7B36B6" stroke-width="2.52767" stroke-miterlimit="10"/>
<path d="M180.462 373.134C182.158 373.134 183.533 372.305 183.533 371.281C183.533 370.256 182.158 369.425 180.462 369.425C178.766 369.425 177.392 370.256 177.392 371.281C177.392 372.305 178.766 373.134 180.462 373.134Z" fill="#7B36B6" stroke="#7B36B6" stroke-width="2.52767" stroke-miterlimit="10"/>
<path d="M201.078 375.607C202.774 375.607 204.149 374.778 204.149 373.754C204.149 372.73 202.774 371.898 201.078 371.898C199.383 371.898 198.008 372.73 198.008 373.754C198.008 374.778 199.383 375.607 201.078 375.607Z" fill="#7B36B6" stroke="#7B36B6" stroke-width="2.52767" stroke-miterlimit="10"/>
<path d="M221.68 373.134C223.376 373.134 224.751 372.305 224.751 371.281C224.751 370.256 223.376 369.425 221.68 369.425C219.984 369.425 218.609 370.256 218.609 371.281C218.609 372.305 219.984 373.134 221.68 373.134Z" fill="#7B36B6" stroke="#7B36B6" stroke-width="2.52767" stroke-miterlimit="10"/>
<path d="M239.143 366.074C240.839 366.074 242.214 365.243 242.214 364.219C242.214 363.195 240.839 362.366 239.143 362.366C237.447 362.366 236.072 363.195 236.072 364.219C236.072 365.243 237.447 366.074 239.143 366.074Z" fill="#7B36B6" stroke="#7B36B6" stroke-width="2.52767" stroke-miterlimit="10"/>
<path d="M250.825 355.515C252.521 355.515 253.896 354.686 253.896 353.662C253.896 352.637 252.521 351.806 250.825 351.806C249.129 351.806 247.754 352.637 247.754 353.662C247.754 354.686 249.129 355.515 250.825 355.515Z" fill="#7B36B6" stroke="#7B36B6" stroke-width="2.52767" stroke-miterlimit="10"/>
<path d="M254.921 343.052C256.617 343.052 257.99 342.223 257.99 341.199C257.99 340.175 256.617 339.344 254.921 339.344C253.226 339.344 251.85 340.175 251.85 341.199C251.85 342.223 253.226 343.052 254.921 343.052Z" fill="#7B36B6" stroke="#7B36B6" stroke-width="2.52767" stroke-miterlimit="10"/>
<path d="M250.825 330.59C252.521 330.59 253.896 329.762 253.896 328.737C253.896 327.713 252.521 326.882 250.825 326.882C249.129 326.882 247.754 327.713 247.754 328.737C247.754 329.762 249.129 330.59 250.825 330.59Z" fill="#7B36B6" stroke="#7B36B6" stroke-width="2.52767" stroke-miterlimit="10"/>
<path d="M169.936 343.493C169.936 348.309 172.974 353.124 179.05 356.802C191.203 364.153 210.927 364.153 223.078 356.802C229.155 353.124 232.194 348.309 232.194 343.493" stroke="#1BA3FF" stroke-width="2.52767" stroke-linejoin="round"/>
<path d="M201.081 362.3V333.047" stroke="#1BA3FF" stroke-width="2.52767" stroke-miterlimit="10"/>
<path d="M207.302 361.959V332.69" stroke="#1BA3FF" stroke-width="2.52767" stroke-miterlimit="10"/>
<path d="M213.526 360.885V332.414" stroke="#1BA3FF" stroke-width="2.52767" stroke-miterlimit="10"/>
<path d="M219.746 358.428V331.552" stroke="#1BA3FF" stroke-width="2.52767" stroke-miterlimit="10"/>
<path d="M225.986 354.72V330.314" stroke="#1BA3FF" stroke-width="2.52767" stroke-miterlimit="10"/>
<path d="M232.209 343.492V328.638" stroke="#1BA3FF" stroke-width="2.52767" stroke-miterlimit="10"/>
<path d="M194.842 361.959V332.69" stroke="#1BA3FF" stroke-width="2.52767" stroke-miterlimit="10"/>
<path d="M188.618 360.885V332.414" stroke="#1BA3FF" stroke-width="2.52767" stroke-miterlimit="10"/>
<path d="M182.397 358.428V331.552" stroke="#1BA3FF" stroke-width="2.52767" stroke-miterlimit="10"/>
<path d="M176.174 354.72V330.314" stroke="#1BA3FF" stroke-width="2.52767" stroke-miterlimit="10"/>
<path d="M169.936 343.492V328.638" stroke="#1BA3FF" stroke-width="2.52767" stroke-miterlimit="10"/>
<path d="M250.582 320.651C223.238 337.181 178.902 337.181 151.559 320.651C141.34 314.469 134.955 306.87 132.372 298.898C132.128 298.15 132.096 297.337 132.242 296.54C138.269 263.969 166.799 239.306 201.079 239.306C235.36 239.306 263.889 263.985 269.916 296.573C270.062 297.353 270.03 298.166 269.786 298.916C267.204 306.87 260.802 314.469 250.616 320.635L250.582 320.651Z" stroke="#7B36B6" stroke-width="2.52767" stroke-linecap="round" stroke-linejoin="round"/>
<path d="M246.405 294.343C254.465 289.48 260.136 283.703 263.433 277.57C251.85 254.859 228.258 239.306 201.046 239.306C170.307 239.306 144.215 259.154 134.792 286.73L147.366 294.327C174.71 310.857 219.046 310.857 246.39 294.327L246.405 294.343Z" stroke="#1BA3FF" stroke-width="2.52767" stroke-miterlimit="10"/>
<path d="M43.4213 170.764V191.539C43.4213 211.973 54.2253 232.423 75.8497 249.456C80.025 252.743 84.6066 255.916 89.5943 258.926C109.626 271.029 133.704 279.214 159.195 283.444C188.358 288.276 219.356 287.966 248.277 282.501C271.785 278.058 293.913 270.2 312.547 258.942C317.536 255.932 322.116 252.761 326.293 249.474C347.917 232.439 358.72 211.99 358.72 191.556V170.78C358.72 195.167 343.334 219.571 312.547 238.183C250.989 275.407 151.169 275.407 89.6106 238.183C58.8231 219.571 43.4374 195.184 43.4374 170.78L43.4213 170.764Z" stroke="#7B36B6" stroke-width="2.52767" stroke-miterlimit="10"/>
<g opacity="0.4">
<path d="M213.215 265.726C213.296 168.128 225.871 108.324 234.742 77.7214" stroke="#1BA3FF" stroke-width="2.52767" stroke-linejoin="round"/>
<path d="M291.8 92.9165C264.93 134.256 242.377 194.988 232.922 264.066" stroke="#1BA3FF" stroke-width="2.52767" stroke-linejoin="round"/>
<path d="M338.525 124.104C290.093 163.98 261.11 222.875 248.144 261.676" stroke="#1BA3FF" stroke-width="2.52767" stroke-linejoin="round"/>
<path d="M358.491 175.629C335.064 186.203 297.031 209.387 261.37 258.828" stroke="#1BA3FF" stroke-width="2.52767" stroke-linejoin="round"/>
<path d="M188.91 265.726C188.829 168.128 176.254 108.324 167.383 77.7214" stroke="#1BA3FF" stroke-width="2.52767" stroke-linejoin="round"/>
<path d="M110.323 92.9165C137.195 134.256 159.746 194.988 169.185 264.066" stroke="#1BA3FF" stroke-width="2.52767" stroke-linejoin="round"/>
<path d="M153.979 261.692C141.014 222.875 112.014 163.997 63.5987 124.121" stroke="#1BA3FF" stroke-width="2.52767" stroke-linejoin="round"/>
<path d="M140.754 258.812C105.109 209.387 67.0593 186.187 43.6315 175.612" stroke="#1BA3FF" stroke-width="2.52767" stroke-linejoin="round"/>
</g>
<path opacity="0.4" d="M302.085 243.861C316.901 231.073 324.425 216.138 324.425 201.171C324.425 182.087 312.386 162.987 288.292 148.427C264.196 133.866 232.631 126.577 201.063 126.577C169.495 126.577 137.928 133.866 113.834 148.427C89.7404 162.987 77.7017 182.071 77.7017 201.171C77.7017 216.138 85.2238 231.073 100.041 243.861" stroke="#1BA3FF" stroke-width="2.52767" stroke-linejoin="round"/>
<path opacity="0.4" d="M291.736 248.628C296.446 241.55 298.804 234.05 298.804 226.534C298.804 211.404 289.266 196.29 270.177 184.739C251.086 173.204 226.084 167.429 201.063 167.429C176.043 167.429 151.039 173.204 131.949 184.739C112.86 196.274 103.323 211.404 103.323 226.534C103.323 234.05 105.695 241.55 110.39 248.628" stroke="#1BA3FF" stroke-width="2.52767" stroke-linejoin="round"/>
<path opacity="0.4" d="M276.349 254.467C276.935 252.14 277.325 249.8 277.325 247.439C277.325 235.644 269.882 223.833 254.986 214.837C240.102 205.84 220.574 201.333 201.062 201.333C181.55 201.333 162.038 205.84 147.14 214.837C132.258 223.833 124.801 235.644 124.801 247.439C124.801 249.782 125.174 252.14 125.775 254.467" stroke="#1BA3FF" stroke-width="2.52767" stroke-linejoin="round"/>
<path d="M89.5943 103.361C151.153 66.1377 250.973 66.1377 312.531 103.361C343.319 121.973 358.704 146.36 358.704 170.764C358.704 195.168 343.319 219.555 312.531 238.167C250.973 275.389 151.153 275.389 89.5943 238.167C58.8068 219.555 43.4213 195.168 43.4213 170.764C43.4213 146.36 58.8068 121.973 89.5943 103.361Z" stroke="#7B36B6" stroke-width="2.52767" stroke-linejoin="round"/>
<path d="M74.0781 114.411L77.2138 109.579C80.8369 103.998 88.1152 101.021 98.2044 101.948C118.383 103.819 142.152 120.625 151.283 139.514C155.848 148.95 155.897 157.117 152.274 162.697L149.138 167.529" stroke="#7B36B6" stroke-width="2.52767" stroke-miterlimit="10"/>
<path d="M75.0698 137.594C70.5044 128.158 70.4557 119.991 74.0788 114.411C77.7017 108.83 84.9803 105.853 95.0695 106.781C115.248 108.651 139.017 125.457 148.148 144.346C152.713 153.782 152.761 161.949 149.139 167.529C145.515 173.11 138.237 176.087 128.148 175.159C107.969 173.288 84.2003 156.482 75.0698 137.594Z" stroke="#7B36B6" stroke-width="2.52767" stroke-miterlimit="10"/>
<path d="M108.133 146.818L121.342 148.038C127.629 148.624 135.817 153.001 140.724 158.5C139.181 164.568 133.332 168.098 124.347 167.269C115.363 166.439 105.371 161.428 97.5403 154.497C97.329 149.438 101.846 146.233 108.133 146.818Z" fill="#1BA3FF"/>
<path d="M120.887 140.821C124.195 136.309 120.399 127.887 112.407 122.011C104.416 116.134 95.2547 115.028 91.9463 119.54C88.6377 124.052 92.4342 132.474 100.426 138.35C108.418 144.227 117.578 145.333 120.887 140.821Z" fill="#1BA3FF"/>
</svg>
