<svg width="52" height="47" viewBox="0 0 52 47" fill="none" xmlns="http://www.w3.org/2000/svg">
<path fill-rule="evenodd" clip-rule="evenodd" d="M47.8545 5.12727H50.4181C50.9309 5.12727 51.2727 5.46909 51.2727 5.98181V9.39999C51.2727 9.91272 50.9309 10.2545 50.4181 10.2545H47.8545V12.8182C47.8545 14.2709 46.7436 15.3818 45.2909 15.3818H36.7454C35.2927 15.3818 34.1818 14.2709 34.1818 12.8182V10.2545H32.4727V12.8182C32.4727 14.2709 31.3618 15.3818 29.9091 15.3818H28.2V20.5091H32.4727C33.9254 20.5091 35.0363 21.62 35.0363 23.0727V35.8909C35.0363 37.3436 33.9254 38.4545 32.4727 38.4545H18.8C17.3473 38.4545 16.2363 37.3436 16.2363 35.8909V23.0727C16.2363 21.62 17.3473 20.5091 18.8 20.5091H23.0727V15.3818H21.3636C19.9109 15.3818 18.8 14.2709 18.8 12.8182V10.2545H17.0909V12.8182C17.0909 14.2709 15.98 15.3818 14.5273 15.3818H5.98181C4.52909 15.3818 3.41818 14.2709 3.41818 12.8182V10.2545H0.854545C0.341818 10.2545 0 9.91272 0 9.39999V5.98181C0 5.46909 0.341818 5.12727 0.854545 5.12727H3.41818V2.56363C3.41818 1.11091 4.52909 0 5.98181 0H14.5273C15.98 0 17.0909 1.11091 17.0909 2.56363V5.12727H18.8V2.56363C18.8 1.11091 19.9109 0 21.3636 0H29.9091C31.3618 0 32.4727 1.11091 32.4727 2.56363V5.12727H34.1818V2.56363C34.1818 1.11091 35.2927 0 36.7454 0H45.2909C46.7436 0 47.8545 1.11091 47.8545 2.56363V5.12727ZM36.7454 1.70909C36.2327 1.70909 35.8909 2.05091 35.8909 2.56363V5.12727H37.6V4.27272C37.6 3.76 37.9418 3.41818 38.4545 3.41818H43.5818C44.0945 3.41818 44.4363 3.76 44.4363 4.27272V5.12727H46.1454V2.56363C46.1454 2.05091 45.8036 1.70909 45.2909 1.70909H36.7454ZM39.3091 10.2545H42.7272C42.2145 10.2545 41.8727 9.91272 41.8727 9.39999V5.98181C41.8727 5.46909 42.2145 5.12727 42.7272 5.12727H39.3091C39.8218 5.12727 40.1636 5.46909 40.1636 5.98181V9.39999C40.1636 9.91272 39.8218 10.2545 39.3091 10.2545ZM28.2 6.83636V8.54545H31.6182H35.0363H38.4545V6.83636H35.0363H31.6182H28.2ZM12.8182 8.54545H16.2363H19.6545H23.0727V6.83636H19.6545H16.2363H12.8182V8.54545ZM11.9636 5.12727H8.54545C9.05817 5.12727 9.39999 5.46909 9.39999 5.98181V9.39999C9.39999 9.91272 9.05817 10.2545 8.54545 10.2545H11.9636C11.4509 10.2545 11.1091 9.91272 11.1091 9.39999V5.98181C11.1091 5.46909 11.4509 5.12727 11.9636 5.12727ZM27.3454 5.12727H23.9273C24.44 5.12727 24.7818 5.46909 24.7818 5.98181V9.39999C24.7818 9.91272 24.44 10.2545 23.9273 10.2545H27.3454C26.8327 10.2545 26.4909 9.91272 26.4909 9.39999V5.98181C26.4909 5.46909 26.8327 5.12727 27.3454 5.12727ZM21.3636 1.70909C20.8509 1.70909 20.5091 2.05091 20.5091 2.56363V5.12727H22.2182V4.27272C22.2182 3.76 22.56 3.41818 23.0727 3.41818H28.2C28.7127 3.41818 29.0545 3.76 29.0545 4.27272V5.12727H30.7636V2.56363C30.7636 2.05091 30.4218 1.70909 29.9091 1.70909H21.3636ZM5.98181 1.70909C5.46909 1.70909 5.12727 2.05091 5.12727 2.56363V5.12727H6.83636V4.27272C6.83636 3.76 7.17818 3.41818 7.6909 3.41818H12.8182C13.3309 3.41818 13.6727 3.76 13.6727 4.27272V5.12727H15.3818V2.56363C15.3818 2.05091 15.04 1.70909 14.5273 1.70909H5.98181ZM4.27272 6.83636H1.70909V8.54545H4.27272H7.6909V6.83636H4.27272ZM14.5273 13.6727C15.04 13.6727 15.3818 13.3309 15.3818 12.8182V10.2545H13.6727V11.1091C13.6727 11.6218 13.3309 11.9636 12.8182 11.9636H7.6909C7.17818 11.9636 6.83636 11.6218 6.83636 11.1091V10.2545H5.12727V12.8182C5.12727 13.3309 5.46909 13.6727 5.98181 13.6727H14.5273ZM33.3272 35.8909V23.0727C33.3272 22.56 32.9854 22.2182 32.4727 22.2182H18.8C18.2873 22.2182 17.9454 22.56 17.9454 23.0727V35.8909C17.9454 36.4036 18.2873 36.7454 18.8 36.7454H32.4727C32.9854 36.7454 33.3272 36.4036 33.3272 35.8909ZM24.7818 20.5091H26.4909V15.3818H24.7818V20.5091ZM29.9091 13.6727C30.4218 13.6727 30.7636 13.3309 30.7636 12.8182V10.2545H29.0545V11.1091C29.0545 11.6218 28.7127 11.9636 28.2 11.9636H23.0727C22.56 11.9636 22.2182 11.6218 22.2182 11.1091V10.2545H20.5091V12.8182C20.5091 13.3309 20.8509 13.6727 21.3636 13.6727H29.9091ZM45.2909 13.6727C45.8036 13.6727 46.1454 13.3309 46.1454 12.8182V10.2545H44.4363V11.1091C44.4363 11.6218 44.0945 11.9636 43.5818 11.9636H38.4545C37.9418 11.9636 37.6 11.6218 37.6 11.1091V10.2545H35.8909V12.8182C35.8909 13.3309 36.2327 13.6727 36.7454 13.6727H45.2909ZM47 8.54545H49.5636V6.83636H47H43.5818V8.54545H47ZM23.9269 35.0363C23.4141 35.0363 23.0723 34.6945 23.0723 34.1818V29.5672C22.5596 28.9691 22.2178 28.2 22.2178 27.3454C22.2178 25.4654 23.756 23.9272 25.636 23.9272C27.516 23.9272 29.0541 25.4654 29.0541 27.3454C29.0541 28.1145 28.7123 28.9691 28.1996 29.5672V34.1818C28.1996 34.6945 27.8578 35.0363 27.345 35.0363H23.9269ZM27.345 27.3454C27.345 26.4054 26.576 25.6363 25.636 25.6363C24.696 25.6363 23.9269 26.4054 23.9269 27.3454C23.9269 27.8582 24.0978 28.2854 24.525 28.6272C24.696 28.7127 24.7814 28.9691 24.7814 29.2254V33.3272H26.4905V29.2254C26.4905 29.0545 26.576 28.7982 26.7469 28.6272C27.1741 28.2854 27.345 27.8582 27.345 27.3454ZM16.1514 44.2654C16.6641 44.6072 17.1768 44.8635 17.775 45.1199L18.5441 43.5817C18.2878 43.4536 18.0529 43.3254 17.818 43.1973L17.8177 43.1972C17.5827 43.069 17.3477 42.9408 17.0914 42.8126L16.1514 44.2654ZM10.9375 39.2237L12.3048 38.2837C12.5611 38.711 12.903 39.1382 13.3302 39.5655L12.0484 40.6764C11.6211 40.2491 11.2793 39.7364 10.9375 39.2237ZM10.6817 35.3782L9.14355 36.0618C9.39991 36.66 9.65627 37.1727 9.91263 37.6854L9.91265 37.6854L11.4508 36.8309C11.109 36.4036 10.8526 35.8909 10.6817 35.3782ZM20.0684 46.1045L20.0683 46.1044C19.8481 46.0297 19.6232 45.9534 19.3984 45.8891L19.9966 44.2655L21.5348 44.7782L21.1075 46.4019C20.7875 46.3485 20.4342 46.2286 20.0684 46.1045ZM38.0273 39.5655L39.3092 40.6764C39.7364 40.2491 40.0783 39.7364 40.4201 39.2237L39.0528 38.2837L38.0273 39.5655ZM14.6124 43.2399C14.1851 42.8981 13.6724 42.4708 13.2451 42.0435L14.356 40.7617C14.7833 41.189 15.2105 41.5308 15.6378 41.8726L15.6378 41.8726L14.6124 43.2399ZM32.8145 43.5817L33.5835 45.1199C33.8395 44.9919 34.1169 44.8426 34.3942 44.6932L34.3943 44.6932L34.3943 44.6932L34.3944 44.6931L34.3944 44.6931L34.3945 44.6931L34.3945 44.6931L34.3945 44.693L34.3946 44.693L34.3946 44.693L34.3947 44.693L34.3947 44.693L34.3948 44.6929L34.3948 44.6929L34.3949 44.6929L34.3954 44.6926L34.3955 44.6925C34.6732 44.543 34.9509 44.3935 35.2072 44.2654L34.2672 42.8126C33.8399 43.069 33.3272 43.3254 32.8145 43.5817ZM30.1656 46.4019L29.7383 44.7782C29.9092 44.7213 30.0896 44.6643 30.27 44.6073C30.6308 44.4934 30.9916 44.3794 31.2765 44.2655L31.8746 45.8891C31.3619 46.06 30.7637 46.231 30.1656 46.4019ZM41.8726 28.8837V29.0546C41.8726 29.5673 41.8726 30.08 41.7871 30.5073L43.4962 30.6782C43.5817 30.1655 43.5817 29.5673 43.5817 29.0546V28.8837H41.8726ZM43.2394 25.2091L43.4957 27.0036L41.7866 27.1746C41.7439 26.9182 41.7012 26.6405 41.6585 26.3628L41.6584 26.3626L41.6583 26.3617C41.6156 26.0843 41.5729 25.807 41.5303 25.5509L43.2394 25.2091ZM41.1895 33.7545L42.8131 34.2672L42.8131 34.2672L42.8131 34.2671L42.8131 34.267L42.8131 34.267L42.8131 34.2669L42.8132 34.2669L42.8132 34.2668L42.8132 34.2668L42.8132 34.2667L42.8132 34.2666L42.8132 34.2666L42.8132 34.2665C42.9841 33.6686 43.1549 33.0706 43.2404 32.4727L41.5313 32.1309C41.4458 32.729 41.3604 33.2418 41.1895 33.7545ZM41.6455 37.2957L41.6453 37.296C41.5761 37.4293 41.5082 37.5599 41.4454 37.6854L39.9072 36.8309C40.1636 36.3182 40.42 35.8054 40.6763 35.3782L42.2145 36.0618C42.0855 36.4487 41.8592 36.8843 41.6457 37.2952L41.6457 37.2953L41.6456 37.2954L41.6455 37.2955L41.6455 37.2957L41.6455 37.2957ZM22.9014 46.8291C23.4995 46.9145 24.0977 47 24.6959 47L24.7814 45.2909C24.2686 45.2909 23.6705 45.2054 23.1577 45.12L22.9014 46.8291ZM26.5757 47L26.4902 45.2909C26.7466 45.2482 27.0243 45.2268 27.3021 45.2055C27.5798 45.1841 27.8575 45.1627 28.1139 45.12L28.3702 46.8291C27.7721 46.9145 27.1739 47 26.5757 47ZM38.7969 19.569C38.9678 19.7827 39.1173 20.0177 39.2669 20.2527C39.4164 20.4877 39.566 20.7227 39.7369 20.9363L41.1896 20.0818C41.0757 19.9109 40.9712 19.7399 40.8668 19.569C40.6579 19.2272 40.449 18.8854 40.1641 18.5436L38.7969 19.569ZM9.39952 28.8837V29.0546C9.39952 29.5673 9.39952 30.08 9.48497 30.5928L7.77588 30.7637C7.69043 30.1655 7.69043 29.6528 7.69043 29.0546V28.8837H9.39952ZM41.104 24.0126L41.104 24.0127L41.104 24.0127L42.7277 23.5C42.5969 23.0424 42.4162 22.6348 42.2237 22.2008L42.2237 22.2007L42.2236 22.2006L42.2234 22.2001L42.223 22.1992C42.1641 22.0663 42.1041 21.9309 42.044 21.7909L40.5059 22.4745C40.7622 22.9871 40.933 23.4998 41.1039 24.0124L41.1039 24.0124L41.1039 24.0125L41.104 24.0125L41.104 24.0126ZM10.1686 24.0127L8.54492 23.5C8.71583 22.9018 8.97219 22.3036 9.22856 21.7909L10.7667 22.4745C10.5104 22.9873 10.3395 23.5 10.1686 24.0127ZM12.3908 19.6546L11.0235 18.6292L9.99805 20.1673L11.4508 21.0219C11.5934 20.8079 11.7361 20.6087 11.8726 20.4183L11.8726 20.4183L11.8726 20.4182L11.8727 20.4181L11.8727 20.4181C12.0631 20.1523 12.2414 19.9035 12.3908 19.6546ZM8.0332 32.5581L9.74229 32.2163C9.75281 32.2794 9.76333 32.3438 9.77401 32.4092C9.85008 32.875 9.93424 33.3903 10.0841 33.8399L8.46048 34.3527C8.28957 33.7545 8.11866 33.1563 8.0332 32.5581ZM35.6348 41.8727L36.6602 43.24C37.1729 42.8982 37.6002 42.471 38.0274 42.0437L38.0275 42.0437L36.8311 40.8473C36.6517 40.9818 36.4488 41.1635 36.2346 41.3551L36.2345 41.3552C36.0407 41.5287 35.8377 41.7104 35.6348 41.8727ZM9.48448 27.26L7.77539 27.0891L8.03175 25.2946L9.74084 25.6364C9.69811 25.8927 9.65539 26.1705 9.61266 26.4482C9.56993 26.7259 9.52721 27.0037 9.48448 27.26Z" fill="url(#paint0_linear_336_525)"/>
<defs>
<linearGradient id="paint0_linear_336_525" x1="51.2731" y1="1.99016e-06" x2="0.103043" y2="45.5881" gradientUnits="userSpaceOnUse">
<stop stop-color="#7B36B6"/>
<stop offset="1" stop-color="#1BA3FF"/>
</linearGradient>
</defs>
</svg>
