<svg width="367" height="392" viewBox="0 0 367 392" fill="none" xmlns="http://www.w3.org/2000/svg">
<path d="M2 259.715C2 255.869 3.86368 252.023 7.60583 249.775L161.922 156.605C175.352 148.501 192.154 148.501 205.584 156.605L359.901 249.775C363.643 252.038 365.507 255.869 365.507 259.715V281.207C365.507 284.904 363.569 288.337 360.404 290.244L205.584 383.724C192.154 391.83 175.352 391.83 161.922 383.724L7.10294 290.244C3.93763 288.337 2 284.904 2 281.207V259.715Z" stroke="#E8E8E8" stroke-width="2.55282" stroke-miterlimit="10"/>
<path d="M7.61952 249.775C3.87735 252.038 2.01367 255.869 2.01367 259.715C2.01367 263.561 3.87735 267.406 7.61952 269.655L161.935 362.824C175.366 370.93 192.168 370.93 205.599 362.824L359.914 269.655C363.658 267.392 365.52 263.561 365.52 259.715C365.52 255.869 363.658 252.024 359.914 249.775" stroke="#E8E8E8" stroke-width="2.55282" stroke-miterlimit="10"/>
<mask id="mask0_388_1735" style="mask-type:luminance" maskUnits="userSpaceOnUse" x="205" y="269" width="156" height="115">
<path d="M205.599 362.824L359.916 269.655L360.418 290.245L205.599 383.725V362.824Z" fill="white"/>
</mask>
<g mask="url(#mask0_388_1735)">
<path d="M348.334 280.29C348.334 281.236 347.564 282.006 346.618 282.006C345.671 282.006 344.903 281.236 344.903 280.29C344.903 279.343 345.671 278.575 346.618 278.575C347.564 278.575 348.334 279.343 348.334 280.29Z" fill="#E8E8E8"/>
<path d="M339.475 292.863C338.527 292.863 337.76 293.631 337.76 294.579C337.76 295.526 338.527 296.294 339.475 296.294C340.421 296.294 341.19 295.526 341.19 294.579C341.19 293.631 340.421 292.863 339.475 292.863ZM348.334 294.579C348.334 295.526 347.566 296.294 346.619 296.294C345.673 296.294 344.903 295.526 344.903 294.579C344.903 293.631 345.673 292.863 346.619 292.863C347.566 292.863 348.334 293.631 348.334 294.579ZM348.334 287.435C348.334 288.38 347.566 289.15 346.619 289.15C345.673 289.15 344.903 288.38 344.903 287.435C344.903 286.487 345.673 285.719 346.619 285.719C347.566 285.719 348.334 286.487 348.334 287.435ZM341.19 287.435C341.19 288.38 340.421 289.15 339.475 289.15C338.527 289.15 337.76 288.38 337.76 287.435C337.76 286.487 338.527 285.719 339.475 285.719C340.421 285.719 341.19 286.487 341.19 287.435Z" fill="#E8E8E8"/>
<path d="M341.19 301.707C341.19 302.653 340.421 303.423 339.475 303.423C338.527 303.423 337.76 302.653 337.76 301.707C337.76 300.76 338.527 299.992 339.475 299.992C340.421 299.992 341.19 300.76 341.19 301.707Z" fill="#E8E8E8"/>
<path d="M325.203 292.863C324.255 292.863 323.487 293.631 323.487 294.579C323.487 295.526 324.255 296.294 325.203 296.294C326.148 296.294 326.918 295.526 326.918 294.579C326.918 293.631 326.148 292.863 325.203 292.863ZM334.062 294.579C334.062 295.526 333.292 296.294 332.346 296.294C331.399 296.294 330.631 295.526 330.631 294.579C330.631 293.631 331.399 292.863 332.346 292.863C333.292 292.863 334.062 293.631 334.062 294.579ZM334.062 287.435C334.062 288.381 333.292 289.15 332.346 289.15C331.399 289.15 330.631 288.381 330.631 287.435C330.631 286.487 331.399 285.719 332.346 285.719C333.292 285.719 334.062 286.487 334.062 287.435Z" fill="#E8E8E8"/>
<path d="M325.203 307.136C324.255 307.136 323.487 307.904 323.487 308.851C323.487 309.799 324.255 310.567 325.203 310.567C326.148 310.567 326.918 309.799 326.918 308.851C326.918 307.904 326.148 307.136 325.203 307.136ZM334.062 301.707C334.062 302.653 333.292 303.423 332.346 303.423C331.399 303.423 330.631 302.653 330.631 301.707C330.631 300.76 331.399 299.992 332.346 299.992C333.292 299.992 334.062 300.76 334.062 301.707ZM326.918 301.707C326.918 302.653 326.148 303.423 325.203 303.423C324.255 303.423 323.487 302.653 323.487 301.707C323.487 300.76 324.255 299.992 325.203 299.992C326.148 299.992 326.918 300.76 326.918 301.707Z" fill="#E8E8E8"/>
<path d="M319.775 294.579C319.775 295.526 319.005 296.294 318.059 296.294C317.111 296.294 316.342 295.526 316.342 294.579C316.342 293.631 317.111 292.863 318.059 292.863C319.005 292.863 319.775 293.631 319.775 294.579Z" fill="#E8E8E8"/>
<path d="M310.915 307.136C309.967 307.136 309.197 307.904 309.197 308.851C309.197 309.799 309.967 310.567 310.915 310.567C311.86 310.567 312.63 309.799 312.63 308.851C312.63 307.904 311.86 307.136 310.915 307.136ZM319.774 308.851C319.774 309.799 319.004 310.567 318.059 310.567C317.111 310.567 316.343 309.799 316.343 308.851C316.343 307.904 317.111 307.136 318.059 307.136C319.004 307.136 319.774 307.904 319.774 308.851ZM319.774 301.707C319.774 302.653 319.004 303.423 318.059 303.423C317.111 303.423 316.343 302.653 316.343 301.707C316.343 300.76 317.111 299.992 318.059 299.992C319.004 299.992 319.774 300.76 319.774 301.707ZM312.63 301.707C312.63 302.653 311.86 303.423 310.915 303.423C309.967 303.423 309.197 302.653 309.197 301.707C309.197 300.76 309.967 299.992 310.915 299.992C311.86 299.992 312.63 300.76 312.63 301.707Z" fill="#E8E8E8"/>
<path d="M319.774 315.995C319.774 316.943 319.004 317.711 318.059 317.711C317.111 317.711 316.343 316.943 316.343 315.995C316.343 315.05 317.111 314.28 318.059 314.28C319.004 314.28 319.774 315.05 319.774 315.995ZM312.63 315.995C312.63 316.943 311.86 317.711 310.915 317.711C309.967 317.711 309.197 316.943 309.197 315.995C309.197 315.05 309.967 314.28 310.915 314.28C311.86 314.28 312.63 315.05 312.63 315.995Z" fill="#E8E8E8"/>
<path d="M296.64 307.136C295.694 307.136 294.925 307.906 294.925 308.851C294.925 309.799 295.694 310.567 296.64 310.567C297.588 310.567 298.356 309.799 298.356 308.851C298.356 307.906 297.588 307.136 296.64 307.136ZM305.501 308.851C305.501 309.799 304.731 310.567 303.784 310.567C302.838 310.567 302.068 309.799 302.068 308.851C302.068 307.906 302.838 307.136 303.784 307.136C304.731 307.136 305.501 307.906 305.501 308.851Z" fill="#E8E8E8"/>
<path d="M296.64 321.424C295.694 321.424 294.925 322.194 294.925 323.139C294.925 324.087 295.694 324.855 296.64 324.855C297.588 324.855 298.356 324.087 298.356 323.139C298.356 322.194 297.588 321.424 296.64 321.424ZM305.501 323.139C305.501 324.087 304.731 324.855 303.784 324.855C302.838 324.855 302.068 324.087 302.068 323.139C302.068 322.194 302.838 321.424 303.784 321.424C304.731 321.424 305.501 322.194 305.501 323.139ZM305.501 315.995C305.501 316.943 304.731 317.711 303.784 317.711C302.838 317.711 302.068 316.943 302.068 315.995C302.068 315.05 302.838 314.28 303.784 314.28C304.731 314.28 305.501 315.05 305.501 315.995ZM298.356 315.995C298.356 316.943 297.588 317.711 296.64 317.711C295.694 317.711 294.925 316.943 294.925 315.995C294.925 315.05 295.694 314.28 296.64 314.28C297.588 314.28 298.356 315.05 298.356 315.995Z" fill="#E8E8E8"/>
<path d="M282.352 321.424C281.406 321.424 280.636 322.194 280.636 323.139C280.636 324.087 281.406 324.855 282.352 324.855C283.3 324.855 284.067 324.087 284.067 323.139C284.067 322.194 283.3 321.424 282.352 321.424ZM291.211 323.139C291.211 324.087 290.443 324.855 289.496 324.855C288.55 324.855 287.78 324.087 287.78 323.139C287.78 322.194 288.55 321.424 289.496 321.424C290.443 321.424 291.211 322.194 291.211 323.139ZM291.211 315.995C291.211 316.943 290.443 317.711 289.496 317.711C288.55 317.711 287.78 316.943 287.78 315.995C287.78 315.05 288.55 314.28 289.496 314.28C290.443 314.28 291.211 315.05 291.211 315.995ZM284.067 315.995C284.067 316.943 283.3 317.711 282.352 317.711C281.406 317.711 280.636 316.943 280.636 315.995C280.636 315.05 281.406 314.28 282.352 314.28C283.3 314.28 284.067 315.05 284.067 315.995Z" fill="#E8E8E8"/>
<path d="M282.352 335.698C281.406 335.698 280.636 336.467 280.636 337.413C280.636 338.361 281.406 339.129 282.352 339.129C283.3 339.129 284.067 338.361 284.067 337.413C284.067 336.467 283.3 335.698 282.352 335.698ZM291.211 330.269C291.211 331.217 290.443 331.985 289.496 331.985C288.55 331.985 287.78 331.217 287.78 330.269C287.78 329.324 288.55 328.554 289.496 328.554C290.443 328.554 291.211 329.324 291.211 330.269ZM284.067 330.269C284.067 331.217 283.3 331.985 282.352 331.985C281.406 331.985 280.636 331.217 280.636 330.269C280.636 329.324 281.406 328.554 282.352 328.554C283.3 328.554 284.067 329.324 284.067 330.269Z" fill="#E8E8E8"/>
<path d="M268.078 321.423C267.13 321.423 266.362 322.193 266.362 323.139C266.362 324.086 267.13 324.854 268.078 324.854C269.023 324.854 269.793 324.086 269.793 323.139C269.793 322.193 269.023 321.423 268.078 321.423ZM276.937 323.139C276.937 324.086 276.169 324.854 275.221 324.854C274.276 324.854 273.506 324.086 273.506 323.139C273.506 322.193 274.276 321.423 275.221 321.423C276.169 321.423 276.937 322.193 276.937 323.139Z" fill="#E8E8E8"/>
<path d="M268.078 335.698C267.13 335.698 266.362 336.467 266.362 337.413C266.362 338.361 267.13 339.129 268.078 339.129C269.023 339.129 269.793 338.361 269.793 337.413C269.793 336.467 269.023 335.698 268.078 335.698ZM276.937 337.413C276.937 338.361 276.169 339.129 275.221 339.129C274.276 339.129 273.506 338.361 273.506 337.413C273.506 336.467 274.276 335.698 275.221 335.698C276.169 335.698 276.937 336.467 276.937 337.413ZM276.937 330.269C276.937 331.217 276.169 331.985 275.221 331.985C274.276 331.985 273.506 331.217 273.506 330.269C273.506 329.324 274.276 328.554 275.221 328.554C276.169 328.554 276.937 329.324 276.937 330.269ZM269.793 330.269C269.793 331.217 269.023 331.985 268.078 331.985C267.13 331.985 266.362 331.217 266.362 330.269C266.362 329.324 267.13 328.554 268.078 328.554C269.023 328.554 269.793 329.324 269.793 330.269Z" fill="#E8E8E8"/>
<path d="M269.779 344.558C269.779 345.503 269.011 346.273 268.063 346.273C267.118 346.273 266.348 345.503 266.348 344.558C266.348 343.61 267.118 342.84 268.063 342.84C269.011 342.84 269.779 343.61 269.779 344.558Z" fill="#E8E8E8"/>
<path d="M253.79 335.698C252.843 335.698 252.075 336.467 252.075 337.413C252.075 338.361 252.843 339.129 253.79 339.129C254.736 339.129 255.506 338.361 255.506 337.413C255.506 336.467 254.736 335.698 253.79 335.698ZM262.65 337.413C262.65 338.361 261.882 339.129 260.934 339.129C259.987 339.129 259.219 338.361 259.219 337.413C259.219 336.467 259.987 335.698 260.934 335.698C261.882 335.698 262.65 336.467 262.65 337.413ZM262.65 330.269C262.65 331.217 261.882 331.985 260.934 331.985C259.987 331.985 259.219 331.217 259.219 330.269C259.219 329.324 259.987 328.554 260.934 328.554C261.882 328.554 262.65 329.324 262.65 330.269Z" fill="#E8E8E8"/>
<path d="M253.79 349.986C252.843 349.986 252.075 350.754 252.075 351.702C252.075 352.647 252.843 353.417 253.79 353.417C254.736 353.417 255.506 352.647 255.506 351.702C255.506 350.754 254.736 349.986 253.79 349.986ZM262.65 344.558C262.65 345.503 261.882 346.273 260.934 346.273C259.987 346.273 259.219 345.503 259.219 344.558C259.219 343.61 259.987 342.84 260.934 342.84C261.882 342.84 262.65 343.61 262.65 344.558ZM255.506 344.558C255.506 345.503 254.736 346.273 253.79 346.273C252.843 346.273 252.075 345.503 252.075 344.558C252.075 343.61 252.843 342.84 253.79 342.84C254.736 342.84 255.506 343.61 255.506 344.558Z" fill="#E8E8E8"/>
<path d="M248.36 337.413C248.36 338.361 247.592 339.131 246.644 339.131C245.699 339.131 244.929 338.361 244.929 337.413C244.929 336.467 245.699 335.698 246.644 335.698C247.592 335.698 248.36 336.467 248.36 337.413Z" fill="#E8E8E8"/>
<path d="M239.518 349.986C238.571 349.986 237.801 350.754 237.801 351.702C237.801 352.647 238.571 353.417 239.518 353.417C240.464 353.417 241.234 352.647 241.234 351.702C241.234 350.754 240.464 349.986 239.518 349.986ZM248.377 351.702C248.377 352.647 247.608 353.417 246.662 353.417C245.714 353.417 244.946 352.647 244.946 351.702C244.946 350.754 245.714 349.986 246.662 349.986C247.608 349.986 248.377 350.754 248.377 351.702ZM248.377 344.558C248.377 345.503 247.608 346.273 246.662 346.273C245.714 346.273 244.946 345.503 244.946 344.558C244.946 343.61 245.714 342.84 246.662 342.84C247.608 342.84 248.377 343.61 248.377 344.558ZM241.234 344.558C241.234 345.503 240.464 346.273 239.518 346.273C238.571 346.273 237.801 345.503 237.801 344.558C237.801 343.61 238.571 342.84 239.518 342.84C240.464 342.84 241.234 343.61 241.234 344.558Z" fill="#E8E8E8"/>
<path d="M248.362 358.832C248.362 359.778 247.592 360.548 246.644 360.548C245.699 360.548 244.929 359.778 244.929 358.832C244.929 357.884 245.699 357.115 246.644 357.115C247.592 357.115 248.362 357.884 248.362 358.832ZM241.216 358.832C241.216 359.778 240.448 360.548 239.5 360.548C238.555 360.548 237.785 359.778 237.785 358.832C237.785 357.884 238.555 357.115 239.5 357.115C240.448 357.115 241.216 357.884 241.216 358.832Z" fill="#E8E8E8"/>
<path d="M225.228 349.986C224.282 349.986 223.512 350.754 223.512 351.702C223.512 352.647 224.282 353.417 225.228 353.417C226.176 353.417 226.945 352.647 226.945 351.702C226.945 350.754 226.176 349.986 225.228 349.986ZM234.089 351.702C234.089 352.647 233.319 353.417 232.374 353.417C231.426 353.417 230.658 352.647 230.658 351.702C230.658 350.754 231.426 349.986 232.374 349.986C233.319 349.986 234.089 350.754 234.089 351.702Z" fill="#E8E8E8"/>
<path d="M225.228 364.26C224.282 364.26 223.512 365.028 223.512 365.976C223.512 366.921 224.282 367.691 225.228 367.691C226.176 367.691 226.945 366.921 226.945 365.976C226.945 365.028 226.176 364.26 225.228 364.26ZM234.089 365.976C234.089 366.921 233.319 367.691 232.374 367.691C231.426 367.691 230.658 366.921 230.658 365.976C230.658 365.028 231.426 364.26 232.374 364.26C233.319 364.26 234.089 365.028 234.089 365.976ZM234.089 358.832C234.089 359.777 233.319 360.547 232.374 360.547C231.426 360.547 230.658 359.777 230.658 358.832C230.658 357.884 231.426 357.114 232.374 357.114C233.319 357.114 234.089 357.884 234.089 358.832ZM226.945 358.832C226.945 359.777 226.176 360.547 225.228 360.547C224.282 360.547 223.512 359.777 223.512 358.832C223.512 357.884 224.282 357.114 225.228 357.114C226.176 357.114 226.945 357.884 226.945 358.832Z" fill="#E8E8E8"/>
<path d="M226.945 373.12C226.945 374.065 226.176 374.835 225.228 374.835C224.282 374.835 223.512 374.065 223.512 373.12C223.512 372.172 224.282 371.404 225.228 371.404C226.176 371.404 226.945 372.172 226.945 373.12Z" fill="#E8E8E8"/>
<path d="M210.954 364.26C210.009 364.26 209.239 365.028 209.239 365.976C209.239 366.921 210.009 367.691 210.954 367.691C211.902 367.691 212.67 366.921 212.67 365.976C212.67 365.028 211.902 364.26 210.954 364.26ZM219.816 365.976C219.816 366.921 219.046 367.691 218.098 367.691C217.153 367.691 216.383 366.921 216.383 365.976C216.383 365.028 217.153 364.26 218.098 364.26C219.046 364.26 219.816 365.028 219.816 365.976ZM219.816 358.832C219.816 359.778 219.046 360.548 218.098 360.548C217.153 360.548 216.383 359.778 216.383 358.832C216.383 357.884 217.153 357.115 218.098 357.115C219.046 357.115 219.816 357.884 219.816 358.832ZM212.67 358.832C212.67 359.778 211.902 360.548 210.954 360.548C210.009 360.548 209.239 359.778 209.239 358.832C209.239 357.884 210.009 357.115 210.954 357.115C211.902 357.115 212.67 357.884 212.67 358.832Z" fill="#E8E8E8"/>
<path d="M210.954 378.548C210.009 378.548 209.239 379.318 209.239 380.264C209.239 381.211 210.009 381.979 210.954 381.979C211.902 381.979 212.67 381.211 212.67 380.264C212.67 379.318 211.902 378.548 210.954 378.548ZM219.816 373.12C219.816 374.065 219.046 374.835 218.098 374.835C217.153 374.835 216.383 374.065 216.383 373.12C216.383 372.172 217.153 371.404 218.098 371.404C219.046 371.404 219.816 372.172 219.816 373.12ZM212.67 373.12C212.67 374.065 211.902 374.835 210.954 374.835C210.009 374.835 209.239 374.065 209.239 373.12C209.239 372.172 210.009 371.404 210.954 371.404C211.902 371.404 212.67 372.172 212.67 373.12Z" fill="#E8E8E8"/>
</g>
<path d="M64.2568 324.752L74.7881 331.097V310.211L64.2568 303.851V324.752Z" fill="#E8E8E8" stroke="#E8E8E8" stroke-width="2.04226" stroke-miterlimit="10"/>
<path d="M45.2186 292.36L7.61952 269.654C3.87735 267.391 2.01367 263.56 2.01367 259.714V281.207C2.01367 284.903 3.95132 288.336 7.11662 290.244L45.2186 313.258V292.36Z" fill="#E8E8E8" stroke="#E8E8E8" stroke-width="2.04226" stroke-miterlimit="10"/>
<path d="M161.936 362.824V383.725" stroke="#E8E8E8" stroke-width="2.04226" stroke-miterlimit="10"/>
<path d="M205.6 362.824V383.725" stroke="#E8E8E8" stroke-width="2.04226" stroke-miterlimit="10"/>
<path d="M359.916 269.654L351.559 274.698V295.599L360.418 290.244C363.583 288.336 365.522 284.903 365.522 281.207V259.714C365.522 263.56 363.657 267.405 359.916 269.654Z" fill="#E8E8E8" stroke="#E8E8E8" stroke-width="2.04226" stroke-miterlimit="10"/>
<path d="M168.948 284.402C170.22 285.171 171.595 285.852 173.03 286.427C183.739 290.792 198.397 290.112 207.879 284.402C211.087 282.463 213.336 280.172 214.622 277.732C215.717 275.675 216.117 273.516 215.85 271.386C215.703 270.261 215.378 269.152 214.859 268.057C213.617 265.439 211.279 262.954 207.862 260.883C197.11 254.391 179.686 254.391 168.933 260.883C161.389 265.439 159.141 271.976 162.188 277.715C163.475 280.156 165.738 282.449 168.933 284.387L168.948 284.402Z" fill="#717171" fill-opacity="0.55"/>
<path d="M109.827 158.174L165.752 263.709C166.877 265.823 168.814 267.806 171.595 269.477C180.884 275.083 195.957 275.083 205.245 269.477C208.026 267.806 209.962 265.823 211.088 263.709L267.013 158.174" stroke="#E8E8E8" stroke-width="2.04226" stroke-miterlimit="10"/>
<path d="M130.062 178.171C162.292 197.622 214.535 197.622 246.75 178.171C256.365 172.359 263.108 165.48 266.984 158.159C276.095 140.957 269.351 121.36 246.75 107.706C214.519 88.256 162.277 88.256 130.062 107.706C107.462 121.36 100.717 140.957 109.828 158.159C113.703 165.48 120.448 172.359 130.062 178.157V178.171Z" stroke="#E8E8E8" stroke-width="2.04226" stroke-miterlimit="10"/>
<path d="M223.793 131.979L214.564 161.028" stroke="white" stroke-width="2.04226" stroke-linejoin="round"/>
<path d="M201.444 120.266L196.563 166.488" stroke="white" stroke-width="2.04226" stroke-linejoin="round"/>
<path d="M175.383 120.266L180.264 166.457" stroke="white" stroke-width="2.04226" stroke-linejoin="round"/>
<path d="M153.004 131.979L162.233 161.043" stroke="white" stroke-width="2.04226" stroke-linejoin="round"/>
<path d="M222.461 155.378C221.323 151.238 218.099 147.274 212.817 144.078C199.328 135.929 177.467 135.929 163.978 144.078C158.697 147.274 155.473 151.238 154.334 155.378" stroke="white" stroke-width="2.04226" stroke-linejoin="round"/>
<path d="M210.217 163.04C197.555 156.799 179.273 156.799 166.611 163.04" stroke="white" stroke-width="2.04226" stroke-linejoin="round"/>
<path d="M160.281 159.934C175.811 169.312 201.016 169.312 216.545 159.934C221.175 157.138 224.43 153.811 226.307 150.29C230.702 141.993 227.447 132.541 216.545 125.959C201.016 116.581 175.811 116.581 160.281 125.959C149.38 132.541 146.125 141.993 150.519 150.29C152.382 153.825 155.636 157.138 160.281 159.934Z" stroke="#E8E8E8" stroke-width="2.04226" stroke-miterlimit="10"/>
<path d="M204.901 92.1157C205.76 88.7854 205.07 85.7288 203.363 85.2881C201.653 84.8476 199.572 87.19 198.715 90.5201C197.855 93.8502 198.545 96.9071 200.252 97.3478C201.962 97.7883 204.043 95.4458 204.901 92.1157Z" fill="white" stroke="white" stroke-width="2.04226" stroke-linejoin="round"/>
<path d="M215.309 93.4963C217.635 84.4787 215.762 76.1994 211.127 75.0041C206.493 73.8088 200.85 80.15 198.524 89.1675C196.198 98.1851 198.07 106.464 202.706 107.66C207.342 108.855 212.985 102.514 215.309 93.4963Z" stroke="#E8E8E8" stroke-width="2.04226" stroke-linecap="round" stroke-linejoin="round"/>
<path d="M188.222 114.896C203.808 114.896 216.444 102.26 216.444 86.6735C216.444 71.0872 203.808 58.4521 188.222 58.4521C172.635 58.4521 160 71.0872 160 86.6735C160 102.26 172.635 114.896 188.222 114.896Z" stroke="#E8E8E8" stroke-width="2.04226" stroke-linecap="round" stroke-linejoin="round"/>
<path d="M38.4012 153.515C23.4471 137.896 15.9629 120.381 15.9629 102.87C15.9629 76.9408 32.3516 51.0119 65.1139 31.2214C93.927 13.8418 130.609 4.1092 168.252 2.00895C171.388 1.83148 174.05 4.31629 174.05 7.46688V97.8259C174.05 100.71 171.802 103.121 168.933 103.269C131.068 105.281 94.1045 115.029 65.1286 132.527C54.4937 138.945 45.6044 146.016 38.4159 153.529L38.4012 153.515Z" stroke="#F7F7F7" stroke-width="2.04226"/>
<path d="M87.7288 74.7365C79.7711 76.3044 73.7659 71.3495 73.7659 62.4452C73.7659 52.2689 81.5904 40.8057 91.249 36.8269C100.908 32.848 108.732 37.8624 108.732 48.0385C108.732 56.9428 102.742 66.8381 94.7842 71.8376" stroke="white" stroke-width="1.53169" stroke-linecap="round" stroke-linejoin="round"/>
<path d="M87.7288 74.7365C79.7711 76.3044 73.7659 71.3495 73.7659 62.4452C73.7659 52.2689 81.5904 40.8057 91.249 36.8269C100.908 32.848 108.732 37.8624 108.732 48.0385" stroke="white" stroke-width="4.08451" stroke-linecap="round" stroke-linejoin="round"/>
<path d="M41.5517 105C36.7297 106.938 33.2244 103.24 33.2244 94.957C33.2244 84.3222 38.978 70.5368 45.9299 64.295C52.7042 58.2158 58.0882 61.6325 58.0882 71.8089C58.0882 80.3729 54.2868 91.2295 49.0508 98.3588" stroke="white" stroke-width="1.53169" stroke-linecap="round" stroke-linejoin="round"/>
<path d="M41.5517 105C36.7297 106.937 33.2244 103.239 33.2244 94.9564C33.2244 86.9987 36.4487 77.2662 40.9749 70.27" stroke="white" stroke-width="6.12677" stroke-linecap="round" stroke-linejoin="round"/>
<path d="M107.519 76.0532V103.949" stroke="white" stroke-width="1.53169" stroke-linecap="round" stroke-linejoin="round"/>
<path d="M96.4844 79.884V107.514" stroke="white" stroke-width="1.53169" stroke-linecap="round" stroke-linejoin="round"/>
<path d="M85.8066 84.2476V111.878" stroke="white" stroke-width="1.53169" stroke-linecap="round" stroke-linejoin="round"/>
<path d="M75.5703 89.2178V116.745" stroke="white" stroke-width="1.53169" stroke-linecap="round" stroke-linejoin="round"/>
<path d="M65.7927 94.542V122.172" stroke="white" stroke-width="1.53169" stroke-linecap="round" stroke-linejoin="round"/>
<path d="M55.8545 101.035V128.65" stroke="white" stroke-width="1.53169" stroke-linecap="round" stroke-linejoin="round"/>
<path d="M46.8591 108.342V135.824" stroke="white" stroke-width="1.53169" stroke-linecap="round" stroke-linejoin="round"/>
<path d="M39.4502 115.988V143.189" stroke="white" stroke-width="1.53169" stroke-linecap="round" stroke-linejoin="round"/>
<path d="M135.283 68.9685C130.269 69.9449 125.314 71.0689 120.418 72.3408C119.175 72.6664 118.317 73.7904 118.317 75.0625V98.8023C118.317 99.675 119.131 100.296 119.989 100.074C124.811 98.817 129.692 97.7077 134.632 96.7168C135.933 96.4505 136.895 95.3115 136.895 93.9804V70.2702C136.895 69.4272 136.126 68.791 135.298 68.9538L135.283 68.9685Z" stroke="white" stroke-width="1.53169" stroke-linecap="round" stroke-linejoin="round"/>
<path d="M143.21 67.5482C148.092 66.7495 153.002 66.069 157.942 65.5219C158.741 65.4331 159.422 66.0543 159.422 66.853V90.4893C159.422 91.9093 158.342 93.1073 156.922 93.2551C152.056 93.8025 147.204 94.4976 142.397 95.2964C141.583 95.4295 140.844 94.8232 140.844 93.9948V70.3143C140.844 68.9533 141.85 67.77 143.196 67.5482H143.21Z" stroke="white" stroke-width="1.53169" stroke-linejoin="round"/>
<path d="M120.419 26.2961C132.577 23.1457 145.179 20.8827 157.944 19.4924C158.743 19.4035 159.423 20.0248 159.423 20.8235V53.6597C159.423 55.0797 158.343 56.2779 156.923 56.4257C144.351 57.8457 131.956 60.1088 119.975 63.2444C119.117 63.4662 118.304 62.845 118.304 61.9723V29.0178C118.304 27.7457 119.177 26.6217 120.404 26.2961H120.419Z" stroke="white" stroke-width="1.53169" stroke-linecap="round" stroke-linejoin="round"/>
<path d="M121.986 90.1645C125.699 89.2326 129.441 88.3746 133.228 87.5908" stroke="white" stroke-width="1.53169" stroke-linecap="round" stroke-linejoin="round"/>
<path d="M121.986 85.7565C125.699 84.8246 129.441 83.9669 133.228 83.1978" stroke="white" stroke-width="1.53169" stroke-linecap="round" stroke-linejoin="round"/>
<path d="M133.228 91.9834C129.441 92.7525 125.699 93.6105 121.986 94.5423" stroke="white" stroke-width="1.53169" stroke-linecap="round" stroke-linejoin="round"/>
<path d="M133.228 73.8052C129.441 74.5743 125.699 75.4322 121.986 76.3639V81.1416C125.699 80.2097 129.441 79.3517 133.228 78.5826V73.8052Z" fill="white" stroke="white" stroke-width="1.53169" stroke-linecap="round" stroke-linejoin="round"/>
<path d="M144.527 85.7558C148.255 85.1641 151.997 84.6317 155.769 84.2026" stroke="white" stroke-width="1.53169" stroke-linecap="round" stroke-linejoin="round"/>
<path d="M155.769 88.4478C152.012 88.8915 148.255 89.4092 144.527 90.0156" stroke="white" stroke-width="1.53169" stroke-linecap="round" stroke-linejoin="round"/>
<path d="M155.769 70.3887C152.012 70.8325 148.255 71.3502 144.527 71.9565V80.8164C148.255 80.2248 151.997 79.6924 155.769 79.2486V70.3887Z" fill="white" stroke="white" stroke-width="1.53169" stroke-linecap="round" stroke-linejoin="round"/>
<path d="M157.158 52.7719C154.628 53.1565 155.013 40.3917 151.877 40.791C149.895 41.0424 148.919 47.0329 146.109 47.5357C141.464 48.3641 143.106 25.8668 139.216 26.6802C135.326 27.4939 136.687 45.4649 131.48 46.8553C126.274 48.2456 127.797 28.3959 120.49 29.6384" stroke="white" stroke-width="1.53169" stroke-linecap="round" stroke-linejoin="round"/>
<path d="M122.044 58.1121C124.544 57.4761 127.058 56.8845 129.602 56.3372" stroke="white" stroke-width="1.53169" stroke-linecap="round" stroke-linejoin="round"/>
<path d="M146.745 25.5418C149.319 25.1573 151.907 24.8023 154.51 24.4917" stroke="white" stroke-width="1.53169" stroke-linecap="round" stroke-linejoin="round"/>
<path d="M107.519 81.6587V85.7706" stroke="white" stroke-width="4.08451" stroke-linecap="round" stroke-linejoin="round"/>
<path d="M96.4844 91.4663V95.5635" stroke="white" stroke-width="4.08451" stroke-linecap="round" stroke-linejoin="round"/>
<path d="M85.8066 87.2651V91.3623" stroke="white" stroke-width="4.08451" stroke-linecap="round" stroke-linejoin="round"/>
<path d="M75.3799 104.127V108.224" stroke="white" stroke-width="4.08451" stroke-linecap="round" stroke-linejoin="round"/>
<path d="M65.7927 99.9114V104.009" stroke="white" stroke-width="4.08451" stroke-linecap="round" stroke-linejoin="round"/>
<path d="M55.8545 118.06V122.159" stroke="white" stroke-width="4.08451" stroke-linecap="round" stroke-linejoin="round"/>
<path d="M46.8591 119.229V123.326" stroke="white" stroke-width="4.08451" stroke-linecap="round" stroke-linejoin="round"/>
<path d="M39.4502 132.098V136.195" stroke="white" stroke-width="4.08451" stroke-linecap="round" stroke-linejoin="round"/>
<path d="M15.9629 102.869C15.9629 120.381 23.4471 137.896 38.4012 153.515C45.5895 161.014 54.479 168.099 65.1139 174.517C71.0007 178.067 77.2277 181.292 83.7211 184.192C85.7031 185.078 86.9899 187.016 86.9899 189.191V282.73C86.9899 284.711 84.934 286.029 83.1147 285.214C76.8432 282.375 70.8232 279.255 65.1139 275.807C32.3516 256.032 15.9629 230.104 15.9629 204.159V102.869Z" stroke="#F7F7F7" stroke-width="2.04226"/>
<path d="M15.9629 192.904C15.9629 203.005 18.4626 213.108 23.4471 222.856C26.7752 229.379 31.2273 235.724 36.7741 241.802C37.2326 242.306 37.6764 242.809 38.1496 243.311C42.6609 248.059 47.8525 252.616 53.7395 256.964C57.1415 259.478 60.78 261.918 64.6405 264.271C64.8179 264.375 64.9807 264.477 65.1582 264.581C68.0868 266.356 71.1042 268.027 74.1956 269.64" stroke="white" stroke-width="1.53169" stroke-linecap="round" stroke-linejoin="round"/>
<path d="M15.9629 173.217C15.9629 183.318 18.4626 193.421 23.4471 203.154C26.7752 209.677 31.2273 216.022 36.7741 222.1C37.2473 222.619 37.7207 223.152 38.2088 223.668C42.7052 228.386 47.8821 232.942 53.7542 237.262C57.1858 239.79 60.8539 242.261 64.7589 244.628C64.9364 244.73 65.099 244.834 65.2766 244.939C68.1756 246.685 71.1634 248.341 74.2105 249.938" stroke="white" stroke-width="1.53169" stroke-linecap="round" stroke-linejoin="round"/>
<path d="M15.9629 153.515C15.9629 163.616 18.4626 173.719 23.4471 183.452C26.7752 189.975 31.2273 196.321 36.7741 202.398C37.2622 202.946 37.7503 203.479 38.2531 204.012C42.7348 208.715 47.897 213.255 53.7395 217.56C57.2005 220.119 60.8985 222.588 64.8329 224.986C65.0103 225.088 65.1731 225.192 65.3506 225.296C68.2199 227.026 71.1634 228.668 74.1956 230.236" stroke="white" stroke-width="1.53169" stroke-linecap="round" stroke-linejoin="round"/>
<path d="M74.2105 210.549C71.2227 208.995 68.3088 207.369 65.4688 205.668C65.2913 205.564 65.1286 205.46 64.9511 205.358C60.9724 202.946 57.2451 200.446 53.7542 197.873C47.9414 193.584 42.7941 189.058 38.3123 184.369C37.7799 183.822 37.2918 183.258 36.7741 182.697C31.2126 176.619 26.7752 170.257 23.4471 163.751C18.4773 154.017 15.9629 143.914 15.9629 133.813" stroke="white" stroke-width="1.53169" stroke-linecap="round" stroke-linejoin="round"/>
<path d="M74.2093 190.862C71.251 189.324 68.3668 187.727 65.5713 186.055C65.3939 185.952 65.2311 185.848 65.0536 185.744C61.0453 183.318 57.2734 180.804 53.7532 178.2C47.955 173.926 42.8373 169.431 38.3703 164.756C37.8232 164.18 37.3055 163.602 36.7878 163.026C31.2263 156.946 26.7889 150.587 23.461 144.078C18.4912 134.345 15.9766 124.244 15.9766 114.141" stroke="white" stroke-width="1.53169" stroke-linecap="round" stroke-linejoin="round"/>
<path d="M74.209 269.64V249.938V230.251V210.549V190.862" stroke="white" stroke-width="1.53169" stroke-linecap="round" stroke-linejoin="round"/>
<path d="M53.7542 178.186V197.887V217.575V237.276V256.964" stroke="white" stroke-width="1.53169" stroke-linecap="round" stroke-linejoin="round"/>
<path d="M36.79 163.009V182.713V202.414V222.1V241.803" stroke="white" stroke-width="1.53169" stroke-linecap="round" stroke-linejoin="round"/>
<path d="M23.4475 144.063V163.765V183.452V203.154V222.856" stroke="white" stroke-width="1.53169" stroke-linecap="round" stroke-linejoin="round"/>
<path d="M75.9695 191.454L74.2094 189.102L72.4492 189.917L74.2094 192.623L75.9695 191.454Z" fill="white" stroke="white" stroke-width="1.53169" stroke-linecap="round" stroke-linejoin="round"/>
<path d="M54.8764 179.043L53.6339 176.619L52.0068 177.906L53.6339 180.42L54.8764 179.043Z" fill="white" stroke="white" stroke-width="1.53169" stroke-linecap="round" stroke-linejoin="round"/>
<path d="M37.2764 163.498L36.5369 160.998L35.043 162.744L36.5369 165.052L37.2764 163.498Z" fill="white" stroke="white" stroke-width="1.53169" stroke-linecap="round" stroke-linejoin="round"/>
<path d="M23.3142 144.566L23.0776 141.979L21.7168 144.196L23.0776 146.312L23.3142 144.566Z" fill="white" stroke="white" stroke-width="1.53169" stroke-linecap="round" stroke-linejoin="round"/>
<path d="M75.9695 210.755L74.2094 208.405L72.4492 209.218L74.2094 211.926L75.9695 210.755Z" fill="white" stroke="white" stroke-width="1.53169" stroke-linecap="round" stroke-linejoin="round"/>
<path d="M54.8764 198.361L53.6339 195.935L52.0068 197.207L53.6339 199.721L54.8764 198.361Z" fill="white" stroke="white" stroke-width="1.53169" stroke-linecap="round" stroke-linejoin="round"/>
<path d="M37.2764 182.801L36.5369 180.302L35.043 182.048L36.5369 184.37L37.2764 182.801Z" fill="white" stroke="white" stroke-width="1.53169" stroke-linecap="round" stroke-linejoin="round"/>
<path d="M23.3142 163.868L23.0776 161.294L21.7168 163.498L23.0776 165.628L23.3142 163.868Z" fill="white" stroke="white" stroke-width="1.53169" stroke-linecap="round" stroke-linejoin="round"/>
<path d="M75.9695 230.843L74.2094 228.49L72.4492 229.303L74.2094 232.011L75.9695 230.843Z" fill="white" stroke="white" stroke-width="1.53169" stroke-linecap="round" stroke-linejoin="round"/>
<path d="M54.8764 218.447L53.6339 216.022L52.0068 217.293L53.6339 219.809L54.8764 218.447Z" fill="white" stroke="white" stroke-width="1.53169" stroke-linecap="round" stroke-linejoin="round"/>
<path d="M37.2764 202.887L36.5369 200.387L35.043 202.134L36.5369 204.456L37.2764 202.887Z" fill="white" stroke="white" stroke-width="1.53169" stroke-linecap="round" stroke-linejoin="round"/>
<path d="M23.3142 183.955L23.0776 181.381L21.7168 183.585L23.0776 185.715L23.3142 183.955Z" fill="white" stroke="white" stroke-width="1.53169" stroke-linecap="round" stroke-linejoin="round"/>
<path d="M75.9695 250.53L74.2094 248.178L72.4492 248.991L74.2094 251.699L75.9695 250.53Z" fill="white" stroke="white" stroke-width="1.53169" stroke-linecap="round" stroke-linejoin="round"/>
<path d="M54.8764 238.134L53.6339 235.709L52.0068 236.98L53.6339 239.496L54.8764 238.134Z" fill="white" stroke="white" stroke-width="1.53169" stroke-linecap="round" stroke-linejoin="round"/>
<path d="M37.2764 222.573L36.5369 220.074L35.043 221.82L36.5369 224.142L37.2764 222.573Z" fill="white" stroke="white" stroke-width="1.53169" stroke-linecap="round" stroke-linejoin="round"/>
<path d="M23.3142 203.643L23.0776 201.067L21.7168 203.273L23.0776 205.403L23.3142 203.643Z" fill="white" stroke="white" stroke-width="1.53169" stroke-linecap="round" stroke-linejoin="round"/>
<path d="M75.9695 270.232L74.2094 267.879L72.4492 268.692L74.2094 271.4L75.9695 270.232Z" fill="white" stroke="white" stroke-width="1.53169" stroke-linecap="round" stroke-linejoin="round"/>
<path d="M54.8764 257.822L53.6339 255.396L52.0068 256.682L53.6339 259.182L54.8764 257.822Z" fill="white" stroke="white" stroke-width="1.53169" stroke-linecap="round" stroke-linejoin="round"/>
<path d="M37.2764 242.275L36.5369 239.775L35.043 241.521L36.5369 243.829L37.2764 242.275Z" fill="white" stroke="white" stroke-width="1.53169" stroke-linecap="round" stroke-linejoin="round"/>
<path d="M23.3142 223.343L23.0776 220.754L21.7168 222.974L23.0776 225.088L23.3142 223.343Z" fill="white" stroke="white" stroke-width="1.53169" stroke-linecap="round" stroke-linejoin="round"/>
<path d="M329.134 153.515C344.087 137.896 351.572 120.381 351.572 102.869C351.572 76.9406 335.183 51.0117 302.421 31.2212C288.43 22.7755 272.573 16.1491 255.666 11.3123C253.936 10.8095 252.206 12.1406 252.206 13.9451V107.499C252.206 109.911 253.789 112.055 256.111 112.721C272.853 117.542 288.562 124.125 302.421 132.496C313.055 138.915 321.945 145.985 329.134 153.5V153.515Z" stroke="#F7F7F7" stroke-width="2.04226"/>
<path d="M329.134 153.515C344.089 137.896 351.572 120.382 351.572 102.87V204.159C351.572 230.088 335.185 256.018 302.421 275.807C267.515 296.886 221.07 306.707 175.366 305.33C172.408 305.242 170.026 302.845 170.026 299.873V209.499C170.026 206.438 172.541 203.967 175.603 204.055C221.219 205.386 267.574 195.565 302.421 174.518C313.057 168.099 321.947 161.029 329.134 153.515Z" stroke="#F7F7F7" stroke-width="2.04226"/>
<path d="M181.949 218.61C190.632 218.67 199.315 218.331 207.923 217.575C216.531 216.821 225.066 215.668 233.423 214.113C241.794 212.561 249.99 210.595 257.946 208.228C265.903 205.861 273.61 203.095 281.005 199.916C288.386 196.734 295.442 193.17 302.084 189.177C302.186 189.118 302.304 189.059 302.408 188.983C310.099 184.339 316.859 179.354 322.747 174.12C325.01 172.108 327.14 170.066 329.135 167.981C332.879 164.076 336.146 160.039 338.956 155.925C347.358 143.59 351.559 130.471 351.559 117.335" stroke="white" stroke-width="1.53169" stroke-linecap="round" stroke-linejoin="round"/>
<path d="M181.949 236.7C190.632 236.759 199.315 236.418 207.923 235.665C216.531 234.909 225.052 233.757 233.423 232.203C241.794 230.651 249.99 228.682 257.946 226.317C265.903 223.95 273.61 221.183 281.005 218.003C288.386 214.824 295.442 211.26 302.084 207.265C302.186 207.206 302.304 207.147 302.408 207.073C310.099 202.429 316.859 197.444 322.747 192.208C325.01 190.196 327.14 188.156 329.135 186.071C332.879 182.166 336.146 178.143 338.942 174.029C347.344 161.694 351.545 148.575 351.545 135.439" stroke="white" stroke-width="1.53169" stroke-linecap="round" stroke-linejoin="round"/>
<path d="M351.559 153.515C351.559 166.648 347.358 179.768 338.956 192.103C336.162 196.216 332.893 200.239 329.151 204.144C327.154 206.229 325.009 208.272 322.761 210.283C316.873 215.518 310.115 220.503 302.422 225.147C302.32 225.206 302.201 225.265 302.097 225.339C295.456 229.319 288.416 232.897 281.019 236.079C273.638 239.259 265.933 242.024 257.96 244.391C250.003 246.758 241.794 248.71 233.437 250.277C225.065 251.831 216.545 252.985 207.937 253.738C199.329 254.494 190.646 254.833 181.964 254.774" stroke="white" stroke-width="1.53169" stroke-linecap="round" stroke-linejoin="round"/>
<path d="M351.559 171.603C351.559 184.739 347.358 197.873 338.956 210.193C336.163 214.307 332.893 218.33 329.152 222.235C327.154 224.32 325.01 226.374 322.747 228.386C316.859 233.622 310.099 238.607 302.408 243.252C302.304 243.311 302.186 243.37 302.084 243.443C295.442 247.424 288.4 251.002 281.005 254.182C273.625 257.363 265.919 260.129 257.946 262.496C249.99 264.863 241.78 266.829 233.423 268.381C225.052 269.936 216.531 271.09 207.923 271.843C199.315 272.597 190.632 272.938 181.949 272.879" stroke="white" stroke-width="1.53169" stroke-linecap="round" stroke-linejoin="round"/>
<path d="M181.949 290.953C190.632 291.012 199.315 290.673 207.923 289.918C216.531 289.164 225.066 288.01 233.423 286.458C241.794 284.904 249.989 282.937 257.946 280.57C265.903 278.203 273.61 275.438 281.005 272.258C288.386 269.079 295.442 265.498 302.083 261.52C302.185 261.461 302.304 261.402 302.408 261.328C310.099 256.682 316.859 251.699 322.747 246.463C325.01 244.451 327.154 242.394 329.151 240.309C332.878 236.404 336.146 232.396 338.942 228.284C347.344 215.947 351.545 202.813 351.545 189.68" stroke="white" stroke-width="1.53169" stroke-linecap="round" stroke-linejoin="round"/>
<path d="M181.949 290.953V272.864V254.774V236.7V218.61" stroke="white" stroke-width="1.53169" stroke-linecap="round" stroke-linejoin="round"/>
<path d="M207.923 217.575V235.651V253.739V271.83V289.918" stroke="white" stroke-width="1.53169" stroke-linecap="round" stroke-linejoin="round"/>
<path d="M233.437 214.112V232.188V250.277V268.367V286.457" stroke="white" stroke-width="1.53169" stroke-linecap="round" stroke-linejoin="round"/>
<path d="M257.96 280.57V262.482V244.391V226.315V208.227" stroke="white" stroke-width="1.53169" stroke-linecap="round" stroke-linejoin="round"/>
<path d="M281.019 199.915V218.003V236.094V254.168V272.258" stroke="white" stroke-width="1.53169" stroke-linecap="round" stroke-linejoin="round"/>
<path d="M302.082 189.175V207.265V225.355V243.429V261.519" stroke="white" stroke-width="1.53169" stroke-linecap="round" stroke-linejoin="round"/>
<path d="M322.746 246.476V228.386V210.298V192.207V174.119" stroke="white" stroke-width="1.53169" stroke-linecap="round" stroke-linejoin="round"/>
<path d="M340.865 225.356V207.266V189.175V171.087V152.982" stroke="white" stroke-width="1.53169" stroke-linecap="round" stroke-linejoin="round"/>
<path d="M279.258 200.505L281.018 198.155L282.779 198.967L281.018 201.673L279.258 200.505Z" fill="white" stroke="white" stroke-width="1.53169" stroke-linecap="round" stroke-linejoin="round"/>
<path d="M256.155 208.685L257.989 206.467L259.764 207.517L257.989 209.988L256.155 208.685Z" fill="white" stroke="white" stroke-width="1.53169" stroke-linecap="round" stroke-linejoin="round"/>
<path d="M231.572 214.44L233.48 212.354L235.285 213.641L233.48 215.873L231.572 214.44Z" fill="white" stroke="white" stroke-width="1.53169" stroke-linecap="round" stroke-linejoin="round"/>
<path d="M206.028 217.766L208.011 215.814L209.831 217.337L208.011 219.321L206.028 217.766Z" fill="white" stroke="white" stroke-width="1.53169" stroke-linecap="round" stroke-linejoin="round"/>
<path d="M179.893 218.67L181.949 216.85L183.798 218.61L181.949 220.371L179.893 218.67Z" fill="white" stroke="white" stroke-width="1.53169" stroke-linecap="round" stroke-linejoin="round"/>
<path d="M256.155 226.775L257.989 224.557L259.764 225.607L257.989 228.062L256.155 226.775Z" fill="white" stroke="white" stroke-width="1.53169" stroke-linecap="round" stroke-linejoin="round"/>
<path d="M231.572 232.528L233.48 230.442L235.285 231.729L233.48 233.949L231.572 232.528Z" fill="white" stroke="white" stroke-width="1.53169" stroke-linecap="round" stroke-linejoin="round"/>
<path d="M206.028 235.857L208.011 233.904L209.831 235.428L208.011 237.409L206.028 235.857Z" fill="white" stroke="white" stroke-width="1.53169" stroke-linecap="round" stroke-linejoin="round"/>
<path d="M179.893 236.76L181.949 234.94L183.798 236.7L181.949 238.444L179.893 236.76Z" fill="white" stroke="white" stroke-width="1.53169" stroke-linecap="round" stroke-linejoin="round"/>
<path d="M256.155 244.865L257.989 242.645L259.764 243.697L257.989 246.152L256.155 244.865Z" fill="white" stroke="white" stroke-width="1.53169" stroke-linecap="round" stroke-linejoin="round"/>
<path d="M231.572 250.604L233.48 248.519L235.285 249.806L233.48 252.038L231.572 250.604Z" fill="white" stroke="white" stroke-width="1.53169" stroke-linecap="round" stroke-linejoin="round"/>
<path d="M206.028 253.93L208.011 251.978L209.831 253.518L208.011 255.499L206.028 253.93Z" fill="white" stroke="white" stroke-width="1.53169" stroke-linecap="round" stroke-linejoin="round"/>
<path d="M179.893 254.848L181.949 253.014L183.798 254.791L181.949 256.535L179.893 254.848Z" fill="white" stroke="white" stroke-width="1.53169" stroke-linecap="round" stroke-linejoin="round"/>
<path d="M256.155 262.94L257.989 260.722L259.764 261.771L257.989 264.24L256.155 262.94Z" fill="white" stroke="white" stroke-width="1.53169" stroke-linecap="round" stroke-linejoin="round"/>
<path d="M231.572 268.692L233.48 266.607L235.285 267.894L233.48 270.128L231.572 268.692Z" fill="white" stroke="white" stroke-width="1.53169" stroke-linecap="round" stroke-linejoin="round"/>
<path d="M206.028 272.021L208.011 270.068L209.831 271.592L208.011 273.589L206.028 272.021Z" fill="white" stroke="white" stroke-width="1.53169" stroke-linecap="round" stroke-linejoin="round"/>
<path d="M179.893 272.924L181.949 271.104L183.798 272.879L181.949 274.625L179.893 272.924Z" fill="white" stroke="white" stroke-width="1.53169" stroke-linecap="round" stroke-linejoin="round"/>
<path d="M256.155 281.03L257.989 278.81L259.764 279.861L257.989 282.33L256.155 281.03Z" fill="white" stroke="white" stroke-width="1.53169" stroke-linecap="round" stroke-linejoin="round"/>
<path d="M231.572 286.782L233.48 284.697L235.285 285.984L233.48 288.218L231.572 286.782Z" fill="white" stroke="white" stroke-width="1.53169" stroke-linecap="round" stroke-linejoin="round"/>
<path d="M206.028 290.112L208.011 288.159L209.831 289.683L208.011 291.678L206.028 290.112Z" fill="white" stroke="white" stroke-width="1.53169" stroke-linecap="round" stroke-linejoin="round"/>
<path d="M179.893 291.012L181.949 289.194L183.798 290.953L181.949 292.713L179.893 291.012Z" fill="white" stroke="white" stroke-width="1.53169" stroke-linecap="round" stroke-linejoin="round"/>
<path d="M300.826 189.931L302.082 187.504L303.71 188.791L302.082 191.305L300.826 189.931Z" fill="white" stroke="white" stroke-width="1.53169" stroke-linecap="round" stroke-linejoin="round"/>
<path d="M322.006 174.119L322.747 171.62L324.254 173.364L322.747 175.671L322.006 174.119Z" fill="white" stroke="white" stroke-width="1.53169" stroke-linecap="round" stroke-linejoin="round"/>
<path d="M340.628 153.397L340.863 150.824L342.239 153.027L340.863 155.157L340.628 153.397Z" fill="white" stroke="white" stroke-width="1.53169" stroke-linecap="round" stroke-linejoin="round"/>
<path d="M279.258 218.595L281.018 216.243L282.779 217.058L281.018 219.764L279.258 218.595Z" fill="white" stroke="white" stroke-width="1.53169" stroke-linecap="round" stroke-linejoin="round"/>
<path d="M300.826 208.02L302.082 205.594L303.71 206.881L302.082 209.381L300.826 208.02Z" fill="white" stroke="white" stroke-width="1.53169" stroke-linecap="round" stroke-linejoin="round"/>
<path d="M322.006 192.208L322.747 189.708L324.254 191.455L322.747 193.762L322.006 192.208Z" fill="white" stroke="white" stroke-width="1.53169" stroke-linecap="round" stroke-linejoin="round"/>
<path d="M340.628 171.485L340.863 168.912L342.239 171.116L340.863 173.246L340.628 171.485Z" fill="white" stroke="white" stroke-width="1.53169" stroke-linecap="round" stroke-linejoin="round"/>
<path d="M279.258 236.686L281.018 234.333L282.779 235.146L281.018 237.84L279.258 236.686Z" fill="white" stroke="white" stroke-width="1.53169" stroke-linecap="round" stroke-linejoin="round"/>
<path d="M300.826 226.109L302.082 223.683L303.71 224.955L302.082 227.469L300.826 226.109Z" fill="white" stroke="white" stroke-width="1.53169" stroke-linecap="round" stroke-linejoin="round"/>
<path d="M322.006 210.298L322.747 207.798L324.254 209.544L322.747 211.85L322.006 210.298Z" fill="white" stroke="white" stroke-width="1.53169" stroke-linecap="round" stroke-linejoin="round"/>
<path d="M340.628 189.575L340.863 187.001L342.239 189.205L340.863 191.335L340.628 189.575Z" fill="white" stroke="white" stroke-width="1.53169" stroke-linecap="round" stroke-linejoin="round"/>
<path d="M279.258 254.759L281.018 252.407L282.779 253.222L281.018 255.928L279.258 254.759Z" fill="white" stroke="white" stroke-width="1.53169" stroke-linecap="round" stroke-linejoin="round"/>
<path d="M300.826 244.199L302.082 241.772L303.71 243.045L302.082 245.559L300.826 244.199Z" fill="white" stroke="white" stroke-width="1.53169" stroke-linecap="round" stroke-linejoin="round"/>
<path d="M322.006 228.388L322.747 225.888L324.254 227.632L322.747 229.94L322.006 228.388Z" fill="white" stroke="white" stroke-width="1.53169" stroke-linecap="round" stroke-linejoin="round"/>
<path d="M340.628 207.666L340.863 205.09L342.239 207.296L340.863 209.426L340.628 207.666Z" fill="white" stroke="white" stroke-width="1.53169" stroke-linecap="round" stroke-linejoin="round"/>
<path d="M279.258 272.851L281.018 270.498L282.779 271.311L281.018 274.019L279.258 272.851Z" fill="white" stroke="white" stroke-width="1.53169" stroke-linecap="round" stroke-linejoin="round"/>
<path d="M300.826 262.288L302.082 259.864L303.71 261.136L302.082 263.65L300.826 262.288Z" fill="white" stroke="white" stroke-width="1.53169" stroke-linecap="round" stroke-linejoin="round"/>
<path d="M322.006 246.476L322.747 243.977L324.254 245.723L322.747 248.03L322.006 246.476Z" fill="white" stroke="white" stroke-width="1.53169" stroke-linecap="round" stroke-linejoin="round"/>
<path d="M340.628 225.753L340.863 223.18L342.239 225.383L340.863 227.513L340.628 225.753Z" fill="white" stroke="white" stroke-width="1.53169" stroke-linecap="round" stroke-linejoin="round"/>
<path d="M281.672 46.7909C285.307 43.8676 284.833 37.2456 280.616 32.0005C276.397 26.7554 270.029 24.8732 266.396 27.7967C262.76 30.72 263.234 37.342 267.454 42.5871C271.671 47.8323 278.039 49.7144 281.672 46.7909Z" stroke="white" stroke-width="1.53169" stroke-linecap="round" stroke-linejoin="round"/>
<path d="M281.662 77.4089C285.297 74.4856 284.824 67.8636 280.606 62.6184C276.387 57.3733 270.021 55.4912 266.386 58.4146C262.751 61.3379 263.225 67.96 267.444 73.2051C271.661 78.4502 278.029 80.3324 281.662 77.4089Z" stroke="white" stroke-width="1.53169" stroke-linecap="round" stroke-linejoin="round"/>
<path d="M281.662 108.038C285.297 105.114 284.824 98.4925 280.606 93.2473C276.387 88.0022 270.021 86.1201 266.386 89.0436C262.751 91.9668 263.225 98.5889 267.444 103.834C271.661 109.08 278.029 110.96 281.662 108.038Z" stroke="white" stroke-width="1.53169" stroke-linecap="round" stroke-linejoin="round"/>
<path d="M282.16 46.2934L275.281 38.6611" stroke="white" stroke-width="1.53169" stroke-linecap="round" stroke-linejoin="round"/>
<path d="M279.317 61.189L274.066 67.8451" stroke="white" stroke-width="1.53169" stroke-linecap="round" stroke-linejoin="round"/>
<path d="M273.506 98.5215H264.573" stroke="white" stroke-width="1.53169" stroke-linecap="round" stroke-linejoin="round"/>
<path d="M294.804 46.3674V39.4897C294.804 38.957 295.368 38.5874 295.856 38.8092C297.704 39.6375 299.036 40.2735 300.943 41.2793C301.55 41.6046 301.934 42.2408 301.934 42.9211V49.9321C301.934 50.4942 301.327 50.8491 300.825 50.583C298.962 49.5623 297.674 48.8967 295.856 48.0387C295.205 47.7283 294.79 47.0775 294.79 46.3527L294.804 46.3674ZM307.303 54.4286C309.272 55.6711 310.601 56.5733 312.466 57.949C312.954 58.3039 313.648 57.9637 313.648 57.3574V50.021C313.648 49.4144 313.354 48.8524 312.866 48.4974C310.883 47.1071 309.509 46.2344 307.57 45.0511C307.082 44.7552 306.431 45.0955 306.431 45.6871V52.8607C306.431 53.4967 306.756 54.0885 307.303 54.4286ZM318.678 62.8447C320.616 64.4867 321.872 65.6254 323.588 67.3413C324.002 67.7555 324.699 67.4745 324.699 66.8829V58.9103C324.699 58.4075 324.476 57.9045 324.107 57.5495C322.242 55.7893 320.955 54.6949 319.062 53.1713C318.633 52.8311 317.998 53.127 317.998 53.6744V61.4249C317.998 61.972 318.249 62.4898 318.664 62.8447H318.678ZM329.298 73.6276C330.658 75.1954 331.724 76.3787 332.907 78.0205C333.217 78.4643 333.914 78.2423 333.914 77.7099V70.1368C333.914 69.2937 333.632 68.4801 333.115 67.8294C331.843 66.2024 330.762 65.0783 329.343 63.5695C329.002 63.1998 328.367 63.4363 328.367 63.9394V71.1869C328.367 72.0892 328.691 72.9618 329.284 73.6276H329.298ZM337.271 84.7209C338.276 86.5549 339.031 87.9156 339.756 89.5872C339.991 90.1343 340.82 89.9718 340.82 89.3652C340.82 86.703 340.835 85.002 340.82 81.7331C340.82 81.2154 340.716 80.6828 340.496 80.2243C339.593 78.1833 338.868 76.8372 337.833 75.077C337.537 74.5889 336.797 74.796 336.797 75.358V82.9164C336.797 83.5377 336.961 84.1587 337.257 84.706L337.271 84.7209Z" fill="white"/>
<path d="M294.804 61.913V55.0351C294.804 54.5027 295.368 54.1328 295.856 54.3546C297.704 55.1829 299.036 55.8191 300.943 56.8247C301.55 57.1502 301.934 57.7862 301.934 58.4667V65.4775C301.934 66.0398 301.327 66.3947 300.825 66.1284C298.962 65.1079 297.674 64.4423 295.856 63.5844C295.205 63.2737 294.79 62.6229 294.79 61.8981L294.804 61.913ZM307.303 69.9742C309.272 71.2165 310.601 72.1187 312.466 73.4944C312.954 73.8493 313.648 73.5091 313.648 72.9028V65.5664C313.648 64.9598 313.354 64.3978 312.866 64.0428C310.883 62.6525 309.509 61.7798 307.57 60.5965C307.082 60.3006 306.431 60.6409 306.431 61.2325V68.4063C306.431 69.0423 306.756 69.6339 307.303 69.9742ZM318.678 78.3903C320.616 80.0321 321.872 81.171 323.588 82.8867C324.002 83.3009 324.699 83.0199 324.699 82.4283V74.4559C324.699 73.9529 324.476 73.4501 324.107 73.0949C322.242 71.3349 320.955 70.2403 319.062 68.717C318.633 68.3767 317.998 68.6724 317.998 69.2198V76.9703C317.998 77.5177 318.249 78.0354 318.664 78.3903H318.678ZM329.298 89.173C330.658 90.7409 331.724 91.9241 332.907 93.5659C333.217 94.0097 333.914 93.7879 333.914 93.2553V85.6822C333.914 84.8391 333.632 84.0257 333.115 83.3748C331.843 81.7478 330.762 80.6237 329.343 79.1151C329.002 78.7453 328.367 78.982 328.367 79.4848V86.7325C328.367 87.6348 328.691 88.5074 329.284 89.173H329.298ZM337.271 100.266C338.276 102.1 339.031 103.461 339.756 105.133C339.991 105.68 340.82 105.517 340.82 104.911C340.82 102.248 340.835 100.547 340.82 97.2785C340.82 96.7608 340.716 96.2284 340.496 95.7699C339.593 93.7287 338.868 92.3826 337.833 90.6226C337.537 90.1345 336.797 90.3414 336.797 90.9036V98.4618C336.797 99.0831 336.961 99.7043 337.257 100.252L337.271 100.266Z" fill="white"/>
<path d="M294.804 77.4583V70.5804C294.804 70.0479 295.368 69.6781 295.856 69.9001C297.704 70.7284 299.036 71.3644 300.943 72.3702C301.55 72.6955 301.934 73.3317 301.934 74.012V81.023C301.934 81.5851 301.327 81.94 300.825 81.6737C298.962 80.6532 297.674 79.9876 295.856 79.1296C295.205 78.819 294.79 78.1684 294.79 77.4436L294.804 77.4583ZM307.303 85.5195C309.272 86.762 310.601 87.6642 312.466 89.0397C312.954 89.3948 313.648 89.0546 313.648 88.4481V81.1117C313.648 80.5053 313.354 79.9433 312.866 79.5881C310.883 78.1978 309.509 77.3251 307.57 76.1418C307.082 75.8461 306.431 76.1864 306.431 76.778V83.9516C306.431 84.5876 306.756 85.1792 307.303 85.5195ZM318.678 93.9356C320.616 95.5774 321.872 96.7163 323.588 98.432C324.002 98.8462 324.699 98.5652 324.699 97.9736V90.0012C324.699 89.4984 324.476 88.9954 324.107 88.6404C322.242 86.8802 320.955 85.7858 319.062 84.2622C318.633 83.922 317.998 84.2179 317.998 84.765V92.5156C317.998 93.063 318.249 93.5807 318.664 93.9356H318.678ZM329.298 104.718C330.658 106.286 331.724 107.469 332.907 109.112C333.217 109.555 333.914 109.333 333.914 108.802V101.228C333.914 100.385 333.632 99.571 333.115 98.9203C331.843 97.2933 330.762 96.169 329.343 94.6604C329.002 94.2905 328.367 94.5272 328.367 95.0303V102.278C328.367 103.18 328.691 104.053 329.284 104.718H329.298ZM337.271 115.813C338.276 117.647 339.031 119.007 339.756 120.677C339.991 121.225 340.82 121.063 340.82 120.457C340.82 117.794 340.835 116.092 340.82 112.825C340.82 112.306 340.716 111.773 340.496 111.316C339.593 109.273 338.868 107.928 337.833 106.168C337.537 105.68 336.797 105.887 336.797 106.449V114.007C336.797 114.628 336.961 115.249 337.257 115.796L337.271 115.813Z" fill="white"/>
<path d="M298.696 120.872V98.6546L293.608 96.0366V118.356" stroke="white" stroke-width="1.53169" stroke-linecap="round" stroke-linejoin="round"/>
<path d="M308.887 127.497V113.801L303.8 110.532V124.154" stroke="white" stroke-width="1.53169" stroke-linecap="round" stroke-linejoin="round"/>
<path d="M319.077 135.529V114.526L313.989 110.133V131.254" stroke="white" stroke-width="1.53169" stroke-linecap="round" stroke-linejoin="round"/>
<path d="M329.267 146.372V115.25L324.18 109.881V140.47" stroke="white" stroke-width="1.53169" stroke-linecap="round" stroke-linejoin="round"/>
<path d="M339.459 140.706V132.304L334.357 126.921V147.599" stroke="white" stroke-width="1.53169" stroke-linecap="round" stroke-linejoin="round"/>
</svg>
