<svg width="48" height="48" viewBox="0 0 48 48" fill="none" xmlns="http://www.w3.org/2000/svg">
<path d="M26.7827 30.8696C24.048 32.6194 20.774 33.3241 17.5616 32.8541C14.3492 32.3843 11.4141 30.7713 9.29528 28.3114C7.17647 25.8517 6.01607 22.7101 6.02718 19.4635C6.03829 16.2169 7.22015 13.0834 9.35573 10.6381C11.4914 8.19285 14.4374 6.60006 17.6529 6.15214C20.8685 5.70422 24.1376 6.43127 26.8602 8.19982C29.5828 9.96832 31.5761 12.6596 32.474 15.7795C33.3719 18.8994 33.1143 22.2385 31.7484 25.1838C31.6645 25.3643 31.6556 25.5708 31.724 25.7578C31.7922 25.9447 31.932 26.097 32.1125 26.1809C32.2931 26.2649 32.4995 26.2736 32.6865 26.2054C32.8735 26.137 33.0257 25.9973 33.1097 25.8168C34.6316 22.5404 34.9202 18.825 33.9228 15.3529C32.9253 11.8808 30.7086 8.88502 27.6799 6.91597C24.6511 4.94692 21.0136 4.13672 17.4354 4.63419C13.8572 5.13166 10.5787 6.90338 8.20193 9.62392C5.8251 12.3445 4.50966 15.8313 4.49716 19.4438C4.48467 23.0564 5.77596 26.5522 8.1339 29.2892C10.4918 32.0261 13.758 33.8204 17.3327 34.3426C20.9073 34.8649 24.5503 34.0798 27.5927 32.1318C27.6773 32.0795 27.7507 32.0108 27.8085 31.9298C27.8664 31.8488 27.9075 31.757 27.9296 31.6599C27.9516 31.5628 27.9541 31.4623 27.9369 31.3643C27.9197 31.2663 27.8831 31.1726 27.8294 31.0889C27.7756 31.0051 27.7057 30.9328 27.6238 30.8764C27.5418 30.8199 27.4494 30.7803 27.352 30.7598C27.2546 30.7394 27.154 30.7386 27.0563 30.7574C26.9585 30.7763 26.8655 30.8144 26.7827 30.8696Z" fill="#7B36B6"/>
<path d="M31.7196 18.9696L29.6249 16.8749C29.4842 16.7342 29.2934 16.6553 29.0946 16.6553C28.8957 16.6553 28.705 16.7342 28.5644 16.8749L26.4696 18.9696C26.329 19.1102 26.25 19.301 26.25 19.4999C26.25 19.6988 26.329 19.8895 26.4696 20.0301L28.5644 22.1249C28.705 22.2655 28.8957 22.3445 29.0946 22.3445C29.2934 22.3445 29.4842 22.2655 29.6249 22.1249L31.7196 20.0301C31.8602 19.8895 31.9392 19.6988 31.9392 19.4999C31.9392 19.301 31.8602 19.1102 31.7196 18.9696ZM29.0946 20.5341L28.0603 19.4999L29.0946 18.4656L30.1288 19.4999L29.0946 20.5341Z" fill="#7B36B6"/>
<path d="M25.28 17.7806L27.3747 15.6859C27.4457 15.6149 27.5017 15.5303 27.5393 15.4373C27.5771 15.3443 27.5957 15.2446 27.5941 15.1442C27.5926 15.0439 27.5709 14.9448 27.5304 14.853C27.4898 14.7611 27.4313 14.6784 27.3582 14.6096L20.0135 7.70362C19.8744 7.57282 19.6907 7.5 19.4997 7.5C19.3088 7.5 19.1251 7.57282 18.986 7.70362L11.6412 14.6096C11.5682 14.6784 11.5096 14.7611 11.4691 14.853C11.4286 14.9448 11.4069 15.0439 11.4053 15.1442C11.4038 15.2446 11.4224 15.3443 11.4602 15.4373C11.4978 15.5303 11.5538 15.6149 11.6247 15.6859L13.7195 17.7806C13.8602 17.9212 14.0509 18.0002 14.2497 18.0002C14.4486 18.0002 14.6393 17.9212 14.78 17.7806L19.4997 13.0609L24.2195 17.7806C24.3602 17.9212 24.5509 18.0002 24.7497 18.0002C24.9486 18.0002 25.1393 17.9212 25.28 17.7806ZM20.03 11.4701C19.8893 11.3295 19.6986 11.2505 19.4997 11.2505C19.3009 11.2505 19.1102 11.3295 18.9695 11.4701L14.2497 16.1899L13.2327 15.1721L19.4997 9.28013L25.7667 15.1721L24.7497 16.1899L20.03 11.4701Z" fill="#7B36B6"/>
<path d="M9.37485 16.8749L7.28014 18.9696C7.13954 19.1102 7.06055 19.301 7.06055 19.4999C7.06055 19.6988 7.13954 19.8895 7.28014 20.0301L9.37485 22.1249C9.51555 22.2655 9.70628 22.3445 9.9051 22.3445C10.104 22.3445 10.2947 22.2655 10.4354 22.1249L12.5302 20.0301C12.6707 19.8895 12.7497 19.6988 12.7497 19.4999C12.7497 19.301 12.6707 19.1102 12.5302 18.9696L10.4354 16.8749C10.2947 16.7342 10.104 16.6553 9.9051 16.6553C9.70628 16.6553 9.51555 16.7342 9.37485 16.8749ZM9.9051 20.5341L8.87085 19.4999L9.9051 18.4656L10.9394 19.4999L9.9051 20.5341Z" fill="#7B36B6"/>
<path d="M20.0302 14.7801C19.8895 14.6395 19.6988 14.5605 19.4999 14.5605C19.301 14.5605 19.1103 14.6395 18.9696 14.7801L14.7802 18.9696C14.6396 19.1103 14.5606 19.301 14.5606 19.4998C14.5606 19.6987 14.6396 19.8894 14.7802 20.0301L18.9696 24.2196C19.1103 24.3602 19.301 24.4392 19.4999 24.4392C19.6988 24.4392 19.8895 24.3602 20.0302 24.2196L24.2196 20.0301C24.3602 19.8894 24.4392 19.6987 24.4392 19.4998C24.4392 19.301 24.3602 19.1103 24.2196 18.9696L20.0302 14.7801ZM19.4999 22.6289L16.3709 19.4998L19.4999 16.3708L22.6289 19.4998L19.4999 22.6289Z" fill="#7B36B6"/>
<path d="M18.986 31.2966C19.1251 31.4274 19.3088 31.5001 19.4997 31.5001C19.6907 31.5001 19.8744 31.4274 20.0135 31.2966L27.3582 24.3906C27.4313 24.3218 27.4898 24.239 27.5304 24.1472C27.5709 24.0554 27.5926 23.9563 27.5941 23.8559C27.5957 23.7556 27.5771 23.656 27.5393 23.5629C27.5017 23.4699 27.4457 23.3854 27.3747 23.3143L25.28 21.2196C25.1393 21.079 24.9486 21 24.7497 21C24.5509 21 24.3602 21.079 24.2195 21.2196L19.4997 25.9393L14.78 21.2196C14.6393 21.079 14.4486 21 14.2497 21C14.0509 21 13.8602 21.079 13.7195 21.2196L11.6247 23.3143C11.5538 23.3854 11.4978 23.4699 11.4602 23.5629C11.4224 23.656 11.4038 23.7556 11.4053 23.8559C11.4069 23.9563 11.4286 24.0554 11.4691 24.1472C11.5096 24.239 11.5682 24.3218 11.6412 24.3906L18.986 31.2966ZM14.2497 22.8103L18.9695 27.5301C19.1102 27.6707 19.3009 27.7497 19.4997 27.7497C19.6986 27.7497 19.8893 27.6707 20.03 27.5301L24.7497 22.8103L25.7667 23.8281L19.4997 29.7201L13.2327 23.8281L14.2497 22.8103Z" fill="#7B36B6"/>
<path d="M45.7505 27.7502C42.3402 27.7502 38.0254 24.2087 37.979 24.1727C37.8444 24.0613 37.6752 24.0002 37.5005 24.0002C37.3257 24.0002 37.1565 24.0613 37.0219 24.1727C37.0174 24.1765 36.9507 24.2305 36.8442 24.3145C37.9599 20.2951 37.645 16.013 35.9533 12.2001C34.2616 8.38718 31.2982 5.28019 27.5695 3.41016C23.8408 1.54013 19.5784 1.02317 15.5108 1.94765C11.4431 2.87213 7.82288 5.18064 5.26876 8.4786C2.71464 11.7766 1.38524 15.8593 1.50777 20.0288C1.63032 24.1983 3.19719 28.1959 5.94057 31.3381C8.68395 34.4804 12.4336 36.5724 16.5485 37.2564C20.6633 37.9404 24.888 37.174 28.5005 35.0882V37.0772C28.5023 38.0236 28.7274 38.9562 29.1574 39.7993C29.5875 40.6423 30.2104 41.3719 30.9754 41.929L37.0632 46.354C37.1914 46.4471 37.3457 46.4973 37.5042 46.4973C37.6627 46.4973 37.817 46.4471 37.9452 46.354L44.033 41.929C44.7967 41.3711 45.4181 40.6411 45.8468 39.7981C46.2755 38.9551 46.4995 38.023 46.5005 37.0772V28.5002C46.5005 28.3013 46.4214 28.1105 46.2808 27.9699C46.1401 27.8293 45.9493 27.7502 45.7505 27.7502ZM19.5005 36.0002C15.9577 36.0046 12.5073 34.8698 9.65865 32.7635C6.80993 30.6572 4.71382 27.691 3.67962 24.3025C2.64543 20.914 2.72793 17.2828 3.91497 13.9447C5.10201 10.6067 7.33068 7.73872 10.2721 5.76404C13.2135 3.78931 16.7118 2.81249 20.2508 2.97771C23.7897 3.14294 27.1818 4.44147 29.9264 6.68166C32.6711 8.92185 34.6229 11.985 35.4937 15.4191C36.3646 18.8532 36.1084 22.4763 34.763 25.7537C33.2067 26.7115 31.0977 27.7502 29.2505 27.7502C29.0515 27.7502 28.8608 27.8293 28.7201 27.9699C28.5795 28.1105 28.5005 28.3013 28.5005 28.5002V33.3167C25.8264 35.0699 22.698 36.0028 19.5005 36.0002ZM45.0005 37.0772C44.9993 37.7867 44.8309 38.486 44.5089 39.1183C44.1869 39.7506 43.7204 40.298 43.1472 40.7162L37.5005 44.8232L31.8537 40.7162C31.2805 40.298 30.814 39.7506 30.492 39.1183C30.1699 38.486 30.0016 37.7867 30.0005 37.0772V29.2075C33.0574 28.87 36.3004 26.6155 37.5005 25.7035C38.7005 26.6155 41.9434 28.87 45.0005 29.2075V37.0772Z" fill="#7B36B6"/>
<path d="M34.5 32.25V33H33.75C33.5511 33 33.3603 33.0791 33.2197 33.2197C33.0791 33.3603 33 33.5511 33 33.75V39.75C33 39.9489 33.0791 40.1397 33.2197 40.2803C33.3603 40.4209 33.5511 40.5 33.75 40.5H41.25C41.4489 40.5 41.6397 40.4209 41.7803 40.2803C41.9209 40.1397 42 39.9489 42 39.75V33.75C42 33.5511 41.9209 33.3603 41.7803 33.2197C41.6397 33.0791 41.4489 33 41.25 33H40.5V32.25C40.5 31.4543 40.1839 30.6913 39.6213 30.1287C39.0587 29.5661 38.2957 29.25 37.5 29.25C36.7043 29.25 35.9413 29.5661 35.3787 30.1287C34.8161 30.6913 34.5 31.4543 34.5 32.25ZM40.5 39H34.5V34.5H40.5V39ZM39 32.25V33H36V32.25C36 31.8522 36.158 31.4707 36.4394 31.1894C36.7207 30.908 37.1022 30.75 37.5 30.75C37.8978 30.75 38.2793 30.908 38.5606 31.1894C38.842 31.4707 39 31.8522 39 32.25Z" fill="#7B36B6"/>
<path d="M37.5 35.25C37.3011 35.25 37.1103 35.3291 36.9697 35.4697C36.8291 35.6103 36.75 35.8011 36.75 36V36.75C36.75 36.9489 36.8291 37.1397 36.9697 37.2803C37.1103 37.4209 37.3011 37.5 37.5 37.5C37.6989 37.5 37.8897 37.4209 38.0303 37.2803C38.1709 37.1397 38.25 36.9489 38.25 36.75V36C38.25 35.8011 38.1709 35.6103 38.0303 35.4697C37.8897 35.3291 37.6989 35.25 37.5 35.25Z" fill="#7B36B6"/>
</svg>
