<svg width="48" height="48" viewBox="0 0 48 48" fill="none" xmlns="http://www.w3.org/2000/svg">
<path d="M32.115 45C32.2023 44.7595 32.248 44.5058 32.25 44.25V42.7125C32.7425 42.7125 33.2301 42.6155 33.6851 42.4271C34.14 42.2386 34.5534 41.9623 34.9016 41.6141C35.2499 41.2659 35.5261 40.8525 35.7146 40.3975C35.903 39.9426 36 39.455 36 38.9625V34.305C35.997 32.8646 35.6176 31.4501 34.8992 30.2015C34.181 28.9531 33.1487 27.914 31.905 27.1875L28.2525 25.05C28.2348 25.0268 28.2197 25.0015 28.2075 24.975C27.9003 24.5766 27.4792 24.2809 27 24.1275V23.37C28.2189 22.8361 29.2742 21.9883 30.0583 20.913C30.8423 19.8378 31.3268 18.5737 31.4625 17.25H31.875C32.5712 17.25 33.2389 16.9735 33.7312 16.4812C34.2234 15.9889 34.5 15.3212 34.5 14.625C34.5 13.9288 34.2234 13.2611 33.7312 12.7688C33.2389 12.2765 32.5712 12 31.875 12H31.5V8.25C31.5 7.25544 31.1049 6.30161 30.4016 5.59835C29.6984 4.89508 28.7446 4.5 27.75 4.5H20.25C19.2554 4.5 18.3016 4.89508 17.5984 5.59835C16.8951 6.30161 16.5 7.25544 16.5 8.25V12H16.125C15.4288 12 14.7611 12.2765 14.2688 12.7688C13.7765 13.2611 13.5 13.9288 13.5 14.625C13.5 15.3212 13.7765 15.9889 14.2688 16.4812C14.7611 16.9735 15.4288 17.25 16.125 17.25H16.5375C16.6732 18.5737 17.1578 19.8378 17.9417 20.913C18.7258 21.9883 19.7811 22.8361 21 23.37V24.1275C20.5208 24.2809 20.0997 24.5766 19.7925 24.975C19.7803 25.0015 19.7652 25.0268 19.7475 25.05L16.095 27.1875C14.8513 27.914 13.819 28.9531 13.1008 30.2015C12.3824 31.4501 12.003 32.8646 12 34.305V38.9625C12 39.9571 12.3951 40.9109 13.0984 41.6141C13.8016 42.3174 14.7554 42.7125 15.75 42.7125V44.25C15.752 44.5058 15.7977 44.7595 15.885 45H1.5V46.5H46.5V45H32.115ZM31.5 13.5H31.875C32.1733 13.5 32.4595 13.6185 32.6705 13.8295C32.8815 14.0405 33 14.3266 33 14.625C33 14.9234 32.8815 15.2095 32.6705 15.4205C32.4595 15.6315 32.1733 15.75 31.875 15.75H31.5V13.5ZM16.5 15.75H16.125C15.8266 15.75 15.5405 15.6315 15.3295 15.4205C15.1185 15.2095 15 14.9234 15 14.625C15 14.3266 15.1185 14.0405 15.3295 13.8295C15.5405 13.6185 15.8266 13.5 16.125 13.5H16.5V15.75ZM27.0075 25.875C27.0973 25.9916 27.1579 26.1281 27.184 26.273C27.2101 26.4179 27.201 26.5669 27.1575 26.7075L26.58 28.7475L25.05 27.6L26.58 25.56C26.7512 25.6191 26.9003 25.729 27.0075 25.875ZM25.68 29.9475C25.71 29.97 25.7475 29.9775 25.785 30H22.215C22.2525 29.9775 22.29 29.97 22.32 29.9475L24 28.6875L25.68 29.9475ZM22.5 24.5025V23.85C23.49 24.05 24.51 24.05 25.5 23.85V24.5025L24 26.4975L22.5 24.5025ZM18 8.25C18.0018 7.65383 18.2394 7.08255 18.661 6.66097C19.0826 6.23941 19.6538 6.00178 20.25 6H27.75C28.3462 6.00178 28.9174 6.23941 29.339 6.66097C29.7606 7.08255 29.9982 7.65383 30 8.25V11.415C29.765 11.2057 29.5768 10.9493 29.4476 10.6625C29.3183 10.3755 29.2511 10.0646 29.25 9.75V9.18C29.2503 8.9463 29.1955 8.71583 29.0899 8.50725C28.9844 8.29875 28.831 8.11808 28.6425 7.98C28.4496 7.83893 28.226 7.7457 27.9899 7.70782C27.754 7.67002 27.5123 7.68878 27.285 7.7625C25.1414 8.4 22.8586 8.4 20.715 7.7625C20.4877 7.68878 20.246 7.67002 20.0101 7.70782C19.774 7.7457 19.5504 7.83893 19.3575 7.98C19.1689 8.11808 19.0156 8.29875 18.9101 8.50725C18.8045 8.71583 18.7497 8.9463 18.75 9.18V9.75C18.7489 10.0646 18.6817 10.3755 18.5525 10.6625C18.4232 10.9493 18.235 11.2057 18 11.415V8.25ZM18 16.5V13.185C18.6677 12.8922 19.2358 12.4116 19.6352 11.8017C20.0347 11.1919 20.2483 10.4791 20.25 9.75L20.2575 9.1875C22.7006 9.92753 25.3085 9.9249 27.75 9.18V9.75C27.7517 10.4791 27.9653 11.1919 28.3648 11.8017C28.7642 12.4116 29.3323 12.8922 30 13.185V16.5C30 18.0913 29.3678 19.6175 28.2427 20.7427C27.1174 21.8678 25.5913 22.5 24 22.5C22.4087 22.5 20.8825 21.8678 19.7573 20.7427C18.6322 19.6175 18 18.0913 18 16.5ZM20.9925 25.875C21.1012 25.7306 21.2498 25.6211 21.42 25.56L22.95 27.6L21.42 28.7475L20.835 26.7075C20.7964 26.5659 20.7906 26.4173 20.8178 26.2731C20.8451 26.1289 20.9048 25.9928 20.9925 25.875ZM15.75 31.5V36.75H14.25V38.25H15.75V41.2125C15.1538 41.2107 14.5826 40.9731 14.161 40.5515C13.7394 40.1299 13.5018 39.5587 13.5 38.9625V34.305C13.5034 33.1268 13.8136 31.9697 14.4001 30.9479C14.9866 29.9261 15.8293 29.0747 16.845 28.4775L19.38 27C19.3875 27.0375 19.3875 27.0825 19.395 27.12L19.98 29.16C20.0795 29.5059 20.3005 29.8042 20.6025 30H17.25C16.8526 30.0012 16.4717 30.1596 16.1906 30.4406C15.9096 30.7217 15.7512 31.1026 15.75 31.5ZM30.75 44.25C30.75 44.4489 30.6709 44.6397 30.5303 44.7803C30.3897 44.921 30.1989 45 30 45H18C17.8011 45 17.6103 44.921 17.4697 44.7803C17.3291 44.6397 17.25 44.4489 17.25 44.25V43.5H30.75V44.25ZM30.75 42H17.25V31.5H30.75V42ZM30.75 30H27.3975C27.701 29.8058 27.9226 29.5069 28.02 29.16L28.605 27.12C28.6125 27.0825 28.6125 27.045 28.62 27L31.155 28.4775C32.1707 29.0747 33.0134 29.9261 33.5998 30.9479C34.1864 31.9697 34.4966 33.1268 34.5 34.305V38.9625C34.4982 39.5587 34.2606 40.1299 33.839 40.5515C33.4174 40.9731 32.8462 41.2107 32.25 41.2125V38.25H33.75V36.75H32.25V31.5C32.2488 31.1026 32.0904 30.7217 31.8094 30.4406C31.5283 30.1596 31.1474 30.0012 30.75 30Z" fill="#7B36B6"/>
<path d="M26.4803 19.3125L25.488 18.1875C25.0718 18.5388 24.5447 18.7316 24 18.7316C23.4554 18.7316 22.9283 18.5388 22.512 18.1875L21.5198 19.3125C22.2048 19.9166 23.0867 20.2498 24 20.2498C24.9134 20.2498 25.7952 19.9166 26.4803 19.3125Z" fill="#7B36B6"/>
<path d="M21 16.5C21.8284 16.5 22.5 15.8284 22.5 15C22.5 14.1716 21.8284 13.5 21 13.5C20.1716 13.5 19.5 14.1716 19.5 15C19.5 15.8284 20.1716 16.5 21 16.5Z" fill="#7B36B6"/>
<path d="M27 16.5C27.8284 16.5 28.5 15.8284 28.5 15C28.5 14.1716 27.8284 13.5 27 13.5C26.1716 13.5 25.5 14.1716 25.5 15C25.5 15.8284 26.1716 16.5 27 16.5Z" fill="#7B36B6"/>
<path d="M24 39C24.445 39 24.88 38.8681 25.25 38.6208C25.6201 38.3736 25.9084 38.0222 26.0787 37.611C26.249 37.1999 26.2936 36.7475 26.2068 36.311C26.12 35.8746 25.9057 35.4737 25.591 35.159C25.2764 34.8443 24.8754 34.6301 24.439 34.5432C24.0025 34.4564 23.5501 34.501 23.1389 34.6713C22.7279 34.8416 22.3764 35.1299 22.1292 35.5C21.8819 35.87 21.75 36.305 21.75 36.75C21.75 37.3468 21.9871 37.919 22.409 38.341C22.831 38.7629 23.4033 39 24 39ZM24 36C24.1484 36 24.2933 36.044 24.4167 36.1264C24.54 36.2088 24.6362 36.326 24.6929 36.463C24.7497 36.6 24.7646 36.7508 24.7356 36.8963C24.7067 37.0418 24.6353 37.1755 24.5303 37.2803C24.4255 37.3853 24.2918 37.4567 24.1463 37.4856C24.0008 37.5146 23.85 37.4997 23.713 37.4429C23.576 37.3862 23.4588 37.29 23.3764 37.1667C23.294 37.0433 23.25 36.8984 23.25 36.75C23.25 36.5511 23.3291 36.3603 23.4697 36.2197C23.6103 36.0791 23.8011 36 24 36Z" fill="#7B36B6"/>
<path d="M2.06775 9.7275L3.31875 10.041C3.372 10.1865 3.43125 10.3305 3.49725 10.4715L2.83425 11.5763C2.74827 11.7196 2.71265 11.8876 2.73303 12.0535C2.75341 12.2194 2.82863 12.3737 2.94675 12.492L4.00725 13.5532C4.12549 13.6717 4.27993 13.7471 4.446 13.7677C4.61208 13.7881 4.78025 13.7526 4.92375 13.6665L6.0285 13.0035C6.1695 13.0687 6.31275 13.128 6.45975 13.1813L6.7725 14.4315C6.81298 14.5938 6.90658 14.738 7.0384 14.841C7.17022 14.944 7.33271 14.9999 7.5 15H9C9.16733 14.9999 9.32978 14.944 9.46163 14.841C9.5934 14.738 9.687 14.5938 9.7275 14.4315L10.0402 13.1813C10.1903 13.128 10.3305 13.0687 10.4715 13.0035L11.5763 13.6665C11.7197 13.7526 11.8879 13.7881 12.054 13.7677C12.2201 13.7471 12.3745 13.6717 12.4928 13.5532L13.5532 12.492C13.6714 12.3737 13.7466 12.2194 13.767 12.0535C13.7873 11.8876 13.7517 11.7196 13.6658 11.5763L13.0028 10.4715C13.0688 10.3305 13.128 10.1865 13.1813 10.041L14.4323 9.7275C14.5944 9.68685 14.7384 9.59325 14.8412 9.4614C14.9441 9.32963 15 9.16717 15 9V7.5C15 7.3328 14.9441 7.17041 14.8412 7.03859C14.7384 6.90679 14.5944 6.81313 14.4323 6.7725L13.1813 6.459C13.1282 6.3125 13.0688 6.169 13.0028 6.0285L13.6658 4.923C13.7517 4.77965 13.7873 4.61169 13.767 4.44578C13.7466 4.27987 13.6714 4.12552 13.5532 4.00725L12.4928 2.94675C12.3745 2.82833 12.2201 2.75286 12.054 2.73234C11.8879 2.71182 11.7197 2.74743 11.5763 2.8335L10.4715 3.4965C10.3305 3.43125 10.1873 3.372 10.0402 3.31875L9.7275 2.0685C9.687 1.90618 9.5934 1.76205 9.46163 1.65904C9.32978 1.55602 9.16733 1.50005 9 1.5H7.5C7.33271 1.50005 7.17022 1.55602 7.0384 1.65904C6.90658 1.76205 6.81298 1.90618 6.7725 2.0685L6.45975 3.31875C6.30975 3.372 6.1695 3.43125 6.0285 3.4965L4.92375 2.8335C4.78025 2.74743 4.61208 2.71182 4.446 2.73234C4.27993 2.75286 4.12549 2.82833 4.00725 2.94675L2.94675 4.00725C2.82863 4.12552 2.75341 4.27987 2.73303 4.44578C2.71265 4.61169 2.74827 4.77965 2.83425 4.923L3.49725 6.0285C3.43125 6.1695 3.37175 6.313 3.31875 6.459L2.06775 6.7725C1.90556 6.81313 1.76161 6.90679 1.65874 7.03859C1.55587 7.17041 1.50001 7.3328 1.5 7.5V9C1.50001 9.16717 1.55587 9.32963 1.65874 9.4614C1.76161 9.59325 1.90556 9.68685 2.06775 9.7275ZM3 8.085L4.08975 7.81275C4.21946 7.78027 4.33814 7.71367 4.43348 7.61992C4.52882 7.52617 4.59736 7.40865 4.632 7.2795C4.71731 6.96446 4.84337 6.6619 5.007 6.3795C5.07417 6.26353 5.10904 6.13169 5.10799 5.99768C5.10693 5.86367 5.06999 5.73239 5.001 5.6175L4.425 4.65375L4.65675 4.42125L5.619 4.99875C5.7332 5.06661 5.86336 5.10293 5.99619 5.10398C6.12901 5.10503 6.25975 5.07079 6.375 5.00475C6.65734 4.84099 6.95991 4.71491 7.275 4.62975C7.4041 4.59493 7.52152 4.52623 7.6152 4.43075C7.7088 4.33528 7.77518 4.21651 7.8075 4.08675L8.08575 3H8.41425L8.68725 4.089C8.71957 4.21877 8.78595 4.33753 8.87955 4.433C8.97323 4.52848 9.09068 4.59718 9.21975 4.632C9.53483 4.71716 9.83745 4.84324 10.1198 5.007C10.2357 5.07417 10.3675 5.10904 10.5016 5.10799C10.6356 5.10693 10.7668 5.06999 10.8818 5.001L11.85 4.425L12.0817 4.6575L11.505 5.61975C11.4367 5.73352 11.3998 5.86337 11.3981 5.99606C11.3964 6.12874 11.4299 6.2595 11.4952 6.375C11.6589 6.6574 11.785 6.95996 11.8702 7.275C11.9049 7.40415 11.9734 7.52168 12.0688 7.61543C12.1641 7.70918 12.2827 7.77577 12.4125 7.80825L13.5 8.085V8.415L12.4103 8.68725C12.2805 8.71973 12.1618 8.78633 12.0665 8.88008C11.9712 8.97383 11.9026 9.09135 11.868 9.2205C11.7827 9.53557 11.6567 9.83813 11.493 10.1205C11.4258 10.2365 11.3909 10.3683 11.392 10.5023C11.3931 10.6364 11.43 10.7676 11.499 10.8825L12.075 11.85L11.8425 12.0817L10.881 11.505C10.766 11.4365 10.6347 11.3998 10.5008 11.3987C10.3669 11.3977 10.2351 11.4323 10.119 11.499C9.83663 11.6628 9.53407 11.7888 9.219 11.874C9.08992 11.9088 8.97248 11.9775 8.8788 12.073C8.7852 12.1684 8.71882 12.2872 8.6865 12.417L8.41425 13.5H8.08575L7.81275 12.411C7.78043 12.2812 7.71405 12.1624 7.62045 12.067C7.52677 11.9715 7.40935 11.9028 7.28025 11.868C6.96516 11.7829 6.66259 11.6568 6.38025 11.493C6.26429 11.4258 6.13244 11.3909 5.99843 11.392C5.86442 11.3931 5.73314 11.43 5.61825 11.499L4.6545 12.075L4.425 11.85L5.00175 10.8878C5.07042 10.7725 5.10693 10.6409 5.10745 10.5068C5.10798 10.3727 5.07251 10.2408 5.00475 10.125C4.84111 9.84262 4.71505 9.54008 4.62975 9.225C4.59511 9.09585 4.52656 8.97832 4.43122 8.88457C4.33589 8.79082 4.21721 8.72423 4.0875 8.69175L3 8.415V8.085Z" fill="#7B36B6"/>
<path d="M8.25 11.25C8.84333 11.25 9.42337 11.0741 9.91672 10.7444C10.4101 10.4148 10.7946 9.9462 11.0216 9.39803C11.2487 8.84985 11.3081 8.2467 11.1923 7.6647C11.0766 7.08279 10.7908 6.54824 10.3713 6.12868C9.95175 5.70912 9.41723 5.4234 8.8353 5.30765C8.2533 5.19189 7.65015 5.2513 7.10195 5.47836C6.55377 5.70542 6.08524 6.08994 5.75559 6.58329C5.42595 7.07664 5.25 7.65668 5.25 8.25C5.25 9.04568 5.56607 9.80873 6.12868 10.3713C6.69129 10.934 7.45435 11.25 8.25 11.25ZM8.25 6.75C8.5467 6.75 8.83665 6.83798 9.08333 7.0028C9.33 7.16762 9.5223 7.40189 9.63585 7.67595C9.74933 7.95008 9.77903 8.25165 9.7212 8.54265C9.6633 8.83358 9.52042 9.10088 9.31065 9.31065C9.10087 9.52043 8.83357 9.6633 8.54265 9.7212C8.25165 9.77903 7.95008 9.74933 7.67595 9.63585C7.40189 9.5223 7.16761 9.33 7.00279 9.08333C6.83798 8.83665 6.75 8.5467 6.75 8.25C6.75 7.8522 6.90803 7.47065 7.18934 7.18934C7.47064 6.90804 7.8522 6.75 8.25 6.75Z" fill="#7B36B6"/>
<path d="M36.9697 11.0302L38.0303 9.96973L36.3105 8.24998L38.0303 6.53023L36.9697 5.46973L34.7197 7.71973C34.5791 7.86035 34.5001 8.05108 34.5001 8.24998C34.5001 8.44888 34.5791 8.6396 34.7197 8.78023L36.9697 11.0302Z" fill="#7B36B6"/>
<path d="M44.0303 11.0302L46.2803 8.78023C46.4209 8.6396 46.4999 8.44888 46.4999 8.24998C46.4999 8.05108 46.4209 7.86035 46.2803 7.71973L44.0303 5.46973L42.9697 6.53023L44.6895 8.24998L42.9697 9.96973L44.0303 11.0302Z" fill="#7B36B6"/>
<path d="M40.522 5.06787L39.0234 11.0681L40.4781 11.4314L41.9766 5.43116L40.522 5.06787Z" fill="#7B36B6"/>
<path d="M34.5 22.5V24H38.388C38.5138 24.3581 38.7284 24.6785 39.0117 24.9311C39.295 25.1837 39.6377 25.3604 40.0078 25.4446C40.3778 25.5288 40.7633 25.5178 41.1279 25.4126C41.4926 25.3074 41.8246 25.1115 42.0931 24.8431C42.3615 24.5747 42.5574 24.2426 42.6626 23.878C42.7678 23.5133 42.7788 23.1278 42.6946 22.7578C42.6104 22.3877 42.4337 22.045 42.1811 21.7617C41.9285 21.4784 41.6081 21.2639 41.25 21.138V16.5H39.75V21.138C39.4363 21.2501 39.1514 21.4304 38.9158 21.6659C38.6803 21.9014 38.5 22.1864 38.388 22.5H34.5ZM40.5 22.5C40.6483 22.5 40.7933 22.544 40.9167 22.6264C41.04 22.7088 41.1362 22.826 41.1929 22.963C41.2497 23.1 41.2646 23.2508 41.2356 23.3963C41.2067 23.5418 41.1353 23.6755 41.0303 23.7803C40.9255 23.8853 40.7918 23.9567 40.6463 23.9856C40.5008 24.0146 40.35 23.9997 40.213 23.9429C40.0759 23.8862 39.9588 23.79 39.8764 23.6667C39.7939 23.5433 39.75 23.3984 39.75 23.25C39.75 23.0511 39.8291 22.8603 39.9697 22.7197C40.1103 22.5791 40.3011 22.5 40.5 22.5Z" fill="#7B36B6"/>
<path d="M6.74957 16.5V21.138C6.39148 21.2639 6.07114 21.4784 5.81851 21.7617C5.56587 22.045 5.38918 22.3877 5.30497 22.7578C5.22076 23.1278 5.23177 23.5133 5.33696 23.878C5.44216 24.2426 5.63811 24.5747 5.9065 24.8431C6.17488 25.1115 6.50694 25.3074 6.87163 25.4126C7.23632 25.5178 7.62175 25.5288 7.9918 25.4446C8.36192 25.3604 8.7046 25.1837 8.98787 24.9311C9.27115 24.6785 9.48572 24.3581 9.61157 24H13.4996V22.5H9.61157C9.49952 22.1864 9.31922 21.9014 9.08365 21.6659C8.84815 21.4304 8.56322 21.2501 8.24957 21.138V16.5H6.74957ZM7.49957 24C7.35124 24 7.20623 23.9561 7.08289 23.8736C6.95956 23.7912 6.86343 23.6741 6.80666 23.537C6.74989 23.4 6.73504 23.2492 6.76398 23.1037C6.79292 22.9582 6.86435 22.8245 6.96924 22.7197C7.07413 22.6148 7.20777 22.5434 7.35325 22.5144C7.49874 22.4855 7.64957 22.5003 7.7866 22.5571C7.92362 22.6139 8.04077 22.71 8.1232 22.8333C8.20555 22.9567 8.24957 23.1017 8.24957 23.25C8.24957 23.4489 8.17052 23.6397 8.0299 23.7803C7.88927 23.921 7.69847 24 7.49957 24Z" fill="#7B36B6"/>
</svg>
