<svg width="45" height="45" viewBox="0 0 45 45" fill="none" xmlns="http://www.w3.org/2000/svg">
<path d="M32.6745 21.1508C31.1545 21.1492 29.6518 21.4673 28.2631 22.0842V12.0238C28.2631 11.5939 27.9144 11.2458 27.4848 11.2458H26.4951V8.87087C26.4951 8.44126 26.1467 8.09286 25.7171 8.09286H23.9787V7.16083C23.9787 6.73095 23.6303 6.38282 23.2007 6.38282C22.7708 6.38282 22.4227 6.73095 22.4227 7.16083V8.09286H20.6368C20.2075 8.09286 19.8588 8.44126 19.8588 8.87087V11.2458H18.8199V8.1627C18.8199 7.73283 18.4715 7.3847 18.0419 7.3847H16.0419V4.96677C16.0419 4.53716 15.6935 4.18877 15.2639 4.18877H10.7911V2.76567C10.7911 2.3358 10.4429 1.98767 10.013 1.98767C9.58344 1.98767 9.23477 2.3358 9.23477 2.76567V4.18877H4.94736C4.51748 4.18877 4.16936 4.53716 4.16936 4.96677V7.3847H2.16967C1.74033 7.3847 1.39166 7.73283 1.39166 8.1627V36.7231C1.39166 37.1527 1.74033 37.5011 2.16967 37.5011H23.2304C25.8744 42.0852 31.4282 44.109 36.4016 42.3004C41.3747 40.4918 44.3313 35.3733 43.4128 30.1615C42.4946 24.9499 37.9665 21.1505 32.6745 21.1508ZM5.72537 5.74477H14.4859V7.3847H5.72537V5.74477ZM12.5022 35.9451H10.7911V31.1809H12.5022V35.9451ZM9.23477 35.9451H7.70936V31.1809H9.23477V35.9451ZM17.2633 35.9451H14.0582V30.4029C14.0582 29.9731 13.7095 29.6249 13.2802 29.6249H6.93108C6.50174 29.6249 6.15308 29.9731 6.15308 30.4029V35.9451H2.94794V8.94071H17.2639L17.2633 35.9451ZM21.4151 9.64887H24.9391V11.2458H21.4151V9.64887ZM18.8199 35.9451V12.8018H26.7074V22.9337C26.1446 23.3026 25.6172 23.723 25.1313 24.1887C25.0553 24.1646 24.9757 24.1518 24.8955 24.1518H20.6709C20.2411 24.1518 19.8929 24.5005 19.8929 24.9301C19.8929 25.36 20.2411 25.7081 20.6709 25.7081H23.813C23.3585 26.3413 22.973 27.021 22.6633 27.7362H20.6709C20.2411 27.7362 19.8929 28.0846 19.8929 28.5142C19.8929 28.9438 20.2411 29.2922 20.6709 29.2922H22.1254C21.9275 30.0481 21.8117 30.8225 21.7803 31.6035H20.6709C20.2411 31.6035 19.8929 31.9516 19.8929 32.3815C19.8929 32.8109 20.2411 33.1595 20.6709 33.1595H21.826C21.9221 34.1132 22.1452 35.0499 22.4882 35.9451H18.8199ZM32.6748 41.403C27.5119 41.4035 23.3263 37.2182 23.3263 32.0556C23.326 26.8927 27.5114 22.7071 32.6742 22.7071C37.8371 22.7071 42.0225 26.8922 42.0225 32.0553C42.0168 37.2155 37.8347 41.3973 32.6745 41.403H32.6748Z" fill="#7B36B6"/>
<path d="M5.39135 17.1255H14.8229C15.2526 17.1255 15.601 16.7771 15.601 16.3472C15.601 15.9179 15.2526 15.5692 14.8229 15.5692H5.39135C4.96174 15.5692 4.61334 15.9179 4.61334 16.3472C4.61334 16.7771 4.96174 17.1255 5.39135 17.1255Z" fill="#7B36B6"/>
<path d="M5.39135 21.464H14.8229C15.2526 21.464 15.601 21.1159 15.601 20.686C15.601 20.2564 15.2526 19.9077 14.8229 19.9077H5.39135C4.96174 19.9077 4.61334 20.2564 4.61334 20.686C4.61334 21.1159 4.96174 21.464 5.39135 21.464Z" fill="#7B36B6"/>
<path d="M5.39135 25.8026H14.8229C15.2526 25.8026 15.601 25.4545 15.601 25.0246C15.601 24.595 15.2526 24.2466 14.8229 24.2466H5.39135C4.96174 24.2466 4.61334 24.595 4.61334 25.0246C4.61334 25.4545 4.96174 25.8026 5.39135 25.8026Z" fill="#7B36B6"/>
<path d="M5.39135 12.7866H14.8229C15.2526 12.7866 15.601 12.4385 15.601 12.0086C15.601 11.579 15.2526 11.2306 14.8229 11.2306H5.39135C4.96174 11.2306 4.61334 11.579 4.61334 12.0086C4.61334 12.4385 4.96174 12.7866 5.39135 12.7866Z" fill="#7B36B6"/>
<path d="M20.6706 21.8414H24.7263C25.1559 21.8414 25.5043 21.493 25.5043 21.0634C25.5043 20.6335 25.1559 20.2854 24.7263 20.2854H20.6706C20.2407 20.2854 19.8926 20.6335 19.8926 21.0634C19.8926 21.493 20.2407 21.8414 20.6706 21.8414Z" fill="#7B36B6"/>
<path d="M20.6706 18.0685H24.7263C25.1559 18.0685 25.5043 17.7204 25.5043 17.2905C25.5043 16.8609 25.1559 16.5122 24.7263 16.5122H20.6706C20.2407 16.5122 19.8926 16.8609 19.8926 17.2905C19.8926 17.7204 20.2407 18.0685 20.6706 18.0685Z" fill="#7B36B6"/>
<path d="M32.6745 27.6147C33.7841 27.616 34.6837 28.5153 34.6848 29.6252C34.6848 30.0548 35.0334 30.4032 35.4628 30.4032C35.8927 30.4032 36.2408 30.0548 36.2408 29.6252C36.2386 27.956 35.0808 26.511 33.4525 26.145V25.3045C33.4525 24.8746 33.1041 24.5265 32.6745 24.5265C32.2446 24.5265 31.8965 24.8746 31.8965 25.3045V26.145C30.1221 26.5413 28.9296 28.2097 29.1291 30.0169C29.3286 31.8241 30.8562 33.192 32.6745 33.1915C33.7795 33.1915 34.6777 34.0834 34.685 35.1887C34.6924 36.294 33.8061 37.1976 32.7013 37.212C32.6924 37.212 32.684 37.2106 32.6745 37.2106C32.6651 37.2106 32.6569 37.2117 32.648 37.212C31.5487 37.1965 30.6654 36.3016 30.664 35.2022C30.664 34.7726 30.3156 34.424 29.886 34.424C29.4561 34.424 29.108 34.7726 29.108 35.2022C29.1102 36.8714 30.268 38.3164 31.8965 38.6824V39.6499C31.8965 40.0798 32.2446 40.4279 32.6745 40.4279C33.1041 40.4279 33.4525 40.0798 33.4525 39.6499V38.6824C35.2267 38.2858 36.4189 36.618 36.2194 34.8108C36.0202 33.0033 34.4926 31.6357 32.6745 31.6357C31.9528 31.6406 31.2842 31.2584 30.9223 30.6347C30.5603 30.0104 30.5603 29.2403 30.9223 28.6163C31.2842 27.992 31.9528 27.6101 32.6745 27.615V27.6147Z" fill="#7B36B6"/>
</svg>
