<svg width="47" height="47" viewBox="0 0 47 47" fill="none" xmlns="http://www.w3.org/2000/svg">
<path d="M29.0078 28.0238C28.5721 28.0238 28.1461 28.153 27.7838 28.3951C27.4215 28.6372 27.1391 28.9813 26.9724 29.3838C26.8056 29.7864 26.762 30.2294 26.847 30.6567C26.932 31.0841 27.1419 31.4767 27.45 31.7848C27.7581 32.0929 28.1506 32.3027 28.578 32.3877C29.0054 32.4727 29.4483 32.4291 29.8509 32.2624C30.2535 32.0956 30.5976 31.8132 30.8396 31.4509C31.0817 31.0886 31.2109 30.6627 31.2109 30.2269C31.2109 29.6426 30.9788 29.0823 30.5657 28.6691C30.1525 28.2559 29.5921 28.0238 29.0078 28.0238ZM29.0078 30.9613C28.8626 30.9613 28.7206 30.9182 28.5998 30.8375C28.4791 30.7568 28.3849 30.6422 28.3293 30.508C28.2738 30.3738 28.2592 30.2261 28.2875 30.0837C28.3159 29.9412 28.3858 29.8104 28.4885 29.7076C28.5912 29.6049 28.7221 29.535 28.8645 29.5067C29.007 29.4783 29.1547 29.4929 29.2888 29.5485C29.423 29.604 29.5377 29.6982 29.6184 29.8189C29.6991 29.9397 29.7422 30.0817 29.7422 30.2269C29.7422 30.4217 29.6648 30.6085 29.5271 30.7462C29.3894 30.8839 29.2026 30.9613 29.0078 30.9613Z" fill="#7B36B6"/>
<path d="M34.5156 31.5781C34.5157 29.4009 34.0062 27.2539 33.0281 25.3088C32.0499 23.3638 30.6301 21.6746 28.8823 20.3764C27.1345 19.0782 25.1072 18.2071 22.9624 17.8326C20.8177 17.4581 18.6151 17.5907 16.5308 18.2198C16.431 18.2495 16.3388 18.3002 16.2601 18.3683C16.1814 18.4364 16.118 18.5204 16.0743 18.6149C16.0305 18.7093 16.0074 18.812 16.0063 18.9161C16.0052 19.0201 16.0263 19.1232 16.0681 19.2186C16.584 20.3941 16.7463 21.6945 16.5352 22.9608C16.3242 24.2271 15.749 25.4046 14.8797 26.3493C14.0105 27.2941 12.885 27.9652 11.6406 28.2808C10.3963 28.5965 9.0869 28.5428 7.8725 28.1265C7.77421 28.0931 7.66996 28.081 7.56663 28.0908C7.46329 28.1007 7.36322 28.1323 7.27301 28.1837C7.18279 28.235 7.10449 28.3049 7.04327 28.3887C6.98204 28.4726 6.93928 28.5684 6.91781 28.67C6.50871 30.5832 6.50655 32.5611 6.91146 34.4752C7.31637 36.3893 8.1193 38.1969 9.26812 39.7806C10.4169 41.3643 11.886 42.6887 13.5799 43.6678C15.2737 44.6469 17.1546 45.2588 19.1003 45.4638C21.046 45.6688 23.0131 45.4624 24.8738 44.8579C26.7346 44.2533 28.4474 43.2642 29.9011 41.9548C31.3548 40.6454 32.5168 39.0448 33.3118 37.2572C34.1068 35.4695 34.5169 33.5346 34.5156 31.5781ZM20.5625 44.0625C17.2514 44.0625 14.076 42.7471 11.7347 40.4059C9.39344 38.0646 8.07812 34.8891 8.07812 31.5781C8.07829 30.9686 8.12247 30.3599 8.21031 29.7568C8.8051 29.8945 9.41371 29.9634 10.0242 29.9625C12.1667 29.9625 14.2214 29.1114 15.7363 27.5964C17.2513 26.0815 18.1023 24.0268 18.1023 21.8843C18.1027 21.0489 17.9714 20.2187 17.7131 19.4242C19.4274 19.0217 21.2073 18.9864 22.9362 19.3207C24.665 19.6549 26.3036 20.351 27.7443 21.3634C29.185 22.3758 30.3953 23.6815 31.2956 25.1948C32.196 26.708 32.766 28.3947 32.9683 30.1439C33.1706 31.893 33.0006 33.6652 32.4694 35.3441C31.9382 37.0229 31.0579 38.5704 29.8863 39.8848C28.7147 41.1993 27.2782 42.2511 25.6713 42.9711C24.0644 43.6911 22.3233 44.063 20.5625 44.0625Z" fill="#7B36B6"/>
<path d="M19.7109 26.5549C18.8395 26.5549 17.9876 26.8134 17.263 27.2975C16.5384 27.7817 15.9736 28.4698 15.6401 29.275C15.3066 30.0801 15.2193 30.9661 15.3894 31.8208C15.5594 32.6755 15.979 33.4606 16.5953 34.0769C17.2115 34.6931 17.9966 35.1128 18.8513 35.2828C19.7061 35.4528 20.592 35.3655 21.3971 35.032C22.2023 34.6985 22.8904 34.1338 23.3746 33.4092C23.8588 32.6846 24.1172 31.8327 24.1172 30.9612C24.1172 29.7926 23.653 28.6718 22.8266 27.8455C22.0003 27.0192 20.8795 26.5549 19.7109 26.5549ZM19.7109 33.8987C19.13 33.8987 18.562 33.7264 18.079 33.4036C17.5959 33.0808 17.2194 32.6221 16.997 32.0853C16.7747 31.5486 16.7165 30.9579 16.8299 30.3881C16.9432 29.8183 17.223 29.2949 17.6338 28.8841C18.0446 28.4732 18.568 28.1935 19.1379 28.0801C19.7077 27.9668 20.2983 28.025 20.8351 28.2473C21.3718 28.4696 21.8306 28.8461 22.1534 29.3292C22.4762 29.8123 22.6484 30.3802 22.6484 30.9612C22.6484 31.7403 22.339 32.4874 21.7881 33.0383C21.2372 33.5892 20.49 33.8987 19.7109 33.8987Z" fill="#7B36B6"/>
<path d="M13.5635 35.25C13.1277 35.25 12.7018 35.3792 12.3395 35.6213C11.9772 35.8634 11.6948 36.2075 11.5281 36.61C11.3613 37.0126 11.3177 37.4556 11.4027 37.8829C11.4877 38.3103 11.6975 38.7029 12.0056 39.011C12.3137 39.3191 12.7063 39.5289 13.1337 39.6139C13.561 39.6989 14.004 39.6553 14.4066 39.4885C14.8091 39.3218 15.1532 39.0394 15.3953 38.6771C15.6374 38.3148 15.7666 37.8889 15.7666 37.4531C15.7666 36.8688 15.5345 36.3084 15.1213 35.8953C14.7082 35.4821 14.1478 35.25 13.5635 35.25ZM13.5635 38.1875C13.4182 38.1875 13.2762 38.1444 13.1555 38.0637C13.0347 37.983 12.9406 37.8683 12.885 37.7342C12.8294 37.6 12.8149 37.4523 12.8432 37.3099C12.8715 37.1674 12.9415 37.0365 13.0442 36.9338C13.1469 36.8311 13.2778 36.7612 13.4202 36.7329C13.5627 36.7045 13.7103 36.7191 13.8445 36.7747C13.9787 36.8302 14.0934 36.9244 14.1741 37.0451C14.2548 37.1659 14.2979 37.3079 14.2979 37.4531C14.2979 37.6479 14.2205 37.8347 14.0828 37.9724C13.945 38.1101 13.7582 38.1875 13.5635 38.1875Z" fill="#7B36B6"/>
<path d="M20.5625 38.1875C20.1268 38.1875 19.7008 38.3167 19.3385 38.5588C18.9762 38.8009 18.6938 39.145 18.5271 39.5475C18.3603 39.9501 18.3167 40.3931 18.4017 40.8204C18.4867 41.2478 18.6965 41.6404 19.0047 41.9485C19.3128 42.2566 19.7053 42.4664 20.1327 42.5514C20.5601 42.6364 21.003 42.5928 21.4056 42.426C21.8082 42.2593 22.1523 41.9769 22.3943 41.6146C22.6364 41.2523 22.7656 40.8264 22.7656 40.3906C22.7656 39.8063 22.5335 39.2459 22.1203 38.8328C21.7072 38.4196 21.1468 38.1875 20.5625 38.1875ZM20.5625 41.125C20.4173 41.125 20.2753 41.0819 20.1545 41.0012C20.0337 40.9205 19.9396 40.8058 19.884 40.6717C19.8284 40.5375 19.8139 40.3898 19.8422 40.2474C19.8706 40.1049 19.9405 39.974 20.0432 39.8713C20.1459 39.7686 20.2768 39.6987 20.4192 39.6704C20.5617 39.642 20.7093 39.6566 20.8435 39.7122C20.9777 39.7677 21.0924 39.8619 21.1731 39.9826C21.2538 40.1034 21.2969 40.2454 21.2969 40.3906C21.2969 40.5854 21.2195 40.7722 21.0818 40.9099C20.9441 41.0476 20.7573 41.125 20.5625 41.125Z" fill="#7B36B6"/>
<path d="M27.5313 35.25C27.0955 35.25 26.6696 35.3792 26.3073 35.6213C25.945 35.8634 25.6626 36.2075 25.4958 36.61C25.3291 37.0126 25.2855 37.4556 25.3705 37.8829C25.4555 38.3103 25.6653 38.7029 25.9734 39.011C26.2815 39.3191 26.6741 39.5289 27.1014 39.6139C27.5288 39.6989 27.9718 39.6553 28.3743 39.4885C28.7769 39.3218 29.121 39.0394 29.3631 38.6771C29.6052 38.3148 29.7344 37.8889 29.7344 37.4531C29.7344 36.8688 29.5023 36.3084 29.0891 35.8953C28.6759 35.4821 28.1156 35.25 27.5313 35.25ZM27.5313 38.1875C27.386 38.1875 27.244 38.1444 27.1233 38.0637C27.0025 37.983 26.9084 37.8683 26.8528 37.7342C26.7972 37.6 26.7827 37.4523 26.811 37.3099C26.8393 37.1674 26.9093 37.0365 27.012 36.9338C27.1147 36.8311 27.2455 36.7612 27.388 36.7329C27.5304 36.7045 27.6781 36.7191 27.8123 36.7747C27.9465 36.8302 28.0612 36.9244 28.1419 37.0451C28.2226 37.1659 28.2656 37.3079 28.2656 37.4531C28.2656 37.6479 28.1883 37.8347 28.0505 37.9724C27.9128 38.1101 27.726 38.1875 27.5313 38.1875Z" fill="#7B36B6"/>
<path d="M28.2656 24.1023C28.2656 23.6666 28.1364 23.2406 27.8943 22.8783C27.6522 22.516 27.3082 22.2336 26.9056 22.0669C26.503 21.9001 26.0601 21.8565 25.6327 21.9415C25.2053 22.0265 24.8128 22.2363 24.5047 22.5445C24.1965 22.8526 23.9867 23.2451 23.9017 23.6725C23.8167 24.0999 23.8603 24.5428 24.0271 24.9454C24.1938 25.348 24.4762 25.692 24.8385 25.9341C25.2008 26.1762 25.6268 26.3054 26.0625 26.3054C26.6468 26.3054 27.2072 26.0733 27.6203 25.6601C28.0335 25.247 28.2656 24.6866 28.2656 24.1023ZM25.3281 24.1023C25.3281 23.9571 25.3712 23.8151 25.4519 23.6943C25.5326 23.5735 25.6473 23.4794 25.7815 23.4238C25.9157 23.3682 26.0633 23.3537 26.2058 23.382C26.3482 23.4104 26.4791 23.4803 26.5818 23.583C26.6845 23.6857 26.7544 23.8166 26.7828 23.959C26.8111 24.1015 26.7966 24.2491 26.741 24.3833C26.6854 24.5175 26.5913 24.6322 26.4705 24.7129C26.3497 24.7936 26.2077 24.8367 26.0625 24.8367C25.8677 24.8367 25.6809 24.7593 25.5432 24.6216C25.4055 24.4839 25.3281 24.2971 25.3281 24.1023Z" fill="#7B36B6"/>
<path d="M2.20312 39.6563H8.02672V38.1875H2.9375V5.87502H32.3125V23.9774H33.7812V5.14064C33.7812 4.94588 33.7039 4.75908 33.5662 4.62136C33.4284 4.48364 33.2416 4.40627 33.0469 4.40627H21.2234C21.0549 3.57621 20.6046 2.82995 19.9488 2.29393C19.2929 1.75791 18.472 1.46509 17.625 1.46509C16.778 1.46509 15.9571 1.75791 15.3012 2.29393C14.6454 2.82995 14.1951 3.57621 14.0266 4.40627H2.20312C2.00836 4.40627 1.82157 4.48364 1.68384 4.62136C1.54612 4.75908 1.46875 4.94588 1.46875 5.14064V38.9219C1.46875 39.1167 1.54612 39.3035 1.68384 39.4412C1.82157 39.5789 2.00836 39.6563 2.20312 39.6563ZM17.625 2.93752C18.0795 2.9388 18.5226 3.08063 18.8933 3.34358C19.2641 3.60653 19.5444 3.97772 19.6959 4.40627H15.5541C15.7056 3.97772 15.9859 3.60653 16.3567 3.34358C16.7274 3.08063 17.1705 2.9388 17.625 2.93752Z" fill="#7B36B6"/>
<path d="M11.801 15.9506L14.9735 17.4193C15.0902 17.4751 15.2196 17.499 15.3486 17.4887C15.4775 17.4784 15.6015 17.4342 15.7079 17.3606L26.1286 10.1343L25.2914 8.92993L15.2085 15.9285L11.8964 14.3716C11.7469 14.3034 11.5788 14.2873 11.419 14.3259C11.2593 14.3645 11.1171 14.4556 11.0152 14.5846L6.03613 20.8415L7.18176 21.7521L11.801 15.9506Z" fill="#7B36B6"/>
<path d="M38.8558 41.4995L41.0589 45.1714C41.1178 45.272 41.1999 45.357 41.2982 45.4196C41.3965 45.4822 41.5083 45.5204 41.6244 45.5312H41.6905C41.7953 45.5302 41.8987 45.5067 41.9937 45.4624C42.0887 45.4181 42.1731 45.3539 42.2413 45.2742C44.4958 42.6525 45.7222 39.8398 45.5092 37.7322C45.4805 37.2933 45.3613 36.8652 45.1591 36.4747C44.9569 36.0841 44.676 35.7397 44.3342 35.463C44.1263 35.3054 43.9106 35.1583 43.688 35.0223C43.8192 34.8862 43.8928 34.7047 43.8936 34.5156V2.20312C43.8936 2.00836 43.8162 1.82157 43.6785 1.68384C43.5408 1.54612 43.354 1.46875 43.1592 1.46875H40.2217C40.027 1.46875 39.8402 1.54612 39.7024 1.68384C39.5647 1.82157 39.4873 2.00836 39.4873 2.20312V34.5156C39.4881 34.6494 39.5291 34.7799 39.6048 34.8902C39.357 35.0696 39.1304 35.2765 38.9292 35.507C37.4531 37.2034 37.2475 38.2977 38.8558 41.4995ZM40.9561 2.9375H42.4248V30.1094H40.9561V2.9375ZM40.9561 31.5781H42.4248V33.7812H40.9561V31.5781ZM40.0381 36.4617C40.2056 36.2488 40.4184 36.0757 40.661 35.9551C40.9035 35.8344 41.1699 35.7692 41.4408 35.7641C42.1804 35.8246 42.8797 36.1265 43.4309 36.6233C43.6177 36.7772 43.7704 36.9683 43.8791 37.1846C43.9879 37.4008 44.0503 37.6373 44.0625 37.8791C44.2094 39.3478 43.3281 41.4848 41.7933 43.5191L40.1556 40.7945C38.7383 37.9819 39.0908 37.5706 40.0381 36.4617Z" fill="#7B36B6"/>
</svg>
