<svg width="47" height="47" viewBox="0 0 47 47" fill="none" xmlns="http://www.w3.org/2000/svg">
<g clip-path="url(#clip0_317_1040)">
<path d="M42.9418 20.1762C42.5205 20.1769 42.1032 20.2582 41.7125 20.4156C41.0477 19.3404 40.0538 18.5083 38.8785 18.0428C38.9459 17.7121 38.9345 17.3702 38.8452 17.0447C38.7559 16.7193 38.5912 16.4194 38.3645 16.1694C38.7603 15.0899 38.828 13.9173 38.5591 12.7994C39.0597 12.5864 39.5003 12.2538 39.8423 11.8308C40.1843 11.4077 40.4172 10.9072 40.5206 10.3731C40.624 9.83897 40.5947 9.28767 40.4352 8.76755C40.2758 8.24744 39.9911 7.77443 39.6061 7.39005C39.2211 7.00567 38.7477 6.72168 38.2273 6.56301C37.707 6.40435 37.1556 6.37586 36.6217 6.48005C36.0878 6.58424 35.5876 6.81792 35.165 7.16057C34.7425 7.50322 34.4106 7.94437 34.1983 8.44528C32.9691 8.156 31.6793 8.27006 30.5199 8.77061C30.4406 8.65313 30.3504 8.54346 30.2503 8.44308C29.8704 8.07463 29.369 7.85762 28.8403 7.83281C28.3555 6.78063 27.5707 5.89512 26.5843 5.28747C26.788 4.78296 26.8647 4.23619 26.8077 3.69513C26.7507 3.15407 26.5617 2.63528 26.2574 2.18429C25.9531 1.7333 25.5427 1.36391 25.0624 1.10853C24.582 0.853154 24.0462 0.719604 23.5022 0.719604C22.9581 0.719604 22.4224 0.853154 21.942 1.10853C21.4616 1.36391 21.0513 1.7333 20.7469 2.18429C20.4426 2.63528 20.2537 3.15407 20.1967 3.69513C20.1397 4.23619 20.2164 4.78296 20.42 5.28747C19.3446 5.9518 18.5126 6.94582 18.048 8.12142C17.9087 8.09341 17.767 8.0789 17.625 8.07809C17.0882 8.08011 16.5709 8.27955 16.1716 8.63842C15.0922 8.24221 13.9195 8.1745 12.8016 8.44381C12.6377 8.05498 12.4003 7.70141 12.1025 7.40247C11.7571 7.05304 11.3385 6.78452 10.877 6.61625C10.4154 6.44797 9.9222 6.38412 9.43297 6.42929C8.94374 6.47446 8.47061 6.62752 8.04762 6.87747C7.62464 7.12742 7.26233 7.46803 6.98677 7.87478C6.71121 8.28154 6.52925 8.74433 6.45399 9.22984C6.37873 9.71535 6.41204 10.2115 6.55152 10.6826C6.691 11.1537 6.93319 11.588 7.26064 11.9543C7.5881 12.3206 7.99269 12.6097 8.44528 12.8009C8.1555 14.031 8.2701 15.3217 8.77208 16.4815C8.49064 16.6679 8.25707 16.9179 8.0903 17.2114C7.92354 17.5048 7.82828 17.8335 7.81225 18.1706C6.76871 18.6551 5.8907 19.4359 5.28747 20.4156C4.89698 20.2569 4.47964 20.1746 4.05813 20.1732C3.56843 20.173 3.08472 20.2809 2.64159 20.4893C2.19846 20.6977 1.80686 21.0015 1.49478 21.3789C1.18271 21.7562 0.957882 22.1979 0.836371 22.6723C0.714861 23.1467 0.699673 23.642 0.791893 24.123C0.884113 24.6039 1.08146 25.0585 1.36983 25.4543C1.6582 25.8501 2.03046 26.1773 2.45999 26.4124C2.88952 26.6476 3.36571 26.785 3.8545 26.8147C4.34329 26.8444 4.83261 26.7657 5.28747 26.5843C5.95225 27.6596 6.9461 28.4917 8.12142 28.9571C8.05451 29.2881 8.06651 29.6302 8.15646 29.9557C8.24641 30.2811 8.41178 30.5808 8.63916 30.8305C8.24334 31.9101 8.17563 33.0826 8.44455 34.2005C7.94302 34.4127 7.5013 34.7449 7.15825 35.1678C6.8152 35.5908 6.58132 36.0915 6.47719 36.626C6.37305 37.1606 6.40185 37.7125 6.56104 38.2333C6.72024 38.7541 7.00495 39.2278 7.39016 39.6127C7.77536 39.9976 8.24924 40.282 8.77013 40.4409C9.29102 40.5997 9.84297 40.6282 10.3774 40.5237C10.9119 40.4192 11.4125 40.1849 11.8352 39.8416C12.2579 39.4983 12.5897 39.0563 12.8016 38.5547C14.0311 38.8527 15.3244 38.74 16.4838 38.2337C16.671 38.5129 16.9207 38.7446 17.2132 38.9103C17.5056 39.076 17.8327 39.1713 18.1684 39.1884C18.6544 40.2315 19.4357 41.1091 20.4156 41.7125C20.212 42.217 20.1353 42.7638 20.1923 43.3048C20.2493 43.8459 20.4382 44.3647 20.7425 44.8156C21.0468 45.2666 21.4572 45.636 21.9376 45.8914C22.418 46.1468 22.9537 46.2803 23.4978 46.2803C24.0418 46.2803 24.5776 46.1468 25.0579 45.8914C25.5383 45.636 25.9487 45.2666 26.253 44.8156C26.5573 44.3647 26.7463 43.8459 26.8033 43.3048C26.8603 42.7638 26.7836 42.217 26.5799 41.7125C27.6554 41.0481 28.4874 40.0541 28.952 38.8785C29.0913 38.9065 29.2329 38.921 29.375 38.9218C29.9129 38.92 30.4312 38.7197 30.8305 38.3593C31.9076 38.763 33.0816 38.8316 34.1983 38.5561C34.4118 39.055 34.7443 39.494 35.1667 39.8346C35.5892 40.1752 36.0887 40.407 36.6215 40.5098C37.1544 40.6126 37.7043 40.5831 38.2231 40.4241C38.7419 40.265 39.2138 39.9812 39.5975 39.5975C39.9831 39.2146 40.2685 38.7428 40.4286 38.2236C40.5887 37.7044 40.6185 37.1537 40.5155 36.6202C40.4124 36.0867 40.1796 35.5868 39.8377 35.1646C39.4957 34.7423 39.0551 34.4107 38.5547 34.1991C38.8441 32.969 38.7298 31.6784 38.2286 30.5184C38.3463 30.4398 38.4563 30.35 38.5569 30.2503C38.9341 29.8708 39.1586 29.3659 39.1877 28.8315C40.2315 28.3464 41.1096 27.5649 41.7125 26.5843C42.103 26.7431 42.5203 26.8253 42.9418 26.8267C43.8233 26.8267 44.6688 26.4765 45.2921 25.8532C45.9154 25.2298 46.2656 24.3844 46.2656 23.5029C46.2656 22.6214 45.9154 21.776 45.2921 21.1526C44.6688 20.5293 43.8233 20.1791 42.9418 20.1791V20.1762ZM37.4531 17.625C37.4531 17.7702 37.41 17.9122 37.3293 18.033C37.2486 18.1537 37.1339 18.2479 36.9998 18.3034C36.8656 18.359 36.7179 18.3736 36.5755 18.3452C36.433 18.3169 36.3021 18.247 36.1994 18.1442C36.0967 18.0415 36.0268 17.9107 35.9985 17.7682C35.9701 17.6258 35.9847 17.4781 36.0402 17.3439C36.0958 17.2097 36.19 17.0951 36.3107 17.0144C36.4315 16.9337 36.5735 16.8906 36.7187 16.8906C36.9135 16.8906 37.1003 16.968 37.238 17.1057C37.3757 17.2434 37.4531 17.4302 37.4531 17.625ZM35.9359 8.44087C36.1953 8.18141 36.5258 8.0047 36.8857 7.9331C37.2455 7.8615 37.6185 7.89822 37.9575 8.03861C38.2965 8.17901 38.5862 8.41677 38.7901 8.72183C38.9939 9.0269 39.1027 9.38556 39.1027 9.75247C39.1027 10.1194 38.9939 10.478 38.7901 10.7831C38.5862 11.0882 38.2965 11.3259 37.9575 11.4663C37.6185 11.6067 37.2455 11.6434 36.8857 11.5718C36.5258 11.5002 36.1953 11.3235 35.9359 11.0641C35.7627 10.8924 35.6252 10.688 35.5314 10.4629C35.4376 10.2378 35.3893 9.99635 35.3893 9.75247C35.3893 9.50859 35.4376 9.26712 35.5314 9.042C35.6252 8.81689 35.7627 8.61258 35.9359 8.44087ZM29.4271 9.99848C29.4275 10.095 29.4087 10.1906 29.3718 10.2797C29.3348 10.3689 29.2805 10.4498 29.2119 10.5177C29.0723 10.6517 28.8863 10.7265 28.6927 10.7265C28.4992 10.7265 28.3132 10.6517 28.1735 10.5177C28.0881 10.4323 28.0251 10.3272 27.99 10.2116C27.9549 10.096 27.9489 9.97356 27.9725 9.8551C27.996 9.73664 28.0484 9.62582 28.1251 9.53245C28.2017 9.43909 28.3001 9.36606 28.4117 9.31984C28.5233 9.27363 28.6446 9.25564 28.7648 9.26749C28.885 9.27934 29.0004 9.32065 29.1008 9.38777C29.2012 9.45488 29.2835 9.54572 29.3405 9.65225C29.3974 9.75878 29.4271 9.8777 29.4271 9.99848ZM23.5 2.20309C23.8669 2.20309 24.2255 2.31189 24.5306 2.51572C24.8356 2.71955 25.0734 3.00927 25.2138 3.34823C25.3542 3.6872 25.3909 4.06018 25.3194 4.42002C25.2478 4.77986 25.0711 5.1104 24.8117 5.36983C24.5522 5.62926 24.2217 5.80593 23.8619 5.87751C23.502 5.94909 23.129 5.91235 22.7901 5.77195C22.4511 5.63155 22.1614 5.39378 21.9576 5.08872C21.7537 4.78367 21.6449 4.42501 21.6449 4.05812C21.6455 3.56632 21.8412 3.09482 22.1889 2.74706C22.5367 2.3993 23.0082 2.20368 23.5 2.20309ZM17.625 9.54684C17.7702 9.54684 17.9122 9.58991 18.033 9.67061C18.1537 9.7513 18.2479 9.86599 18.3034 10.0002C18.359 10.1344 18.3736 10.282 18.3452 10.4245C18.3169 10.5669 18.247 10.6978 18.1443 10.8005C18.0415 10.9032 17.9107 10.9731 17.7682 11.0015C17.6258 11.0298 17.4781 11.0153 17.3439 10.9597C17.2097 10.9041 17.0951 10.81 17.0144 10.6892C16.9337 10.5684 16.8906 10.4265 16.8906 10.2812C16.8906 10.0864 16.968 9.89966 17.1057 9.76194C17.2434 9.62421 17.4302 9.54684 17.625 9.54684ZM8.44088 8.44087C8.7003 8.18141 9.03083 8.0047 9.39068 7.9331C9.75053 7.8615 10.1235 7.89822 10.4625 8.03861C10.8015 8.17901 11.0912 8.41677 11.2951 8.72183C11.4989 9.0269 11.6077 9.38556 11.6077 9.75247C11.6077 10.1194 11.4989 10.478 11.2951 10.7831C11.0912 11.0882 10.8015 11.3259 10.4625 11.4663C10.1235 11.6067 9.75053 11.6434 9.39068 11.5718C9.03083 11.5002 8.7003 11.3235 8.44088 11.0641C8.26786 10.8923 8.13055 10.6879 8.03685 10.4628C7.94315 10.2377 7.89491 9.99629 7.89491 9.75247C7.89491 9.50864 7.94315 9.26722 8.03685 9.04212C8.13055 8.81702 8.26786 8.61268 8.44088 8.44087ZM10.5177 17.788C10.638 17.908 10.713 18.066 10.7298 18.2351C10.7467 18.4042 10.7044 18.5738 10.6101 18.7152C10.5159 18.8566 10.3756 18.961 10.213 19.0105C10.0505 19.06 9.87578 19.0516 9.71873 18.9867C9.56168 18.9218 9.43198 18.8045 9.35174 18.6547C9.2715 18.505 9.24567 18.332 9.27867 18.1653C9.31167 17.9986 9.40145 17.8486 9.5327 17.7407C9.66396 17.6327 9.82857 17.5737 9.99849 17.5736C10.1931 17.5734 10.3799 17.6505 10.5177 17.788ZM2.2031 23.5C2.2031 23.1331 2.31189 22.7744 2.51572 22.4694C2.71956 22.1643 3.00927 21.9265 3.34824 21.7861C3.6872 21.6457 4.06018 21.609 4.42003 21.6806C4.77987 21.7522 5.1104 21.9288 5.36983 22.1883C5.62926 22.4477 5.80594 22.7782 5.87751 23.1381C5.94909 23.4979 5.91236 23.8709 5.77195 24.2099C5.63155 24.5488 5.39379 24.8385 5.08873 25.0424C4.78367 25.2462 4.42502 25.355 4.05813 25.355C3.56632 25.3544 3.09483 25.1588 2.74707 24.811C2.39931 24.4633 2.20368 23.9918 2.2031 23.5ZM9.54685 29.375C9.54685 29.2297 9.58992 29.0877 9.67061 28.967C9.7513 28.8462 9.866 28.7521 10.0002 28.6965C10.1344 28.6409 10.282 28.6264 10.4245 28.6547C10.5669 28.683 10.6978 28.753 10.8005 28.8557C10.9032 28.9584 10.9731 29.0892 11.0015 29.2317C11.0298 29.3742 11.0153 29.5218 10.9597 29.656C10.9041 29.7902 10.81 29.9049 10.6892 29.9856C10.5685 30.0663 10.4265 30.1093 10.2812 30.1093C10.0865 30.1093 9.89966 30.032 9.76194 29.8942C9.62422 29.7565 9.54685 29.5697 9.54685 29.375ZM11.0641 38.5591C10.8047 38.8183 10.4743 38.9948 10.1146 39.0662C9.75495 39.1377 9.38217 39.1009 9.04341 38.9605C8.70465 38.8201 8.41512 38.5825 8.21142 38.2775C8.00771 37.9726 7.89899 37.6142 7.89899 37.2475C7.89899 36.8808 8.00771 36.5223 8.21142 36.2174C8.41512 35.9125 8.70465 35.6748 9.04341 35.5344C9.38217 35.3941 9.75495 35.3573 10.1146 35.4287C10.4743 35.5002 10.8047 35.6767 11.0641 35.9359C11.4115 36.2839 11.6067 36.7557 11.6067 37.2475C11.6067 37.7393 11.4115 38.211 11.0641 38.5591ZM17.5728 37.0014C17.5724 36.905 17.5912 36.8093 17.6282 36.7202C17.6651 36.631 17.7194 36.5502 17.788 36.4823C17.8554 36.4105 17.9365 36.3531 18.0265 36.3133C18.1165 36.2735 18.2135 36.2522 18.3119 36.2507C18.4103 36.2491 18.508 36.2674 18.5992 36.3044C18.6904 36.3413 18.7732 36.3963 18.8428 36.4659C18.9124 36.5355 18.9672 36.6184 19.0041 36.7096C19.041 36.8008 19.0592 36.8985 19.0576 36.9969C19.056 37.0953 19.0347 37.1923 18.9948 37.2823C18.955 37.3723 18.8975 37.4533 18.8257 37.5207C18.6861 37.6545 18.5002 37.7292 18.3068 37.7292C18.1135 37.7292 17.9276 37.6545 17.788 37.5207C17.7193 37.4528 17.6649 37.372 17.6279 37.2828C17.591 37.1936 17.5722 37.098 17.5728 37.0014ZM23.5 44.7968C23.1331 44.7968 22.7744 44.688 22.4694 44.4842C22.1643 44.2804 21.9265 43.9907 21.7861 43.6517C21.6457 43.3127 21.609 42.9398 21.6806 42.5799C21.7522 42.2201 21.9288 41.8895 22.1883 41.6301C22.4477 41.3707 22.7782 41.194 23.1381 41.1224C23.4979 41.0508 23.8709 41.0876 24.2099 41.228C24.5488 41.3684 24.8385 41.6062 25.0424 41.9112C25.2462 42.2163 25.355 42.5749 25.355 42.9418C25.3544 43.4336 25.1588 43.9051 24.811 44.2529C24.4633 44.6006 23.9918 44.7963 23.5 44.7968ZM29.375 37.4531C29.2297 37.4531 29.0877 37.41 28.967 37.3293C28.8462 37.2486 28.7521 37.1339 28.6965 36.9998C28.6409 36.8656 28.6264 36.7179 28.6547 36.5754C28.683 36.433 28.753 36.3021 28.8557 36.1994C28.9584 36.0967 29.0892 36.0268 29.2317 35.9985C29.3742 35.9701 29.5218 35.9847 29.656 36.0402C29.7902 36.0958 29.9049 36.19 29.9856 36.3107C30.0663 36.4315 30.1093 36.5735 30.1093 36.7187C30.1093 36.9135 30.032 37.1003 29.8943 37.238C29.7565 37.3757 29.5697 37.4531 29.375 37.4531ZM38.5591 38.5591C38.2997 38.8183 37.9693 38.9948 37.6096 39.0662C37.25 39.1377 36.8772 39.1009 36.5384 38.9605C36.1996 38.8201 35.9101 38.5825 35.7064 38.2775C35.5027 37.9726 35.394 37.6142 35.394 37.2475C35.394 36.8808 35.5027 36.5223 35.7064 36.2174C35.9101 35.9125 36.1996 35.6748 36.5384 35.5344C36.8772 35.3941 37.25 35.3573 37.6096 35.4287C37.9693 35.5002 38.2997 35.6767 38.5591 35.9359C38.9065 36.2839 39.1017 36.7557 39.1017 37.2475C39.1017 37.7393 38.9065 38.211 38.5591 38.5591ZM36.4823 29.2119C36.3795 29.1092 36.3096 28.9784 36.2812 28.8359C36.2529 28.6935 36.2674 28.5458 36.323 28.4116C36.3785 28.2774 36.4727 28.1627 36.5934 28.082C36.7142 28.0013 36.8562 27.9582 37.0015 27.9582C37.1467 27.9582 37.2887 28.0013 37.4095 28.082C37.5302 28.1627 37.6244 28.2774 37.68 28.4116C37.7355 28.5458 37.7501 28.6935 37.7217 28.8359C37.6934 28.9784 37.6234 29.1092 37.5207 29.2119C37.3829 29.3496 37.1962 29.427 37.0015 29.427C36.8067 29.427 36.62 29.3496 36.4823 29.2119ZM38.775 27.3958C38.7107 27.3035 38.6395 27.2161 38.562 27.1344C38.1477 26.7268 37.589 26.4995 37.0079 26.5019C36.4267 26.5044 35.87 26.7364 35.4591 27.1474C35.0481 27.5584 34.8163 28.1151 34.814 28.6963C34.8117 29.2775 35.0391 29.8361 35.4468 30.2503C35.8061 30.606 36.2777 30.8258 36.7811 30.8724C37.2591 31.8202 37.3783 32.9088 37.1168 33.9376C36.2833 33.9639 35.4911 34.3066 34.9012 34.896C34.3114 35.4855 33.9682 36.2774 33.9413 37.1109C33.1532 37.3143 32.324 37.2931 31.5473 37.0499C31.5661 36.9405 31.5764 36.8298 31.5781 36.7187C31.5781 36.1344 31.346 35.574 30.9328 35.1609C30.5196 34.7477 29.9593 34.5156 29.375 34.5156C28.7907 34.5156 28.2303 34.7477 27.8171 35.1609C27.404 35.574 27.1718 36.1344 27.1718 36.7187C27.174 37.2252 27.3524 37.7152 27.6764 38.1045C27.3443 39.1124 26.6588 39.9661 25.7464 40.5081C25.1382 39.9369 24.3351 39.6189 23.5007 39.6189C22.6663 39.6189 21.8632 39.9369 21.255 40.5081C20.5565 40.0935 19.9863 39.4937 19.6078 38.775C19.6997 38.7104 19.7866 38.6389 19.8678 38.5613C20.2808 38.1481 20.5128 37.5878 20.5128 37.0037C20.5128 36.4195 20.2808 35.8592 19.8678 35.446C19.448 35.0455 18.89 34.822 18.3098 34.822C17.7295 34.822 17.1716 35.0455 16.7518 35.446C16.3948 35.805 16.1741 36.2771 16.1276 36.7811C15.1799 37.2579 14.0921 37.3769 13.0638 37.116C13.0375 36.2825 12.6948 35.4904 12.1054 34.9005C11.5159 34.3107 10.724 33.9674 9.89053 33.9406C9.68679 33.1525 9.70791 32.3232 9.95149 31.5465C10.0604 31.5655 10.1707 31.5761 10.2812 31.5781C10.8655 31.5781 11.4259 31.346 11.8391 30.9328C12.2522 30.5196 12.4843 29.9593 12.4843 29.375C12.4843 28.7907 12.2522 28.2303 11.8391 27.8171C11.4259 27.404 10.8655 27.1718 10.2812 27.1718C9.77471 27.1739 9.28472 27.3523 8.89546 27.6764C7.88744 27.3445 7.03364 26.6589 6.49185 25.7464C7.06339 25.1383 7.38159 24.3352 7.38159 23.5007C7.38159 22.6662 7.06339 21.8631 6.49185 21.255C6.90669 20.5567 7.50648 19.9866 8.22497 19.6078C8.28929 19.7002 8.36048 19.7875 8.43794 19.8692C8.85229 20.2768 9.4109 20.5041 9.99209 20.5017C10.5733 20.4992 11.13 20.2672 11.5409 19.8562C11.9518 19.4452 12.1837 18.8885 12.186 18.3073C12.1883 17.7261 11.9608 17.1675 11.5532 16.7533C11.1938 16.3976 10.7222 16.1778 10.2188 16.1312C9.74087 15.1834 9.62168 14.0948 9.88319 13.066C10.7167 13.0397 11.5088 12.697 12.0987 12.1076C12.6885 11.5181 13.0318 10.7262 13.0586 9.89273C13.8467 9.68935 14.676 9.71046 15.4527 9.95369C15.434 10.0619 15.4237 10.1714 15.4218 10.2812C15.4218 10.8655 15.654 11.4259 16.0671 11.8391C16.4803 12.2522 17.0407 12.4843 17.625 12.4843C18.2093 12.4843 18.7696 12.2522 19.1828 11.8391C19.596 11.4259 19.8281 10.8655 19.8281 10.2812C19.8259 9.77473 19.6476 9.28478 19.3236 8.89545C19.6557 7.88757 20.3412 7.03384 21.2535 6.49184C21.8618 7.06306 22.6648 7.38104 23.4992 7.38104C24.3337 7.38104 25.1367 7.06306 25.745 6.49184C26.4455 6.90655 27.0173 7.50753 27.3966 8.2279C27.3038 8.29111 27.2163 8.36185 27.1351 8.4394C26.7275 8.85366 26.5 9.41222 26.5023 9.99341C26.5046 10.5746 26.7365 11.1313 27.1474 11.5424C27.5583 11.9534 28.115 12.1854 28.6962 12.1878C29.2774 12.1902 29.836 11.9629 30.2503 11.5554C30.6069 11.1965 30.8276 10.7247 30.8746 10.221C31.8221 9.74394 32.91 9.62478 33.9384 9.88539C33.9646 10.7189 34.3073 11.511 34.8968 12.1009C35.4862 12.6908 36.2782 13.034 37.1116 13.0608C37.3154 13.8489 37.2942 14.6782 37.0507 15.4549C36.941 15.4353 36.8301 15.4242 36.7187 15.4218C36.1344 15.4218 35.574 15.654 35.1609 16.0671C34.7477 16.4803 34.5156 17.0407 34.5156 17.625C34.5156 18.2093 34.7477 18.7696 35.1609 19.1828C35.574 19.596 36.1344 19.8281 36.7187 19.8281C37.2252 19.826 37.7152 19.6477 38.1045 19.3236C39.1125 19.6554 39.9663 20.341 40.5081 21.2535C39.9365 21.8616 39.6184 22.6647 39.6184 23.4992C39.6184 24.3338 39.9365 25.1369 40.5081 25.745C40.0938 26.4446 39.4939 27.016 38.775 27.3958ZM42.9448 25.355C42.5777 25.3556 42.2188 25.2473 41.9134 25.0438C41.6079 24.8403 41.3697 24.5508 41.2288 24.2119C41.088 23.873 41.0508 23.4999 41.1221 23.1399C41.1933 22.7798 41.3698 22.449 41.6291 22.1893C41.8884 21.9296 42.2189 21.7526 42.5788 21.6808C42.9388 21.609 43.3119 21.6455 43.651 21.7859C43.9902 21.9262 44.28 22.1639 44.484 22.4691C44.688 22.7742 44.7968 23.133 44.7968 23.5C44.7963 23.9918 44.6006 24.4633 44.2529 24.811C43.9051 25.1588 43.4336 25.3544 42.9418 25.355H42.9448Z" fill="#7B36B6"/>
<path d="M23.5 13.2188C19.7936 13.2188 16.8906 14.993 16.8906 17.2578C16.8906 17.296 16.898 17.3312 16.8994 17.3702H16.8906V29.8545H16.8994C16.9227 30.3445 17.0747 30.8197 17.3401 31.2322C18.3043 32.7803 20.7219 33.7812 23.5 33.7812C26.2781 33.7812 28.6957 32.7803 29.6563 31.2388C29.9468 30.7933 30.1041 30.2741 30.1094 29.7422V17.2578C30.1094 14.993 27.2064 13.2188 23.5 13.2188ZM28.4137 30.4553C27.7329 31.5487 25.7127 32.3125 23.5 32.3125C21.2873 32.3125 19.2671 31.5488 18.5797 30.4487C18.4398 30.2393 18.3633 29.994 18.3594 29.7422V27.8996C18.4798 27.9892 18.6047 28.0774 18.739 28.1603C20.1862 28.9903 21.8321 29.4102 23.5 29.375C25.1667 29.4104 26.8115 28.9912 28.258 28.1625C28.3931 28.0781 28.5195 27.99 28.6406 27.8989V29.7422C28.6356 29.9968 28.5568 30.2446 28.4137 30.4553ZM27.4781 26.9178C26.2659 27.601 24.891 27.9427 23.5 27.9062C22.1075 27.9425 20.7313 27.6001 19.5182 26.9156C19.0857 26.6461 18.3594 26.0828 18.3594 25.3359V24.2226C19.8765 25.2403 21.674 25.7579 23.5 25.7031C25.326 25.7578 27.1234 25.2402 28.6406 24.2226V25.3359C28.6406 26.0828 27.9143 26.6461 27.4781 26.9178ZM27.9099 22.9389C26.6256 23.8505 25.0733 24.3065 23.5 24.2344C21.928 24.3058 20.3772 23.8501 19.0938 22.9397C18.8884 22.7908 18.7168 22.6002 18.5903 22.3803C18.4637 22.1605 18.385 21.9164 18.3594 21.6641V19.823C19.8754 20.8424 21.6741 21.3582 23.5 21.2969C25.3259 21.3582 27.1246 20.8424 28.6406 19.823V21.6641C28.6154 21.916 28.5373 22.1598 28.4114 22.3795C28.2854 22.5992 28.1146 22.7898 27.9099 22.9389ZM23.5 19.8281C20.4707 19.8281 18.3594 18.4732 18.3594 17.2578C18.3594 16.0424 20.4707 14.6875 23.5 14.6875C26.5293 14.6875 28.6406 16.0424 28.6406 17.2578C28.6406 18.4732 26.5293 19.8281 23.5 19.8281Z" fill="#7B36B6"/>
</g>
<defs>
<clipPath id="clip0_317_1040">
<rect width="47" height="47" fill="white"/>
</clipPath>
</defs>
</svg>
