<svg width="46" height="46" viewBox="0 0 46 46" fill="none" xmlns="http://www.w3.org/2000/svg">
<path d="M35.7269 6.67943L33.5707 4.52318C33.4359 4.38844 33.2531 4.31274 33.0625 4.31274C32.8719 4.31274 32.6891 4.38844 32.5543 4.52318L30.9062 6.17128L29.9769 5.24193C29.8764 5.14145 29.7483 5.07302 29.6089 5.0453C29.4695 5.01758 29.325 5.03181 29.1937 5.0862C29.0624 5.14058 28.9502 5.23269 28.8712 5.35085C28.7922 5.46902 28.75 5.60796 28.75 5.75009V10.7813C28.75 10.972 28.8257 11.1548 28.9605 11.2896C29.0953 11.4244 29.2781 11.5001 29.4688 11.5001H34.5C34.6421 11.5001 34.7811 11.4579 34.8992 11.3789C35.0174 11.2999 35.1095 11.1877 35.1639 11.0564C35.2183 10.9251 35.2325 10.7806 35.2048 10.6412C35.1771 10.5018 35.1086 10.3737 35.0082 10.2732L34.0788 9.34384L35.7269 7.69575C35.8617 7.56096 35.9373 7.37818 35.9373 7.18759C35.9373 6.997 35.8617 6.81422 35.7269 6.67943ZM32.5543 8.83568C32.4196 8.97047 32.3439 9.15325 32.3439 9.34384C32.3439 9.53443 32.4196 9.71721 32.5543 9.852L32.7649 10.0626H30.1875V7.48515L30.3981 7.69575C30.5329 7.83049 30.7157 7.90619 30.9062 7.90619C31.0968 7.90619 31.2796 7.83049 31.4144 7.69575L33.0625 6.04765L34.2024 7.18759L32.5543 8.83568Z" fill="#7B36B6"/>
<path d="M10.8359 11.0566C10.8903 11.1879 10.9825 11.3001 11.1007 11.3791C11.2189 11.458 11.3579 11.5001 11.5 11.5001H16.5313C16.7219 11.5001 16.9047 11.4244 17.0395 11.2896C17.1743 11.1548 17.25 10.972 17.25 10.7813V5.75009C17.25 5.60796 17.2078 5.46902 17.1288 5.35085C17.0499 5.23269 16.9376 5.14058 16.8063 5.0862C16.675 5.03181 16.5305 5.01758 16.3911 5.0453C16.2517 5.07302 16.1236 5.14145 16.0231 5.24193L15.0938 6.17128L13.4457 4.52318C13.3109 4.38844 13.1281 4.31274 12.9375 4.31274C12.7469 4.31274 12.5642 4.38844 12.4294 4.52318L10.2731 6.67943C10.1384 6.81422 10.0627 6.997 10.0627 7.18759C10.0627 7.37818 10.1384 7.56096 10.2731 7.69575L11.9212 9.34384L10.9919 10.2732C10.8913 10.3737 10.8228 10.5018 10.795 10.6412C10.7673 10.7807 10.7815 10.9253 10.8359 11.0566ZM11.7976 7.18759L12.9375 6.04765L14.5856 7.69575C14.7204 7.83049 14.9032 7.90619 15.0938 7.90619C15.2844 7.90619 15.4672 7.83049 15.6019 7.69575L15.8125 7.48515V10.0626H13.2351L13.4457 9.852C13.5804 9.71721 13.6561 9.53443 13.6561 9.34384C13.6561 9.15325 13.5804 8.97047 13.4457 8.83568L11.7976 7.18759Z" fill="#7B36B6"/>
<path d="M35.7269 38.3043L34.0788 36.6562L35.0082 35.7269C35.1086 35.6264 35.1771 35.4983 35.2048 35.3589C35.2325 35.2195 35.2183 35.075 35.1639 34.9437C35.1095 34.8124 35.0174 34.7002 34.8992 34.6212C34.7811 34.5422 34.6421 34.5 34.5 34.5H29.4688C29.2781 34.5 29.0953 34.5757 28.9605 34.7105C28.8257 34.8453 28.75 35.0281 28.75 35.2188V40.25C28.75 40.3921 28.7922 40.5311 28.8712 40.6492C28.9502 40.7674 29.0624 40.8595 29.1937 40.9139C29.325 40.9683 29.4695 40.9825 29.6089 40.9548C29.7483 40.9271 29.8764 40.8586 29.9769 40.7582L30.9062 39.8288L32.5543 41.4769C32.6891 41.6117 32.8719 41.6873 33.0625 41.6873C33.2531 41.6873 33.4359 41.6117 33.5707 41.4769L35.7269 39.3207C35.8617 39.1859 35.9373 39.0031 35.9373 38.8125C35.9373 38.6219 35.8617 38.4391 35.7269 38.3043ZM33.0625 39.9524L31.4144 38.3043C31.2796 38.1696 31.0968 38.0939 30.9062 38.0939C30.7157 38.0939 30.5329 38.1696 30.3981 38.3043L30.1875 38.5149V35.9375H32.7649L32.5543 36.1481C32.4196 36.2829 32.3439 36.4657 32.3439 36.6562C32.3439 36.8468 32.4196 37.0296 32.5543 37.1644L34.2024 38.8125L33.0625 39.9524Z" fill="#7B36B6"/>
<path d="M16.5313 34.5H11.5C11.3579 34.5 11.219 34.5422 11.1008 34.6212C10.9826 34.7002 10.8905 34.8124 10.8361 34.9437C10.7817 35.075 10.7675 35.2195 10.7952 35.3589C10.823 35.4983 10.8914 35.6264 10.9919 35.7269L11.9212 36.6562L10.2731 38.3043C10.1384 38.4391 10.0627 38.6219 10.0627 38.8125C10.0627 39.0031 10.1384 39.1859 10.2731 39.3207L12.4294 41.4769C12.5642 41.6117 12.7469 41.6873 12.9375 41.6873C13.1281 41.6873 13.3109 41.6117 13.4457 41.4769L15.0938 39.8288L16.0231 40.7582C16.1236 40.8586 16.2517 40.9271 16.3911 40.9548C16.5305 40.9825 16.675 40.9683 16.8063 40.9139C16.9376 40.8595 17.0499 40.7674 17.1288 40.6492C17.2078 40.5311 17.25 40.3921 17.25 40.25V35.2188C17.25 35.0281 17.1743 34.8453 17.0395 34.7105C16.9047 34.5757 16.7219 34.5 16.5313 34.5ZM15.8125 38.5149L15.6019 38.3043C15.4672 38.1696 15.2844 38.0939 15.0938 38.0939C14.9032 38.0939 14.7204 38.1696 14.5856 38.3043L12.9375 39.9524L11.7976 38.8125L13.4457 37.1644C13.5804 37.0296 13.6561 36.8468 13.6561 36.6562C13.6561 36.4657 13.5804 36.2829 13.4457 36.1481L13.2351 35.9375H15.8125V38.5149Z" fill="#7B36B6"/>
<path d="M42.3293 6.28695C42.7181 5.87978 42.9788 5.36744 43.0791 4.81347C43.1793 4.2595 43.1147 3.68829 42.8933 3.1707C42.6718 2.65311 42.3033 2.21191 41.8334 1.90185C41.3635 1.5918 40.813 1.42651 40.25 1.42651C39.687 1.42651 39.1365 1.5918 38.6666 1.90185C38.1967 2.21191 37.8282 2.65311 37.6067 3.1707C37.3853 3.68829 37.3207 4.2595 37.421 4.81347C37.5212 5.36744 37.7819 5.87978 38.1707 6.28695C37.4947 6.65897 36.931 7.20551 36.5382 7.8696C36.1454 8.53369 35.9379 9.29099 35.9375 10.0625V10.7813C35.9375 10.9719 36.0132 11.1547 36.148 11.2895C36.2828 11.4243 36.4656 11.5 36.6562 11.5H43.8438C44.0344 11.5 44.2172 11.4243 44.352 11.2895C44.4868 11.1547 44.5625 10.9719 44.5625 10.7813V10.0625C44.5621 9.29099 44.3546 8.53369 43.9618 7.8696C43.569 7.20551 43.0053 6.65897 42.3293 6.28695ZM38.8125 4.31254C38.8125 4.02823 38.8968 3.75031 39.0548 3.51391C39.2127 3.27752 39.4372 3.09327 39.6999 2.98447C39.9626 2.87567 40.2516 2.8472 40.5304 2.90266C40.8093 2.95813 41.0654 3.09504 41.2665 3.29608C41.4675 3.49711 41.6044 3.75325 41.6599 4.0321C41.7153 4.31095 41.6869 4.59998 41.5781 4.86265C41.4693 5.12532 41.285 5.34983 41.0486 5.50778C40.8122 5.66573 40.5343 5.75004 40.25 5.75004C39.8688 5.75004 39.5031 5.59859 39.2335 5.32901C38.9639 5.05943 38.8125 4.69379 38.8125 4.31254ZM37.375 10.0625C37.375 9.30005 37.6779 8.56878 38.2171 8.02961C38.7562 7.49044 39.4875 7.18754 40.25 7.18754C41.0125 7.18754 41.7438 7.49044 42.2829 8.02961C42.8221 8.56878 43.125 9.30005 43.125 10.0625H37.375Z" fill="#7B36B6"/>
<path d="M2.15625 11.5H9.34375C9.53437 11.5 9.71719 11.4243 9.85198 11.2895C9.98677 11.1547 10.0625 10.9719 10.0625 10.7813V10.0625C10.0621 9.29099 9.85462 8.53369 9.46183 7.8696C9.06904 7.20551 8.50529 6.65897 7.82934 6.28695C8.21812 5.87978 8.4788 5.36744 8.57905 4.81347C8.6793 4.2595 8.6147 3.68829 8.39327 3.1707C8.17184 2.65311 7.80332 2.21191 7.33343 1.90185C6.86355 1.5918 6.31297 1.42651 5.75 1.42651C5.18703 1.42651 4.63645 1.5918 4.16657 1.90185C3.69668 2.21191 3.32816 2.65311 3.10673 3.1707C2.8853 3.68829 2.8207 4.2595 2.92095 4.81347C3.0212 5.36744 3.28188 5.87978 3.67066 6.28695C2.99471 6.65897 2.43096 7.20551 2.03817 7.8696C1.64538 8.53369 1.43795 9.29099 1.4375 10.0625V10.7813C1.4375 10.9719 1.51323 11.1547 1.64802 11.2895C1.78281 11.4243 1.96563 11.5 2.15625 11.5ZM4.3125 4.31254C4.3125 4.02823 4.39681 3.75031 4.55476 3.51391C4.71272 3.27752 4.93722 3.09327 5.19989 2.98447C5.46256 2.87567 5.75159 2.8472 6.03044 2.90266C6.30929 2.95813 6.56543 3.09504 6.76647 3.29608C6.9675 3.49711 7.10441 3.75325 7.15988 4.0321C7.21535 4.31095 7.18688 4.59998 7.07808 4.86265C6.96928 5.12532 6.78503 5.34983 6.54863 5.50778C6.31224 5.66573 6.03431 5.75004 5.75 5.75004C5.36875 5.75004 5.00312 5.59859 4.73353 5.32901C4.46395 5.05943 4.3125 4.69379 4.3125 4.31254ZM5.75 7.18754C6.5125 7.18754 7.24376 7.49044 7.78293 8.02961C8.3221 8.56878 8.625 9.30005 8.625 10.0625H2.875C2.875 9.30005 3.1779 8.56878 3.71707 8.02961C4.25623 7.49044 4.9875 7.18754 5.75 7.18754Z" fill="#7B36B6"/>
<path d="M42.3293 39.3495C42.7181 38.9423 42.9788 38.4299 43.0791 37.876C43.1793 37.322 43.1147 36.7508 42.8933 36.2332C42.6718 35.7156 42.3033 35.2744 41.8334 34.9644C41.3635 34.6543 40.813 34.489 40.25 34.489C39.687 34.489 39.1365 34.6543 38.6666 34.9644C38.1967 35.2744 37.8282 35.7156 37.6067 36.2332C37.3853 36.7508 37.3207 37.322 37.421 37.876C37.5212 38.4299 37.7819 38.9423 38.1707 39.3495C37.4947 39.7215 36.931 40.268 36.5382 40.9321C36.1454 41.5962 35.9379 42.3535 35.9375 43.125V43.8438C35.9375 44.0344 36.0132 44.2172 36.148 44.352C36.2828 44.4868 36.4656 44.5625 36.6562 44.5625H43.8438C44.0344 44.5625 44.2172 44.4868 44.352 44.352C44.4868 44.2172 44.5625 44.0344 44.5625 43.8438V43.125C44.5621 42.3535 44.3546 41.5962 43.9618 40.9321C43.569 40.268 43.0053 39.7215 42.3293 39.3495ZM38.8125 37.375C38.8125 37.0907 38.8968 36.8128 39.0548 36.5764C39.2127 36.34 39.4372 36.1558 39.6999 36.047C39.9626 35.9382 40.2516 35.9097 40.5304 35.9652C40.8093 36.0206 41.0654 36.1575 41.2665 36.3586C41.4675 36.5596 41.6044 36.8158 41.6599 37.0946C41.7153 37.3734 41.6869 37.6625 41.5781 37.9252C41.4693 38.1878 41.285 38.4123 41.0486 38.5703C40.8122 38.7282 40.5343 38.8125 40.25 38.8125C39.8688 38.8125 39.5031 38.6611 39.2335 38.3915C38.9639 38.1219 38.8125 37.7563 38.8125 37.375ZM37.375 43.125C37.375 42.3625 37.6779 41.6313 38.2171 41.0921C38.7562 40.5529 39.4875 40.25 40.25 40.25C41.0125 40.25 41.7438 40.5529 42.2829 41.0921C42.8221 41.6313 43.125 42.3625 43.125 43.125H37.375Z" fill="#7B36B6"/>
<path d="M7.82934 39.3495C8.21812 38.9423 8.4788 38.4299 8.57905 37.876C8.6793 37.322 8.6147 36.7508 8.39327 36.2332C8.17184 35.7156 7.80332 35.2744 7.33343 34.9644C6.86355 34.6543 6.31297 34.489 5.75 34.489C5.18703 34.489 4.63645 34.6543 4.16657 34.9644C3.69668 35.2744 3.32816 35.7156 3.10673 36.2332C2.8853 36.7508 2.8207 37.322 2.92095 37.876C3.0212 38.4299 3.28188 38.9423 3.67066 39.3495C2.99471 39.7215 2.43096 40.268 2.03817 40.9321C1.64538 41.5962 1.43795 42.3535 1.4375 43.125V43.8438C1.4375 44.0344 1.51323 44.2172 1.64802 44.352C1.78281 44.4868 1.96563 44.5625 2.15625 44.5625H9.34375C9.53437 44.5625 9.71719 44.4868 9.85198 44.352C9.98677 44.2172 10.0625 44.0344 10.0625 43.8438V43.125C10.0621 42.3535 9.85462 41.5962 9.46183 40.9321C9.06904 40.268 8.50529 39.7215 7.82934 39.3495ZM4.3125 37.375C4.3125 37.0907 4.39681 36.8128 4.55476 36.5764C4.71272 36.34 4.93722 36.1558 5.19989 36.047C5.46256 35.9382 5.75159 35.9097 6.03044 35.9652C6.30929 36.0206 6.56543 36.1575 6.76647 36.3586C6.9675 36.5596 7.10441 36.8158 7.15988 37.0946C7.21535 37.3734 7.18688 37.6625 7.07808 37.9252C6.96928 38.1878 6.78503 38.4123 6.54863 38.5703C6.31224 38.7282 6.03431 38.8125 5.75 38.8125C5.36875 38.8125 5.00312 38.6611 4.73353 38.3915C4.46395 38.1219 4.3125 37.7563 4.3125 37.375ZM2.875 43.125C2.875 42.3625 3.1779 41.6313 3.71707 41.0921C4.25623 40.5529 4.9875 40.25 5.75 40.25C6.5125 40.25 7.24376 40.5529 7.78293 41.0921C8.3221 41.6313 8.625 42.3625 8.625 43.125H2.875Z" fill="#7B36B6"/>
<path d="M35.2187 32.3438V25.1563H37.375C37.5051 25.1563 37.6328 25.121 37.7444 25.0541C37.8561 24.9873 37.9474 24.8914 38.0088 24.7766C38.0702 24.6619 38.0993 24.5326 38.093 24.4027C38.0867 24.2727 38.0452 24.1469 37.973 24.0386L35.098 19.7261C35.0323 19.6277 34.9434 19.547 34.8391 19.4913C34.7348 19.4355 34.6183 19.4063 34.5 19.4063H29.8475C30.1912 18.3288 30.2758 17.1854 30.0944 16.069C29.913 14.9526 29.4707 13.8949 28.8034 12.9816C28.1362 12.0684 27.2629 11.3256 26.2545 10.8134C25.246 10.3013 24.131 10.0344 23 10.0344C21.869 10.0344 20.7539 10.3013 19.7455 10.8134C18.7371 11.3256 17.8638 12.0684 17.1965 12.9816C16.5293 13.8949 16.087 14.9526 15.9056 16.069C15.7241 17.1854 15.8087 18.3288 16.1525 19.4063H11.5C11.3817 19.4063 11.2652 19.4355 11.1609 19.4913C11.0566 19.547 10.9676 19.6277 10.902 19.7261L8.02699 24.0386C7.95477 24.1469 7.91329 24.2727 7.90697 24.4027C7.90066 24.5326 7.92975 24.6619 7.99114 24.7766C8.05253 24.8914 8.14391 24.9873 8.25554 25.0541C8.36717 25.121 8.49486 25.1563 8.62499 25.1563H10.7812V32.3438C10.7812 32.5344 10.857 32.7172 10.9918 32.852C11.1265 32.9868 11.3094 33.0625 11.5 33.0625H34.5C34.6906 33.0625 34.8734 32.9868 35.0082 32.852C35.143 32.7172 35.2187 32.5344 35.2187 32.3438ZM33.7812 31.625H28.0312V22.4969L29.5895 24.8343C29.6549 24.9331 29.7437 25.0142 29.8481 25.0704C29.9524 25.1266 30.069 25.1561 30.1875 25.1563H33.7812V31.625ZM36.0316 23.7188H30.5691L28.653 20.8438H34.1155L36.0316 23.7188ZM17.25 17.25C17.25 15.725 17.8558 14.2625 18.9341 13.1842C20.0125 12.1058 21.475 11.5 23 11.5C24.525 11.5 25.9875 12.1058 27.0658 13.1842C28.1442 14.2625 28.75 15.725 28.75 17.25C28.7493 17.9897 28.6043 18.7222 28.323 19.4063H25.0233C25.1086 19.1761 25.1536 18.933 25.1562 18.6875C25.1562 18.1157 24.9291 17.5672 24.5247 17.1628C24.1203 16.7585 23.5719 16.5313 23 16.5313C22.8578 16.5313 22.7189 16.4891 22.6007 16.4102C22.4825 16.3312 22.3903 16.2189 22.3359 16.0876C22.2815 15.9563 22.2673 15.8117 22.295 15.6723C22.3228 15.5329 22.3912 15.4048 22.4918 15.3043C22.5923 15.2038 22.7203 15.1353 22.8598 15.1076C22.9992 15.0799 23.1437 15.0941 23.275 15.1485C23.4064 15.2029 23.5186 15.295 23.5976 15.4132C23.6766 15.5314 23.7187 15.6704 23.7187 15.8125C23.7187 16.0032 23.7945 16.186 23.9293 16.3208C24.064 16.4556 24.2469 16.5313 24.4375 16.5313C24.6281 16.5313 24.8109 16.4556 24.9457 16.3208C25.0805 16.186 25.1562 16.0032 25.1562 15.8125C25.1544 15.3682 25.0153 14.9352 24.758 14.5729C24.5007 14.2106 24.1377 13.9367 23.7187 13.7885V13.6563C23.7187 13.4657 23.643 13.2829 23.5082 13.1481C23.3734 13.0133 23.1906 12.9375 23 12.9375C22.8094 12.9375 22.6265 13.0133 22.4918 13.1481C22.357 13.2829 22.2812 13.4657 22.2812 13.6563V13.7885C21.8021 13.9573 21.3981 14.2902 21.1408 14.7283C20.8836 15.1664 20.7897 15.6814 20.8758 16.1821C20.9619 16.6828 21.2224 17.1369 21.6112 17.4639C22 17.7909 22.492 17.9698 23 17.9688C23.1421 17.9688 23.2811 18.0109 23.3993 18.0899C23.5175 18.1689 23.6096 18.2812 23.664 18.4125C23.7184 18.5438 23.7327 18.6883 23.7049 18.8278C23.6772 18.9672 23.6087 19.0953 23.5082 19.1958C23.4077 19.2963 23.2796 19.3647 23.1402 19.3925C23.0008 19.4202 22.8563 19.406 22.7249 19.3516C22.5936 19.2972 22.4813 19.2051 22.4024 19.0869C22.3234 18.9687 22.2812 18.8297 22.2812 18.6875C22.2812 18.4969 22.2055 18.3141 22.0707 18.1793C21.9359 18.0445 21.7531 17.9688 21.5625 17.9688C21.3719 17.9688 21.189 18.0445 21.0543 18.1793C20.9195 18.3141 20.8437 18.4969 20.8437 18.6875C20.8461 18.933 20.8909 19.1761 20.976 19.4063H17.6769C17.3957 18.7222 17.2507 17.9897 17.25 17.25ZM11.8845 20.8438H25.972L24.0558 23.7188H9.96833L11.8845 20.8438ZM12.2187 25.1563H24.4375C24.5558 25.1563 24.6723 25.1271 24.7766 25.0713C24.8809 25.0155 24.9698 24.9349 25.0355 24.8365L26.5937 22.4969V31.625H12.2187V25.1563Z" fill="#7B36B6"/>
</svg>
