<svg width="41" height="41" viewBox="0 0 41 41" fill="none" xmlns="http://www.w3.org/2000/svg">
<g clip-path="url(#clip0_317_1079)">
<path d="M28.1339 17.4736C28.1188 17.4356 28.1003 17.3989 28.0788 17.3641C28.0684 17.347 28.0571 17.3305 28.0449 17.3148C28.0185 17.2806 27.9887 17.2492 27.9558 17.2212C27.9436 17.211 27.9327 17.1988 27.9199 17.1892L27.909 17.1796C27.8639 17.148 27.8148 17.1226 27.763 17.104L27.7559 17.0995L20.7091 14.5831C20.5696 14.5338 20.4174 14.5338 20.2779 14.5831L13.231 17.0995L13.224 17.1034C13.1721 17.1225 13.1228 17.1481 13.0773 17.1796L13.067 17.1892C13.0536 17.1988 13.0433 17.211 13.0305 17.2212C12.9978 17.2494 12.968 17.2807 12.9415 17.3148C12.9293 17.3308 12.9184 17.3468 12.9075 17.3641C12.886 17.3988 12.8677 17.4355 12.8531 17.4736C12.846 17.4916 12.839 17.5076 12.8332 17.5262C12.816 17.5836 12.8067 17.6431 12.8057 17.703V23.2399C12.8056 23.3721 12.8465 23.501 12.9227 23.6091C12.9988 23.7171 13.1065 23.799 13.231 23.8434L20.2779 26.3604H20.2894C20.4214 26.4074 20.5655 26.4074 20.6975 26.3604H20.7091L27.7559 23.8434C27.8803 23.7989 27.9879 23.717 28.0639 23.6089C28.14 23.5009 28.1807 23.372 28.1807 23.2399V17.703C28.18 17.643 28.1707 17.5835 28.1531 17.5262C28.148 17.5076 28.1403 17.489 28.1339 17.4736ZM20.4932 15.867L25.6355 17.703L20.4932 19.539L15.3515 17.7024L20.4932 15.867ZM14.0869 18.612L19.8525 20.6716V24.8479L14.0869 22.7889V18.612ZM21.1338 24.8479V20.6716L26.8994 18.612V22.7889L21.1338 24.8479Z" fill="#7B36B6"/>
<path d="M1.14055 6.86946L5.47759 8.41786H5.48912C5.62109 8.46482 5.76522 8.46482 5.89719 8.41786H5.90873L10.2451 6.86946C10.3696 6.82505 10.4773 6.74321 10.5535 6.63517C10.6296 6.52713 10.6705 6.39818 10.6705 6.266V2.85851C10.6696 2.79832 10.6601 2.73857 10.6423 2.68106C10.6369 2.66363 10.6304 2.64652 10.6231 2.62981C10.6086 2.59105 10.5902 2.55391 10.568 2.51898C10.5578 2.50211 10.5467 2.48586 10.5347 2.47029C10.5083 2.43592 10.4782 2.40455 10.445 2.37676C10.4337 2.36521 10.4217 2.3543 10.4091 2.34409L10.3989 2.33512C10.3538 2.30335 10.3047 2.27772 10.2528 2.25889L10.2451 2.25504L5.90873 0.70473C5.76925 0.655389 5.61706 0.655389 5.47759 0.70473L1.14055 2.25504H1.13479C1.08245 2.27395 1.03289 2.2998 0.987445 2.33192L0.976555 2.34089C0.963742 2.3505 0.953492 2.36267 0.94132 2.37356C0.907878 2.40134 0.877587 2.4327 0.850992 2.46709C0.83882 2.48246 0.82857 2.49912 0.81768 2.51578C0.795781 2.55085 0.777331 2.58797 0.762586 2.62661C0.75618 2.6439 0.748492 2.65992 0.743367 2.67786C0.725806 2.7354 0.716531 2.79515 0.71582 2.85531V6.266C0.715755 6.3981 0.756532 6.527 0.832567 6.63503C0.908602 6.74306 1.01618 6.82494 1.14055 6.86946ZM1.99707 3.76756L5.05221 4.85662V6.90662L1.99707 5.81756V3.76756ZM6.33346 6.90662V4.85854L9.38924 3.76948V5.81948L6.33346 6.90662ZM5.69284 1.99111L8.12721 2.85979L5.69284 3.72784L3.25846 2.85979L5.69284 1.99111Z" fill="#7B36B6"/>
<path d="M15.8749 6.86946L20.212 8.41786H20.2235C20.3555 8.46482 20.4996 8.46482 20.6316 8.41786H20.6431L24.9795 6.86946C25.104 6.82505 25.2117 6.74321 25.2879 6.63517C25.364 6.52713 25.4049 6.39818 25.4049 6.266V2.85851C25.4039 2.79832 25.3944 2.73857 25.3767 2.68106C25.3712 2.66363 25.3648 2.64652 25.3575 2.62981C25.343 2.59105 25.3245 2.55391 25.3024 2.51898C25.2922 2.50211 25.2811 2.48586 25.2691 2.47029C25.2427 2.43592 25.2126 2.40455 25.1794 2.37676C25.168 2.36521 25.1561 2.3543 25.1435 2.34409L25.1332 2.33512C25.0881 2.30355 25.039 2.27813 24.9872 2.25953L24.9795 2.25504L20.6431 0.70473C20.5036 0.655389 20.3514 0.655389 20.212 0.70473L15.8749 2.25504H15.8685C15.8164 2.27409 15.7671 2.29994 15.7218 2.33192L15.7109 2.34089C15.6981 2.3505 15.6879 2.36267 15.6757 2.37356C15.6423 2.40134 15.612 2.4327 15.5854 2.46709C15.5732 2.48246 15.5629 2.49912 15.5521 2.51578C15.5302 2.55085 15.5117 2.58797 15.497 2.62661C15.4906 2.6439 15.4829 2.65992 15.4777 2.67786C15.4602 2.7354 15.4509 2.79515 15.4502 2.85531V6.266C15.4501 6.3981 15.4909 6.527 15.5669 6.63503C15.643 6.74306 15.7506 6.82494 15.8749 6.86946ZM16.7314 3.76756L19.7866 4.85662V6.90662L16.7314 5.81756V3.76756ZM21.0678 6.90662V4.85854L24.1236 3.76948V5.81948L21.0678 6.90662ZM20.4272 1.99111L22.8616 2.85979L20.4272 3.72784L17.9928 2.85979L20.4272 1.99111Z" fill="#7B36B6"/>
<path d="M40.2562 2.68106C40.2511 2.66312 40.2434 2.64711 40.237 2.62981C40.2223 2.59117 40.2038 2.55406 40.1819 2.51898C40.171 2.50232 40.1608 2.48567 40.1486 2.47029C40.122 2.4359 40.0917 2.40454 40.0583 2.37676C40.0461 2.36587 40.0359 2.3537 40.023 2.34409L40.0122 2.33512C39.9672 2.30348 39.9183 2.27786 39.8667 2.25889L39.859 2.25504L35.522 0.70473C35.3825 0.655389 35.2304 0.655389 35.0909 0.70473L30.7545 2.25504H30.7481C30.6959 2.27422 30.6463 2.30006 30.6007 2.33192L30.5905 2.34089C30.5779 2.3511 30.5659 2.36201 30.5546 2.37356C30.5214 2.40135 30.4913 2.43271 30.4649 2.46709C30.4529 2.48265 30.4418 2.49891 30.4316 2.51578C30.4094 2.55071 30.391 2.58785 30.3765 2.62661C30.3692 2.64332 30.3628 2.66043 30.3573 2.67786C30.3395 2.73537 30.33 2.79512 30.3291 2.85531V6.266C30.3291 6.39818 30.37 6.52713 30.4461 6.63517C30.5223 6.74321 30.63 6.82505 30.7545 6.86946L35.0909 8.41786H35.1024C35.2344 8.46482 35.3785 8.46482 35.5105 8.41786H35.522L39.859 6.86946C39.9834 6.82494 40.091 6.74306 40.167 6.63503C40.2431 6.527 40.2838 6.3981 40.2838 6.266V2.85851C40.2831 2.79835 40.2738 2.7386 40.2562 2.68106ZM35.3068 1.98982L37.7411 2.85851L35.3068 3.72656L32.8724 2.85851L35.3068 1.98982ZM31.6104 3.76756L34.6661 4.85662V6.90662L31.6104 5.81756V3.76756ZM35.9474 6.90662V4.85854L39.0025 3.76948V5.81948L35.9474 6.90662Z" fill="#7B36B6"/>
<path d="M1.14055 22.7787L5.47759 24.3277H5.48912C5.62109 24.3747 5.76522 24.3747 5.89719 24.3277H5.90873L10.2451 22.7787C10.3696 22.7343 10.4773 22.6524 10.5535 22.5444C10.6296 22.4363 10.6705 22.3074 10.6705 22.1752V18.7703C10.6695 18.7104 10.6602 18.6509 10.6429 18.5935C10.6372 18.5755 10.6301 18.5589 10.6231 18.5416C10.6086 18.5032 10.5903 18.4663 10.5686 18.4314C10.5577 18.4141 10.5469 18.3981 10.5347 18.3821C10.5081 18.348 10.4781 18.3169 10.445 18.2892C10.4337 18.2776 10.4217 18.2667 10.4091 18.2565L10.3989 18.2469C10.3537 18.2155 10.3046 18.19 10.2528 18.1713L10.2451 18.1668L5.90873 16.6159C5.76925 16.5665 5.61706 16.5665 5.47759 16.6159L1.14055 18.1643L1.13479 18.1681C1.08236 18.1865 1.03277 18.2122 0.987445 18.2443L0.976555 18.2539C0.963742 18.2635 0.952852 18.2757 0.94068 18.2866C0.907604 18.3143 0.877542 18.3455 0.850992 18.3795C0.83882 18.3955 0.82857 18.4115 0.81768 18.4288C0.796021 18.4638 0.777581 18.5007 0.762586 18.539C0.75618 18.5563 0.748492 18.573 0.743367 18.5909C0.725807 18.6482 0.716531 18.7078 0.71582 18.7677V22.1752C0.715755 22.3073 0.756532 22.4362 0.832567 22.5442C0.908602 22.6523 1.01618 22.7342 1.14055 22.7787ZM1.99707 19.6774L5.05221 20.7665V22.8165L1.99707 21.7274V19.6774ZM6.33346 22.8165V20.7684L9.38924 19.6793V21.7293L6.33346 22.8165ZM5.69284 17.901L8.12721 18.769L5.69284 19.6377L3.26102 18.7703L5.69284 17.901Z" fill="#7B36B6"/>
<path d="M40.237 18.539C40.222 18.5007 40.2036 18.4638 40.1819 18.4288C40.171 18.4115 40.1608 18.3955 40.1486 18.3795C40.1221 18.3455 40.092 18.3143 40.0589 18.2866C40.0467 18.2757 40.0359 18.2635 40.023 18.2539L40.0122 18.2443C39.967 18.2128 39.9179 18.1873 39.8661 18.1687L39.859 18.1643L35.522 16.6159C35.3825 16.5665 35.2304 16.5665 35.0909 16.6159L30.7545 18.1643L30.75 18.1681C30.6977 18.1868 30.6481 18.2124 30.6027 18.2443L30.5924 18.2539C30.5798 18.2642 30.5679 18.2751 30.5565 18.2866C30.5235 18.3143 30.4934 18.3455 30.4668 18.3795C30.4547 18.3955 30.4438 18.4115 30.4329 18.4288C30.4112 18.4637 30.3929 18.5006 30.3784 18.539C30.3714 18.5563 30.3643 18.573 30.3586 18.5909C30.3413 18.6483 30.3321 18.7078 30.331 18.7677V22.1752C30.331 22.3074 30.3719 22.4363 30.448 22.5444C30.5242 22.6524 30.6319 22.7343 30.7564 22.7787L35.0928 24.3277H35.1043C35.2363 24.3747 35.3804 24.3747 35.5124 24.3277H35.5239L39.861 22.7787C39.9853 22.7342 40.0929 22.6523 40.169 22.5442C40.245 22.4362 40.2858 22.3073 40.2857 22.1752V18.7703C40.285 18.7103 40.2757 18.6508 40.2582 18.5935C40.2511 18.573 40.2434 18.5563 40.237 18.539ZM35.3042 17.8984L37.7386 18.7664L35.3042 19.6351L32.8698 18.7664L35.3042 17.8984ZM31.6078 19.6761L34.6636 20.7652V22.8152L31.6078 21.7261V19.6761ZM35.9448 22.8152V20.7684L39 19.6793V21.7293L35.9448 22.8152Z" fill="#7B36B6"/>
<path d="M10.6231 34.5047C10.6084 34.4665 10.5902 34.4299 10.5686 34.3951C10.5577 34.3778 10.5469 34.3618 10.5347 34.3458C10.5081 34.3116 10.4781 34.2802 10.445 34.2523C10.4328 34.242 10.4226 34.2299 10.4091 34.2202L10.3989 34.2106C10.3537 34.1792 10.3046 34.1538 10.2528 34.135L10.2451 34.1306L5.90873 32.5822C5.76925 32.5328 5.61706 32.5328 5.47759 32.5822L1.14055 34.1306H1.13479C1.08245 34.1495 1.03289 34.1753 0.987445 34.2074L0.976555 34.217C0.963742 34.2267 0.952852 34.2388 0.94068 34.2491C0.90759 34.277 0.877529 34.3084 0.850992 34.3426C0.83882 34.3586 0.82857 34.3746 0.81768 34.3919C0.79615 34.4268 0.777715 34.4634 0.762586 34.5015C0.75618 34.5194 0.748492 34.5354 0.743367 34.554C0.725807 34.6113 0.716531 34.6709 0.71582 34.7308V38.1383C0.715755 38.2704 0.756532 38.3993 0.832567 38.5073C0.908602 38.6154 1.01618 38.6973 1.14055 38.7418L5.47759 40.2953H5.48912C5.62109 40.3423 5.76522 40.3423 5.89719 40.2953H5.90873L10.2451 38.7463C10.3696 38.7019 10.4773 38.62 10.5535 38.512C10.6296 38.4039 10.6705 38.275 10.6705 38.1428V34.734C10.6695 34.6741 10.6602 34.6146 10.6429 34.5572C10.6372 34.5386 10.6301 34.5226 10.6231 34.5047ZM5.69027 33.8641L8.12465 34.7321L5.69027 35.6008L3.2559 34.7321L5.69027 33.8641ZM1.99707 35.6431L5.05221 36.7321V38.7821L1.99707 37.6931V35.6431ZM6.33346 38.7821V36.7347L9.38924 35.6456V37.6956L6.33346 38.7821Z" fill="#7B36B6"/>
<path d="M25.3575 34.5047C25.3428 34.4665 25.3246 34.4299 25.303 34.3951C25.2921 34.3778 25.2812 34.3618 25.2691 34.3458C25.2425 34.3116 25.2125 34.2802 25.1794 34.2523C25.1672 34.242 25.1569 34.2299 25.1435 34.2202L25.1332 34.2106C25.0881 34.1791 25.039 34.1536 24.9872 34.135L24.9795 34.1306L20.6431 32.5822C20.5036 32.5328 20.3514 32.5328 20.212 32.5822L15.8749 34.1306L15.8692 34.1344C15.8167 34.1528 15.7671 34.1785 15.7218 34.2106L15.7109 34.2202C15.6981 34.2299 15.6872 34.242 15.6751 34.2523C15.642 34.2802 15.6119 34.3116 15.5854 34.3458C15.5732 34.3618 15.5629 34.3778 15.5521 34.3951C15.5305 34.43 15.5121 34.4666 15.497 34.5047C15.4906 34.5226 15.4829 34.5386 15.4777 34.5572C15.4602 34.6145 15.4509 34.6741 15.4502 34.734V38.1415C15.4501 38.2736 15.4909 38.4025 15.5669 38.5105C15.643 38.6186 15.7506 38.7005 15.8749 38.745L20.212 40.294H20.2235C20.3555 40.341 20.4996 40.341 20.6316 40.294H20.6431L24.9795 38.745C25.104 38.7006 25.2117 38.6187 25.2879 38.5107C25.364 38.4027 25.4049 38.2737 25.4049 38.1415V34.734C25.4038 34.6741 25.3946 34.6146 25.3773 34.5572C25.3684 34.5386 25.3645 34.5226 25.3575 34.5047ZM20.4246 33.8641L22.859 34.7321L20.4246 35.6008L17.9903 34.7321L20.4246 33.8641ZM16.7289 35.6412L19.784 36.7302V38.7802L16.7289 37.6912V35.6412ZM21.0653 38.7802V36.7347L24.1211 35.6456V37.6956L21.0653 38.7802Z" fill="#7B36B6"/>
<path d="M30.7545 34.1306H30.7481C30.6959 34.1497 30.6463 34.1756 30.6007 34.2074L30.5905 34.217C30.577 34.2267 30.5668 34.2388 30.5546 34.2491C30.5215 34.277 30.4915 34.3084 30.4649 34.3426C30.4528 34.3586 30.4419 34.3746 30.431 34.3919C30.4094 34.4266 30.3912 34.4633 30.3765 34.5015C30.3695 34.5194 30.3624 34.5354 30.3567 34.554C30.3394 34.6114 30.3301 34.6709 30.3291 34.7308V38.1383C30.3291 38.2705 30.37 38.3994 30.4461 38.5075C30.5223 38.6155 30.63 38.6974 30.7545 38.7418L35.0909 40.2953H35.1024C35.2344 40.3423 35.3785 40.3423 35.5105 40.2953H35.522L39.859 38.7463C39.9834 38.7017 40.091 38.6199 40.167 38.5118C40.2431 38.4038 40.2838 38.2749 40.2838 38.1428V34.734C40.2831 34.6741 40.2738 34.6145 40.2562 34.5572C40.2511 34.5386 40.2434 34.5226 40.237 34.5047C40.2219 34.4666 40.2035 34.43 40.1819 34.3951C40.171 34.3778 40.1608 34.3618 40.1486 34.3458C40.1221 34.3116 40.092 34.2802 40.0589 34.2523C40.0468 34.242 40.0359 34.2299 40.023 34.2202L40.0122 34.2106C39.967 34.1791 39.9179 34.1536 39.8661 34.135L39.859 34.1306L35.522 32.5822C35.3825 32.5328 35.2304 32.5328 35.0909 32.5822L30.7545 34.1306ZM35.3068 33.866L37.7411 34.734L35.3068 35.6027L32.8724 34.734L35.3068 33.866ZM31.6104 35.6431L34.6661 36.7321V38.7821L31.6104 37.6931V35.6431ZM35.9474 38.7821V36.7347L39.0025 35.6456V37.6956L35.9474 38.7821Z" fill="#7B36B6"/>
<path d="M27.8719 26.9446C27.8128 26.8834 27.7421 26.8346 27.664 26.801C27.5858 26.7675 27.5018 26.7498 27.4167 26.749C27.3316 26.7483 27.2473 26.7645 27.1685 26.7967C27.0898 26.8289 27.0183 26.8765 26.9581 26.9367C26.898 26.9968 26.8504 27.0683 26.8182 27.1471C26.786 27.2258 26.7698 27.3102 26.7705 27.3952C26.7713 27.4803 26.7889 27.5643 26.8225 27.6425C26.8561 27.7207 26.9049 27.7913 26.9661 27.8504L27.0116 27.8959C27.1324 28.0126 27.2942 28.0772 27.4622 28.0757C27.6302 28.0743 27.7908 28.0069 27.9096 27.8881C28.0284 27.7693 28.0958 27.6087 28.0972 27.4407C28.0987 27.2727 28.0341 27.1109 27.9174 26.9901L27.8719 26.9446Z" fill="#7B36B6"/>
<path d="M26.3933 25.4655C26.2725 25.3488 26.1106 25.2842 25.9427 25.2857C25.7747 25.2871 25.614 25.3545 25.4953 25.4733C25.3765 25.5921 25.3091 25.7527 25.3076 25.9207C25.3062 26.0887 25.3708 26.2505 25.4874 26.3713L25.5323 26.4162C25.6524 26.5364 25.8154 26.6039 25.9853 26.604C26.1552 26.6041 26.3182 26.5366 26.4385 26.4165C26.5587 26.2964 26.6262 26.1334 26.6263 25.9635C26.6263 25.7935 26.5589 25.6305 26.4388 25.5103L26.3933 25.4655Z" fill="#7B36B6"/>
<path d="M30.9271 30.032L30.8816 29.9865C30.7608 29.8698 30.5989 29.8052 30.431 29.8067C30.263 29.8081 30.1023 29.8755 29.9835 29.9943C29.8648 30.1131 29.7974 30.2737 29.7959 30.4417C29.7945 30.6097 29.859 30.7715 29.9757 30.8923L30.0212 30.9378C30.142 31.0545 30.3039 31.1191 30.4718 31.1176C30.6398 31.1161 30.8005 31.0488 30.9193 30.93C31.038 30.8112 31.1054 30.6505 31.1069 30.4826C31.1083 30.3146 31.0438 30.1528 30.9271 30.032Z" fill="#7B36B6"/>
<path d="M31.9478 32.6641C32.0745 32.664 32.1983 32.6265 32.3036 32.5561C32.4089 32.4857 32.491 32.3856 32.5395 32.2686C32.588 32.1515 32.6007 32.0228 32.576 31.8985C32.5512 31.7743 32.4903 31.6601 32.4007 31.5705L32.3552 31.525C32.2344 31.4084 32.0726 31.3438 31.9046 31.3452C31.7366 31.3467 31.5759 31.4141 31.4572 31.5329C31.3384 31.6516 31.271 31.8123 31.2696 31.9803C31.2681 32.1482 31.3327 32.3101 31.4494 32.4309L31.4948 32.4764C31.615 32.5965 31.7779 32.664 31.9478 32.6641Z" fill="#7B36B6"/>
<path d="M29.3403 28.4906C29.2815 28.4329 29.2117 28.3875 29.135 28.3573C29.0583 28.3271 28.9763 28.3126 28.8939 28.3147C28.8115 28.3167 28.7303 28.3354 28.6552 28.3695C28.5802 28.4035 28.5127 28.4524 28.4569 28.513C28.3395 28.6406 28.2763 28.8087 28.2805 28.982C28.2847 29.1553 28.3559 29.3202 28.4793 29.4419C28.6002 29.5586 28.762 29.6232 28.9299 29.6217C29.0979 29.6203 29.2586 29.5529 29.3774 29.4341C29.4961 29.3154 29.5635 29.1547 29.565 28.9867C29.5664 28.8187 29.5019 28.6569 29.3852 28.5361L29.3403 28.4906Z" fill="#7B36B6"/>
<path d="M10.3592 9.4319C10.3001 9.37072 10.2294 9.32191 10.1513 9.28834C10.0731 9.25476 9.98907 9.23709 9.904 9.23635C9.81894 9.23561 9.73458 9.25182 9.65585 9.28403C9.57712 9.31624 9.5056 9.36381 9.44545 9.42396C9.3853 9.48411 9.33773 9.55564 9.30552 9.63437C9.27331 9.7131 9.2571 9.79746 9.25784 9.88252C9.25858 9.96758 9.27625 10.0516 9.30982 10.1298C9.3434 10.208 9.3922 10.2787 9.45339 10.3377L9.49887 10.3832C9.55839 10.4427 9.62905 10.4899 9.7068 10.5221C9.78455 10.5542 9.86788 10.5708 9.95202 10.5707C10.0362 10.5707 10.1195 10.5541 10.1972 10.5219C10.2749 10.4897 10.3456 10.4424 10.405 10.3829C10.4645 10.3234 10.5117 10.2527 10.5439 10.175C10.576 10.0972 10.5926 10.0139 10.5925 9.92976C10.5925 9.84562 10.5759 9.7623 10.5437 9.68457C10.5115 9.60685 10.4642 9.53623 10.4047 9.47675L10.3592 9.4319Z" fill="#7B36B6"/>
<path d="M8.04987 8.02756C7.92977 8.1477 7.8623 8.31061 7.8623 8.48049C7.8623 8.65036 7.92977 8.81327 8.04987 8.93341L8.09535 8.97889C8.15492 9.03837 8.22561 9.08553 8.3034 9.11769C8.38119 9.14985 8.46456 9.16637 8.54873 9.16631C8.6329 9.16625 8.71624 9.14961 8.79399 9.11734C8.87173 9.08508 8.94236 9.03781 9.00184 8.97825C9.06132 8.91869 9.10848 8.84799 9.14064 8.7702C9.1728 8.69241 9.18932 8.60905 9.18926 8.52488C9.1892 8.4407 9.17256 8.35736 9.14029 8.27962C9.10803 8.20187 9.06076 8.13125 9.0012 8.07177L8.95571 8.02628C8.83541 7.90635 8.6724 7.83912 8.50253 7.83936C8.33266 7.8396 8.16984 7.90729 8.04987 8.02756Z" fill="#7B36B6"/>
<path d="M13.7097 14.596C13.8305 14.7127 13.9923 14.7773 14.1603 14.7758C14.3283 14.7744 14.489 14.707 14.6077 14.5882C14.7265 14.4694 14.7939 14.3087 14.7953 14.1408C14.7968 13.9728 14.7322 13.811 14.6155 13.6902L14.57 13.6447C14.4492 13.528 14.2874 13.4634 14.1194 13.4649C13.9515 13.4663 13.7908 13.5337 13.672 13.6525C13.5532 13.7713 13.4859 13.9319 13.4844 14.0999C13.4829 14.2679 13.5475 14.4297 13.6642 14.5505L13.7097 14.596Z" fill="#7B36B6"/>
<path d="M12.3073 13.1917C12.4282 13.3084 12.59 13.373 12.758 13.3715C12.9259 13.3701 13.0866 13.3027 13.2054 13.1839C13.3242 13.0651 13.3915 12.9044 13.393 12.7365C13.3945 12.5685 13.3299 12.4067 13.2132 12.2859L13.1677 12.2404C13.0469 12.1237 12.8851 12.0591 12.7171 12.0606C12.5491 12.062 12.3884 12.1294 12.2697 12.2482C12.1509 12.367 12.0835 12.5276 12.0821 12.6956C12.0806 12.8636 12.1452 13.0254 12.2619 13.1462L12.3073 13.1917Z" fill="#7B36B6"/>
<path d="M11.3567 11.9745C11.4833 11.9745 11.6072 11.9369 11.7125 11.8665C11.8178 11.7961 11.8999 11.6961 11.9484 11.579C11.9969 11.462 12.0096 11.3332 11.9848 11.209C11.9601 11.0847 11.8991 10.9706 11.8096 10.881L11.7641 10.8361C11.7054 10.7782 11.6356 10.7327 11.5588 10.7024C11.4821 10.6721 11.4001 10.6575 11.3176 10.6596C11.2352 10.6617 11.154 10.6804 11.0789 10.7146C11.0038 10.7488 10.9364 10.7977 10.8807 10.8586C10.7632 10.9861 10.7 11.1543 10.7043 11.3277C10.7086 11.501 10.7801 11.6659 10.9037 11.7875C10.9631 11.847 11.0337 11.8942 11.1115 11.9264C11.1892 11.9585 11.2725 11.9748 11.3567 11.9745Z" fill="#7B36B6"/>
<path d="M12.9767 27.0986L12.9312 27.144C12.8717 27.2035 12.8244 27.2741 12.7921 27.3519C12.7599 27.4296 12.7432 27.513 12.7432 27.5971C12.7431 27.6813 12.7596 27.7647 12.7918 27.8425C12.8239 27.9203 12.8711 27.991 12.9306 28.0505C12.9901 28.1101 13.0607 28.1573 13.1384 28.1896C13.2162 28.2219 13.2995 28.2385 13.3837 28.2386C13.4679 28.2386 13.5512 28.2221 13.629 28.19C13.7068 28.1578 13.7775 28.1106 13.8371 28.0512L13.8826 28.0057C14.0028 27.8856 14.0705 27.7226 14.0706 27.5526C14.0707 27.3826 14.0033 27.2195 13.8832 27.0992C13.7631 26.9789 13.6001 26.9113 13.4301 26.9111C13.2601 26.911 13.097 26.9784 12.9767 27.0986Z" fill="#7B36B6"/>
<path d="M8.7125 31.3497C8.65114 31.4086 8.60212 31.4791 8.5683 31.5572C8.53447 31.6352 8.51653 31.7192 8.5155 31.8042C8.51448 31.8893 8.5304 31.9736 8.56233 32.0525C8.59426 32.1313 8.64157 32.203 8.70149 32.2633C8.76142 32.3237 8.83276 32.3715 8.91135 32.404C8.98995 32.4365 9.07422 32.453 9.15927 32.4525C9.24431 32.4521 9.32842 32.4348 9.40669 32.4015C9.48496 32.3682 9.55582 32.3197 9.61514 32.2588L9.66062 32.2139C9.71866 32.1554 9.76431 32.0857 9.79486 32.0091C9.82541 31.9325 9.84023 31.8506 9.83844 31.7681C9.83664 31.6857 9.81827 31.6045 9.78442 31.5293C9.75057 31.4541 9.70193 31.3865 9.6414 31.3305C9.51425 31.2127 9.34635 31.1489 9.17307 31.1525C8.99979 31.1561 8.83467 31.2268 8.7125 31.3497Z" fill="#7B36B6"/>
<path d="M11.5268 28.5455C11.4143 28.6666 11.3529 28.8266 11.3556 28.9919C11.3584 29.1572 11.4249 29.3151 11.5413 29.4325C11.6577 29.5499 11.815 29.6177 11.9803 29.6219C12.1455 29.626 12.306 29.566 12.4281 29.4545L12.4736 29.4091C12.5316 29.3505 12.5773 29.2808 12.6078 29.2042C12.6384 29.1277 12.6532 29.0457 12.6514 28.9633C12.6496 28.8808 12.6313 28.7996 12.5974 28.7244C12.5636 28.6492 12.5149 28.5816 12.4544 28.5256C12.3273 28.4082 12.1596 28.3446 11.9866 28.3483C11.8135 28.352 11.6487 28.4227 11.5268 28.5455Z" fill="#7B36B6"/>
<path d="M10.1639 29.9037L10.1184 29.9492C10.0572 30.0083 10.0084 30.079 9.97486 30.1571C9.94129 30.2353 9.92361 30.3194 9.92288 30.4044C9.92214 30.4895 9.93835 30.5738 9.97056 30.6526C10.0028 30.7313 10.0503 30.8028 10.1105 30.863C10.1706 30.9231 10.2422 30.9707 10.3209 31.0029C10.3996 31.0351 10.484 31.0513 10.569 31.0506C10.6541 31.0498 10.7382 31.0322 10.8163 30.9986C10.8945 30.965 10.9652 30.9162 11.0243 30.855L11.0698 30.8096C11.1865 30.6887 11.251 30.5269 11.2496 30.3589C11.2481 30.191 11.1807 30.0303 11.062 29.9115C10.9432 29.7927 10.7825 29.7254 10.6145 29.7239C10.4466 29.7224 10.2847 29.787 10.1639 29.9037Z" fill="#7B36B6"/>
<path d="M15.2892 25.6973C15.169 25.5772 15.0061 25.5098 14.8362 25.5098C14.6664 25.5098 14.5034 25.5772 14.3833 25.6973L14.3378 25.7428C14.2783 25.8025 14.231 25.8733 14.1989 25.9513C14.1667 26.0292 14.1501 26.1127 14.1502 26.1971C14.1503 26.2814 14.167 26.3649 14.1994 26.4427C14.2317 26.5206 14.2791 26.5913 14.3388 26.6509C14.3985 26.7105 14.4693 26.7577 14.5473 26.7899C14.6252 26.8221 14.7087 26.8386 14.793 26.8385C14.8774 26.8384 14.9608 26.8217 15.0387 26.7894C15.1166 26.757 15.1873 26.7096 15.2469 26.6499L15.2924 26.6045C15.3518 26.5447 15.3989 26.4739 15.4309 26.3959C15.4629 26.318 15.4793 26.2345 15.479 26.1502C15.4787 26.066 15.4618 25.9826 15.4292 25.9049C15.3966 25.8272 15.349 25.7566 15.2892 25.6973Z" fill="#7B36B6"/>
<path d="M26.8954 14.7747C27.0652 14.7746 27.2282 14.7071 27.3483 14.587L27.3938 14.5415C27.5105 14.4207 27.575 14.2588 27.5736 14.0909C27.5721 13.9229 27.5047 13.7622 27.386 13.6434C27.2672 13.5247 27.1065 13.4573 26.9385 13.4558C26.7706 13.4544 26.6087 13.5189 26.4879 13.6356L26.4424 13.6811C26.3529 13.7707 26.2919 13.8849 26.2672 14.0091C26.2425 14.1334 26.2551 14.2621 26.3036 14.3792C26.3521 14.4962 26.4342 14.5963 26.5395 14.6667C26.6448 14.7371 26.7687 14.7746 26.8954 14.7747Z" fill="#7B36B6"/>
<path d="M28.3022 13.3732C28.4721 13.3731 28.635 13.3056 28.7551 13.1855L28.8006 13.14C28.9124 13.0182 28.9727 12.8579 28.9691 12.6926C28.9654 12.5273 28.898 12.3699 28.781 12.2532C28.6639 12.1364 28.5062 12.0695 28.341 12.0663C28.1757 12.0631 28.0156 12.1239 27.8941 12.236L27.8492 12.2809C27.7595 12.3705 27.6983 12.4846 27.6734 12.609C27.6486 12.7334 27.6612 12.8623 27.7097 12.9795C27.7582 13.0966 27.8404 13.1968 27.9459 13.2672C28.0514 13.3376 28.1754 13.3752 28.3022 13.3751V13.3732Z" fill="#7B36B6"/>
<path d="M29.709 11.9708C29.8771 11.97 30.0382 11.903 30.1574 11.7844L30.2029 11.7396C30.2609 11.681 30.3066 11.6113 30.3371 11.5348C30.3677 11.4582 30.3825 11.3762 30.3807 11.2938C30.3789 11.2113 30.3606 11.1301 30.3267 11.0549C30.2929 10.9797 30.2442 10.9121 30.1837 10.8561C30.0566 10.7382 29.8887 10.6743 29.7153 10.6779C29.542 10.6815 29.3769 10.7523 29.2548 10.8754C29.1648 10.9646 29.1033 11.0785 29.0781 11.2026C29.0529 11.3268 29.065 11.4557 29.113 11.5729C29.161 11.6902 29.2427 11.7906 29.3478 11.8614C29.4528 11.9322 29.5765 11.9703 29.7032 11.9708H29.709Z" fill="#7B36B6"/>
<path d="M31.1152 10.5702C31.285 10.5702 31.448 10.5026 31.5681 10.3825L31.6136 10.337C31.6747 10.2779 31.7236 10.2072 31.7571 10.1291C31.7907 10.0509 31.8084 9.96685 31.8091 9.88179C31.8099 9.79673 31.7936 9.71237 31.7614 9.63364C31.7292 9.55491 31.6817 9.48338 31.6215 9.42323C31.5614 9.36308 31.4898 9.31551 31.4111 9.2833C31.3324 9.25109 31.248 9.23488 31.1629 9.23562C31.0779 9.23636 30.9938 9.25403 30.9157 9.28761C30.8375 9.32118 30.7668 9.36998 30.7077 9.43117L30.6622 9.47666C30.5727 9.56625 30.5117 9.68038 30.487 9.80464C30.4623 9.92889 30.4749 10.0577 30.5234 10.1747C30.5719 10.2918 30.654 10.3918 30.7593 10.4622C30.8646 10.5326 30.9885 10.5702 31.1152 10.5702Z" fill="#7B36B6"/>
<path d="M32.9743 8.97893L33.0197 8.93345C33.0809 8.87435 33.1297 8.80366 33.1633 8.72551C33.1969 8.64735 33.2145 8.56328 33.2153 8.47822C33.216 8.39316 33.1998 8.3088 33.1676 8.23007C33.1354 8.15134 33.0878 8.07982 33.0277 8.01967C32.9675 7.95952 32.896 7.91195 32.8173 7.87974C32.7385 7.84753 32.6542 7.83132 32.5691 7.83206C32.4841 7.83279 32.4 7.85047 32.3218 7.88404C32.2437 7.91762 32.173 7.96642 32.1139 8.02761L32.0684 8.07309C32.0072 8.13219 31.9584 8.20288 31.9248 8.28103C31.8913 8.35919 31.8736 8.44326 31.8729 8.52832C31.8721 8.61338 31.8883 8.69774 31.9205 8.77647C31.9527 8.8552 32.0003 8.92672 32.0605 8.98687C32.1206 9.04702 32.1921 9.09459 32.2709 9.1268C32.3496 9.15902 32.434 9.17522 32.519 9.17449C32.6041 9.17375 32.6881 9.15607 32.7663 9.1225C32.8445 9.08893 32.9152 9.04012 32.9743 8.97893Z" fill="#7B36B6"/>
<path d="M20.5243 29.0845C20.4399 29.0845 20.3564 29.1011 20.2784 29.1335C20.2005 29.1659 20.1297 29.2134 20.0702 29.2732C20.0107 29.3331 19.9636 29.4041 19.9316 29.4822C19.8996 29.5603 19.8833 29.6439 19.8837 29.7283V29.7924C19.8846 29.9617 19.9524 30.1238 20.0725 30.2433C20.1925 30.3627 20.355 30.4298 20.5243 30.4298C20.6942 30.4298 20.8572 30.3623 20.9773 30.2421C21.0975 30.122 21.165 29.9591 21.165 29.7892V29.7251C21.165 29.5552 21.0975 29.3922 20.9773 29.2721C20.8572 29.152 20.6942 29.0845 20.5243 29.0845Z" fill="#7B36B6"/>
<path d="M20.5295 31.0703C20.4451 31.0703 20.3615 31.087 20.2836 31.1194C20.2056 31.1518 20.1349 31.1993 20.0753 31.2591C20.0158 31.3189 19.9687 31.3899 19.9367 31.468C19.9047 31.5461 19.8884 31.6297 19.8888 31.7141V31.7782C19.8888 31.9481 19.9563 32.1111 20.0765 32.2312C20.1966 32.3513 20.3596 32.4188 20.5295 32.4188H20.5327C20.6168 32.4184 20.7 32.4014 20.7776 32.3688C20.8551 32.3363 20.9255 32.2887 20.9847 32.2289C21.0439 32.1691 21.0907 32.0983 21.1226 32.0204C21.1544 31.9425 21.1705 31.8591 21.1701 31.775V31.7109C21.1692 31.5416 21.1014 31.3795 20.9813 31.26C20.8613 31.1406 20.6988 31.0735 20.5295 31.0735V31.0703Z" fill="#7B36B6"/>
<path d="M20.5128 27.0984C20.4284 27.0984 20.3448 27.1151 20.2669 27.1475C20.189 27.1799 20.1182 27.2273 20.0587 27.2872C19.9992 27.347 19.952 27.418 19.92 27.4961C19.888 27.5742 19.8718 27.6578 19.8722 27.7422V27.8063C19.873 27.9756 19.9409 28.1378 20.0609 28.2572C20.181 28.3766 20.3435 28.4437 20.5128 28.4437H20.516C20.6854 28.4429 20.8475 28.375 20.9669 28.2549C21.0864 28.1349 21.1534 27.9724 21.1534 27.8031V27.739C21.1519 27.5696 21.084 27.4075 20.9641 27.2877C20.8443 27.1679 20.6822 27.0999 20.5128 27.0984Z" fill="#7B36B6"/>
<path d="M20.4355 12.0245C20.6055 12.0245 20.7684 11.957 20.8885 11.8369C21.0087 11.7167 21.0762 11.5538 21.0762 11.3839V11.3198C21.0762 11.1499 21.0087 10.987 20.8885 10.8668C20.7684 10.7467 20.6055 10.6792 20.4355 10.6792C20.2656 10.6792 20.1027 10.7467 19.9826 10.8668C19.8624 10.987 19.7949 11.1499 19.7949 11.3198V11.3839C19.7949 11.5538 19.8624 11.7167 19.9826 11.8369C20.1027 11.957 20.2656 12.0245 20.4355 12.0245Z" fill="#7B36B6"/>
<path d="M20.4319 10.0379C20.6013 10.0371 20.7634 9.9692 20.8828 9.84915C21.0023 9.7291 21.0693 9.56664 21.0693 9.39728V9.33322C21.0685 9.16387 21.0006 9.00175 20.8806 8.8823C20.7605 8.76285 20.5981 8.6958 20.4287 8.6958C20.2588 8.6958 20.0959 8.76329 19.9757 8.88344C19.8556 9.00358 19.7881 9.16652 19.7881 9.33643V9.40049C19.7881 9.57039 19.8556 9.73334 19.9757 9.85348C20.0959 9.97362 20.2588 10.0411 20.4287 10.0411L20.4319 10.0379Z" fill="#7B36B6"/>
<path d="M20.4453 14.0099C20.6152 14.0099 20.7782 13.9424 20.8983 13.8222C21.0185 13.7021 21.0859 13.5391 21.0859 13.3692V13.3052C21.0859 13.1353 21.0185 12.9723 20.8983 12.8522C20.7782 12.732 20.6152 12.6646 20.4453 12.6646C20.3609 12.6645 20.2774 12.6812 20.1994 12.7136C20.1215 12.746 20.0507 12.7935 19.9912 12.8533C19.9317 12.9131 19.8845 12.9841 19.8525 13.0622C19.8205 13.1403 19.8043 13.224 19.8047 13.3084V13.3724C19.8055 13.5418 19.8734 13.7039 19.9935 13.8234C20.1135 13.9428 20.276 14.0099 20.4453 14.0099Z" fill="#7B36B6"/>
<path d="M29.2129 19.9497C29.043 19.9497 28.88 20.0172 28.7599 20.1373C28.6398 20.2575 28.5723 20.4204 28.5723 20.5903C28.5723 20.7602 28.6398 20.9232 28.7599 21.0433C28.88 21.1635 29.043 21.231 29.2129 21.231H29.277C29.4469 21.231 29.6098 21.1635 29.7299 21.0433C29.8501 20.9232 29.9176 20.7602 29.9176 20.5903C29.9176 20.4204 29.8501 20.2575 29.7299 20.1373C29.6098 20.0172 29.4469 19.9497 29.277 19.9497H29.2129Z" fill="#7B36B6"/>
<path d="M11.8512 21.1126C12.0211 21.1126 12.184 21.0451 12.3042 20.9249C12.4243 20.8048 12.4918 20.6418 12.4918 20.4719C12.4918 20.302 12.4243 20.1391 12.3042 20.0189C12.184 19.8988 12.0211 19.8313 11.8512 19.8313H11.7871C11.6172 19.8313 11.4543 19.8988 11.3341 20.0189C11.214 20.1391 11.1465 20.302 11.1465 20.4719C11.1465 20.6418 11.214 20.8048 11.3341 20.9249C11.4543 21.0451 11.6172 21.1126 11.7871 21.1126H11.8512Z" fill="#7B36B6"/>
</g>
<defs>
<clipPath id="clip0_317_1079">
<rect width="41" height="41" fill="white"/>
</clipPath>
</defs>
</svg>
