<svg width="49" height="49" viewBox="0 0 49 49" fill="none" xmlns="http://www.w3.org/2000/svg">
<g clip-path="url(#clip0_317_1135)">
<path fill-rule="evenodd" clip-rule="evenodd" d="M17.9946 46.0722C12.8516 46.0722 8.68066 41.89 8.68066 36.7583C8.68066 31.6266 12.8516 27.4443 17.9946 27.4443C23.1263 27.4443 27.3086 31.6266 27.3086 36.7583C27.3425 41.89 23.1263 46.0722 17.9946 46.0722ZM17.9946 28.8346C13.6089 28.8346 10.071 32.3839 10.071 36.7583C10.071 41.1327 13.6089 44.6819 17.9946 44.6819C22.369 44.6819 25.907 41.1327 25.907 36.7583C25.907 32.3839 22.369 28.8346 17.9946 28.8346Z" fill="#7B36B6"/>
<path fill-rule="evenodd" clip-rule="evenodd" d="M23.0026 40.7031H13.0217C12.66 40.7031 12.3774 40.4658 12.3435 40.1041L11.541 34.6106C11.5071 34.3281 11.6201 34.0568 11.9027 33.8985C12.1401 33.729 12.4566 33.7742 12.6939 33.9324L15.565 36.2044L17.3961 31.8639C17.5092 31.6266 17.7578 31.4231 18.0291 31.4231C18.3117 31.4231 18.5491 31.5813 18.6734 31.8639L20.5045 36.2044L23.3643 33.9324C23.6017 33.7742 23.8842 33.729 24.1668 33.8985C24.4042 34.0568 24.5624 34.3281 24.5172 34.6106L23.726 40.1041C23.6469 40.4658 23.3304 40.7031 23.0026 40.7031ZM13.6095 39.3015H22.3696L22.8443 36.1253L20.6628 37.8773C20.5045 37.9903 20.2559 38.0695 20.0637 37.9903C19.8603 37.9564 19.6681 37.7982 19.589 37.5947L18.0291 33.9324L16.4806 37.5947C16.4014 37.7982 16.2432 37.9564 16.0058 37.9903C15.8024 38.0356 15.565 37.9903 15.4067 37.8773L13.18 36.1253L13.6095 39.3015Z" fill="#7B36B6"/>
<path fill-rule="evenodd" clip-rule="evenodd" d="M17.9946 48.9435C11.2691 48.9435 5.80957 43.484 5.80957 36.7585C5.80957 30.033 11.2691 24.5396 17.9946 24.5396C24.7201 24.5396 30.1683 30.033 30.1683 36.7585C30.2135 43.484 24.7201 48.9435 17.9946 48.9435ZM17.9946 25.9299C12.0603 25.9299 7.19988 30.7903 7.19988 36.7585C7.19988 42.7266 12.0603 47.5419 17.9946 47.5419C23.9627 47.5419 28.778 42.6927 28.778 36.7585C28.8232 30.7903 23.9627 25.9299 17.9946 25.9299Z" fill="#7B36B6"/>
<path fill-rule="evenodd" clip-rule="evenodd" d="M17.9949 28.8346C17.588 28.8346 17.2715 28.5181 17.2715 28.1225V25.2176C17.2715 24.8219 17.588 24.4941 17.9949 24.4941C18.3905 24.4941 18.707 24.8219 18.707 25.2176V28.1225C18.707 28.5181 18.3905 28.8346 17.9949 28.8346Z" fill="#7B36B6"/>
<path fill-rule="evenodd" clip-rule="evenodd" d="M24.1213 31.344C23.9631 31.344 23.7596 31.2649 23.6466 31.1519C23.364 30.8693 23.364 30.4285 23.6466 30.1572L25.6699 28.1226C25.9525 27.84 26.3933 27.84 26.6646 28.1226C26.9472 28.4052 26.9472 28.8347 26.6646 29.1173L24.6413 31.1519C24.483 31.3101 24.2796 31.344 24.1213 31.344Z" fill="#7B36B6"/>
<path fill-rule="evenodd" clip-rule="evenodd" d="M29.4904 37.4704H26.6307C26.2351 37.4704 25.9073 37.1539 25.9073 36.7583C25.9073 36.3626 26.2351 36.0461 26.6307 36.0461H29.4904C29.8973 36.0461 30.2138 36.3626 30.2138 36.7583C30.2138 37.1539 29.8973 37.4704 29.4904 37.4704Z" fill="#7B36B6"/>
<path fill-rule="evenodd" clip-rule="evenodd" d="M26.1559 45.5523C25.9977 45.5523 25.7942 45.4732 25.6699 45.3601L23.6466 43.3255C23.364 43.0429 23.364 42.6134 23.6466 42.3308C23.9179 42.0483 24.3587 42.0483 24.6413 42.3308L26.6646 44.3654C26.9472 44.6367 26.9472 45.0775 26.6646 45.3601C26.5063 45.5184 26.3142 45.5523 26.1559 45.5523Z" fill="#7B36B6"/>
<path fill-rule="evenodd" clip-rule="evenodd" d="M17.9949 48.9433C17.588 48.9433 17.2715 48.6155 17.2715 48.2199V45.3601C17.2715 44.9532 17.588 44.6367 17.9949 44.6367C18.3905 44.6367 18.707 44.9532 18.707 45.3601V48.2199C18.707 48.6155 18.3905 48.9433 17.9949 48.9433Z" fill="#7B36B6"/>
<path fill-rule="evenodd" clip-rule="evenodd" d="M9.86734 45.5523C9.7091 45.5523 9.51694 45.4732 9.3926 45.3601C9.11002 45.0775 9.11002 44.6367 9.3926 44.3654L11.4272 42.3308C11.6985 42.0483 12.1393 42.0483 12.4219 42.3308C12.6932 42.6134 12.6932 43.0429 12.4219 43.3255L10.3873 45.3601C10.229 45.5184 10.0256 45.5523 9.86734 45.5523Z" fill="#7B36B6"/>
<path fill-rule="evenodd" clip-rule="evenodd" d="M9.39273 37.4704H6.53298C6.12606 37.4704 5.80957 37.1539 5.80957 36.7583C5.80957 36.3626 6.12606 36.0461 6.53298 36.0461H9.39273C9.78835 36.0461 10.1048 36.3626 10.1048 36.7583C10.1048 37.1539 9.75444 37.4704 9.39273 37.4704Z" fill="#7B36B6"/>
<path fill-rule="evenodd" clip-rule="evenodd" d="M11.9019 31.344C11.7437 31.344 11.5402 31.2649 11.4272 31.1519L9.3926 29.1173C9.11002 28.8347 9.11002 28.4052 9.3926 28.1226C9.67519 27.84 10.1047 27.84 10.3873 28.1226L12.4219 30.1572C12.6932 30.4285 12.6932 30.8693 12.4219 31.1519C12.2637 31.3101 12.1054 31.344 11.9019 31.344Z" fill="#7B36B6"/>
<path fill-rule="evenodd" clip-rule="evenodd" d="M11.7445 20.719C6.80497 20.719 2.74707 16.695 2.74707 11.7668C2.74707 6.82721 6.77106 2.80322 11.7445 2.80322C16.6728 2.80322 20.6968 6.82721 20.6968 11.7668C20.6968 16.695 16.6841 20.719 11.7445 20.719ZM11.7445 4.20484C7.5623 4.20484 4.13738 7.58454 4.13738 11.7668C4.13738 15.9377 7.52839 19.3287 11.7445 19.3287C15.9268 19.3287 19.3065 15.9377 19.3065 11.7668C19.3065 7.58454 15.8816 4.20484 11.7445 4.20484Z" fill="#7B36B6"/>
<path fill-rule="evenodd" clip-rule="evenodd" d="M16.4803 15.5421H6.92894C6.56723 15.5421 6.28465 15.3047 6.25074 14.943L5.49341 9.68696C5.4482 9.41568 5.57254 9.1331 5.85512 8.97485C6.09249 8.8166 6.40899 8.86182 6.64636 9.02006L9.35916 11.1677L11.0999 7.03067C11.2242 6.782 11.4616 6.58984 11.7442 6.58984C12.0154 6.58984 12.2641 6.74809 12.3772 7.03067L14.0953 11.2016L16.7968 9.05397C17.0341 8.89573 17.3167 8.86182 17.588 9.02006C17.8367 9.17831 17.9949 9.44959 17.9497 9.73217L17.1924 14.9882C17.1133 15.3047 16.842 15.5421 16.4803 15.5421ZM7.56193 14.1518H15.8812L16.322 11.2468L14.2535 12.8745C14.0953 12.9988 13.8466 13.078 13.6544 12.9988C13.451 12.9536 13.2588 12.7954 13.1797 12.6032L11.699 9.1331L10.2295 12.6032C10.1504 12.7954 9.99215 12.9536 9.75478 12.9988C9.55131 13.0328 9.31394 12.9988 9.1557 12.8745L7.08719 11.2468L7.56193 14.1518Z" fill="#7B36B6"/>
<path fill-rule="evenodd" clip-rule="evenodd" d="M11.7442 23.4656C5.28997 23.4656 0 18.2096 0 11.7667C0 5.31245 5.25606 0.0563965 11.7442 0.0563965C18.1871 0.0563965 23.4431 5.31245 23.4431 11.7667C23.4431 18.2096 18.1871 23.4656 11.7442 23.4656ZM11.7442 1.45801C6.04729 1.45801 1.39031 6.06978 1.39031 11.7667C1.39031 17.4522 6.01338 22.0753 11.7442 22.0753C17.4298 22.0753 22.0528 17.4522 22.0528 11.7667C22.0528 6.06978 17.3958 1.45801 11.7442 1.45801Z" fill="#7B36B6"/>
<path fill-rule="evenodd" clip-rule="evenodd" d="M36.7808 23.9856C31.649 23.9856 27.4668 19.8033 27.4668 14.6716C27.4668 9.5286 31.649 5.35767 36.7808 5.35767C41.9125 5.35767 46.0947 9.5286 46.0947 14.6716C46.0947 19.8033 41.9125 23.9856 36.7808 23.9856ZM36.7808 6.74798C32.3951 6.74798 28.8571 10.2859 28.8571 14.6716C28.8571 19.046 32.3951 22.584 36.7808 22.584C41.1551 22.584 44.7044 19.046 44.7044 14.6716C44.7044 10.2859 41.1551 6.74798 36.7808 6.74798Z" fill="#7B36B6"/>
<path fill-rule="evenodd" clip-rule="evenodd" d="M41.7548 18.6052H31.8079C31.4462 18.6052 31.1636 18.3678 31.1297 18.0061L30.3271 12.5579C30.2932 12.2753 30.4062 12.004 30.6888 11.8458C30.9262 11.6875 31.2427 11.7214 31.4801 11.8797L34.3511 14.1517L36.1823 9.77726C36.3066 9.52858 36.544 9.33643 36.8152 9.33643C37.0978 9.33643 37.3352 9.49467 37.4595 9.77726L39.2907 14.1517L42.1504 11.8797C42.3878 11.7214 42.6704 11.6875 42.953 11.8458C43.1903 12.004 43.3486 12.2753 43.3034 12.5579L42.5121 18.0061C42.3878 18.3678 42.1165 18.6052 41.7548 18.6052ZM32.3956 17.2149H41.1557L41.6305 14.0725L39.4489 15.8245C39.2907 15.9376 39.0533 16.0167 38.8498 15.9376C38.6464 15.9037 38.4542 15.7454 38.3751 15.542L36.8152 11.8458L35.2667 15.542C35.1876 15.7454 35.0293 15.9037 34.7919 15.9376C34.5885 15.9828 34.3511 15.9376 34.1929 15.8245L32 14.0725L32.3956 17.2149Z" fill="#7B36B6"/>
<path fill-rule="evenodd" clip-rule="evenodd" d="M36.7807 26.8453C30.0552 26.8453 24.5957 21.3971 24.5957 14.6716C24.5957 7.94609 30.0552 2.48657 36.7807 2.48657C43.5062 2.48657 48.9544 7.94609 48.9544 14.6716C48.9544 21.3971 43.5062 26.8453 36.7807 26.8453ZM36.7807 3.87688C30.8125 3.87688 25.9973 8.73732 25.9973 14.6716C25.9973 20.6397 30.8465 25.455 36.7807 25.455C42.715 25.455 47.5641 20.5945 47.5641 14.6716C47.5641 8.73732 42.715 3.87688 36.7807 3.87688Z" fill="#7B36B6"/>
<path fill-rule="evenodd" clip-rule="evenodd" d="M36.7811 6.74791C36.3855 6.74791 36.0577 6.43141 36.0577 6.06971V3.16475C36.0577 2.76913 36.3855 2.45264 36.7811 2.45264C37.1767 2.45264 37.4593 2.80304 37.4593 3.16475V6.0358C37.4593 6.43141 37.1767 6.74791 36.7811 6.74791Z" fill="#7B36B6"/>
<path fill-rule="evenodd" clip-rule="evenodd" d="M42.8731 9.25739C42.6696 9.25739 42.5114 9.17827 42.3871 9.05393C42.1158 8.77135 42.1158 8.34182 42.3871 8.05924L44.4217 6.06985C44.7042 5.78726 45.1338 5.78726 45.4164 6.06985C45.6989 6.35243 45.6989 6.78196 45.4164 7.06454L43.3817 9.05393C43.2235 9.21218 43.0653 9.25739 42.8731 9.25739Z" fill="#7B36B6"/>
<path fill-rule="evenodd" clip-rule="evenodd" d="M48.2882 15.3837H45.4172C45.0216 15.3837 44.7051 15.0672 44.7051 14.6716C44.7051 14.2647 45.0216 13.9934 45.4172 13.9934H48.2882C48.6839 13.9934 49.0003 14.3099 49.0003 14.7055C49.0003 15.1011 48.6386 15.3837 48.2882 15.3837Z" fill="#7B36B6"/>
<path fill-rule="evenodd" clip-rule="evenodd" d="M44.8964 23.4996C44.7381 23.4996 44.546 23.4205 44.4217 23.3075L42.3871 21.2729C42.1158 21.0016 42.1158 20.5608 42.3871 20.2782C42.6696 20.0069 43.1105 20.0069 43.3817 20.2782L45.4164 22.3128C45.6989 22.584 45.6989 23.0249 45.4164 23.3075C45.2581 23.4205 45.0999 23.4996 44.8964 23.4996Z" fill="#7B36B6"/>
<path fill-rule="evenodd" clip-rule="evenodd" d="M36.7811 26.8453C36.3855 26.8453 36.0577 26.5288 36.0577 26.1332V23.2622C36.0577 22.8665 36.3855 22.55 36.7811 22.55C37.1767 22.55 37.4932 22.8665 37.4932 23.2622V26.1332C37.4593 26.5288 37.1767 26.8453 36.7811 26.8453Z" fill="#7B36B6"/>
<path fill-rule="evenodd" clip-rule="evenodd" d="M28.6201 23.4996C28.4618 23.4996 28.2584 23.4205 28.1453 23.3075C27.8627 23.0249 27.8627 22.584 28.1453 22.3128L30.1686 20.2782C30.4512 20.0069 30.892 20.0069 31.1633 20.2782C31.4459 20.5608 31.4459 21.0016 31.1633 21.2729L29.14 23.3075C28.9818 23.4205 28.8235 23.4996 28.6201 23.4996Z" fill="#7B36B6"/>
<path fill-rule="evenodd" clip-rule="evenodd" d="M28.1457 15.3838H25.2746C24.879 15.3838 24.5625 15.0673 24.5625 14.6717C24.5625 14.2647 24.879 13.9482 25.2746 13.9482H28.1457C28.5413 13.9482 28.8578 14.2647 28.8578 14.6717C28.8578 15.0673 28.5413 15.3838 28.1457 15.3838Z" fill="#7B36B6"/>
<path fill-rule="evenodd" clip-rule="evenodd" d="M30.6886 9.25739C30.5303 9.25739 30.3269 9.17827 30.2138 9.05393L28.1792 7.06454C27.9079 6.78196 27.9079 6.35243 28.1792 6.06985C28.4618 5.78726 28.9026 5.78726 29.1739 6.06985L31.2085 8.05924C31.4798 8.34182 31.4798 8.77135 31.2085 9.05393C31.0503 9.21218 30.8468 9.25739 30.6886 9.25739Z" fill="#7B36B6"/>
</g>
<defs>
<clipPath id="clip0_317_1135">
<rect width="49" height="49" fill="white"/>
</clipPath>
</defs>
</svg>
