<svg width="289" height="325" viewBox="0 0 289 325" fill="none" xmlns="http://www.w3.org/2000/svg">
<path d="M1.26831 221.728C1.26831 218.696 2.73731 215.665 5.68696 213.893L127.323 140.454C137.909 134.065 151.153 134.065 161.738 140.454L283.375 213.893C286.324 215.677 287.794 218.696 287.794 221.728V238.667C287.794 241.582 286.266 244.287 283.771 245.792L161.738 319.475C151.153 325.863 137.909 325.863 127.323 319.475L5.29058 245.792C2.7956 244.287 1.26831 241.582 1.26831 238.667V221.728Z" stroke="#7B36B6" stroke-width="1.25" stroke-miterlimit="10"/>
<path d="M5.69795 213.882C2.74829 215.665 1.2793 218.685 1.2793 221.716C1.2793 224.748 2.74829 227.779 5.69795 229.551L127.333 302.99C137.92 309.377 151.164 309.377 161.75 302.99L283.386 229.551C286.335 227.767 287.805 224.748 287.805 221.716C287.805 218.685 286.335 215.654 283.386 213.882" stroke="#7B36B6" stroke-width="1.25" stroke-miterlimit="10"/>
<path d="M50.3391 272.99L58.6401 277.993V261.531L50.3391 256.518V272.99Z" fill="#7B36B6" stroke="#7B36B6" stroke-width="1.25" stroke-miterlimit="10"/>
<path d="M35.3344 247.458L5.69795 229.562C2.74829 227.779 1.2793 224.759 1.2793 221.728V238.667C1.2793 241.582 2.80659 244.287 5.30155 245.792L35.3344 263.932V247.458Z" fill="#7B36B6" stroke="#7B36B6" stroke-width="1.25" stroke-miterlimit="10"/>
<path d="M127.334 303.001V319.475" stroke="#7B36B6" stroke-width="1.25" stroke-miterlimit="10"/>
<mask id="mask0_362_1431" style="mask-type:luminance" maskUnits="userSpaceOnUse" x="161" y="229" width="123" height="91">
<path d="M161.75 303.001L283.386 229.562L283.782 245.792L161.75 319.475V303.001Z" fill="white"/>
</mask>
<g mask="url(#mask0_362_1431)">
<path d="M278.536 236.592C277.789 236.592 277.182 237.199 277.182 237.944C277.182 238.691 277.789 239.298 278.536 239.298C279.281 239.298 279.888 238.691 279.888 237.944C279.888 237.199 279.281 236.592 278.536 236.592ZM279.888 232.313C279.888 233.06 279.281 233.666 278.536 233.666C277.789 233.666 277.182 233.06 277.182 232.313C277.182 231.568 277.789 230.961 278.536 230.961C279.281 230.961 279.888 231.568 279.888 232.313Z" fill="#7B36B6"/>
<path d="M278.536 247.856C277.789 247.856 277.182 248.461 277.182 249.208C277.182 249.953 277.789 250.56 278.536 250.56C279.281 250.56 279.888 249.953 279.888 249.208C279.888 248.461 279.281 247.856 278.536 247.856ZM279.888 243.577C279.888 244.322 279.281 244.929 278.536 244.929C277.789 244.929 277.182 244.322 277.182 243.577C277.182 242.83 277.789 242.223 278.536 242.223C279.281 242.223 279.888 242.83 279.888 243.577Z" fill="#7B36B6"/>
<path d="M274.257 237.944C274.257 238.691 273.65 239.298 272.903 239.298C272.158 239.298 271.551 238.691 271.551 237.944C271.551 237.199 272.158 236.592 272.903 236.592C273.65 236.592 274.257 237.199 274.257 237.944Z" fill="#7B36B6"/>
<path d="M267.272 247.856C266.527 247.856 265.92 248.461 265.92 249.208C265.92 249.953 266.527 250.56 267.272 250.56C268.019 250.56 268.626 249.953 268.626 249.208C268.626 248.461 268.019 247.856 267.272 247.856ZM274.257 249.208C274.257 249.953 273.65 250.56 272.905 250.56C272.158 250.56 271.551 249.953 271.551 249.208C271.551 248.461 272.158 247.856 272.905 247.856C273.65 247.856 274.257 248.461 274.257 249.208ZM274.257 243.577C274.257 244.322 273.65 244.929 272.905 244.929C272.158 244.929 271.551 244.322 271.551 243.577C271.551 242.83 272.158 242.223 272.905 242.223C273.65 242.223 274.257 242.83 274.257 243.577ZM268.626 243.577C268.626 244.322 268.019 244.929 267.272 244.929C266.527 244.929 265.92 244.322 265.92 243.577C265.92 242.83 266.527 242.223 267.272 242.223C268.019 242.223 268.626 242.83 268.626 243.577Z" fill="#7B36B6"/>
<path d="M268.626 254.827C268.626 255.573 268.019 256.18 267.272 256.18C266.527 256.18 265.92 255.573 265.92 254.827C265.92 254.081 266.527 253.475 267.272 253.475C268.019 253.475 268.626 254.081 268.626 254.827Z" fill="#7B36B6"/>
<path d="M256.022 247.856C255.276 247.856 254.67 248.461 254.67 249.208C254.67 249.953 255.276 250.56 256.022 250.56C256.769 250.56 257.374 249.953 257.374 249.208C257.374 248.461 256.769 247.856 256.022 247.856ZM263.005 249.208C263.005 249.953 262.4 250.56 261.653 250.56C260.907 250.56 260.301 249.953 260.301 249.208C260.301 248.461 260.907 247.856 261.653 247.856C262.4 247.856 263.005 248.461 263.005 249.208ZM263.005 243.577C263.005 244.322 262.4 244.929 261.653 244.929C260.907 244.929 260.301 244.322 260.301 243.577C260.301 242.83 260.907 242.223 261.653 242.223C262.4 242.223 263.005 242.83 263.005 243.577Z" fill="#7B36B6"/>
<path d="M256.022 259.106C255.276 259.106 254.67 259.711 254.67 260.458C254.67 261.204 255.276 261.811 256.022 261.811C256.769 261.811 257.374 261.204 257.374 260.458C257.374 259.711 256.769 259.106 256.022 259.106ZM263.005 254.827C263.005 255.573 262.4 256.18 261.653 256.18C260.907 256.18 260.301 255.573 260.301 254.827C260.301 254.081 260.907 253.475 261.653 253.475C262.4 253.475 263.005 254.081 263.005 254.827ZM257.374 254.827C257.374 255.573 256.769 256.18 256.022 256.18C255.276 256.18 254.67 255.573 254.67 254.827C254.67 254.081 255.276 253.475 256.022 253.475C256.769 253.475 257.374 254.081 257.374 254.827Z" fill="#7B36B6"/>
<path d="M251.743 249.208C251.743 249.953 251.138 250.56 250.391 250.56C249.646 250.56 249.039 249.953 249.039 249.208C249.039 248.461 249.646 247.856 250.391 247.856C251.138 247.856 251.743 248.461 251.743 249.208Z" fill="#7B36B6"/>
<path d="M244.76 259.106C244.015 259.106 243.408 259.711 243.408 260.458C243.408 261.204 244.015 261.811 244.76 261.811C245.507 261.811 246.112 261.204 246.112 260.458C246.112 259.711 245.507 259.106 244.76 259.106ZM251.743 260.458C251.743 261.204 251.138 261.811 250.391 261.811C249.646 261.811 249.039 261.204 249.039 260.458C249.039 259.711 249.646 259.106 250.391 259.106C251.138 259.106 251.743 259.711 251.743 260.458ZM251.743 254.827C251.743 255.573 251.138 256.18 250.391 256.18C249.646 256.18 249.039 255.573 249.039 254.827C249.039 254.081 249.646 253.475 250.391 253.475C251.138 253.475 251.743 254.081 251.743 254.827ZM246.112 254.827C246.112 255.573 245.507 256.18 244.76 256.18C244.015 256.18 243.408 255.573 243.408 254.827C243.408 254.081 244.015 253.475 244.76 253.475C245.507 253.475 246.112 254.081 246.112 254.827Z" fill="#7B36B6"/>
<path d="M251.743 266.089C251.743 266.836 251.138 267.441 250.391 267.441C249.646 267.441 249.039 266.836 249.039 266.089C249.039 265.342 249.646 264.737 250.391 264.737C251.138 264.737 251.743 265.342 251.743 266.089ZM246.112 266.089C246.112 266.836 245.507 267.441 244.76 267.441C244.015 267.441 243.408 266.836 243.408 266.089C243.408 265.342 244.015 264.737 244.76 264.737C245.507 264.737 246.112 265.342 246.112 266.089Z" fill="#7B36B6"/>
<path d="M233.509 259.106C232.762 259.106 232.157 259.711 232.157 260.458C232.157 261.204 232.762 261.811 233.509 261.811C234.255 261.811 234.862 261.204 234.862 260.458C234.862 259.711 234.255 259.106 233.509 259.106ZM240.493 260.458C240.493 261.204 239.886 261.811 239.14 261.811C238.393 261.811 237.788 261.204 237.788 260.458C237.788 259.711 238.393 259.106 239.14 259.106C239.886 259.106 240.493 259.711 240.493 260.458Z" fill="#7B36B6"/>
<path d="M233.509 270.368C232.762 270.368 232.157 270.975 232.157 271.72C232.157 272.467 232.762 273.072 233.509 273.072C234.255 273.072 234.862 272.467 234.862 271.72C234.862 270.975 234.255 270.368 233.509 270.368ZM240.493 271.72C240.493 272.467 239.886 273.072 239.14 273.072C238.393 273.072 237.788 272.467 237.788 271.72C237.788 270.975 238.393 270.368 239.14 270.368C239.886 270.368 240.493 270.975 240.493 271.72ZM240.493 266.089C240.493 266.836 239.886 267.441 239.14 267.441C238.393 267.441 237.788 266.836 237.788 266.089C237.788 265.342 238.393 264.737 239.14 264.737C239.886 264.737 240.493 265.342 240.493 266.089ZM234.862 266.089C234.862 266.836 234.255 267.441 233.509 267.441C232.762 267.441 232.157 266.836 232.157 266.089C232.157 265.342 232.762 264.737 233.509 264.737C234.255 264.737 234.862 265.342 234.862 266.089Z" fill="#7B36B6"/>
<path d="M222.248 270.368C221.501 270.368 220.895 270.975 220.895 271.72C220.895 272.467 221.501 273.072 222.248 273.072C222.993 273.072 223.6 272.467 223.6 271.72C223.6 270.975 222.993 270.368 222.248 270.368ZM229.231 271.72C229.231 272.467 228.624 273.072 227.879 273.072C227.132 273.072 226.526 272.467 226.526 271.72C226.526 270.975 227.132 270.368 227.879 270.368C228.624 270.368 229.231 270.975 229.231 271.72ZM229.231 266.089C229.231 266.836 228.624 267.441 227.879 267.441C227.132 267.441 226.526 266.836 226.526 266.089C226.526 265.342 227.132 264.737 227.879 264.737C228.624 264.737 229.231 265.342 229.231 266.089ZM223.6 266.089C223.6 266.836 222.993 267.441 222.248 267.441C221.501 267.441 220.895 266.836 220.895 266.089C220.895 265.342 221.501 264.737 222.248 264.737C222.993 264.737 223.6 265.342 223.6 266.089Z" fill="#7B36B6"/>
<path d="M222.248 281.619C221.501 281.619 220.895 282.225 220.895 282.971C220.895 283.718 221.501 284.323 222.248 284.323C222.993 284.323 223.6 283.718 223.6 282.971C223.6 282.225 222.993 281.619 222.248 281.619ZM229.231 277.34C229.231 278.087 228.624 278.692 227.879 278.692C227.132 278.692 226.526 278.087 226.526 277.34C226.526 276.593 227.132 275.988 227.879 275.988C228.624 275.988 229.231 276.593 229.231 277.34ZM223.6 277.34C223.6 278.087 222.993 278.692 222.248 278.692C221.501 278.692 220.895 278.087 220.895 277.34C220.895 276.593 221.501 275.988 222.248 275.988C222.993 275.988 223.6 276.593 223.6 277.34Z" fill="#7B36B6"/>
<path d="M210.995 270.368C210.25 270.368 209.643 270.975 209.643 271.72C209.643 272.467 210.25 273.072 210.995 273.072C211.742 273.072 212.349 272.467 212.349 271.72C212.349 270.975 211.742 270.368 210.995 270.368ZM217.98 271.72C217.98 272.467 217.373 273.072 216.628 273.072C215.881 273.072 215.274 272.467 215.274 271.72C215.274 270.975 215.881 270.368 216.628 270.368C217.373 270.368 217.98 270.975 217.98 271.72Z" fill="#7B36B6"/>
<path d="M210.995 281.619C210.25 281.619 209.643 282.225 209.643 282.971C209.643 283.718 210.25 284.323 210.995 284.323C211.742 284.323 212.349 283.718 212.349 282.971C212.349 282.225 211.742 281.619 210.995 281.619ZM217.98 282.971C217.98 283.718 217.373 284.323 216.628 284.323C215.881 284.323 215.274 283.718 215.274 282.971C215.274 282.225 215.881 281.619 216.628 281.619C217.373 281.619 217.98 282.225 217.98 282.971ZM217.98 277.34C217.98 278.087 217.373 278.692 216.628 278.692C215.881 278.692 215.274 278.087 215.274 277.34C215.274 276.593 215.881 275.988 216.628 275.988C217.373 275.988 217.98 276.593 217.98 277.34ZM212.349 277.34C212.349 278.087 211.742 278.692 210.995 278.692C210.25 278.692 209.643 278.087 209.643 277.34C209.643 276.593 210.25 275.988 210.995 275.988C211.742 275.988 212.349 276.593 212.349 277.34Z" fill="#7B36B6"/>
<path d="M212.338 288.602C212.338 289.349 211.731 289.954 210.986 289.954C210.239 289.954 209.632 289.349 209.632 288.602C209.632 287.856 210.239 287.25 210.986 287.25C211.731 287.25 212.338 287.856 212.338 288.602Z" fill="#7B36B6"/>
<path d="M199.733 281.619C198.988 281.619 198.381 282.225 198.381 282.971C198.381 283.718 198.988 284.323 199.733 284.323C200.48 284.323 201.086 283.718 201.086 282.971C201.086 282.225 200.48 281.619 199.733 281.619ZM206.718 282.971C206.718 283.718 206.111 284.323 205.364 284.323C204.619 284.323 204.012 283.718 204.012 282.971C204.012 282.225 204.619 281.619 205.364 281.619C206.111 281.619 206.718 282.225 206.718 282.971ZM206.718 277.34C206.718 278.087 206.111 278.692 205.364 278.692C204.619 278.692 204.012 278.087 204.012 277.34C204.012 276.593 204.619 275.988 205.364 275.988C206.111 275.988 206.718 276.593 206.718 277.34Z" fill="#7B36B6"/>
<path d="M199.733 292.88C198.988 292.88 198.381 293.487 198.381 294.233C198.381 294.98 198.988 295.585 199.733 295.585C200.48 295.585 201.086 294.98 201.086 294.233C201.086 293.487 200.48 292.88 199.733 292.88ZM206.718 288.602C206.718 289.349 206.111 289.954 205.364 289.954C204.619 289.954 204.012 289.349 204.012 288.602C204.012 287.856 204.619 287.25 205.364 287.25C206.111 287.25 206.718 287.856 206.718 288.602ZM201.086 288.602C201.086 289.349 200.48 289.954 199.733 289.954C198.988 289.954 198.381 289.349 198.381 288.602C198.381 287.856 198.988 287.25 199.733 287.25C200.48 287.25 201.086 287.856 201.086 288.602Z" fill="#7B36B6"/>
<path d="M195.455 282.971C195.455 283.718 194.85 284.323 194.103 284.323C193.357 284.323 192.75 283.718 192.75 282.971C192.75 282.225 193.357 281.619 194.103 281.619C194.85 281.619 195.455 282.225 195.455 282.971Z" fill="#7B36B6"/>
<path d="M188.483 292.88C187.738 292.88 187.131 293.487 187.131 294.233C187.131 294.98 187.738 295.585 188.483 295.585C189.23 295.585 189.835 294.98 189.835 294.233C189.835 293.487 189.23 292.88 188.483 292.88ZM195.466 294.233C195.466 294.98 194.861 295.585 194.114 295.585C193.369 295.585 192.762 294.98 192.762 294.233C192.762 293.487 193.369 292.88 194.114 292.88C194.861 292.88 195.466 293.487 195.466 294.233ZM195.466 288.602C195.466 289.349 194.861 289.954 194.114 289.954C193.369 289.954 192.762 289.349 192.762 288.602C192.762 287.856 193.369 287.25 194.114 287.25C194.861 287.25 195.466 287.856 195.466 288.602ZM189.835 288.602C189.835 289.349 189.23 289.954 188.483 289.954C187.738 289.954 187.131 289.349 187.131 288.602C187.131 287.856 187.738 287.25 188.483 287.25C189.23 287.25 189.835 287.856 189.835 288.602Z" fill="#7B36B6"/>
<path d="M195.456 299.852C195.456 300.599 194.85 301.205 194.103 301.205C193.357 301.205 192.75 300.599 192.75 299.852C192.75 299.107 193.357 298.5 194.103 298.5C194.85 298.5 195.456 299.107 195.456 299.852ZM189.824 299.852C189.824 300.599 189.219 301.205 188.472 301.205C187.726 301.205 187.12 300.599 187.12 299.852C187.12 299.107 187.726 298.5 188.472 298.5C189.219 298.5 189.824 299.107 189.824 299.852Z" fill="#7B36B6"/>
<path d="M177.221 292.88C176.474 292.88 175.869 293.487 175.869 294.233C175.869 294.98 176.474 295.586 177.221 295.586C177.968 295.586 178.573 294.98 178.573 294.233C178.573 293.487 177.968 292.88 177.221 292.88ZM184.204 294.233C184.204 294.98 183.599 295.586 182.852 295.586C182.107 295.586 181.5 294.98 181.5 294.233C181.5 293.487 182.107 292.88 182.852 292.88C183.599 292.88 184.204 293.487 184.204 294.233Z" fill="#7B36B6"/>
<path d="M177.221 304.131C176.474 304.131 175.869 304.738 175.869 305.485C175.869 306.23 176.474 306.837 177.221 306.837C177.968 306.837 178.573 306.23 178.573 305.485C178.573 304.738 177.968 304.131 177.221 304.131ZM184.204 305.485C184.204 306.23 183.599 306.837 182.852 306.837C182.107 306.837 181.5 306.23 181.5 305.485C181.5 304.738 182.107 304.131 182.852 304.131C183.599 304.131 184.204 304.738 184.204 305.485ZM184.204 299.852C184.204 300.599 183.599 301.205 182.852 301.205C182.107 301.205 181.5 300.599 181.5 299.852C181.5 299.107 182.107 298.5 182.852 298.5C183.599 298.5 184.204 299.107 184.204 299.852ZM178.573 299.852C178.573 300.599 177.968 301.205 177.221 301.205C176.474 301.205 175.869 300.599 175.869 299.852C175.869 299.107 176.474 298.5 177.221 298.5C177.968 298.5 178.573 299.107 178.573 299.852Z" fill="#7B36B6"/>
<path d="M178.573 311.116C178.573 311.861 177.968 312.468 177.221 312.468C176.474 312.468 175.869 311.861 175.869 311.116C175.869 310.369 176.474 309.764 177.221 309.764C177.968 309.764 178.573 310.369 178.573 311.116Z" fill="#7B36B6"/>
<path d="M165.97 304.131C165.224 304.131 164.618 304.738 164.618 305.485C164.618 306.23 165.224 306.837 165.97 306.837C166.716 306.837 167.323 306.23 167.323 305.485C167.323 304.738 166.716 304.131 165.97 304.131ZM172.954 305.485C172.954 306.23 172.347 306.837 171.601 306.837C170.854 306.837 170.249 306.23 170.249 305.485C170.249 304.738 170.854 304.131 171.601 304.131C172.347 304.131 172.954 304.738 172.954 305.485ZM172.954 299.852C172.954 300.599 172.347 301.205 171.601 301.205C170.854 301.205 170.249 300.599 170.249 299.852C170.249 299.107 170.854 298.5 171.601 298.5C172.347 298.5 172.954 299.107 172.954 299.852ZM167.323 299.852C167.323 300.599 166.716 301.205 165.97 301.205C165.224 301.205 164.618 300.599 164.618 299.852C164.618 299.107 165.224 298.5 165.97 298.5C166.716 298.5 167.323 299.107 167.323 299.852Z" fill="#7B36B6"/>
<path d="M165.97 315.395C165.224 315.395 164.618 316 164.618 316.747C164.618 317.492 165.224 318.099 165.97 318.099C166.716 318.099 167.323 317.492 167.323 316.747C167.323 316 166.716 315.395 165.97 315.395ZM172.954 311.116C172.954 311.861 172.347 312.468 171.601 312.468C170.854 312.468 170.249 311.861 170.249 311.116C170.249 310.369 170.854 309.764 171.601 309.764C172.347 309.764 172.954 310.369 172.954 311.116ZM167.323 311.116C167.323 311.861 166.716 312.468 165.97 312.468C165.224 312.468 164.618 311.861 164.618 311.116C164.618 310.369 165.224 309.764 165.97 309.764C166.716 309.764 167.323 310.369 167.323 311.116Z" fill="#7B36B6"/>
</g>
<path d="M161.75 303.001V319.475" stroke="#7B36B6" stroke-width="1.25" stroke-miterlimit="10"/>
<path d="M283.386 229.562L276.799 233.538V250.011L283.782 245.792C286.277 244.287 287.805 241.582 287.805 238.667V221.728C287.805 224.759 286.335 227.79 283.386 229.562Z" fill="#7B36B6" stroke="#7B36B6" stroke-width="1.25" stroke-miterlimit="10"/>
<path d="M213.679 226.169L187.564 210.395L197.311 204.508C197.754 204.239 198.127 204.065 198.43 203.879C198.93 203.563 199.21 203.225 199.21 202.362C199.21 200.988 198.488 200.928 197.322 200.218L112.819 149.198L81.3524 168.19L56.1462 183.406L92.7431 205.498L59.947 225.295C58.7695 226.006 58.0583 226.064 58.0583 227.441C58.0583 228.815 58.7811 228.875 59.947 229.586L112.248 261.17C113.496 261.927 115.058 261.927 116.305 261.17L137.652 248.274C138.643 247.68 139.308 247.529 139.483 246.677C139.518 246.701 139.553 246.713 139.588 246.735L160.935 259.631C162.183 260.388 163.744 260.388 164.992 259.631L186.339 246.735C187.517 246.024 188.229 245.966 188.229 244.591C188.229 243.215 187.506 243.157 186.339 242.445L173.854 234.902V234.599L188.275 243.308C189.523 244.066 191.084 244.066 192.332 243.308L213.679 230.414C214.857 229.702 215.567 229.644 215.567 228.268C215.567 226.892 214.844 226.834 213.679 226.122V226.169Z" fill="#7ECBFF" stroke="#A0A0A0" stroke-width="1.25" stroke-miterlimit="10"/>
<path d="M115.535 123.911L136.882 136.805C138.06 137.516 138.771 138.788 138.771 140.163V185.714C138.771 187.089 138.048 188.361 136.882 189.072L115.535 201.966C114.288 202.724 112.725 202.724 111.478 201.966L90.1309 189.072C88.9534 188.361 88.2422 187.089 88.2422 185.714V140.163C88.2422 138.788 88.965 137.516 90.1309 136.805L111.478 123.911C112.725 123.153 114.288 123.153 115.535 123.911Z" stroke="#7B36B6" stroke-width="1.25" stroke-miterlimit="10"/>
<path d="M111.933 152.254C112.912 152.848 113.507 153.909 113.507 155.052V200.87C113.507 201.884 112.399 202.514 111.525 201.989L90.1309 189.072C88.9534 188.361 88.2422 187.091 88.2422 185.714V140.268C88.2422 139.253 89.3497 138.624 90.2241 139.149L111.933 152.254Z" fill="#1BA3FF"/>
<path d="M115.198 152.183C114.16 152.812 112.854 152.812 111.816 152.183L111.921 152.254C112.901 152.848 113.495 153.909 113.495 155.052C113.495 153.909 114.09 152.848 115.069 152.254L115.174 152.183H115.198Z" stroke="#7B36B6" stroke-width="1.25" stroke-miterlimit="10"/>
<path d="M90.096 136.829C89.2565 137.343 89.2565 138.555 90.096 139.067L90.2241 139.149C89.3497 138.624 88.2422 139.253 88.2422 140.268" stroke="#7B36B6" stroke-width="1.25" stroke-miterlimit="10"/>
<path d="M136.929 136.829C137.768 137.343 137.768 138.555 136.929 139.067L136.801 139.149C137.675 138.624 138.783 139.253 138.783 140.268" stroke="#7B36B6" stroke-width="1.25" stroke-miterlimit="10"/>
<path d="M111.524 201.989C112.398 202.514 113.506 201.884 113.506 200.87C113.506 201.884 114.614 202.514 115.488 201.989" stroke="#7B36B6" stroke-width="1.25" stroke-miterlimit="10"/>
<path d="M113.519 200.87V155.052" stroke="#7B36B6" stroke-width="1.25" stroke-miterlimit="10"/>
<path d="M136.93 139.067L115.198 152.183" stroke="#7B36B6" stroke-width="1.25" stroke-miterlimit="10"/>
<path d="M90.2009 139.138L111.933 152.254" stroke="#7B36B6" stroke-width="1.25" stroke-miterlimit="10"/>
<path d="M112.702 216.061C113.681 216.657 114.275 217.718 114.275 218.859V245.22C114.275 246.235 113.168 246.864 112.294 246.339L90.8997 233.421C89.7222 232.711 89.011 231.439 89.011 230.065V204.077C89.011 203.063 90.1187 202.433 90.9931 202.958L112.702 216.061Z" fill="#1BA3FF"/>
<path d="M115.966 216.003C114.929 216.633 113.623 216.633 112.585 216.003L112.69 216.073C113.669 216.668 114.264 217.729 114.264 218.872C114.264 217.729 114.859 216.668 115.838 216.073L115.943 216.003H115.966Z" stroke="#7B36B6" stroke-width="1.25" stroke-miterlimit="10"/>
<path d="M90.8538 200.637C90.0143 201.15 90.0143 202.362 90.8538 202.876L90.9819 202.958C90.1075 202.433 89 203.063 89 204.077" stroke="#7B36B6" stroke-width="1.25" stroke-miterlimit="10"/>
<path d="M137.699 200.637C138.539 201.15 138.539 202.362 137.699 202.876L137.571 202.958C138.445 202.433 139.553 203.063 139.553 204.077" stroke="#7B36B6" stroke-width="1.25" stroke-miterlimit="10"/>
<path d="M112.294 246.339C113.169 246.864 114.276 246.235 114.276 245.22C114.276 246.235 115.384 246.864 116.258 246.339" stroke="#7B36B6" stroke-width="1.25" stroke-miterlimit="10"/>
<path d="M114.277 245.22V218.859" stroke="#7B36B6" stroke-width="1.25" stroke-miterlimit="10"/>
<path d="M137.698 202.876L115.967 216.003" stroke="#7B36B6" stroke-width="1.25" stroke-miterlimit="10"/>
<path d="M90.9697 202.945L112.702 216.061" stroke="#7B36B6" stroke-width="1.25" stroke-miterlimit="10"/>
<path d="M139.726 107.928L161.074 120.822C162.25 121.533 162.962 122.803 162.962 124.18V171.128C162.962 172.505 162.239 173.775 161.074 174.486L139.726 187.38C138.478 188.138 136.916 188.138 135.668 187.38L114.321 174.486C113.144 173.775 112.433 172.505 112.433 171.128V124.18C112.433 122.803 113.156 121.533 114.321 120.822L135.668 107.928C136.916 107.169 138.478 107.169 139.726 107.928Z" stroke="#7B36B6" stroke-width="1.25" stroke-miterlimit="10"/>
<path d="M136.112 136.269C137.091 136.865 137.686 137.925 137.686 139.067V186.286C137.686 187.3 136.579 187.929 135.704 187.404L114.31 174.486C113.133 173.775 112.422 172.505 112.422 171.128V124.284C112.422 123.27 113.529 122.641 114.404 123.165L136.112 136.269Z" fill="#1BA3FF"/>
<path d="M139.388 136.2C138.35 136.829 137.044 136.829 136.007 136.2L136.112 136.269C137.091 136.865 137.686 137.925 137.686 139.067C137.686 137.925 138.28 136.865 139.26 136.269L139.364 136.2H139.388Z" stroke="#7B36B6" stroke-width="1.25" stroke-miterlimit="10"/>
<path d="M114.275 120.844C113.436 121.358 113.436 122.57 114.275 123.083L114.404 123.165C113.529 122.641 112.422 123.27 112.422 124.284" stroke="#7B36B6" stroke-width="1.25" stroke-miterlimit="10"/>
<path d="M161.109 120.844C161.948 121.358 161.948 122.57 161.109 123.083L160.98 123.165C161.854 122.641 162.962 123.27 162.962 124.284" stroke="#7B36B6" stroke-width="1.25" stroke-miterlimit="10"/>
<path d="M135.716 187.404C136.59 187.929 137.698 187.3 137.698 186.286C137.698 187.3 138.805 187.929 139.68 187.404" stroke="#7B36B6" stroke-width="1.25" stroke-miterlimit="10"/>
<path d="M137.698 186.286V139.067" stroke="#7B36B6" stroke-width="1.25" stroke-miterlimit="10"/>
<path d="M161.109 123.083L139.388 136.2" stroke="#7B36B6" stroke-width="1.25" stroke-miterlimit="10"/>
<path d="M114.391 123.153L136.112 136.269" stroke="#7B36B6" stroke-width="1.25" stroke-miterlimit="10"/>
<path d="M190.267 98.425L211.614 111.319C212.792 112.031 213.502 113.301 213.502 114.677V182.519C213.502 183.895 212.779 185.165 211.614 185.877L190.267 198.773C189.019 199.529 187.456 199.529 186.21 198.773L164.861 185.877C163.685 185.165 162.973 183.895 162.973 182.519V114.677C162.973 113.301 163.696 112.031 164.861 111.319L186.21 98.425C187.456 97.6673 189.019 97.6673 190.267 98.425Z" stroke="#7B36B6" stroke-width="1.25" stroke-miterlimit="10"/>
<path d="M186.664 126.768C187.643 127.362 188.238 128.423 188.238 129.566V197.676C188.238 198.69 187.131 199.32 186.255 198.795L164.861 185.877C163.685 185.165 162.973 183.895 162.973 182.519V114.782C162.973 113.768 164.081 113.138 164.955 113.663L186.664 126.768Z" fill="#1BA3FF"/>
<path d="M189.929 126.697C188.89 127.327 187.585 127.327 186.548 126.697L186.653 126.768C187.631 127.362 188.227 128.423 188.227 129.566C188.227 128.423 188.821 127.362 189.8 126.768L189.906 126.697H189.929Z" stroke="#7B36B6" stroke-width="1.25" stroke-miterlimit="10"/>
<path d="M164.816 111.343C163.976 111.855 163.976 113.069 164.816 113.581L164.945 113.663C164.069 113.138 162.962 113.768 162.962 114.782" stroke="#7B36B6" stroke-width="1.25" stroke-miterlimit="10"/>
<path d="M211.662 111.343C212.5 111.855 212.5 113.069 211.662 113.581L211.533 113.663C212.407 113.138 213.515 113.768 213.515 114.782" stroke="#7B36B6" stroke-width="1.25" stroke-miterlimit="10"/>
<path d="M186.257 198.795C187.131 199.32 188.238 198.69 188.238 197.676C188.238 198.69 189.346 199.32 190.22 198.795" stroke="#7B36B6" stroke-width="1.25" stroke-miterlimit="10"/>
<path d="M188.238 197.676V129.566" stroke="#7B36B6" stroke-width="1.25" stroke-miterlimit="10"/>
<path d="M211.661 113.581L189.929 126.697" stroke="#7B36B6" stroke-width="1.25" stroke-miterlimit="10"/>
<path d="M164.932 113.652L186.664 126.768" stroke="#7B36B6" stroke-width="1.25" stroke-miterlimit="10"/>
<path d="M164.992 141.13L186.339 154.026C187.515 154.736 188.227 156.008 188.227 157.382V225.226C188.227 226.6 187.504 227.872 186.339 228.584L164.992 241.478C163.744 242.236 162.181 242.236 160.933 241.478L139.587 228.584C138.409 227.872 137.698 226.6 137.698 225.226V157.382C137.698 156.008 138.421 154.736 139.587 154.026L160.933 141.13C162.181 140.374 163.744 140.374 164.992 141.13Z" stroke="#7B36B6" stroke-width="1.25" stroke-miterlimit="10"/>
<path d="M161.389 169.473C162.368 170.067 162.963 171.128 162.963 172.271V240.382C162.963 241.396 161.856 242.025 160.98 241.5L139.587 228.584C138.409 227.872 137.698 226.602 137.698 225.226V157.489C137.698 156.475 138.806 155.845 139.68 156.368L161.389 169.473Z" fill="#1BA3FF"/>
<path d="M164.654 169.404C163.616 170.034 162.31 170.034 161.272 169.404L161.378 169.473C162.357 170.067 162.951 171.128 162.951 172.271C162.951 171.128 163.546 170.067 164.525 169.473L164.63 169.404H164.654Z" stroke="#7B36B6" stroke-width="1.25" stroke-miterlimit="10"/>
<path d="M139.552 154.049C138.713 154.562 138.713 155.774 139.552 156.288L139.68 156.368C138.806 155.844 137.698 156.475 137.698 157.489" stroke="#7B36B6" stroke-width="1.25" stroke-miterlimit="10"/>
<path d="M186.385 154.049C187.224 154.562 187.224 155.774 186.385 156.288L186.257 156.368C187.131 155.844 188.238 156.475 188.238 157.489" stroke="#7B36B6" stroke-width="1.25" stroke-miterlimit="10"/>
<path d="M160.98 241.5C161.854 242.025 162.962 241.396 162.962 240.382C162.962 241.396 164.069 242.025 164.943 241.5" stroke="#7B36B6" stroke-width="1.25" stroke-miterlimit="10"/>
<path d="M162.962 240.382V172.271" stroke="#7B36B6" stroke-width="1.25" stroke-miterlimit="10"/>
<path d="M186.386 156.288L164.654 169.404" stroke="#7B36B6" stroke-width="1.25" stroke-miterlimit="10"/>
<path d="M139.657 156.346L161.389 169.473" stroke="#7B36B6" stroke-width="1.25" stroke-miterlimit="10"/>
<path d="M127.555 194.703L136.893 189.072C137.197 188.885 137.465 188.675 137.698 188.419V225.214C137.698 226.589 138.421 227.861 139.587 228.571L160.933 241.466C162.181 242.223 163.744 242.223 164.992 241.466L186.339 228.571C187.515 227.861 188.227 226.589 188.227 225.214V199.32C188.926 199.32 189.626 199.133 190.255 198.76L211.602 185.865C212.781 185.154 213.492 183.884 213.492 182.508V114.666C213.492 113.29 212.768 112.02 211.602 111.308L190.255 98.4133C189.008 97.6555 187.446 97.6555 186.199 98.4133L164.852 111.308C163.673 112.02 162.962 113.29 162.962 114.666V124.167C162.962 122.792 162.239 121.52 161.074 120.81L139.727 107.915C138.479 107.158 136.917 107.158 135.669 107.915L114.322 120.81C113.343 121.393 112.69 122.372 112.492 123.479C112.142 123.573 111.804 123.713 111.489 123.911L90.1419 136.805C88.9644 137.516 88.2532 138.788 88.2532 140.163V185.714C88.2532 187.089 88.9761 188.361 90.1419 189.072L99.737 194.866" stroke="#7B36B6" stroke-linecap="round" stroke-linejoin="round"/>
<path d="M139.552 228.584V230.063C139.552 231.439 138.83 232.711 137.664 233.421L116.317 246.317C115.069 247.073 113.507 247.073 112.259 246.317L90.9122 233.421C89.7346 232.711 89.0234 231.439 89.0234 230.063V203.972C89.0234 202.596 89.7464 201.326 90.9122 200.614L112.259 187.72C113.507 186.962 115.069 186.962 116.317 187.72L137.664 200.614" stroke="#7B36B6" stroke-width="1.25" stroke-miterlimit="10"/>
<g opacity="0.4">
<path d="M63.2928 217.286L84.6399 204.391" stroke="#7B36B6" stroke-width="1.25" stroke-linecap="round" stroke-linejoin="round"/>
<path d="M58.4193 220.224L60.5295 218.952" stroke="#7B36B6" stroke-width="1.25" stroke-linecap="round" stroke-linejoin="round"/>
<path d="M54.9563 222.322L55.4809 222.008" stroke="#7B36B6" stroke-width="1.25" stroke-linecap="round" stroke-linejoin="round"/>
</g>
<g opacity="0.4">
<path d="M95.1672 259.082L111.116 249.441" stroke="#7B36B6" stroke-width="1.25" stroke-linecap="round" stroke-linejoin="round"/>
<path d="M90.2938 262.02L92.404 260.75" stroke="#7B36B6" stroke-width="1.25" stroke-linecap="round" stroke-linejoin="round"/>
<path d="M86.8196 264.119L87.3442 263.792" stroke="#7B36B6" stroke-width="1.25" stroke-linecap="round" stroke-linejoin="round"/>
</g>
<path d="M98.8637 113.534C99.7032 114.048 99.7032 115.26 98.8637 115.774L98.7356 115.856C99.6099 115.331 100.718 115.96 100.718 116.974" stroke="#7B36B6" stroke-width="1.25" stroke-miterlimit="10"/>
<path d="M73.459 159.237C74.3334 159.762 75.4409 159.132 75.4409 158.118C75.4409 159.132 76.5486 159.762 77.423 159.237" stroke="#7B36B6" stroke-width="1.25" stroke-miterlimit="10"/>
<path d="M75.4412 158.118V131.757" stroke="#7B36B6" stroke-width="1.25" stroke-miterlimit="10"/>
<path d="M77.4686 100.617L98.8158 113.512C99.9933 114.223 100.704 115.493 100.704 116.87V142.961C100.704 144.337 99.9817 145.607 98.8158 146.319L77.4686 159.214C76.2212 159.971 74.659 159.971 73.4114 159.214L52.0643 146.319C50.8867 145.607 50.1755 144.337 50.1755 142.961V116.87C50.1755 115.493 50.8985 114.223 52.0643 113.512L73.4114 100.617C74.659 99.8591 76.2212 99.8591 77.4686 100.617Z" stroke="#7B36B6" stroke-width="1.25" stroke-miterlimit="10"/>
<path d="M77.1307 128.89C76.0931 129.519 74.7874 129.519 73.7498 128.89L73.8547 128.959C74.8339 129.555 75.4286 130.615 75.4286 131.757C75.4286 130.615 76.0232 129.555 77.0024 128.959L77.1074 128.89H77.1307Z" stroke="#7B36B6" stroke-width="1.25" stroke-miterlimit="10"/>
<path d="M52.0183 113.534C51.1789 114.048 51.1789 115.26 52.0183 115.774L52.1465 115.856C51.2721 115.331 50.1646 115.96 50.1646 116.974" stroke="#7B36B6" stroke-width="1.25" stroke-miterlimit="10"/>
<path d="M98.8632 115.773L77.1313 128.89" stroke="#7B36B6" stroke-width="1.25" stroke-miterlimit="10"/>
<path d="M52.1343 115.843L73.8662 128.959" stroke="#7B36B6" stroke-width="1.25" stroke-miterlimit="10"/>
<path opacity="0.6" d="M88.243 152.696L77.4703 159.201C76.2229 159.96 74.6607 159.96 73.4131 159.201L52.066 146.307C50.8884 145.596 50.1772 144.326 50.1772 142.949V116.857C50.1772 115.482 50.9 114.21 52.066 113.501L73.4131 100.605C74.6607 99.8475 76.2229 99.8475 77.4703 100.605L98.8175 113.501C99.995 114.21 100.706 115.482 100.706 116.857V130.417" stroke="#7B36B6" stroke-width="1.25" stroke-miterlimit="10"/>
<path d="M201.903 114.07C201.063 114.584 201.063 115.796 201.903 116.31L202.032 116.392C201.157 115.867 200.049 116.496 200.049 117.51" stroke="#7B36B6" stroke-width="1.25" stroke-miterlimit="10"/>
<path d="M223.344 159.773C224.218 160.298 225.325 159.668 225.325 158.654C225.325 159.668 226.433 160.298 227.309 159.773" stroke="#7B36B6" stroke-width="1.25" stroke-miterlimit="10"/>
<path d="M227.354 101.165L248.701 114.059C249.879 114.771 250.589 116.041 250.589 117.417V143.51C250.589 144.884 249.866 146.156 248.701 146.868L227.354 159.762C226.106 160.52 224.545 160.52 223.297 159.762L201.949 146.868C200.772 146.156 200.06 144.884 200.06 143.51V117.417C200.06 116.041 200.783 114.771 201.949 114.059L223.297 101.165C224.545 100.407 226.106 100.407 227.354 101.165Z" stroke="#7B36B6" stroke-width="1.25" stroke-miterlimit="10"/>
<path d="M227.016 129.437C225.977 130.067 224.672 130.067 223.635 129.437L223.74 129.508C224.718 130.102 225.314 131.163 225.314 132.306C225.314 131.163 225.908 130.102 226.887 129.508L226.993 129.437H227.016Z" stroke="#7B36B6" stroke-width="1.25" stroke-miterlimit="10"/>
<path d="M248.736 114.07C249.576 114.584 249.576 115.796 248.736 116.31L248.607 116.392C249.483 115.867 250.591 116.496 250.591 117.51" stroke="#7B36B6" stroke-width="1.25" stroke-miterlimit="10"/>
<path d="M225.327 158.654V132.293" stroke="#7B36B6" stroke-width="1.25" stroke-miterlimit="10"/>
<path d="M248.736 116.31L227.016 129.437" stroke="#7B36B6" stroke-width="1.25" stroke-miterlimit="10"/>
<path d="M202.019 116.379L223.74 129.495" stroke="#7B36B6" stroke-width="1.25" stroke-miterlimit="10"/>
<path opacity="0.6" d="M209.038 109.769L223.297 101.165C224.545 100.407 226.106 100.407 227.354 101.165L248.701 114.059C249.879 114.771 250.59 116.041 250.59 117.417V143.51C250.59 144.884 249.868 146.156 248.701 146.868L227.354 159.762C226.106 160.52 224.545 160.52 223.297 159.762L213.515 153.851" stroke="#7B36B6" stroke-miterlimit="10"/>
<path d="M223.74 129.495C224.72 130.091 225.314 131.152 225.314 132.293V158.654C225.314 159.668 224.207 160.298 223.333 159.773L201.939 146.855C200.761 146.145 200.049 144.873 200.049 143.498V117.51C200.049 116.496 201.157 115.867 202.032 116.392L223.74 129.495Z" fill="#1BA3FF"/>
<path d="M109.321 89.3544H99.4463V99.2294H109.321V89.3544Z" fill="#7B36B6"/>
<path d="M119.197 68.4737H109.322V89.3545H119.197V68.4737Z" fill="#7B36B6"/>
<g opacity="0.4">
<path d="M267.181 135.697L254.705 143.229" stroke="#7B36B6" stroke-width="1.25" stroke-linecap="round" stroke-linejoin="round"/>
<path d="M272.053 132.76L269.943 134.031" stroke="#7B36B6" stroke-width="1.25" stroke-linecap="round" stroke-linejoin="round"/>
<path d="M275.516 130.662L274.991 130.976" stroke="#7B36B6" stroke-width="1.25" stroke-linecap="round" stroke-linejoin="round"/>
</g>
<g opacity="0.4">
<path d="M240.703 90.6486L228.228 98.1802" stroke="#7B36B6" stroke-width="1.25" stroke-linecap="round" stroke-linejoin="round"/>
<path d="M245.576 87.7105L243.466 88.9812" stroke="#7B36B6" stroke-width="1.25" stroke-linecap="round" stroke-linejoin="round"/>
<path d="M249.051 85.612L248.527 85.9269" stroke="#7B36B6" stroke-width="1.25" stroke-linecap="round" stroke-linejoin="round"/>
</g>
<path d="M164.815 47.6783L186.162 60.5728C187.34 61.284 188.051 62.5547 188.051 63.9306V90.0228C188.051 91.3985 187.329 92.6692 186.162 93.3804L164.815 106.274C163.567 107.032 162.006 107.032 160.758 106.274L139.411 93.3804C138.233 92.6692 137.522 91.3985 137.522 90.0228V63.9306C137.522 62.5547 138.245 61.284 139.411 60.5728L160.758 47.6783C162.006 46.9205 163.567 46.9205 164.815 47.6783Z" stroke="#7B36B6" stroke-width="1.25" stroke-miterlimit="10"/>
<path d="M160.805 106.119C161.681 106.643 162.788 106.014 162.788 105C162.788 106.014 163.896 106.643 164.77 106.119" stroke="#7B36B6" stroke-width="1.25" stroke-miterlimit="10"/>
<path d="M161.202 76.0205C162.181 76.6152 162.775 77.6762 162.775 78.8186V105.18C162.775 106.194 161.667 106.823 160.793 106.298L139.4 93.3805C138.222 92.6693 137.511 91.3984 137.511 90.0227V64.0354C137.511 63.0211 138.619 62.3915 139.493 62.9161L161.202 76.0205Z" fill="#7B36B6"/>
<path d="M164.477 75.9624C163.44 76.5918 162.134 76.5918 161.096 75.9624L161.201 76.0323C162.181 76.6269 162.775 77.6877 162.775 78.8303C162.775 77.6877 163.369 76.6269 164.35 76.0323L164.454 75.9624H164.477Z" stroke="#7B36B6" stroke-width="1.25" stroke-miterlimit="10"/>
<path d="M139.365 60.5961C138.525 61.1092 138.525 62.3216 139.365 62.8347L139.493 62.9163C138.619 62.3915 137.511 63.0211 137.511 64.0354" stroke="#7B36B6" stroke-width="1.25" stroke-miterlimit="10"/>
<path d="M186.197 60.5961C187.037 61.1092 187.037 62.3216 186.197 62.8347L186.07 62.9163C186.944 62.3915 188.051 63.0211 188.051 64.0354" stroke="#7B36B6" stroke-width="1.25" stroke-miterlimit="10"/>
<path d="M162.788 105.18V78.8187" stroke="#7B36B6" stroke-width="1.25" stroke-miterlimit="10"/>
<path d="M186.199 62.8347L164.478 75.9624" stroke="#7B36B6" stroke-width="1.25" stroke-miterlimit="10"/>
<path d="M139.481 62.9047L161.201 76.0207" stroke="#7B36B6" stroke-width="1.25" stroke-miterlimit="10"/>
<path opacity="0.4" d="M164.816 47.6783L186.163 60.5728C187.342 61.284 188.053 62.5547 188.053 63.9306V90.0228C188.053 91.3985 187.33 92.6692 186.163 93.3804L164.816 106.274C163.569 107.032 162.007 107.032 160.76 106.274L139.412 93.3804C138.235 92.6692 137.524 91.3985 137.524 90.0228V63.9306C137.524 62.5547 138.247 61.284 139.412 60.5728L160.76 47.6783C162.007 46.9205 163.569 46.9205 164.816 47.6783Z" stroke="#7B36B6" stroke-width="1.25" stroke-miterlimit="10"/>
<g opacity="0.4">
<path d="M188.053 43.3645V57.9497" stroke="#7B36B6" stroke-width="1.25" stroke-linecap="round" stroke-linejoin="round"/>
<path d="M188.053 37.6751V40.1468" stroke="#7B36B6" stroke-width="1.25" stroke-linecap="round" stroke-linejoin="round"/>
<path d="M188.053 33.6295V34.2475" stroke="#7B36B6" stroke-width="1.25" stroke-linecap="round" stroke-linejoin="round"/>
</g>
<path d="M137.513 42.7465V57.32" stroke="#7B36B6" stroke-width="1.25" stroke-linecap="round" stroke-linejoin="round"/>
<path d="M137.513 37.0572V39.5172" stroke="#7B36B6" stroke-width="1.25" stroke-linecap="round" stroke-linejoin="round"/>
<path d="M137.513 32.9999V33.6179" stroke="#7B36B6" stroke-width="1.25" stroke-linecap="round" stroke-linejoin="round"/>
<g opacity="0.4">
<path d="M29.3086 132.573L42.9494 140.816" stroke="#7B36B6" stroke-width="1.25" stroke-linecap="round" stroke-linejoin="round"/>
<path d="M24.4354 129.635L26.5456 130.907" stroke="#7B36B6" stroke-width="1.25" stroke-linecap="round" stroke-linejoin="round"/>
<path d="M20.9722 127.536L21.4968 127.852" stroke="#7B36B6" stroke-width="1.25" stroke-linecap="round" stroke-linejoin="round"/>
</g>
<g opacity="0.4">
<path d="M55.7847 87.5242L69.4254 95.7552" stroke="#7B36B6" stroke-width="1.25" stroke-linecap="round" stroke-linejoin="round"/>
<path d="M50.9114 84.5861L53.0216 85.8568" stroke="#7B36B6" stroke-width="1.25" stroke-linecap="round" stroke-linejoin="round"/>
<path d="M47.4373 82.4875L47.9619 82.8023" stroke="#7B36B6" stroke-width="1.25" stroke-linecap="round" stroke-linejoin="round"/>
</g>
<path d="M127.182 14.9252C128.022 15.4382 128.022 16.6507 127.182 17.1637L127.054 17.2453C127.928 16.7207 129.036 17.3503 129.036 18.3646" stroke="#7B36B6" stroke-width="1.25" stroke-miterlimit="10"/>
<path d="M105.787 2.00737L127.134 14.9018C128.312 15.613 129.023 16.8839 129.023 18.2596V44.3518C129.023 45.7275 128.3 46.9983 127.134 47.7095L105.787 60.6041C104.54 61.362 102.978 61.362 101.73 60.6041L80.3829 47.7095C79.2053 46.9983 78.4941 45.7275 78.4941 44.3518V18.2596C78.4941 16.8839 79.2171 15.613 80.3829 14.9018L101.73 2.00737C102.978 1.2495 104.54 1.2495 105.787 2.00737Z" stroke="#7B36B6" stroke-width="1.25" stroke-miterlimit="10"/>
<path d="M102.185 30.3498C103.164 30.9443 103.759 32.0053 103.759 33.1479V59.5083C103.759 60.5226 102.651 61.1522 101.777 60.6274L80.3829 47.7096C79.2053 46.9984 78.4941 45.7277 78.4941 44.3518V18.3646C78.4941 17.3503 79.6018 16.7207 80.4762 17.2453L102.185 30.3498Z" fill="#7B36B6"/>
<path d="M105.449 30.2798C104.412 30.9094 103.106 30.9094 102.068 30.2798L102.173 30.3497C103.153 30.9444 103.747 32.0053 103.747 33.1478C103.747 32.0053 104.342 30.9444 105.321 30.3497L105.426 30.2798H105.449Z" stroke="#7B36B6" stroke-width="1.25" stroke-miterlimit="10"/>
<path d="M80.3369 14.9252C79.4975 15.4382 79.4975 16.6507 80.3369 17.1637L80.4651 17.2453C79.5907 16.7207 78.4832 17.3503 78.4832 18.3646" stroke="#7B36B6" stroke-width="1.25" stroke-miterlimit="10"/>
<path d="M101.777 60.6157C102.652 61.1403 103.759 60.5107 103.759 59.4964C103.759 60.5107 104.867 61.1403 105.741 60.6157" stroke="#7B36B6" stroke-width="1.25" stroke-miterlimit="10"/>
<path d="M103.76 59.4965V33.1478" stroke="#7B36B6" stroke-width="1.25" stroke-miterlimit="10"/>
<path d="M127.182 17.1637L105.45 30.2798" stroke="#7B36B6" stroke-width="1.25" stroke-miterlimit="10"/>
<path d="M80.4529 17.222L102.185 30.3497" stroke="#7B36B6" stroke-width="1.25" stroke-miterlimit="10"/>
<path opacity="0.2" d="M105.789 2.00737L127.136 14.9018C128.313 15.613 129.025 16.8839 129.025 18.2596V44.3518C129.025 45.7275 128.302 46.9984 127.136 47.7095L105.789 60.6041C104.541 61.362 102.979 61.362 101.731 60.6041L80.3843 47.7095C79.2068 46.9984 78.4956 45.7275 78.4956 44.3518V18.2596C78.4956 16.8839 79.2184 15.613 80.3843 14.9018L101.731 2.00737C102.979 1.2495 104.541 1.2495 105.789 2.00737Z" stroke="#7B36B6" stroke-width="1.25" stroke-miterlimit="10"/>
</svg>
