<svg width="383" height="299" viewBox="0 0 383 299" fill="none" xmlns="http://www.w3.org/2000/svg">
<path d="M282.193 133.199C282.982 133.674 282.982 134.824 282.193 135.299L282.07 135.375C282.891 134.885 283.932 135.468 283.932 136.426" stroke="#1BA3FF" stroke-width="0.548207" stroke-miterlimit="10"/>
<path d="M262.122 121.082L282.155 133.176C283.259 133.843 283.933 135.039 283.933 136.326V160.805C283.933 162.093 283.259 163.288 282.155 163.955L262.129 176.049C260.957 176.755 259.493 176.755 258.328 176.049L238.295 163.955C237.191 163.288 236.517 162.093 236.517 160.805V136.326C236.517 135.039 237.191 133.843 238.295 133.176L258.328 121.082C259.493 120.377 260.957 120.377 262.122 121.082Z" fill="#7B36B6" stroke="#1BA3FF" stroke-width="0.548207" stroke-miterlimit="10"/>
<path d="M258.74 147.676C259.659 148.229 260.218 149.224 260.218 150.298V175.022C260.218 175.98 259.176 176.563 258.356 176.072L238.285 163.955C237.181 163.289 236.507 162.093 236.507 160.805V136.426C236.507 135.468 237.549 134.885 238.368 135.375L258.74 147.676Z" fill="#1BA3FF"/>
<path d="M247.87 148.266V156.022L254.292 159.901V166.461L242.436 159.303V144.986L247.87 148.266Z" fill="#7B36B6" stroke="#7B36B6" stroke-width="0.438565" stroke-miterlimit="10" stroke-linecap="round" stroke-linejoin="round"/>
<path d="M247.868 148.266L254.29 152.144V159.901L247.868 156.023V148.266Z" fill="#1BA3FF" stroke="#7B36B6" stroke-width="0.438565" stroke-miterlimit="10" stroke-linecap="round" stroke-linejoin="round"/>
<path d="M261.806 147.607C260.833 148.197 259.614 148.197 258.633 147.607L258.741 147.668C259.66 148.221 260.22 149.217 260.22 150.29C260.22 149.217 260.779 148.221 261.698 147.668L261.806 147.607Z" stroke="#1BA3FF" stroke-width="0.548207" stroke-miterlimit="10"/>
<path d="M238.256 133.199C237.467 133.674 237.467 134.824 238.256 135.299L238.378 135.375C237.558 134.885 236.516 135.468 236.516 136.426" stroke="#1BA3FF" stroke-width="0.548207" stroke-miterlimit="10"/>
<path d="M258.366 176.072C259.186 176.563 260.228 175.98 260.228 175.022C260.228 175.98 261.271 176.563 262.091 176.072" stroke="#1BA3FF" stroke-width="0.548207" stroke-miterlimit="10"/>
<path d="M260.22 175.022V150.297" stroke="#1BA3FF" stroke-width="0.548207" stroke-miterlimit="10"/>
<path d="M282.191 135.299L261.805 147.608" stroke="#1BA3FF" stroke-width="0.548207" stroke-miterlimit="10"/>
<path d="M238.355 135.36L258.742 147.676" stroke="#1BA3FF" stroke-width="0.548207" stroke-miterlimit="10"/>
<path d="M80.0813 233.991L100.107 246.085C101.211 246.752 101.885 247.948 101.885 249.235V273.714C101.885 275.002 101.211 276.197 100.107 276.864L80.0813 288.958C78.9093 289.664 77.4453 289.664 76.2803 288.958L56.2473 276.864C55.1435 276.197 54.4688 275.002 54.4688 273.714V249.235C54.4688 247.948 55.1435 246.752 56.2473 246.085L76.2803 233.991C77.4532 233.286 78.9172 233.286 80.0813 233.991Z" fill="#7B36B6" stroke="#1BA3FF" stroke-width="0.548207" stroke-miterlimit="10"/>
<path d="M76.7016 260.585C77.6219 261.138 78.1812 262.134 78.1812 263.206V287.931C78.1812 288.889 77.1386 289.472 76.3188 288.981L56.2473 276.864C55.1435 276.197 54.4688 275.001 54.4688 273.714V249.335C54.4688 248.377 55.5114 247.794 56.3312 248.284L76.7016 260.585Z" fill="#1BA3FF"/>
<path d="M65.8316 261.175V268.931L72.2546 272.809V279.37L60.3979 272.212V257.895L65.8316 261.175Z" fill="#7B36B6" stroke="#7B36B6" stroke-width="0.438565" stroke-miterlimit="10" stroke-linecap="round" stroke-linejoin="round"/>
<path d="M65.8296 261.175L72.2517 265.054V272.81L65.8296 268.932V261.175Z" fill="#1BA3FF" stroke="#7B36B6" stroke-width="0.438565" stroke-miterlimit="10" stroke-linecap="round" stroke-linejoin="round"/>
<path d="M79.7683 260.524C78.7947 261.114 77.5763 261.114 76.5957 260.524L76.7023 260.585C77.6226 261.138 78.182 262.134 78.182 263.207C78.182 262.134 78.7414 261.138 79.6608 260.585L79.7683 260.524Z" stroke="#1BA3FF" stroke-width="0.548207" stroke-miterlimit="10"/>
<path d="M56.2182 246.116C55.4281 246.591 55.4281 247.74 56.2182 248.215L56.3405 248.292C55.5207 247.802 54.478 248.384 54.478 249.342" stroke="#1BA3FF" stroke-width="0.548207" stroke-miterlimit="10"/>
<path d="M100.155 246.116C100.945 246.591 100.945 247.74 100.155 248.215L100.032 248.292C100.852 247.802 101.895 248.384 101.895 249.342" stroke="#1BA3FF" stroke-width="0.548207" stroke-miterlimit="10"/>
<path d="M76.3271 288.989C77.147 289.479 78.1896 288.897 78.1896 287.939C78.1896 288.897 79.2314 289.479 80.0521 288.989" stroke="#1BA3FF" stroke-width="0.548207" stroke-miterlimit="10"/>
<path d="M78.1816 287.939V263.207" stroke="#1BA3FF" stroke-width="0.548207" stroke-miterlimit="10"/>
<path d="M100.154 248.215L79.7686 260.524" stroke="#1BA3FF" stroke-width="0.548207" stroke-miterlimit="10"/>
<path d="M56.3179 248.277L76.703 260.585" stroke="#1BA3FF" stroke-width="0.548207" stroke-miterlimit="10"/>
<path d="M83.8728 1.53554L103.907 13.6297C105.011 14.2965 105.684 15.4921 105.684 16.7797V41.2591C105.684 42.5467 105.011 43.7423 103.907 44.4091L83.8728 56.4955C82.7008 57.2006 81.2369 57.2006 80.0718 56.4955L60.0388 44.4014C58.935 43.7346 58.2603 42.539 58.2603 41.2515V16.772C58.2603 15.4844 58.935 14.2888 60.0388 13.622L80.0718 1.52793C81.2369 0.822761 82.7008 0.82276 83.8728 1.53554Z" fill="#7B36B6" stroke="#1BA3FF" stroke-width="0.548207" stroke-miterlimit="10"/>
<path d="M80.4847 28.1227C81.4041 28.6744 81.9635 29.6708 81.9635 30.7438V55.4685C81.9635 56.4266 80.9208 57.009 80.101 56.5185L60.0296 44.4014C58.9257 43.7346 58.251 42.539 58.251 41.2514V16.8716C58.251 15.9136 59.2937 15.3311 60.1135 15.8216L80.4847 28.1227Z" fill="#1BA3FF"/>
<path d="M69.6181 28.7129V36.4691L76.0403 40.3472V46.9077L64.1836 39.7494V25.4327L69.6181 28.7129Z" fill="#7B36B6" stroke="#7B36B6" stroke-width="0.438565" stroke-miterlimit="10" stroke-linecap="round" stroke-linejoin="round"/>
<path d="M69.6167 28.7127L76.0397 32.5908V40.347L69.6167 36.4689V28.7127Z" fill="#1BA3FF" stroke="#7B36B6" stroke-width="0.438565" stroke-miterlimit="10" stroke-linecap="round" stroke-linejoin="round"/>
<path d="M83.5481 28.0613C82.5754 28.6514 81.3561 28.6514 80.3755 28.0613L80.483 28.1226C81.4024 28.6744 81.9618 29.6708 81.9618 30.7438C81.9618 29.6708 82.5212 28.6744 83.4406 28.1226L83.5481 28.0613Z" stroke="#1BA3FF" stroke-width="0.548207" stroke-miterlimit="10"/>
<path d="M59.998 13.6526C59.2087 14.1279 59.2087 15.2775 59.998 15.7526L60.1203 15.8293C59.3005 15.3388 58.2578 15.9213 58.2578 16.8792" stroke="#1BA3FF" stroke-width="0.548207" stroke-miterlimit="10"/>
<path d="M103.935 13.6526C104.724 14.1279 104.724 15.2775 103.935 15.7526L103.812 15.8293C104.633 15.3388 105.675 15.9213 105.675 16.8792" stroke="#1BA3FF" stroke-width="0.548207" stroke-miterlimit="10"/>
<path d="M81.9624 55.4763V30.7438" stroke="#1BA3FF" stroke-width="0.548207" stroke-miterlimit="10"/>
<path d="M103.933 15.7525L83.5474 28.0612" stroke="#1BA3FF" stroke-width="0.548207" stroke-miterlimit="10"/>
<path d="M60.0977 15.8141L80.4837 28.1228" stroke="#1BA3FF" stroke-width="0.548207" stroke-miterlimit="10"/>
<path d="M80.1084 56.5264C80.9282 57.0169 81.9709 56.4343 81.9709 55.4763C81.9709 56.4343 83.0136 57.0169 83.8334 56.5264" stroke="#1BA3FF" stroke-width="0.548207" stroke-miterlimit="10"/>
<path d="M26.791 53.4375L46.8167 65.5316C47.9203 66.1983 48.5947 67.394 48.5947 68.6816V93.161C48.5947 94.4484 47.9203 95.6441 46.8167 96.311L26.791 108.405C25.6183 109.11 24.1545 109.11 22.9897 108.405L2.95629 96.311C1.85269 95.6441 1.17822 94.4484 1.17822 93.161V68.6816C1.17822 67.394 1.85269 66.1983 2.95629 65.5316L22.9897 53.4375C24.1622 52.7324 25.626 52.7324 26.791 53.4375Z" fill="#7B36B6" stroke="#1BA3FF" stroke-width="0.548207" stroke-miterlimit="10"/>
<path d="M23.4111 80.0242C24.3308 80.5765 24.8903 81.573 24.8903 82.6454V107.37C24.8903 108.328 23.848 108.911 23.028 108.421L2.95629 96.3031C1.85269 95.6362 1.17822 94.4405 1.17822 93.153V68.7736C1.17822 67.8154 2.22056 67.233 3.04054 67.7235L23.4111 80.0242Z" fill="#1BA3FF"/>
<path d="M12.545 80.6221V88.3782L18.9674 92.2563V98.8099L7.11133 91.6515V77.3418L12.545 80.6221Z" fill="#7B36B6" stroke="#7B36B6" stroke-width="0.438565" stroke-miterlimit="10" stroke-linecap="round" stroke-linejoin="round"/>
<path d="M12.5435 80.6221L18.9658 84.5002V92.2564L12.5435 88.3783V80.6221Z" fill="#1BA3FF" stroke="#7B36B6" stroke-width="0.438565" stroke-miterlimit="10" stroke-linecap="round" stroke-linejoin="round"/>
<path d="M26.4795 79.963C25.5062 80.5529 24.2876 80.5529 23.3066 79.963L23.414 80.0241C24.3336 80.5765 24.893 81.5729 24.893 82.6454C24.893 81.5729 25.4525 80.5765 26.3722 80.0241L26.4795 79.963Z" stroke="#1BA3FF" stroke-width="0.548207" stroke-miterlimit="10"/>
<path d="M2.91889 65.5546C2.1295 66.0298 2.1295 67.1794 2.91889 67.6546L3.04152 67.7313C2.22144 67.2408 1.1792 67.8232 1.1792 68.7815" stroke="#1BA3FF" stroke-width="0.548207" stroke-miterlimit="10"/>
<path d="M46.8638 65.5546C47.6532 66.0298 47.6532 67.1794 46.8638 67.6546L46.7412 67.7313C47.5612 67.2408 48.6035 67.8232 48.6035 68.7815" stroke="#1BA3FF" stroke-width="0.548207" stroke-miterlimit="10"/>
<path d="M23.0293 108.428C23.8493 108.919 24.8916 108.336 24.8916 107.378C24.8916 108.336 25.9339 108.919 26.7539 108.428" stroke="#1BA3FF" stroke-width="0.548207" stroke-miterlimit="10"/>
<path d="M24.8931 107.378V82.6455" stroke="#1BA3FF" stroke-width="0.548207" stroke-miterlimit="10"/>
<path d="M46.864 67.6548L26.478 79.9632" stroke="#1BA3FF" stroke-width="0.548207" stroke-miterlimit="10"/>
<path d="M3.02832 67.7159L23.4143 80.0243" stroke="#1BA3FF" stroke-width="0.548207" stroke-miterlimit="10"/>
<path d="M270.307 243.104L290.34 255.198C291.444 255.865 292.118 257.06 292.118 258.348V282.827C292.118 284.114 291.444 285.31 290.34 285.977L270.315 298.071C269.142 298.776 267.678 298.776 266.513 298.071L246.48 285.977C245.376 285.31 244.701 284.114 244.701 282.827V258.348C244.701 257.06 245.376 255.865 246.48 255.198L266.513 243.104C267.67 242.398 269.134 242.398 270.307 243.104Z" fill="#7B36B6" stroke="#1BA3FF" stroke-width="0.548207" stroke-miterlimit="10"/>
<path d="M266.918 269.691C267.838 270.243 268.397 271.239 268.397 272.311V297.036C268.397 297.995 267.355 298.577 266.536 298.087L246.463 285.969C245.36 285.302 244.686 284.107 244.686 282.819V258.44C244.686 257.482 245.727 256.899 246.548 257.39L266.918 269.691Z" fill="#1BA3FF"/>
<path d="M256.051 270.289V278.044L262.473 281.922V288.476L250.618 281.324V267.008L256.051 270.289Z" fill="#7B36B6" stroke="#7B36B6" stroke-width="0.438565" stroke-miterlimit="10" stroke-linecap="round" stroke-linejoin="round"/>
<path d="M256.05 270.289L262.472 274.167V281.922L256.05 278.044V270.289Z" fill="#1BA3FF" stroke="#7B36B6" stroke-width="0.438565" stroke-miterlimit="10" stroke-linecap="round" stroke-linejoin="round"/>
<path d="M269.985 269.629C269.011 270.22 267.793 270.22 266.812 269.629L266.919 269.691C267.838 270.242 268.398 271.239 268.398 272.311C268.398 271.239 268.958 270.242 269.878 269.691L269.985 269.629Z" stroke="#1BA3FF" stroke-width="0.548207" stroke-miterlimit="10"/>
<path d="M246.434 255.22C245.645 255.696 245.645 256.845 246.434 257.321L246.556 257.397C245.737 256.906 244.695 257.489 244.695 258.447" stroke="#1BA3FF" stroke-width="0.548207" stroke-miterlimit="10"/>
<path d="M290.372 255.22C291.162 255.696 291.162 256.845 290.372 257.321L290.25 257.397C291.07 256.906 292.112 257.489 292.112 258.447" stroke="#1BA3FF" stroke-width="0.548207" stroke-miterlimit="10"/>
<path d="M266.545 298.095C267.365 298.585 268.407 298.002 268.407 297.044C268.407 298.002 269.449 298.585 270.269 298.095" stroke="#1BA3FF" stroke-width="0.548207" stroke-miterlimit="10"/>
<path d="M268.409 297.044V272.311" stroke="#1BA3FF" stroke-width="0.548207" stroke-miterlimit="10"/>
<path d="M290.37 257.321L269.984 269.629" stroke="#1BA3FF" stroke-width="0.548207" stroke-miterlimit="10"/>
<path d="M246.534 257.382L266.92 269.691" stroke="#1BA3FF" stroke-width="0.548207" stroke-miterlimit="10"/>
<path d="M293.717 3.9806L313.75 16.0746C314.854 16.7414 315.529 17.937 315.529 19.2247V43.7041C315.529 44.9917 314.854 46.1873 313.75 46.8541L293.725 58.9482C292.552 59.6533 291.088 59.6533 289.923 58.9482L269.89 46.8541C268.786 46.1873 268.112 44.9917 268.112 43.7041V19.2247C268.112 17.937 268.786 16.7414 269.89 16.0746L289.923 3.9806C291.081 3.27543 292.544 3.27543 293.717 3.9806Z" fill="#7B36B6" stroke="#1BA3FF" stroke-width="0.548207" stroke-miterlimit="10"/>
<path d="M290.335 30.5677C291.255 31.1195 291.814 32.1158 291.814 33.1889V57.9135C291.814 58.8716 290.772 59.4541 289.953 58.9636L269.88 46.8465C268.777 46.1797 268.103 44.9841 268.103 43.6965V19.3166C268.103 18.3586 269.144 17.7761 269.965 18.2667L290.335 30.5677Z" fill="#1BA3FF"/>
<path d="M279.462 31.1653V38.9214L285.884 42.7995V49.3601L274.036 42.2017V27.885L279.462 31.1653Z" fill="#7B36B6" stroke="#7B36B6" stroke-width="0.438565" stroke-miterlimit="10" stroke-linecap="round" stroke-linejoin="round"/>
<path d="M279.459 31.1653L285.882 35.0434V42.7996L279.459 38.9215V31.1653Z" fill="#1BA3FF" stroke="#7B36B6" stroke-width="0.438565" stroke-miterlimit="10" stroke-linecap="round" stroke-linejoin="round"/>
<path d="M293.402 30.5062C292.428 31.0963 291.21 31.0963 290.229 30.5062L290.336 30.5674C291.255 31.1193 291.815 32.1156 291.815 33.1887C291.815 32.1156 292.375 31.1193 293.295 30.5674L293.402 30.5062Z" stroke="#1BA3FF" stroke-width="0.548207" stroke-miterlimit="10"/>
<path d="M269.842 16.0975C269.053 16.5727 269.053 17.7223 269.842 18.1975L269.965 18.2741C269.144 17.7836 268.103 18.3661 268.103 19.3241" stroke="#1BA3FF" stroke-width="0.548207" stroke-miterlimit="10"/>
<path d="M313.786 16.0975C314.575 16.5727 314.575 17.7223 313.786 18.1975L313.664 18.2741C314.483 17.7836 315.526 18.3661 315.526 19.3241" stroke="#1BA3FF" stroke-width="0.548207" stroke-miterlimit="10"/>
<path d="M289.952 58.971C290.772 59.4615 291.815 58.8791 291.815 57.921C291.815 58.8791 292.856 59.4615 293.677 58.971" stroke="#1BA3FF" stroke-width="0.548207" stroke-miterlimit="10"/>
<path d="M291.816 57.9212V33.1965" stroke="#1BA3FF" stroke-width="0.548207" stroke-miterlimit="10"/>
<path d="M313.787 18.1976L293.401 30.5063" stroke="#1BA3FF" stroke-width="0.548207" stroke-miterlimit="10"/>
<path d="M269.951 18.259L290.337 30.5677" stroke="#1BA3FF" stroke-width="0.548207" stroke-miterlimit="10"/>
<path d="M134.48 167.534L154.513 179.628C155.616 180.295 156.291 181.491 156.291 182.779V207.258C156.291 208.545 155.616 209.741 154.513 210.408L134.487 222.502C133.315 223.207 131.851 223.207 130.686 222.502L110.653 210.408C109.549 209.741 108.874 208.545 108.874 207.258V182.779C108.874 181.491 109.549 180.295 110.653 179.628L130.686 167.534C131.851 166.829 133.315 166.829 134.48 167.534Z" fill="#7B36B6" stroke="#1BA3FF" stroke-width="0.548207" stroke-miterlimit="10"/>
<path d="M131.098 194.122C132.017 194.673 132.577 195.67 132.577 196.743V221.468C132.577 222.426 131.535 223.008 130.714 222.518L110.643 210.401C109.539 209.734 108.865 208.538 108.865 207.251V182.87C108.865 181.913 109.907 181.33 110.727 181.821L131.098 194.122Z" fill="#1BA3FF"/>
<path d="M120.226 194.72V202.476L126.648 206.354V212.907L114.792 205.756V191.439L120.226 194.72Z" fill="#7B36B6" stroke="#7B36B6" stroke-width="0.438565" stroke-miterlimit="10" stroke-linecap="round" stroke-linejoin="round"/>
<path d="M120.226 194.719L126.648 198.598V206.354L120.226 202.476V194.719Z" fill="#1BA3FF" stroke="#7B36B6" stroke-width="0.438565" stroke-miterlimit="10" stroke-linecap="round" stroke-linejoin="round"/>
<path d="M134.162 194.061C133.19 194.651 131.97 194.651 130.99 194.061L131.097 194.122C132.017 194.673 132.576 195.67 132.576 196.743C132.576 195.67 133.135 194.673 134.056 194.122L134.162 194.061Z" stroke="#1BA3FF" stroke-width="0.548207" stroke-miterlimit="10"/>
<path d="M110.612 179.651C109.823 180.127 109.823 181.276 110.612 181.752L110.735 181.828C109.915 181.337 108.872 181.92 108.872 182.878" stroke="#1BA3FF" stroke-width="0.548207" stroke-miterlimit="10"/>
<path d="M154.55 179.651C155.339 180.127 155.339 181.276 154.55 181.752L154.427 181.828C155.247 181.337 156.289 181.92 156.289 182.878" stroke="#1BA3FF" stroke-width="0.548207" stroke-miterlimit="10"/>
<path d="M130.714 222.525C131.534 223.016 132.575 222.433 132.575 221.475C132.575 222.433 133.618 223.016 134.438 222.525" stroke="#1BA3FF" stroke-width="0.548207" stroke-miterlimit="10"/>
<path d="M132.578 221.475V196.743" stroke="#1BA3FF" stroke-width="0.548207" stroke-miterlimit="10"/>
<path d="M154.548 181.752L134.162 194.061" stroke="#1BA3FF" stroke-width="0.548207" stroke-miterlimit="10"/>
<path d="M110.712 181.813L131.098 194.122" stroke="#1BA3FF" stroke-width="0.548207" stroke-miterlimit="10"/>
<path d="M197.791 37.726C197.002 38.2012 197.002 39.3508 197.791 39.826L197.913 39.9026C197.093 39.4121 196.051 39.9946 196.051 40.9526" stroke="#1BA3FF" stroke-width="0.548207" stroke-miterlimit="10"/>
<path d="M221.654 25.609L241.68 37.703C242.783 38.3698 243.458 39.5654 243.458 40.853V65.3325C243.458 66.62 242.783 67.8156 241.68 68.4824L221.654 80.5767C220.481 81.2821 219.017 81.2821 217.853 80.5767L197.819 68.4824C196.715 67.8156 196.042 66.62 196.042 65.3325V40.853C196.042 39.5654 196.715 38.3698 197.819 37.703L217.853 25.609C219.025 24.9038 220.489 24.9038 221.654 25.609Z" fill="#7B36B6" stroke="#1BA3FF" stroke-width="0.548207" stroke-miterlimit="10"/>
<path d="M218.274 52.1961C219.194 52.7479 219.753 53.7443 219.753 54.8172V79.542C219.753 80.4999 218.711 81.0829 217.891 80.5917L197.819 68.4748C196.715 67.808 196.042 66.6124 196.042 65.3249V40.9451C196.042 39.987 197.083 39.4046 197.903 39.8951L218.274 52.1961Z" fill="#1BA3FF"/>
<path d="M232.11 52.7938V60.55L225.688 64.4281V70.9885L237.535 63.8303V49.5135L232.11 52.7938Z" fill="#7B36B6" stroke="#7B36B6" stroke-width="0.438565" stroke-miterlimit="10" stroke-linecap="round" stroke-linejoin="round"/>
<path d="M232.11 52.7936L225.688 56.6717V64.4279L232.11 60.5498V52.7936Z" fill="#1BA3FF" stroke="#7B36B6" stroke-width="0.438565" stroke-miterlimit="10" stroke-linecap="round" stroke-linejoin="round"/>
<path d="M221.341 52.1348C220.368 52.7248 219.149 52.7248 218.168 52.1348L218.276 52.196C219.195 52.7479 219.755 53.7442 219.755 54.8172C219.755 53.7442 220.314 52.7479 221.234 52.196L221.341 52.1348Z" stroke="#1BA3FF" stroke-width="0.548207" stroke-miterlimit="10"/>
<path d="M241.729 37.726C242.518 38.2012 242.518 39.3508 241.729 39.826L241.606 39.9026C242.427 39.4121 243.468 39.9946 243.468 40.9526" stroke="#1BA3FF" stroke-width="0.548207" stroke-miterlimit="10"/>
<path d="M217.902 80.5993C218.723 81.0897 219.764 80.5076 219.764 79.5496C219.764 80.5076 220.807 81.0897 221.627 80.5993" stroke="#1BA3FF" stroke-width="0.548207" stroke-miterlimit="10"/>
<path d="M219.755 79.5496V54.8247" stroke="#1BA3FF" stroke-width="0.548207" stroke-miterlimit="10"/>
<path d="M241.727 39.826L221.341 52.1347" stroke="#1BA3FF" stroke-width="0.548207" stroke-miterlimit="10"/>
<path d="M197.891 39.8871L218.277 52.1958" stroke="#1BA3FF" stroke-width="0.548207" stroke-miterlimit="10"/>
<path d="M208.609 61.4643C209.033 61.2416 209.077 60.4931 208.709 59.7927C208.34 59.0921 207.698 58.7048 207.275 58.9275C206.852 59.1503 206.807 59.8988 207.176 60.5993C207.545 61.2998 208.186 61.6871 208.609 61.4643Z" fill="#1BA3FF" stroke="#1BA3FF" stroke-width="0.438609" stroke-miterlimit="10.0005" stroke-linecap="round" stroke-linejoin="round"/>
<path d="M203.317 239.578C204.137 240.068 205.18 239.486 205.18 238.528C205.18 239.486 206.222 240.068 207.042 239.578" stroke="#1BA3FF" stroke-width="0.548207" stroke-miterlimit="10"/>
<path d="M207.082 184.587L227.108 196.682C228.211 197.348 228.886 198.544 228.886 199.831V224.311C228.886 225.598 228.211 226.794 227.108 227.461L207.082 239.555C205.909 240.26 204.446 240.26 203.281 239.555L183.247 227.461C182.144 226.794 181.47 225.598 181.47 224.311V199.831C181.47 198.544 182.144 197.348 183.247 196.682L203.281 184.587C204.446 183.882 205.909 183.882 207.082 184.587Z" fill="#7B36B6" stroke="#1BA3FF" stroke-width="0.548207" stroke-miterlimit="10"/>
<path d="M203.693 211.174C204.613 211.727 205.173 212.722 205.173 213.796V238.52C205.173 239.478 204.13 240.061 203.31 239.57L183.238 227.453C182.135 226.786 181.46 225.591 181.46 224.303V199.924C181.46 198.966 182.503 198.383 183.323 198.873L203.693 211.174Z" fill="#1BA3FF"/>
<path d="M217.527 211.772V219.528L211.104 223.406V229.967L222.96 222.809V208.492L217.527 211.772Z" fill="#7B36B6" stroke="#7B36B6" stroke-width="0.438565" stroke-miterlimit="10" stroke-linecap="round" stroke-linejoin="round"/>
<path d="M217.527 211.772L211.104 215.65V223.407L217.527 219.528V211.772Z" fill="#1BA3FF" stroke="#7B36B6" stroke-width="0.438565" stroke-miterlimit="10" stroke-linecap="round" stroke-linejoin="round"/>
<path d="M206.758 211.113C205.784 211.703 204.566 211.703 203.585 211.113L203.692 211.174C204.612 211.727 205.171 212.723 205.171 213.795C205.171 212.723 205.731 211.727 206.65 211.174L206.758 211.113Z" stroke="#1BA3FF" stroke-width="0.548207" stroke-miterlimit="10"/>
<path d="M183.207 196.705C182.417 197.18 182.417 198.33 183.207 198.804L183.33 198.881C182.509 198.391 181.467 198.973 181.467 199.931" stroke="#1BA3FF" stroke-width="0.548207" stroke-miterlimit="10"/>
<path d="M227.145 196.705C227.934 197.18 227.934 198.33 227.145 198.804L227.022 198.881C227.842 198.391 228.885 198.973 228.885 199.931" stroke="#1BA3FF" stroke-width="0.548207" stroke-miterlimit="10"/>
<path d="M205.182 238.528V213.803" stroke="#1BA3FF" stroke-width="0.548207" stroke-miterlimit="10"/>
<path d="M227.142 198.804L206.756 211.113" stroke="#1BA3FF" stroke-width="0.548207" stroke-miterlimit="10"/>
<path d="M183.306 198.866L203.692 211.174" stroke="#1BA3FF" stroke-width="0.548207" stroke-miterlimit="10"/>
<path d="M43.814 205.043C44.634 205.533 45.6763 204.951 45.6763 203.993C45.6763 204.951 46.7186 205.533 47.5387 205.043" stroke="#1BA3FF" stroke-width="0.548207" stroke-miterlimit="10"/>
<path d="M47.5791 150.052L67.6121 162.147C68.716 162.813 69.3907 164.009 69.3907 165.296V189.776C69.3907 191.063 68.716 192.259 67.6121 192.926L47.5868 205.02C46.4142 205.725 44.9504 205.725 43.7855 205.02L23.7521 192.926C22.6485 192.259 21.9741 191.063 21.9741 189.776V165.296C21.9741 164.009 22.6485 162.813 23.7521 162.147L43.7855 150.052C44.9504 149.347 46.4142 149.347 47.5791 150.052Z" fill="#7B36B6" stroke="#1BA3FF" stroke-width="0.548207" stroke-miterlimit="10"/>
<path d="M44.1978 176.647C45.1175 177.199 45.6769 178.195 45.6769 179.269V203.993C45.6769 204.951 44.6347 205.533 43.8146 205.043L23.7429 192.926C22.6393 192.259 21.9648 191.064 21.9648 189.776V165.396C21.9648 164.438 23.0072 163.856 23.8272 164.346L44.1978 176.647Z" fill="#1BA3FF"/>
<path d="M58.0305 177.237V184.993L51.6084 188.871V195.432L63.4563 188.274V173.957L58.0305 177.237Z" fill="#7B36B6" stroke="#7B36B6" stroke-width="0.438565" stroke-miterlimit="10" stroke-linecap="round" stroke-linejoin="round"/>
<path d="M58.0306 177.237L51.6084 181.115V188.871L58.0306 184.993V177.237Z" fill="#1BA3FF" stroke="#7B36B6" stroke-width="0.438565" stroke-miterlimit="10" stroke-linecap="round" stroke-linejoin="round"/>
<path d="M47.2637 176.578C46.2904 177.168 45.0718 177.168 44.0908 176.578L44.1981 176.639C45.1179 177.192 45.6773 178.188 45.6773 179.26C45.6773 178.188 46.2368 177.192 47.1564 176.639L47.2637 176.578Z" stroke="#1BA3FF" stroke-width="0.548207" stroke-miterlimit="10"/>
<path d="M23.7138 162.178C22.9244 162.652 22.9244 163.802 23.7138 164.277L23.8364 164.354C23.0164 163.864 21.9741 164.446 21.9741 165.404" stroke="#1BA3FF" stroke-width="0.548207" stroke-miterlimit="10"/>
<path d="M67.6512 162.178C68.4404 162.652 68.4404 163.802 67.6512 164.277L67.5288 164.354C68.3486 163.864 69.3904 164.446 69.3904 165.404" stroke="#1BA3FF" stroke-width="0.548207" stroke-miterlimit="10"/>
<path d="M45.6787 204.001V179.268" stroke="#1BA3FF" stroke-width="0.548207" stroke-miterlimit="10"/>
<path d="M67.6491 164.269L47.2632 176.578" stroke="#1BA3FF" stroke-width="0.548207" stroke-miterlimit="10"/>
<path d="M23.8125 164.338L44.1984 176.647" stroke="#1BA3FF" stroke-width="0.548207" stroke-miterlimit="10"/>
<path d="M131.61 67.4631L151.636 79.5576C152.739 80.2236 153.414 81.4193 153.414 82.7068V107.187C153.414 108.474 152.739 109.67 151.636 110.337L131.61 122.431C130.438 123.136 128.974 123.136 127.809 122.431L107.776 110.337C106.672 109.67 105.997 108.474 105.997 107.187V82.7068C105.997 81.4193 106.672 80.2236 107.776 79.5576L127.809 67.4631C128.982 66.758 130.445 66.758 131.61 67.4631Z" fill="#7B36B6" stroke="#1BA3FF" stroke-width="0.548207" stroke-miterlimit="10"/>
<path d="M128.23 94.05C129.15 94.6024 129.71 95.5988 129.71 96.6712V121.396C129.71 122.354 128.667 122.937 127.847 122.446L107.776 110.329C106.672 109.662 105.997 108.466 105.997 107.179V82.7994C105.997 81.8415 107.04 81.2585 107.86 81.7488L128.23 94.05Z" fill="#1BA3FF"/>
<path d="M142.063 94.6477V102.404L135.64 106.282V112.843L147.489 105.684V91.3675L142.063 94.6477Z" fill="#7B36B6" stroke="#7B36B6" stroke-width="0.438565" stroke-miterlimit="10" stroke-linecap="round" stroke-linejoin="round"/>
<path d="M142.063 94.6477L135.64 98.5258V106.282L142.063 102.404V94.6477Z" fill="#1BA3FF" stroke="#7B36B6" stroke-width="0.438565" stroke-miterlimit="10" stroke-linecap="round" stroke-linejoin="round"/>
<path d="M131.297 93.9887C130.323 94.5787 129.105 94.5787 128.124 93.9887L128.231 94.0499C129.151 94.6023 129.71 95.5987 129.71 96.6711C129.71 95.5987 130.27 94.6023 131.189 94.0499L131.297 93.9887Z" stroke="#1BA3FF" stroke-width="0.548207" stroke-miterlimit="10"/>
<path d="M107.746 79.5803C106.956 80.0557 106.956 81.2051 107.746 81.6806L107.869 81.7566C107.049 81.2663 106.006 81.8484 106.006 82.8072" stroke="#1BA3FF" stroke-width="0.548207" stroke-miterlimit="10"/>
<path d="M151.683 79.5803C152.473 80.0557 152.473 81.2051 151.683 81.6806L151.561 81.7566C152.381 81.2663 153.424 81.8484 153.424 82.8072" stroke="#1BA3FF" stroke-width="0.548207" stroke-miterlimit="10"/>
<path d="M127.855 122.453C128.675 122.944 129.718 122.362 129.718 121.404C129.718 122.362 130.76 122.944 131.58 122.453" stroke="#1BA3FF" stroke-width="0.548207" stroke-miterlimit="10"/>
<path d="M129.711 121.404V96.6791" stroke="#1BA3FF" stroke-width="0.548207" stroke-miterlimit="10"/>
<path d="M151.682 81.6805L131.297 93.9887" stroke="#1BA3FF" stroke-width="0.548207" stroke-miterlimit="10"/>
<path d="M107.846 81.7419L128.231 94.0501" stroke="#1BA3FF" stroke-width="0.548207" stroke-miterlimit="10"/>
<path d="M329.139 155.256L349.165 167.351C350.269 168.017 350.943 169.213 350.943 170.5V194.98C350.943 196.267 350.269 197.463 349.165 198.13L329.139 210.224C327.967 210.929 326.503 210.929 325.338 210.224L305.305 198.13C304.201 197.463 303.526 196.267 303.526 194.98V170.5C303.526 169.213 304.201 168.017 305.305 167.351L325.338 155.256C326.511 154.544 327.974 154.544 329.139 155.256Z" fill="#7B36B6" stroke="#1BA3FF" stroke-width="0.548207" stroke-miterlimit="10"/>
<path d="M325.759 181.843C326.679 182.396 327.239 183.391 327.239 184.465V209.189C327.239 210.147 326.196 210.73 325.376 210.239L305.305 198.122C304.201 197.455 303.526 196.26 303.526 194.972V170.593C303.526 169.635 304.569 169.052 305.389 169.542L325.759 181.843Z" fill="#1BA3FF"/>
<path d="M339.587 182.433V190.197L333.164 194.076V200.628L345.02 193.47V179.161L339.587 182.433Z" fill="#7B36B6" stroke="#7B36B6" stroke-width="0.438565" stroke-miterlimit="10" stroke-linecap="round" stroke-linejoin="round"/>
<path d="M339.587 182.433L333.164 186.312V194.076L339.587 190.197V182.433Z" fill="#1BA3FF" stroke="#7B36B6" stroke-width="0.438565" stroke-miterlimit="10" stroke-linecap="round" stroke-linejoin="round"/>
<path d="M328.826 181.782C327.853 182.372 326.634 182.372 325.654 181.782L325.76 181.843C326.681 182.396 327.24 183.391 327.24 184.464C327.24 183.391 327.799 182.396 328.719 181.843L328.826 181.782Z" stroke="#1BA3FF" stroke-width="0.548207" stroke-miterlimit="10"/>
<path d="M305.266 167.374C304.476 167.848 304.476 168.999 305.266 169.473L305.389 169.55C304.569 169.06 303.526 169.642 303.526 170.6" stroke="#1BA3FF" stroke-width="0.548207" stroke-miterlimit="10"/>
<path d="M349.211 167.374C350.001 167.848 350.001 168.999 349.211 169.473L349.088 169.55C349.908 169.06 350.951 169.642 350.951 170.6" stroke="#1BA3FF" stroke-width="0.548207" stroke-miterlimit="10"/>
<path d="M325.376 210.247C326.196 210.737 327.238 210.155 327.238 209.197C327.238 210.155 328.281 210.737 329.101 210.247" stroke="#1BA3FF" stroke-width="0.548207" stroke-miterlimit="10"/>
<path d="M327.241 209.197V184.464" stroke="#1BA3FF" stroke-width="0.548207" stroke-miterlimit="10"/>
<path d="M349.211 169.473L328.825 181.782" stroke="#1BA3FF" stroke-width="0.548207" stroke-miterlimit="10"/>
<path d="M305.375 169.535L325.761 181.844" stroke="#1BA3FF" stroke-width="0.548207" stroke-miterlimit="10"/>
<path d="M316.102 191.108C316.525 190.885 316.57 190.137 316.201 189.437C315.832 188.736 315.191 188.349 314.767 188.572C314.344 188.795 314.299 189.543 314.668 190.244C315.037 190.944 315.678 191.331 316.102 191.108Z" fill="#1BA3FF" stroke="#1BA3FF" stroke-width="0.438609" stroke-miterlimit="10.0005" stroke-linecap="round" stroke-linejoin="round"/>
<path d="M360.897 83.3735L380.931 95.4675C382.034 96.1344 382.709 97.3301 382.709 98.6175V123.098C382.709 124.385 382.034 125.581 380.931 126.248L360.905 138.342C359.732 139.047 358.269 139.047 357.104 138.342L337.062 126.24C335.959 125.573 335.285 124.377 335.285 123.09V98.6105C335.285 97.3222 335.959 96.1274 337.062 95.4605L357.096 83.3665C358.261 82.6611 359.725 82.6611 360.897 83.3735Z" fill="#7B36B6" stroke="#1BA3FF" stroke-width="0.548207" stroke-miterlimit="10"/>
<path d="M357.51 109.961C358.43 110.513 358.989 111.509 358.989 112.582V137.307C358.989 138.265 357.947 138.848 357.127 138.357L337.062 126.24C335.959 125.573 335.285 124.377 335.285 123.09V98.7103C335.285 97.7524 336.327 97.1694 337.147 97.6597L357.51 109.961Z" fill="#1BA3FF"/>
<path d="M371.344 110.551V118.307L364.921 122.185V128.746L376.777 121.587V107.27L371.344 110.551Z" fill="#7B36B6" stroke="#7B36B6" stroke-width="0.438565" stroke-miterlimit="10" stroke-linecap="round" stroke-linejoin="round"/>
<path d="M371.344 110.551L364.921 114.429V122.185L371.344 118.307V110.551Z" fill="#1BA3FF" stroke="#7B36B6" stroke-width="0.438565" stroke-miterlimit="10" stroke-linecap="round" stroke-linejoin="round"/>
<path d="M360.574 109.9C359.6 110.49 358.382 110.49 357.401 109.9L357.509 109.961C358.428 110.512 358.988 111.509 358.988 112.582C358.988 111.509 359.547 110.512 360.466 109.961L360.574 109.9Z" stroke="#1BA3FF" stroke-width="0.548207" stroke-miterlimit="10"/>
<path d="M337.023 95.4911C336.233 95.9658 336.233 97.116 337.023 97.5906L337.146 97.6675C336.326 97.1772 335.283 97.7593 335.283 98.7172" stroke="#1BA3FF" stroke-width="0.548207" stroke-miterlimit="10"/>
<path d="M380.962 95.4911C381.751 95.9658 381.751 97.116 380.962 97.5906L380.838 97.6675C381.658 97.1772 382.701 97.7593 382.701 98.7172" stroke="#1BA3FF" stroke-width="0.548207" stroke-miterlimit="10"/>
<path d="M357.133 138.364C357.953 138.855 358.996 138.273 358.996 137.315C358.996 138.273 360.038 138.855 360.858 138.364" stroke="#1BA3FF" stroke-width="0.548207" stroke-miterlimit="10"/>
<path d="M358.997 137.315V112.582" stroke="#1BA3FF" stroke-width="0.548207" stroke-miterlimit="10"/>
<path d="M380.96 97.5906L360.575 109.9" stroke="#1BA3FF" stroke-width="0.548207" stroke-miterlimit="10"/>
<path d="M337.132 97.6528L357.511 109.961" stroke="#1BA3FF" stroke-width="0.548207" stroke-miterlimit="10"/>
<path d="M347.863 119.22C348.286 118.997 348.331 118.249 347.962 117.549C347.593 116.848 346.952 116.461 346.528 116.684C346.105 116.907 346.06 117.655 346.429 118.355C346.798 119.056 347.44 119.443 347.863 119.22Z" fill="#1BA3FF" stroke="#1BA3FF" stroke-width="0.438609" stroke-miterlimit="10.0005" stroke-linecap="round" stroke-linejoin="round"/>
<path d="M268.417 256.999C269.209 256.999 269.85 256.611 269.85 256.133C269.85 255.654 269.209 255.267 268.417 255.267C267.626 255.267 266.984 255.654 266.984 256.133C266.984 256.611 267.626 256.999 268.417 256.999Z" fill="#1BA3FF" stroke="#1BA3FF" stroke-width="0.438565" stroke-miterlimit="10" stroke-linecap="round" stroke-linejoin="round"/>
<path d="M131.871 152.865L133.128 152.152V149.677L131.871 150.397V152.865Z" fill="#1BA3FF"/>
<path d="M134.857 151.156L136.106 150.443V146.297L134.857 147.017V151.156Z" fill="#1BA3FF"/>
<path d="M137.852 149.447L139.101 148.734V142.925L137.852 143.638V149.447Z" fill="#1BA3FF"/>
<path d="M30.437 232.113L31.6862 231.4V228.925L30.437 229.645V232.113Z" fill="#1BA3FF"/>
<path d="M33.418 230.404L34.6672 229.691V225.545L33.418 226.265V230.404Z" fill="#1BA3FF"/>
<path d="M36.4072 228.695L37.6564 227.974V222.172L36.4072 222.886V228.695Z" fill="#1BA3FF"/>
<path d="M262.781 198.828L261.531 198.106V195.639L262.781 196.351V198.828Z" fill="#1BA3FF"/>
<path d="M259.788 197.118L258.539 196.398V192.259L259.788 192.972V197.118Z" fill="#1BA3FF"/>
<path d="M256.809 195.401L255.552 194.689V188.879L256.809 189.599V195.401Z" fill="#1BA3FF"/>
<path d="M293.243 188.894V191.37L295.718 189.876V187.407L293.243 188.894Z" fill="#1BA3FF"/>
<path d="M293.243 193.102V195.578L295.718 194.083V191.615L293.243 193.102Z" fill="#1BA3FF"/>
<path d="M293.243 197.317V199.786L295.718 198.291V195.823L293.243 197.317Z" fill="#1BA3FF"/>
<path d="M47.0024 139.33L49.4779 137.851V135.375L47.0024 136.855V139.33Z" fill="#1BA3FF"/>
<path d="M51.2085 136.809L53.6837 135.337V132.861L51.2085 134.341V136.809Z" fill="#1BA3FF"/>
<path d="M55.4258 134.295L57.894 132.816V130.348L55.4258 131.82V134.295Z" fill="#1BA3FF"/>
<path d="M229.011 109.853L231.487 108.436V105.96L229.011 107.378V109.853Z" fill="#1BA3FF"/>
<path d="M233.217 107.439L235.692 106.022V103.553L233.217 104.964V107.439Z" fill="#1BA3FF"/>
<path d="M237.435 105.033L239.903 103.615V101.139L237.435 102.558V105.033Z" fill="#1BA3FF"/>
<path d="M240.968 110.015L226.683 118.645V116.231L240.968 107.608V105.202L226.683 113.824V100.212" stroke="#1BA3FF" stroke-width="0.394709" stroke-miterlimit="10" stroke-linecap="round" stroke-linejoin="round"/>
<path d="M80.2128 93.0998L77.7446 91.6821V89.2139L80.2128 90.6316V93.0998Z" fill="#1BA3FF"/>
<path d="M76.003 90.6936L73.5278 89.2751V86.7998L76.003 88.2175V90.6936Z" fill="#1BA3FF"/>
<path d="M71.7968 88.2786L69.3208 86.861V84.3936L71.7968 85.8034V88.2786Z" fill="#1BA3FF"/>
<path d="M68.2607 93.2686L82.5454 101.891V99.4838L68.2607 90.8545V88.4474L82.5454 97.0776V83.4662" stroke="#1BA3FF" stroke-width="0.394709" stroke-miterlimit="10" stroke-linecap="round" stroke-linejoin="round"/>
<path d="M132.544 55.3458L135.633 53.4758L135.648 48.8159L132.56 50.6937L132.544 55.3458Z" stroke="#1BA3FF" stroke-width="0.394709" stroke-miterlimit="10" stroke-linecap="round" stroke-linejoin="round"/>
<path d="M132.261 58.8791L143.917 51.828" stroke="#1BA3FF" stroke-width="0.394709" stroke-miterlimit="10" stroke-linecap="round" stroke-linejoin="round"/>
<path d="M132.255 61.8373L143.905 54.7863" stroke="#1BA3FF" stroke-width="0.394709" stroke-miterlimit="10" stroke-linecap="round" stroke-linejoin="round"/>
<path d="M132.246 64.7957L143.895 57.7447" stroke="#1BA3FF" stroke-width="0.394709" stroke-miterlimit="10" stroke-linecap="round" stroke-linejoin="round"/>
<path d="M309.729 140.71L312.818 138.832L312.833 134.18L309.744 136.05L309.729 140.71Z" stroke="#1BA3FF" stroke-width="0.394709" stroke-miterlimit="10" stroke-linecap="round" stroke-linejoin="round"/>
<path d="M309.451 144.235L321.099 137.185" stroke="#1BA3FF" stroke-width="0.394709" stroke-miterlimit="10" stroke-linecap="round" stroke-linejoin="round"/>
<path d="M309.44 147.194L321.089 140.142" stroke="#1BA3FF" stroke-width="0.394709" stroke-miterlimit="10" stroke-linecap="round" stroke-linejoin="round"/>
<path d="M309.424 150.159L321.081 143.101" stroke="#1BA3FF" stroke-width="0.394709" stroke-miterlimit="10" stroke-linecap="round" stroke-linejoin="round"/>
<path d="M207.55 153.693L210.646 155.532L210.662 150.895L207.565 149.056L207.55 153.693Z" stroke="#1BA3FF" stroke-width="0.394709" stroke-miterlimit="10" stroke-linecap="round" stroke-linejoin="round"/>
<path d="M207.275 156.881L218.924 163.817" stroke="#1BA3FF" stroke-width="0.394709" stroke-miterlimit="10" stroke-linecap="round" stroke-linejoin="round"/>
<path d="M207.26 159.832L218.917 166.768" stroke="#1BA3FF" stroke-width="0.394709" stroke-miterlimit="10" stroke-linecap="round" stroke-linejoin="round"/>
<path d="M207.25 162.775L218.899 169.719" stroke="#1BA3FF" stroke-width="0.394709" stroke-miterlimit="10" stroke-linecap="round" stroke-linejoin="round"/>
<path d="M84.8535 216.079L87.9422 217.919L87.9571 213.282L84.8684 211.435L84.8535 216.079Z" stroke="#1BA3FF" stroke-width="0.394709" stroke-miterlimit="10" stroke-linecap="round" stroke-linejoin="round"/>
<path d="M84.5742 219.268L96.2229 226.204" stroke="#1BA3FF" stroke-width="0.394709" stroke-miterlimit="10" stroke-linecap="round" stroke-linejoin="round"/>
<path d="M84.5645 222.218L96.2131 229.155" stroke="#1BA3FF" stroke-width="0.394709" stroke-miterlimit="10" stroke-linecap="round" stroke-linejoin="round"/>
<path d="M84.5488 225.161L96.2062 232.098" stroke="#1BA3FF" stroke-width="0.394709" stroke-miterlimit="10" stroke-linecap="round" stroke-linejoin="round"/>
<path d="M176.852 188.481C176.852 187.431 177.702 187.033 178.752 187.6C179.802 188.159 180.653 189.461 180.653 190.512C180.653 191.562 179.802 191.96 178.752 191.393C177.702 190.826 176.852 189.531 176.852 188.481ZM178.752 185.254C179.802 185.813 180.653 185.423 180.653 184.373C180.653 183.323 179.802 182.02 178.752 181.461C177.702 180.901 176.852 181.292 176.852 182.342C176.852 183.384 177.702 184.694 178.752 185.254Z" stroke="#1BA3FF" stroke-width="0.394709" stroke-miterlimit="10" stroke-linecap="round" stroke-linejoin="round"/>
<path d="M270.313 206.261C271.363 205.618 272.214 205.947 272.214 206.997C272.214 208.048 271.363 209.419 270.313 210.063C269.263 210.707 268.412 210.377 268.412 209.327C268.412 208.278 269.263 206.905 270.313 206.261ZM274.559 205.564C274.559 206.614 275.409 206.944 276.46 206.3C277.51 205.656 278.36 204.284 278.36 203.234C278.36 202.184 277.51 201.854 276.46 202.499C275.409 203.143 274.559 204.514 274.559 205.564Z" stroke="#1BA3FF" stroke-width="0.394709" stroke-miterlimit="10" stroke-linecap="round" stroke-linejoin="round"/>
<path d="M109.422 59.2624C110.472 58.6186 111.323 58.9481 111.323 59.9982C111.323 61.0482 110.472 62.4201 109.422 63.0639C108.372 63.7076 107.521 63.3781 107.521 62.3281C107.521 61.278 108.372 59.9062 109.422 59.2624ZM113.66 58.5649C113.66 59.6149 114.511 59.9445 115.561 59.3007C116.611 58.6569 117.462 57.285 117.462 56.235C117.462 55.185 116.611 54.8555 115.561 55.4993C114.511 56.1431 113.66 57.515 113.66 58.5649Z" stroke="#1BA3FF" stroke-width="0.394709" stroke-miterlimit="10" stroke-linecap="round" stroke-linejoin="round"/>
<path d="M295.01 80.2776L297.155 73.9548L299.301 77.6563L295.01 80.2776ZM299.301 71.3869L297.155 67.6851L295.01 74.0081L299.301 71.3869Z" fill="#1BA3FF"/>
<path d="M162.341 141.331L165.974 141.423L162.341 145.622V141.331ZM167.238 142.856L170.872 138.655L167.238 138.564V142.856Z" fill="#1BA3FF"/>
<path d="M80.9229 126.063L84.5552 130.264L80.9229 130.356V126.063ZM85.8199 133.13L89.4522 133.038L85.8199 128.839V133.13Z" fill="#1BA3FF"/>
<path d="M185.18 91.1376L182.199 89.3676V85.9641L185.18 87.7349V91.1376ZM180.49 84.9372L177.509 83.1672V86.5699L180.49 88.3407V84.9372ZM180.49 90.4252L177.509 88.6544V92.0571L180.49 93.8278V90.4252Z" stroke="#1BA3FF" stroke-width="0.394709" stroke-miterlimit="10" stroke-linecap="round" stroke-linejoin="round"/>
<path d="M14.1553 198.613L17.1365 196.843V200.245L14.1553 202.016V198.613ZM18.8455 199.226L21.8268 197.456V194.053L18.8455 195.823V199.226ZM18.8455 204.714L21.8268 202.944V199.54L18.8455 201.311V204.714Z" stroke="#1BA3FF" stroke-width="0.394709" stroke-miterlimit="10" stroke-linecap="round" stroke-linejoin="round"/>
<path d="M238.354 135.36L225.058 127.328C223.578 126.431 223.578 124.285 225.058 123.389L289.595 84.4163C290.975 83.5807 291.818 82.094 291.818 80.477V49.2606" stroke="#1BA3FF" stroke-width="0.438565" stroke-miterlimit="10" stroke-linecap="round" stroke-linejoin="round"/>
<path d="M188.553 202.031L176.214 194.582C174.835 193.746 173.991 192.259 173.991 190.642V83.2739C173.991 81.6648 174.835 80.1702 176.214 79.3347L207.904 60.1974" stroke="#1BA3FF" stroke-width="0.438565" stroke-miterlimit="10" stroke-linecap="round" stroke-linejoin="round"/>
<path d="M132.599 180.564V158.536C132.599 156.927 133.441 155.432 134.821 154.597L173.991 130.945" stroke="#1BA3FF" stroke-width="0.438565" stroke-miterlimit="10" stroke-linecap="round" stroke-linejoin="round"/>
<path d="M315.384 189.845L290.108 205.104" stroke="#1BA3FF" stroke-width="0.438565" stroke-miterlimit="10" stroke-linecap="round" stroke-linejoin="round"/>
<path d="M268.418 256.133V243.157C268.418 241.548 269.261 240.053 270.641 239.218L287.885 228.802C289.264 227.967 290.107 226.48 290.107 224.863V169.159C290.107 167.55 289.264 166.056 287.885 165.22L272.074 155.67" stroke="#1BA3FF" stroke-width="0.438565" stroke-miterlimit="10" stroke-linecap="round" stroke-linejoin="round"/>
<path d="M272.891 156.071C273.26 155.371 273.216 154.623 272.793 154.4C272.37 154.177 271.727 154.565 271.358 155.265C270.99 155.966 271.034 156.714 271.458 156.937C271.881 157.16 272.523 156.772 272.891 156.071Z" fill="#1BA3FF" stroke="#1BA3FF" stroke-width="0.438609" stroke-miterlimit="10.0005" stroke-linecap="round" stroke-linejoin="round"/>
<path d="M327.263 168.285V132.562C327.263 130.953 328.106 129.459 329.485 128.623L347.151 117.963" stroke="#1BA3FF" stroke-width="0.438565" stroke-miterlimit="10" stroke-linecap="round" stroke-linejoin="round"/>
<path d="M290.107 188.32L267.207 202.146C265.743 203.027 263.912 203.027 262.456 202.146L207.529 168.975C206.51 168.362 205.207 169.098 205.207 170.286V197.616" stroke="#1BA3FF" stroke-width="0.438565" stroke-miterlimit="10" stroke-linecap="round" stroke-linejoin="round"/>
<path d="M205.2 198.482C205.992 198.482 206.633 198.095 206.633 197.616C206.633 197.138 205.992 196.75 205.2 196.75C204.409 196.75 203.768 197.138 203.768 197.616C203.768 198.095 204.409 198.482 205.2 198.482Z" fill="#1BA3FF" stroke="#1BA3FF" stroke-width="0.438565" stroke-miterlimit="10" stroke-linecap="round" stroke-linejoin="round"/>
<path d="M327.261 169.152C328.052 169.152 328.694 168.764 328.694 168.285C328.694 167.807 328.052 167.419 327.261 167.419C326.47 167.419 325.828 167.807 325.828 168.285C325.828 168.764 326.47 169.152 327.261 169.152Z" fill="#1BA3FF" stroke="#1BA3FF" stroke-width="0.438565" stroke-miterlimit="10" stroke-linecap="round" stroke-linejoin="round"/>
<path d="M78.1995 247.893C78.9904 247.893 79.632 247.506 79.632 247.027C79.632 246.549 78.9904 246.162 78.1995 246.162C77.4076 246.162 76.7661 246.549 76.7661 247.027C76.7661 247.506 77.4076 247.893 78.1995 247.893Z" fill="#1BA3FF" stroke="#1BA3FF" stroke-width="0.438565" stroke-miterlimit="10" stroke-linecap="round" stroke-linejoin="round"/>
<path d="M132.598 181.43C133.39 181.43 134.031 181.042 134.031 180.564C134.031 180.086 133.39 179.698 132.598 179.698C131.806 179.698 131.165 180.086 131.165 180.564C131.165 181.042 131.806 181.43 132.598 181.43Z" fill="#1BA3FF" stroke="#1BA3FF" stroke-width="0.438565" stroke-miterlimit="10" stroke-linecap="round" stroke-linejoin="round"/>
<path d="M45.6982 163.947C46.4897 163.947 47.1314 163.56 47.1314 163.081C47.1314 162.603 46.4897 162.215 45.6982 162.215C44.9067 162.215 44.2651 162.603 44.2651 163.081C44.2651 163.56 44.9067 163.947 45.6982 163.947Z" fill="#1BA3FF" stroke="#1BA3FF" stroke-width="0.438565" stroke-miterlimit="10" stroke-linecap="round" stroke-linejoin="round"/>
<path d="M129.533 83.1439C130.325 83.1439 130.967 82.7567 130.967 82.2777C130.967 81.7996 130.325 81.4124 129.533 81.4124C128.742 81.4124 128.1 81.7996 128.1 82.2777C128.1 82.7567 128.742 83.1439 129.533 83.1439Z" fill="#1BA3FF" stroke="#1BA3FF" stroke-width="0.438565" stroke-miterlimit="10" stroke-linecap="round" stroke-linejoin="round"/>
<path d="M93.8193 36.1241L127.31 56.35C128.689 57.1853 129.533 58.6722 129.533 60.2893V82.2854" stroke="#1BA3FF" stroke-width="0.438565" stroke-miterlimit="10" stroke-linecap="round" stroke-linejoin="round"/>
<path d="M94.6131 36.5214C94.9819 35.8208 94.9373 35.0724 94.5134 34.8496C94.0904 34.6269 93.4489 35.0142 93.0801 35.7147C92.7112 36.4152 92.7558 37.1637 93.1788 37.3864C93.6027 37.6092 94.2442 37.2218 94.6131 36.5214Z" fill="#1BA3FF" stroke="#1BA3FF" stroke-width="0.438609" stroke-miterlimit="10.0005" stroke-linecap="round" stroke-linejoin="round"/>
<path d="M74.1685 128.44L132.598 163.718" stroke="#1BA3FF" stroke-width="0.438565" stroke-miterlimit="10" stroke-linecap="round" stroke-linejoin="round"/>
<path d="M78.2008 247.027V213.872C78.2008 212.079 76.2466 210.975 74.7144 211.902L28.5545 239.777C27.0217 240.704 25.0674 239.6 25.0674 237.808V192.535C25.0674 190.925 25.9104 189.431 27.29 188.595L33.8272 184.649" stroke="#1BA3FF" stroke-width="0.438565" stroke-miterlimit="10" stroke-linecap="round" stroke-linejoin="round"/>
<path d="M45.6982 163.081V148.221C45.6982 146.611 46.5413 145.116 47.9208 144.282L117.862 102.052" stroke="#1BA3FF" stroke-width="0.438565" stroke-miterlimit="10" stroke-linecap="round" stroke-linejoin="round"/>
<path d="M116.813 50.0038L66.0551 80.6525C64.6751 81.4881 63.8325 82.9748 63.8325 84.5927V100.311C63.8325 102.105 61.8783 103.209 60.3453 102.281L36.748 88.0338" stroke="#1BA3FF" stroke-width="0.438565" stroke-miterlimit="10" stroke-linecap="round" stroke-linejoin="round"/>
<path d="M37.5385 88.436C37.9072 87.7359 37.8629 86.9868 37.4396 86.7648C37.0162 86.5419 36.3744 86.9291 36.0057 87.6292C35.6372 88.3302 35.6815 89.0784 36.1047 89.3012C36.528 89.5241 37.17 89.1369 37.5385 88.436Z" fill="#1BA3FF" stroke="#1BA3FF" stroke-width="0.438609" stroke-miterlimit="10.0005" stroke-linecap="round" stroke-linejoin="round"/>
</svg>
