<svg width="215" height="284" viewBox="0 0 215 284" fill="none" xmlns="http://www.w3.org/2000/svg">
<path d="M37.4863 244.632L43.6584 248.371V236.06L37.4863 232.321V244.632Z" fill="#7B36B6" stroke="#7B36B6" stroke-miterlimit="10"/>
<path d="M26.3299 225.552L4.29422 212.178C2.10105 210.846 1.00879 208.59 1.00879 206.324V218.983C1.00879 221.162 2.14439 223.182 3.99949 224.306L26.3299 237.863V225.552Z" fill="#7B36B6" stroke="#7B36B6" stroke-miterlimit="10"/>
<path d="M94.7339 267.058V279.369" stroke="#7B36B6" stroke-miterlimit="10"/>
<path d="M1 206.315C1 204.05 2.09225 201.785 4.28542 200.46L94.7257 145.58C102.597 140.807 112.445 140.807 120.316 145.58L210.756 200.46C212.949 201.793 214.041 204.05 214.041 206.315V218.974C214.041 221.152 212.906 223.174 211.051 224.298L120.316 279.36C112.445 284.135 102.597 284.135 94.7257 279.36L3.99069 224.298C2.13559 223.174 1 221.152 1 218.974V206.315Z" stroke="#7B36B6" stroke-width="1.25" stroke-miterlimit="10"/>
<path d="M4.29423 200.46C2.10105 201.794 1.00879 204.05 1.00879 206.315C1.00879 208.58 2.10105 210.846 4.29423 212.17L94.7346 267.05C102.606 271.824 112.453 271.824 120.324 267.05L210.764 212.17C212.957 210.837 214.05 208.58 214.05 206.315C214.05 204.05 212.957 201.785 210.764 200.46" stroke="#7B36B6" stroke-width="1.25" stroke-miterlimit="10"/>
<mask id="mask0_362_4518" style="mask-type:luminance" maskUnits="userSpaceOnUse" x="120" y="212" width="92" height="68">
<path d="M120.324 267.058L210.766 212.178L211.06 224.298L120.324 279.369V267.058Z" fill="white"/>
</mask>
<g mask="url(#mask0_362_4518)">
<path d="M203.977 218.442C203.977 219.001 203.527 219.453 202.973 219.453C202.417 219.453 201.967 219.001 201.967 218.442C201.967 217.885 202.417 217.432 202.973 217.432C203.527 217.432 203.977 217.885 203.977 218.442Z" fill="#7B36B6"/>
<path d="M198.785 225.84C198.23 225.84 197.779 226.293 197.779 226.85C197.779 227.408 198.23 227.861 198.785 227.861C199.34 227.861 199.791 227.408 199.791 226.85C199.791 226.293 199.34 225.84 198.785 225.84ZM203.977 226.85C203.977 227.408 203.527 227.861 202.973 227.861C202.417 227.861 201.967 227.408 201.967 226.85C201.967 226.293 202.417 225.84 202.973 225.84C203.527 225.84 203.977 226.293 203.977 226.85ZM203.977 222.643C203.977 223.2 203.527 223.654 202.973 223.654C202.417 223.654 201.967 223.2 201.967 222.643C201.967 222.084 202.417 221.632 202.973 221.632C203.527 221.632 203.977 222.084 203.977 222.643ZM199.791 222.643C199.791 223.2 199.34 223.654 198.785 223.654C198.23 223.654 197.779 223.2 197.779 222.643C197.779 222.084 198.23 221.632 198.785 221.632C199.34 221.632 199.791 222.084 199.791 222.643Z" fill="#7B36B6"/>
<path d="M199.791 231.058C199.791 231.617 199.34 232.069 198.785 232.069C198.23 232.069 197.779 231.617 197.779 231.058C197.779 230.501 198.23 230.048 198.785 230.048C199.34 230.048 199.791 230.501 199.791 231.058Z" fill="#7B36B6"/>
<path d="M190.419 225.84C189.865 225.84 189.414 226.293 189.414 226.85C189.414 227.408 189.865 227.861 190.419 227.861C190.974 227.861 191.425 227.408 191.425 226.85C191.425 226.293 190.974 225.84 190.419 225.84ZM195.611 226.85C195.611 227.408 195.162 227.861 194.606 227.861C194.051 227.861 193.601 227.408 193.601 226.85C193.601 226.293 194.051 225.84 194.606 225.84C195.162 225.84 195.611 226.293 195.611 226.85ZM195.611 222.643C195.611 223.2 195.162 223.654 194.606 223.654C194.051 223.654 193.601 223.2 193.601 222.643C193.601 222.084 194.051 221.632 194.606 221.632C195.162 221.632 195.611 222.084 195.611 222.643Z" fill="#7B36B6"/>
<path d="M190.419 234.256C189.865 234.256 189.414 234.709 189.414 235.267C189.414 235.824 189.865 236.277 190.419 236.277C190.974 236.277 191.425 235.824 191.425 235.267C191.425 234.709 190.974 234.256 190.419 234.256ZM195.611 231.058C195.611 231.617 195.162 232.069 194.606 232.069C194.051 232.069 193.601 231.617 193.601 231.058C193.601 230.501 194.051 230.048 194.606 230.048C195.162 230.048 195.611 230.501 195.611 231.058ZM191.425 231.058C191.425 231.617 190.974 232.069 190.419 232.069C189.865 232.069 189.414 231.617 189.414 231.058C189.414 230.501 189.865 230.048 190.419 230.048C190.974 230.048 191.425 230.501 191.425 231.058Z" fill="#7B36B6"/>
<path d="M187.237 226.85C187.237 227.408 186.788 227.861 186.233 227.861C185.677 227.861 185.227 227.408 185.227 226.85C185.227 226.293 185.677 225.84 186.233 225.84C186.788 225.84 187.237 226.293 187.237 226.85Z" fill="#7B36B6"/>
<path d="M182.045 234.256C181.491 234.256 181.04 234.709 181.04 235.267C181.04 235.824 181.491 236.277 182.045 236.277C182.6 236.277 183.051 235.824 183.051 235.267C183.051 234.709 182.6 234.256 182.045 234.256ZM187.237 235.267C187.237 235.824 186.787 236.277 186.233 236.277C185.677 236.277 185.227 235.824 185.227 235.267C185.227 234.709 185.677 234.256 186.233 234.256C186.787 234.256 187.237 234.709 187.237 235.267ZM187.237 231.058C187.237 231.617 186.787 232.069 186.233 232.069C185.677 232.069 185.227 231.617 185.227 231.058C185.227 230.501 185.677 230.048 186.233 230.048C186.787 230.048 187.237 230.501 187.237 231.058ZM183.051 231.058C183.051 231.617 182.6 232.069 182.045 232.069C181.491 232.069 181.04 231.617 181.04 231.058C181.04 230.501 181.491 230.048 182.045 230.048C182.6 230.048 183.051 230.501 183.051 231.058Z" fill="#7B36B6"/>
<path d="M187.237 239.474C187.237 240.033 186.787 240.485 186.233 240.485C185.677 240.485 185.227 240.033 185.227 239.474C185.227 238.917 185.677 238.465 186.233 238.465C186.787 238.465 187.237 238.917 187.237 239.474ZM183.051 239.474C183.051 240.033 182.6 240.485 182.045 240.485C181.491 240.485 181.04 240.033 181.04 239.474C181.04 238.917 181.491 238.465 182.045 238.465C182.6 238.465 183.051 238.917 183.051 239.474Z" fill="#7B36B6"/>
<path d="M173.681 234.256C173.126 234.256 172.675 234.709 172.675 235.267C172.675 235.824 173.126 236.277 173.681 236.277C174.235 236.277 174.687 235.824 174.687 235.267C174.687 234.709 174.235 234.256 173.681 234.256ZM178.873 235.267C178.873 235.824 178.423 236.277 177.867 236.277C177.313 236.277 176.863 235.824 176.863 235.267C176.863 234.709 177.313 234.256 177.867 234.256C178.423 234.256 178.873 234.709 178.873 235.267Z" fill="#7B36B6"/>
<path d="M173.681 242.664C173.126 242.664 172.675 243.116 172.675 243.675C172.675 244.232 173.126 244.685 173.681 244.685C174.235 244.685 174.687 244.232 174.687 243.675C174.687 243.116 174.235 242.664 173.681 242.664ZM178.873 243.675C178.873 244.232 178.423 244.685 177.867 244.685C177.313 244.685 176.863 244.232 176.863 243.675C176.863 243.116 177.313 242.664 177.867 242.664C178.423 242.664 178.873 243.116 178.873 243.675ZM178.873 239.466C178.873 240.023 178.423 240.477 177.867 240.477C177.313 240.477 176.863 240.023 176.863 239.466C176.863 238.908 177.313 238.455 177.867 238.455C178.423 238.455 178.873 238.908 178.873 239.466ZM174.687 239.466C174.687 240.023 174.235 240.477 173.681 240.477C173.126 240.477 172.675 240.023 172.675 239.466C172.675 238.908 173.126 238.455 173.681 238.455C174.235 238.455 174.687 238.908 174.687 239.466Z" fill="#7B36B6"/>
<path d="M165.307 242.664C164.752 242.664 164.301 243.116 164.301 243.675C164.301 244.232 164.752 244.685 165.307 244.685C165.861 244.685 166.312 244.232 166.312 243.675C166.312 243.116 165.861 242.664 165.307 242.664ZM170.499 243.675C170.499 244.232 170.049 244.685 169.493 244.685C168.939 244.685 168.489 244.232 168.489 243.675C168.489 243.116 168.939 242.664 169.493 242.664C170.049 242.664 170.499 243.116 170.499 243.675ZM170.499 239.466C170.499 240.023 170.049 240.477 169.493 240.477C168.939 240.477 168.489 240.023 168.489 239.466C168.489 238.908 168.939 238.455 169.493 238.455C170.049 238.455 170.499 238.908 170.499 239.466ZM166.312 239.466C166.312 240.023 165.861 240.477 165.307 240.477C164.752 240.477 164.301 240.023 164.301 239.466C164.301 238.908 164.752 238.455 165.307 238.455C165.861 238.455 166.312 238.908 166.312 239.466Z" fill="#7B36B6"/>
<path d="M165.307 251.08C164.752 251.08 164.301 251.532 164.301 252.091C164.301 252.648 164.752 253.101 165.307 253.101C165.861 253.101 166.312 252.648 166.312 252.091C166.312 251.532 165.861 251.08 165.307 251.08ZM170.499 247.882C170.499 248.44 170.049 248.893 169.493 248.893C168.939 248.893 168.489 248.44 168.489 247.882C168.489 247.325 168.939 246.871 169.493 246.871C170.049 246.871 170.499 247.325 170.499 247.882ZM166.312 247.882C166.312 248.44 165.861 248.893 165.307 248.893C164.752 248.893 164.301 248.44 164.301 247.882C164.301 247.325 164.752 246.871 165.307 246.871C165.861 246.871 166.312 247.325 166.312 247.882Z" fill="#7B36B6"/>
<path d="M156.941 242.664C156.386 242.664 155.935 243.116 155.935 243.675C155.935 244.232 156.386 244.685 156.941 244.685C157.496 244.685 157.947 244.232 157.947 243.675C157.947 243.116 157.496 242.664 156.941 242.664ZM162.133 243.675C162.133 244.232 161.683 244.685 161.127 244.685C160.573 244.685 160.122 244.232 160.122 243.675C160.122 243.116 160.573 242.664 161.127 242.664C161.683 242.664 162.133 243.116 162.133 243.675Z" fill="#7B36B6"/>
<path d="M156.941 251.08C156.386 251.08 155.935 251.532 155.935 252.091C155.935 252.648 156.386 253.101 156.941 253.101C157.496 253.101 157.947 252.648 157.947 252.091C157.947 251.532 157.496 251.08 156.941 251.08ZM162.133 252.091C162.133 252.648 161.683 253.101 161.127 253.101C160.573 253.101 160.122 252.648 160.122 252.091C160.122 251.532 160.573 251.08 161.127 251.08C161.683 251.08 162.133 251.532 162.133 252.091ZM162.133 247.882C162.133 248.44 161.683 248.893 161.127 248.893C160.573 248.893 160.122 248.44 160.122 247.882C160.122 247.325 160.573 246.871 161.127 246.871C161.683 246.871 162.133 247.325 162.133 247.882ZM157.947 247.882C157.947 248.44 157.496 248.893 156.941 248.893C156.386 248.893 155.935 248.44 155.935 247.882C155.935 247.325 156.386 246.871 156.941 246.871C157.496 246.871 157.947 247.325 157.947 247.882Z" fill="#7B36B6"/>
<path d="M157.938 256.299C157.938 256.856 157.487 257.309 156.933 257.309C156.378 257.309 155.927 256.856 155.927 256.299C155.927 255.741 156.378 255.288 156.933 255.288C157.487 255.288 157.938 255.741 157.938 256.299Z" fill="#7B36B6"/>
<path d="M148.567 251.08C148.012 251.08 147.561 251.532 147.561 252.091C147.561 252.648 148.012 253.101 148.567 253.101C149.122 253.101 149.573 252.648 149.573 252.091C149.573 251.532 149.122 251.08 148.567 251.08ZM153.759 252.091C153.759 252.648 153.309 253.101 152.753 253.101C152.199 253.101 151.749 252.648 151.749 252.091C151.749 251.532 152.199 251.08 152.753 251.08C153.309 251.08 153.759 251.532 153.759 252.091ZM153.759 247.882C153.759 248.44 153.309 248.893 152.753 248.893C152.199 248.893 151.749 248.44 151.749 247.882C151.749 247.325 152.199 246.871 152.753 246.871C153.309 246.871 153.759 247.325 153.759 247.882Z" fill="#7B36B6"/>
<path d="M148.567 259.487C148.012 259.487 147.561 259.94 147.561 260.498C147.561 261.055 148.012 261.508 148.567 261.508C149.122 261.508 149.573 261.055 149.573 260.498C149.573 259.94 149.122 259.487 148.567 259.487ZM153.759 256.29C153.759 256.847 153.309 257.301 152.753 257.301C152.199 257.301 151.749 256.847 151.749 256.29C151.749 255.733 152.199 255.279 152.753 255.279C153.309 255.279 153.759 255.733 153.759 256.29ZM149.573 256.29C149.573 256.847 149.122 257.301 148.567 257.301C148.012 257.301 147.561 256.847 147.561 256.29C147.561 255.733 148.012 255.279 148.567 255.279C149.122 255.279 149.573 255.733 149.573 256.29Z" fill="#7B36B6"/>
<path d="M145.385 252.09C145.385 252.648 144.935 253.101 144.379 253.101C143.825 253.101 143.375 252.648 143.375 252.09C143.375 251.532 143.825 251.08 144.379 251.08C144.935 251.08 145.385 251.532 145.385 252.09Z" fill="#7B36B6"/>
<path d="M140.203 259.487C139.648 259.487 139.197 259.94 139.197 260.498C139.197 261.055 139.648 261.508 140.203 261.508C140.757 261.508 141.208 261.055 141.208 260.498C141.208 259.94 140.757 259.487 140.203 259.487ZM145.395 260.498C145.395 261.055 144.944 261.508 144.389 261.508C143.834 261.508 143.383 261.055 143.383 260.498C143.383 259.94 143.834 259.487 144.389 259.487C144.944 259.487 145.395 259.94 145.395 260.498ZM145.395 256.29C145.395 256.847 144.944 257.301 144.389 257.301C143.834 257.301 143.383 256.847 143.383 256.29C143.383 255.733 143.834 255.279 144.389 255.279C144.944 255.279 145.395 255.733 145.395 256.29ZM141.208 256.29C141.208 256.847 140.757 257.301 140.203 257.301C139.648 257.301 139.197 256.847 139.197 256.29C139.197 255.733 139.648 255.279 140.203 255.279C140.757 255.279 141.208 255.733 141.208 256.29Z" fill="#7B36B6"/>
<path d="M145.385 264.706C145.385 265.264 144.935 265.717 144.379 265.717C143.825 265.717 143.375 265.264 143.375 264.706C143.375 264.149 143.825 263.696 144.379 263.696C144.935 263.696 145.385 264.149 145.385 264.706ZM141.199 264.706C141.199 265.264 140.748 265.717 140.193 265.717C139.638 265.717 139.187 265.264 139.187 264.706C139.187 264.149 139.638 263.696 140.193 263.696C140.748 263.696 141.199 264.149 141.199 264.706Z" fill="#7B36B6"/>
<path d="M131.829 259.487C131.274 259.487 130.823 259.94 130.823 260.498C130.823 261.055 131.274 261.508 131.829 261.508C132.383 261.508 132.834 261.055 132.834 260.498C132.834 259.94 132.383 259.487 131.829 259.487ZM137.021 260.498C137.021 261.055 136.571 261.508 136.015 261.508C135.46 261.508 135.009 261.055 135.009 260.498C135.009 259.94 135.46 259.487 136.015 259.487C136.571 259.487 137.021 259.94 137.021 260.498Z" fill="#7B36B6"/>
<path d="M131.829 267.903C131.274 267.903 130.823 268.357 130.823 268.914C130.823 269.471 131.274 269.925 131.829 269.925C132.383 269.925 132.834 269.471 132.834 268.914C132.834 268.357 132.383 267.903 131.829 267.903ZM137.021 268.914C137.021 269.471 136.571 269.925 136.015 269.925C135.46 269.925 135.009 269.471 135.009 268.914C135.009 268.357 135.46 267.903 136.015 267.903C136.571 267.903 137.021 268.357 137.021 268.914ZM137.021 264.706C137.021 265.264 136.571 265.717 136.015 265.717C135.46 265.717 135.009 265.264 135.009 264.706C135.009 264.149 135.46 263.696 136.015 263.696C136.571 263.696 137.021 264.149 137.021 264.706ZM132.834 264.706C132.834 265.264 132.383 265.717 131.829 265.717C131.274 265.717 130.823 265.264 130.823 264.706C130.823 264.149 131.274 263.696 131.829 263.696C132.383 263.696 132.834 264.149 132.834 264.706Z" fill="#7B36B6"/>
<path d="M132.834 273.123C132.834 273.68 132.383 274.132 131.829 274.132C131.274 274.132 130.823 273.68 130.823 273.123C130.823 272.564 131.274 272.112 131.829 272.112C132.383 272.112 132.834 272.564 132.834 273.123Z" fill="#7B36B6"/>
<path d="M123.463 267.903C122.908 267.903 122.457 268.357 122.457 268.914C122.457 269.471 122.908 269.925 123.463 269.925C124.017 269.925 124.469 269.471 124.469 268.914C124.469 268.357 124.017 267.903 123.463 267.903ZM128.655 268.914C128.655 269.471 128.204 269.925 127.649 269.925C127.095 269.925 126.644 269.471 126.644 268.914C126.644 268.357 127.095 267.903 127.649 267.903C128.204 267.903 128.655 268.357 128.655 268.914ZM128.655 264.706C128.655 265.264 128.204 265.717 127.649 265.717C127.095 265.717 126.644 265.264 126.644 264.706C126.644 264.149 127.095 263.696 127.649 263.696C128.204 263.696 128.655 264.149 128.655 264.706ZM124.469 264.706C124.469 265.264 124.017 265.717 123.463 265.717C122.908 265.717 122.457 265.264 122.457 264.706C122.457 264.149 122.908 263.696 123.463 263.696C124.017 263.696 124.469 264.149 124.469 264.706Z" fill="#7B36B6"/>
<path d="M123.463 276.311C122.908 276.311 122.457 276.765 122.457 277.322C122.457 277.879 122.908 278.333 123.463 278.333C124.017 278.333 124.469 277.879 124.469 277.322C124.469 276.765 124.017 276.311 123.463 276.311ZM128.655 273.113C128.655 273.672 128.204 274.124 127.649 274.124C127.095 274.124 126.644 273.672 126.644 273.113C126.644 272.556 127.095 272.104 127.649 272.104C128.204 272.104 128.655 272.556 128.655 273.113ZM124.469 273.113C124.469 273.672 124.017 274.124 123.463 274.124C122.908 274.124 122.457 273.672 122.457 273.113C122.457 272.556 122.908 272.104 123.463 272.104C124.017 272.104 124.469 272.556 124.469 273.113Z" fill="#7B36B6"/>
</g>
<path d="M210.764 212.178L205.867 215.15V227.46L211.059 224.306C212.914 223.182 214.05 221.162 214.05 218.983V206.324C214.05 208.59 212.957 210.854 210.764 212.178Z" fill="#7B36B6" stroke="#7B36B6" stroke-miterlimit="10"/>
<path d="M92.1037 176.531L37.1876 143.207C36.8929 143.024 36.5547 143.049 36.2947 143.207C36.052 143.354 34.4396 144.33 34.1795 144.487C33.9368 144.636 33.7634 144.905 33.7634 145.228V158.619C33.7634 159.229 34.0841 159.795 34.5957 160.108L89.5117 193.434C89.8064 193.616 90.1446 193.591 90.4045 193.434C90.6473 193.285 92.2597 192.309 92.5198 192.153C92.7624 192.005 92.9359 191.735 92.9359 191.412V178.022C92.9359 177.411 92.6151 176.845 92.1037 176.531Z" fill="#7B36B6" stroke="#1BA3FF" stroke-linecap="round" stroke-linejoin="round"/>
<path d="M22 124.762C22 126.6 22.8929 128.439 24.6699 129.519L98.1197 174.092C104.508 177.969 112.51 177.969 118.908 174.092L192.357 129.519C194.133 128.439 195.027 126.6 195.027 124.762C195.027 122.924 194.133 121.085 192.357 120.005L118.908 75.4321C112.518 71.555 104.517 71.555 98.1197 75.4321L24.6699 120.005C22.8929 121.085 22 122.924 22 124.762Z" stroke="#7B36B6" stroke-linecap="round" stroke-linejoin="round"/>
<path d="M29.5417 160.126L30.686 160.823V133.17L29.5417 132.472V160.126Z" fill="#7B36B6" stroke="#7B36B6" stroke-linecap="round" stroke-linejoin="round"/>
<path d="M26.5857 130.678L24.6699 129.519C22.8929 128.439 22 126.6 22 124.762V153.147C22 154.916 22.9189 156.553 24.4273 157.469L26.5857 158.776V130.678Z" fill="#7B36B6" stroke="#7B36B6" stroke-linecap="round" stroke-linejoin="round"/>
<path d="M192.357 129.519L191.577 129.999V158.096L192.6 157.469C194.108 156.553 195.027 154.916 195.027 153.147V124.762C195.027 126.6 194.135 128.439 192.357 129.519Z" fill="#7B36B6" stroke="#7B36B6" stroke-linecap="round" stroke-linejoin="round"/>
<path d="M129.154 187.205V177.734C129.154 177.028 128.391 176.593 127.793 176.958C127.177 177.333 126.804 178.004 126.804 178.727V188.197C126.804 188.903 127.567 189.339 128.165 188.972C128.781 188.598 129.154 187.928 129.154 187.205Z" fill="#1BA3FF" stroke="#1BA3FF" stroke-linecap="round" stroke-linejoin="round"/>
<path d="M135.213 183.528V174.057C135.213 173.351 134.451 172.916 133.853 173.282C133.237 173.656 132.864 174.327 132.864 175.05V184.521C132.864 185.227 133.626 185.662 134.224 185.297C134.84 184.922 135.213 184.251 135.213 183.528Z" fill="#1BA3FF" stroke="#1BA3FF" stroke-linecap="round" stroke-linejoin="round"/>
<path d="M141.273 179.851V170.38C141.273 169.674 140.51 169.239 139.912 169.605C139.296 169.98 138.923 170.65 138.923 171.374V180.844C138.923 181.55 139.686 181.985 140.285 181.62C140.9 181.245 141.273 180.574 141.273 179.851Z" fill="#1BA3FF" stroke="#1BA3FF" stroke-linecap="round" stroke-linejoin="round"/>
<path d="M147.331 176.174V166.704C147.331 165.998 146.568 165.562 145.97 165.929C145.354 166.303 144.981 166.974 144.981 167.698V177.167C144.981 177.873 145.745 178.308 146.343 177.943C146.958 177.568 147.331 176.897 147.331 176.174Z" fill="#1BA3FF" stroke="#1BA3FF" stroke-linecap="round" stroke-linejoin="round"/>
<path d="M153.391 172.498V163.027C153.391 162.322 152.628 161.885 152.03 162.252C151.414 162.627 151.042 163.298 151.042 164.021V173.491C151.042 174.196 151.805 174.633 152.403 174.266C153.018 173.892 153.391 173.221 153.391 172.498Z" fill="#1BA3FF" stroke="#1BA3FF" stroke-linecap="round" stroke-linejoin="round"/>
<path d="M159.45 168.821V159.35C159.45 158.645 158.687 158.209 158.089 158.575C157.474 158.95 157.102 159.621 157.102 160.344V169.815C157.102 170.519 157.865 170.956 158.462 170.59C159.078 170.215 159.45 169.544 159.45 168.821Z" fill="#1BA3FF" stroke="#1BA3FF" stroke-linecap="round" stroke-linejoin="round"/>
<path d="M165.511 165.144V155.673C165.511 154.968 164.747 154.532 164.149 154.898C163.534 155.273 163.161 155.944 163.161 156.667V166.138C163.161 166.843 163.924 167.279 164.522 166.913C165.138 166.538 165.511 165.867 165.511 165.144Z" fill="#1BA3FF" stroke="#1BA3FF" stroke-linecap="round" stroke-linejoin="round"/>
<path d="M171.57 161.467V151.998C171.57 151.292 170.807 150.856 170.208 151.221C169.594 151.596 169.221 152.267 169.221 152.99V162.461C169.221 163.167 169.983 163.602 170.581 163.236C171.197 162.861 171.57 162.19 171.57 161.467Z" fill="#1BA3FF" stroke="#1BA3FF" stroke-linecap="round" stroke-linejoin="round"/>
<path d="M177.629 157.79V148.321C177.629 147.615 176.866 147.18 176.267 147.545C175.652 147.919 175.279 148.591 175.279 149.314V158.784C175.279 159.49 176.042 159.926 176.64 159.559C177.256 159.184 177.629 158.515 177.629 157.79Z" fill="#1BA3FF" stroke="#1BA3FF" stroke-linecap="round" stroke-linejoin="round"/>
<path d="M183.688 154.115V144.644C183.688 143.938 182.925 143.503 182.327 143.868C181.712 144.243 181.339 144.914 181.339 145.637V155.107C181.339 155.813 182.101 156.249 182.699 155.882C183.315 155.509 183.688 154.838 183.688 154.115Z" fill="#1BA3FF" stroke="#1BA3FF" stroke-linecap="round" stroke-linejoin="round"/>
<path d="M33.7634 158.627V145.237C33.7634 144.905 33.9368 144.644 34.1795 144.495C34.4396 144.339 34.7777 144.313 35.0724 144.495L89.9885 177.821C90.5086 178.134 90.8207 178.701 90.8207 179.311V192.701C90.8207 193.032 90.6473 193.294 90.4045 193.442C90.1446 193.6 89.8064 193.625 89.5117 193.442L34.5957 160.117C34.0755 159.804 33.7634 159.238 33.7634 158.627Z" fill="#1BA3FF" stroke="#1BA3FF" stroke-linecap="round" stroke-linejoin="round"/>
<path d="M69.9463 175.878V172.149L85.6365 181.672V185.401L69.9463 175.878Z" fill="#1BA3FF" stroke="#1BA3FF" stroke-linecap="round" stroke-linejoin="round"/>
<path d="M42.0039 157.756C42.7362 157.367 42.773 155.994 42.0862 154.687C41.3993 153.381 40.2489 152.637 39.5166 153.027C38.7843 153.416 38.7475 154.789 39.4344 156.096C40.1212 157.402 41.2716 158.146 42.0039 157.756Z" fill="#1BA3FF" stroke="#1BA3FF" stroke-linecap="round" stroke-linejoin="round"/>
<path d="M48.48 161.722C49.2122 161.333 49.2491 159.959 48.5621 158.652C47.8754 157.347 46.7249 156.603 45.9927 156.992C45.2604 157.382 45.2236 158.755 45.9105 160.062C46.5973 161.368 47.7477 162.112 48.48 161.722Z" fill="#1BA3FF" stroke="#1BA3FF" stroke-linecap="round" stroke-linejoin="round"/>
<path d="M54.9555 165.688C55.6877 165.299 55.7246 163.925 55.0378 162.618C54.3509 161.312 53.2004 160.569 52.4682 160.958C51.736 161.348 51.6992 162.721 52.386 164.027C53.0729 165.334 54.2232 166.076 54.9555 165.688Z" fill="#1BA3FF" stroke="#1BA3FF" stroke-linecap="round" stroke-linejoin="round"/>
<path d="M32.645 117.479L98.1283 157.189C104.517 161.067 112.518 161.067 118.916 157.189L184.399 117.479V124.771C184.399 125.634 183.983 126.496 183.142 127.001L121.04 164.692C113.342 169.361 103.702 169.361 96.0044 164.692L33.902 127.001C33.0698 126.496 32.645 125.634 32.645 124.771V117.487V117.479Z" fill="#7B36B6"/>
<path d="M32.645 117.479L98.1283 157.189C104.517 161.067 112.518 161.067 118.916 157.189L184.399 117.479V124.771C184.399 125.634 183.983 126.496 183.142 127.001L121.04 164.692C113.342 169.361 103.702 169.361 96.0044 164.692L33.902 127.001C33.0698 126.496 32.645 125.634 32.645 124.771V117.487V117.479Z" stroke="#7B36B6" stroke-linecap="round" stroke-linejoin="round"/>
<path d="M32.645 114.124L98.1283 153.835C104.517 157.713 112.518 157.713 118.916 153.835L184.399 114.124V121.416C184.399 122.279 183.983 123.142 183.142 123.647L121.04 161.337C113.342 166.007 103.702 166.007 96.0044 161.337L33.902 123.647C33.0698 123.142 32.645 122.279 32.645 121.416V114.133V114.124Z" fill="#D1D1D1" stroke="#D1D1D1" stroke-linecap="round" stroke-linejoin="round"/>
<path d="M22 167.348C22 169.187 22.8929 171.025 24.6699 172.106L98.1197 216.678C104.508 220.556 112.51 220.556 118.908 216.678L192.357 172.106C194.133 171.025 195.027 169.187 195.027 167.348C195.027 165.51 194.133 163.671 192.357 162.592L118.908 118.019C112.518 114.142 104.517 114.142 98.1197 118.019L24.6699 162.592C22.8929 163.671 22 165.51 22 167.348Z" stroke="#7B36B6" stroke-linecap="round" stroke-linejoin="round"/>
<path d="M22 167.348C22 165.51 22.8929 163.671 24.6699 162.592L98.1197 118.019C104.508 114.142 112.51 114.142 118.908 118.019L192.357 162.592C194.133 163.671 195.027 165.51 195.027 167.348V197.869C195.027 199.636 194.108 201.275 192.6 202.19L118.908 246.911C112.518 250.787 104.517 250.787 98.1197 246.911L24.4273 202.198C22.9189 201.283 22 199.646 22 197.877V167.358V167.348Z" stroke="#7B36B6" stroke-linecap="round" stroke-linejoin="round"/>
<path d="M98.1284 222.045V241.762" stroke="#7B36B6" stroke-linecap="round" stroke-linejoin="round"/>
<path d="M118.908 222.045V241.762" stroke="#7B36B6" stroke-linecap="round" stroke-linejoin="round"/>
<path d="M29.5417 204.856L30.686 205.552V175.756L29.5417 175.068V204.856Z" fill="#7B36B6" stroke="#7B36B6" stroke-linecap="round" stroke-linejoin="round"/>
<path d="M26.5857 173.273L24.6699 172.114C22.8929 171.033 22 169.196 22 167.358V197.877C22 199.646 22.9189 201.283 24.4273 202.198L26.5857 203.505V173.264V173.273Z" fill="#7B36B6" stroke="#7B36B6" stroke-linecap="round" stroke-linejoin="round"/>
<path d="M192.357 172.106L191.577 172.585V202.826L192.6 202.198C194.108 201.283 195.027 199.646 195.027 197.877V167.358C195.027 169.196 194.135 171.033 192.357 172.114V172.106Z" fill="#7B36B6" stroke="#7B36B6" stroke-linecap="round" stroke-linejoin="round"/>
<path d="M22 124.762C22 122.923 22.8929 121.085 24.6699 120.005L98.1197 75.4321C104.508 71.555 112.51 71.555 118.908 75.4321L192.357 120.005C194.133 121.085 195.027 122.923 195.027 124.762V153.147C195.027 154.916 194.108 156.553 192.6 157.469L118.908 202.19C112.518 206.066 104.517 206.066 98.1197 202.19L24.4273 157.469C22.9189 156.553 22 154.916 22 153.147V124.762Z" stroke="#7B36B6" stroke-linecap="round" stroke-linejoin="round"/>
<path d="M195.036 78.2377C195.036 76.3993 194.143 74.561 192.365 73.4807L118.916 28.9078C112.527 25.0307 104.526 25.0307 98.1284 28.9078L24.6699 73.4807C22.8929 74.561 22 76.3993 22 78.2377V108.757C22 110.596 22.8929 112.173 24.6699 113.253L98.1197 157.825C104.508 161.703 112.51 161.703 118.908 157.825L192.357 113.253C194.133 112.173 195.027 110.596 195.027 108.757V78.2377H195.036Z" stroke="#7B36B6" stroke-width="1.25" stroke-miterlimit="10"/>
<path d="M22 78.2377C22 80.076 22.8929 81.9144 24.6699 82.9947L98.1197 127.567C104.508 131.445 112.51 131.445 118.908 127.567L192.357 82.9947C194.133 81.9144 195.027 80.076 195.027 78.2377C195.027 76.3993 194.133 74.561 192.357 73.4807L118.908 28.9078C112.518 25.0307 104.517 25.0307 98.1197 28.9078L24.6699 73.4807C22.8929 74.561 22 76.3993 22 78.2377Z" stroke="#7B36B6" stroke-linecap="round" stroke-linejoin="round"/>
<path d="M22 78.2377C22 76.3993 22.8929 74.561 24.6699 73.4807L98.1284 28.9078C104.517 25.0307 112.518 25.0307 118.916 28.9078L192.365 73.4807C194.143 74.561 195.036 76.3993 195.036 78.2377V108.757C195.036 110.526 194.117 112.164 192.608 113.079L118.916 157.8C112.527 161.676 104.526 161.676 98.1284 157.8L24.4273 113.088C22.9189 112.173 22 110.535 22 108.766V78.2464V78.2377Z" stroke="#7B36B6" stroke-linecap="round" stroke-linejoin="round"/>
<path d="M29.5417 115.745L30.686 116.433V86.6451L29.5417 85.9481V115.745Z" fill="#7B36B6" stroke="#7B36B6" stroke-linecap="round" stroke-linejoin="round"/>
<path d="M26.5857 84.1533L24.6699 82.9946C22.8929 81.9142 22 80.0759 22 78.2375V108.757C22 110.526 22.9189 112.164 24.4273 113.079L26.5857 114.386V84.1446V84.1533Z" fill="#7B36B6" stroke="#7B36B6" stroke-linecap="round" stroke-linejoin="round"/>
<path d="M192.357 82.9947L191.577 83.4738V113.715L192.6 113.087C194.108 112.173 195.027 110.535 195.027 108.766V78.2463C195.027 80.0847 194.135 81.9229 192.357 83.0034V82.9947Z" fill="#7B36B6" stroke="#7B36B6" stroke-linecap="round" stroke-linejoin="round"/>
<path d="M82.594 139.617V128.012C82.594 127.306 83.3569 126.871 83.9551 127.237C84.5705 127.611 84.9432 128.282 84.9432 129.005V140.611C84.9432 141.316 84.1804 141.752 83.5823 141.386C82.9668 141.011 82.594 140.34 82.594 139.617Z" fill="#1BA3FF" stroke="#1BA3FF" stroke-linecap="round" stroke-linejoin="round"/>
<path d="M76.5344 135.932V124.327C76.5344 123.621 77.2974 123.185 77.8955 123.552C78.511 123.925 78.8836 124.596 78.8836 125.319V136.925C78.8836 137.63 78.1208 138.067 77.5227 137.7C76.9072 137.326 76.5344 136.655 76.5344 135.932Z" fill="#1BA3FF" stroke="#1BA3FF" stroke-linecap="round" stroke-linejoin="round"/>
<path d="M70.4761 132.255V120.65C70.4761 119.944 71.2389 119.509 71.837 119.874C72.4525 120.249 72.8253 120.92 72.8253 121.643V133.249C72.8253 133.953 72.0625 134.39 71.4643 134.024C70.8489 133.649 70.4761 132.978 70.4761 132.255Z" fill="#1BA3FF" stroke="#1BA3FF" stroke-linecap="round" stroke-linejoin="round"/>
<path d="M64.4165 128.578V116.973C64.4165 116.268 65.1793 115.832 65.7775 116.198C66.3929 116.573 66.7657 117.243 66.7657 117.966V129.572C66.7657 130.277 66.0029 130.713 65.4048 130.347C64.7892 129.972 64.4165 129.301 64.4165 128.578Z" fill="#1BA3FF" stroke="#1BA3FF" stroke-linecap="round" stroke-linejoin="round"/>
<path d="M58.3567 124.901V113.297C58.3567 112.591 59.1195 112.155 59.7176 112.521C60.3331 112.896 60.7059 113.567 60.7059 114.29V125.895C60.7059 126.601 59.9431 127.036 59.345 126.67C58.7294 126.295 58.3567 125.624 58.3567 124.901Z" fill="#1BA3FF" stroke="#1BA3FF" stroke-linecap="round" stroke-linejoin="round"/>
<path d="M52.2971 121.225V109.62C52.2971 108.914 53.0599 108.479 53.6581 108.845C54.2735 109.219 54.6463 109.89 54.6463 110.613V122.218C54.6463 122.924 53.8835 123.36 53.2853 122.993C52.6698 122.618 52.2971 121.948 52.2971 121.225Z" fill="#1BA3FF" stroke="#1BA3FF" stroke-linecap="round" stroke-linejoin="round"/>
<path d="M46.2375 117.548V105.943C46.2375 105.238 47.0004 104.802 47.5985 105.168C48.214 105.543 48.5868 106.213 48.5868 106.937V118.542C48.5868 119.247 47.8238 119.683 47.2257 119.317C46.6102 118.942 46.2375 118.271 46.2375 117.548Z" fill="#1BA3FF" stroke="#1BA3FF" stroke-linecap="round" stroke-linejoin="round"/>
<path d="M40.1785 113.872V102.267C40.1785 101.561 40.9414 101.125 41.5395 101.491C42.155 101.866 42.5277 102.537 42.5277 103.26V114.865C42.5277 115.571 41.7649 116.006 41.1667 115.64C40.5513 115.266 40.1785 114.595 40.1785 113.872Z" fill="#1BA3FF" stroke="#1BA3FF" stroke-linecap="round" stroke-linejoin="round"/>
<path d="M133.237 131.898C133.237 132.307 133.288 132.403 133.601 132.377C133.756 132.36 133.904 132.377 134.034 132.403C134.321 132.472 134.511 132.342 134.745 132.037C134.988 131.724 134.979 131.418 134.745 131.323C134.442 131.192 134.094 131.157 133.713 131.219C133.436 131.262 133.228 131.497 133.228 131.898H133.237Z" fill="#1BA3FF"/>
<path d="M133.705 126.295C135.561 125.503 137.19 125.703 138.325 126.714C138.482 126.854 138.793 126.766 138.993 126.504C139.175 126.261 139.253 125.868 139.106 125.729C137.814 124.492 135.889 124.257 133.696 125.232C133.453 125.346 133.246 125.712 133.246 125.982C133.246 126.27 133.463 126.4 133.705 126.295Z" fill="#1BA3FF"/>
<path d="M130.696 134.328C130.991 134.355 131.112 134.285 131.372 133.885C131.512 133.684 131.65 133.492 131.797 133.318C132.109 132.943 132.205 132.69 132.205 132.36C132.205 132.02 131.98 132.011 131.702 132.298C131.329 132.69 130.974 133.143 130.661 133.64C130.436 133.997 130.401 134.293 130.696 134.32V134.328Z" fill="#1BA3FF"/>
<path d="M128.538 134.128C128.772 134.146 129.032 133.918 129.205 133.579C129.898 132.238 130.809 131.078 131.78 130.233C131.988 130.051 132.204 129.624 132.204 129.354C132.204 129.11 131.979 128.988 131.755 129.179C130.497 130.233 129.327 131.724 128.451 133.466C128.261 133.841 128.321 134.119 128.529 134.137L128.538 134.128Z" fill="#1BA3FF"/>
<path d="M127.116 133.353C128.286 130.869 129.95 128.744 131.728 127.333C131.97 127.14 132.204 126.722 132.204 126.444C132.204 126.183 131.988 126.069 131.753 126.243C129.655 127.855 127.697 130.364 126.345 133.301C126.197 133.632 126.258 133.928 126.457 133.945C126.665 133.962 126.959 133.684 127.116 133.361V133.353Z" fill="#1BA3FF"/>
<path d="M130.063 137.814C130.358 137.43 130.419 137.274 130.384 136.89C130.366 136.698 130.358 136.497 130.375 136.288C130.401 135.853 130.306 135.714 130.071 135.696C129.83 135.67 129.612 135.967 129.56 136.358C129.49 136.872 129.482 137.369 129.56 137.804C129.612 138.119 129.795 138.179 130.08 137.804L130.063 137.814Z" fill="#1BA3FF"/>
<path d="M127.905 140.628C128.14 140.323 128.218 139.975 128.14 139.712C127.828 138.711 127.845 137.456 128.14 136.124C128.2 135.844 128.105 135.522 127.905 135.505C127.732 135.488 127.437 135.774 127.359 136.08C126.934 137.796 126.909 139.426 127.342 140.688C127.437 140.959 127.688 140.897 127.897 140.628H127.905Z" fill="#1BA3FF"/>
<path d="M126.015 142.448C125.331 140.75 125.365 138.432 126.015 136.01C126.102 135.679 126.025 135.339 125.825 135.322C125.642 135.304 125.347 135.583 125.261 135.896C124.455 138.746 124.411 141.49 125.261 143.451C125.357 143.668 125.634 143.598 125.825 143.346C126.033 143.076 126.111 142.674 126.015 142.448Z" fill="#1BA3FF"/>
<path d="M131.971 138.877C131.971 138.467 131.919 138.371 131.607 138.397C131.451 138.415 131.303 138.397 131.174 138.371C130.887 138.301 130.697 138.432 130.463 138.737C130.22 139.051 130.229 139.356 130.463 139.451C130.766 139.582 131.113 139.617 131.495 139.556C131.771 139.513 131.98 139.277 131.98 138.877H131.971Z" fill="#1BA3FF"/>
<path d="M131.97 141.883C131.97 141.551 131.788 141.438 131.537 141.525C130.531 141.864 129.647 141.76 128.971 141.282C128.833 141.176 128.503 141.29 128.312 141.543C128.138 141.769 128.07 142.179 128.217 142.291C129.049 142.954 130.202 143.103 131.502 142.614C131.78 142.51 131.98 142.17 131.98 141.883H131.97Z" fill="#1BA3FF"/>
<path d="M131.503 144.478C129.648 145.272 128.018 145.071 126.883 144.06C126.727 143.921 126.415 144.008 126.215 144.269C126.033 144.514 125.955 144.905 126.103 145.044C127.394 146.282 129.319 146.517 131.512 145.541C131.755 145.429 131.963 145.062 131.963 144.792C131.963 144.505 131.746 144.374 131.503 144.478Z" fill="#1BA3FF"/>
<path d="M134.511 136.445C134.216 136.42 134.094 136.489 133.834 136.89C133.696 137.09 133.558 137.282 133.41 137.456C133.098 137.831 133.002 138.084 133.002 138.415C133.002 138.755 133.228 138.763 133.505 138.475C133.878 138.084 134.234 137.63 134.545 137.135C134.77 136.777 134.805 136.48 134.511 136.454V136.445Z" fill="#1BA3FF"/>
<path d="M136.669 136.638C136.435 136.619 136.175 136.847 136.002 137.187C135.308 138.527 134.399 139.687 133.427 140.532C133.22 140.715 133.002 141.141 133.002 141.412C133.002 141.655 133.228 141.777 133.453 141.586C134.71 140.532 135.881 139.042 136.757 137.299C136.947 136.924 136.886 136.646 136.678 136.628L136.669 136.638Z" fill="#1BA3FF"/>
<path d="M138.091 137.413C136.92 139.896 135.256 142.022 133.48 143.433C133.237 143.625 133.002 144.043 133.002 144.321C133.002 144.584 133.22 144.696 133.453 144.522C135.551 142.91 137.51 140.401 138.863 137.465C139.01 137.135 138.95 136.838 138.75 136.82C138.542 136.803 138.247 137.081 138.091 137.404V137.413Z" fill="#1BA3FF"/>
<path d="M135.143 132.952C134.849 133.336 134.788 133.492 134.823 133.875C134.84 134.067 134.849 134.268 134.832 134.477C134.805 134.912 134.9 135.051 135.135 135.069C135.378 135.095 135.594 134.799 135.646 134.407C135.716 133.893 135.724 133.396 135.646 132.961C135.594 132.646 135.413 132.586 135.126 132.961L135.143 132.952Z" fill="#1BA3FF"/>
<path d="M137.303 130.138C137.068 130.442 136.99 130.792 137.068 131.053C137.381 132.054 137.363 133.309 137.068 134.643C137.008 134.921 137.103 135.244 137.303 135.26C137.476 135.279 137.771 134.991 137.849 134.686C138.274 132.969 138.299 131.341 137.866 130.077C137.771 129.806 137.519 129.868 137.311 130.138H137.303Z" fill="#1BA3FF"/>
<path d="M139.191 128.325C139.876 130.024 139.842 132.342 139.191 134.764C139.105 135.095 139.183 135.435 139.383 135.453C139.564 135.47 139.859 135.192 139.946 134.877C140.752 132.029 140.795 129.284 139.946 127.324C139.851 127.106 139.573 127.175 139.383 127.428C139.175 127.698 139.096 128.099 139.191 128.325Z" fill="#1BA3FF"/>
<path d="M155.442 117.774C155.442 118.182 155.494 118.279 155.807 118.252C155.962 118.236 156.11 118.252 156.24 118.279C156.526 118.348 156.716 118.217 156.951 117.913C157.194 117.6 157.184 117.294 156.951 117.198C156.647 117.068 156.3 117.032 155.918 117.094C155.642 117.138 155.434 117.372 155.434 117.774H155.442Z" fill="#1BA3FF"/>
<path d="M155.91 112.171C157.766 111.379 159.395 111.578 160.531 112.589C160.687 112.729 160.999 112.641 161.198 112.38C161.38 112.137 161.458 111.744 161.311 111.605C160.019 110.368 158.095 110.132 155.902 111.108C155.659 111.222 155.452 111.588 155.452 111.858C155.452 112.145 155.668 112.276 155.91 112.171Z" fill="#1BA3FF"/>
<path d="M152.901 120.204C153.196 120.231 153.318 120.16 153.577 119.76C153.717 119.559 153.855 119.367 154.002 119.193C154.315 118.818 154.41 118.566 154.41 118.236C154.41 117.896 154.185 117.886 153.907 118.174C153.534 118.566 153.179 119.019 152.866 119.516C152.641 119.873 152.607 120.169 152.901 120.195V120.204Z" fill="#1BA3FF"/>
<path d="M150.743 120.003C150.978 120.021 151.237 119.794 151.411 119.454C152.104 118.113 153.014 116.954 153.985 116.109C154.193 115.926 154.41 115.499 154.41 115.23C154.41 114.986 154.185 114.863 153.96 115.054C152.703 116.109 151.532 117.6 150.656 119.342C150.466 119.717 150.526 119.995 150.735 120.013L150.743 120.003Z" fill="#1BA3FF"/>
<path d="M149.321 119.228C150.492 116.745 152.155 114.619 153.933 113.208C154.175 113.016 154.41 112.598 154.41 112.32C154.41 112.058 154.193 111.945 153.959 112.119C151.861 113.73 149.902 116.239 148.55 119.176C148.402 119.507 148.463 119.804 148.662 119.821C148.87 119.838 149.165 119.559 149.321 119.237V119.228Z" fill="#1BA3FF"/>
<path d="M152.268 123.69C152.563 123.305 152.624 123.149 152.59 122.766C152.571 122.574 152.563 122.373 152.58 122.164C152.606 121.729 152.511 121.589 152.277 121.571C152.035 121.546 151.817 121.842 151.765 122.234C151.696 122.748 151.687 123.245 151.765 123.68C151.817 123.994 152 124.055 152.285 123.68L152.268 123.69Z" fill="#1BA3FF"/>
<path d="M150.11 126.503C150.345 126.198 150.423 125.85 150.345 125.588C150.033 124.587 150.05 123.332 150.345 121.999C150.405 121.72 150.31 121.397 150.11 121.38C149.937 121.363 149.642 121.65 149.564 121.956C149.139 123.671 149.114 125.301 149.547 126.564C149.642 126.834 149.894 126.773 150.102 126.503H150.11Z" fill="#1BA3FF"/>
<path d="M148.22 128.324C147.536 126.625 147.571 124.307 148.22 121.886C148.307 121.554 148.23 121.215 148.03 121.198C147.847 121.18 147.553 121.459 147.466 121.772C146.66 124.622 146.617 127.365 147.466 129.326C147.562 129.544 147.839 129.474 148.03 129.221C148.238 128.952 148.317 128.55 148.22 128.324Z" fill="#1BA3FF"/>
<path d="M154.176 124.752C154.176 124.343 154.125 124.247 153.812 124.272C153.657 124.291 153.509 124.272 153.379 124.247C153.093 124.177 152.903 124.307 152.668 124.612C152.425 124.927 152.435 125.231 152.668 125.327C152.971 125.457 153.319 125.492 153.7 125.432C153.977 125.388 154.185 125.153 154.185 124.752H154.176Z" fill="#1BA3FF"/>
<path d="M154.175 127.758C154.175 127.427 153.994 127.313 153.742 127.4C152.736 127.74 151.852 127.636 151.176 127.157C151.038 127.052 150.708 127.166 150.517 127.418C150.344 127.645 150.275 128.054 150.422 128.167C151.254 128.829 152.407 128.978 153.707 128.49C153.985 128.386 154.185 128.046 154.185 127.758H154.175Z" fill="#1BA3FF"/>
<path d="M153.709 130.354C151.854 131.147 150.223 130.947 149.088 129.936C148.933 129.797 148.62 129.884 148.42 130.145C148.239 130.389 148.16 130.781 148.308 130.92C149.599 132.158 151.524 132.393 153.717 131.417C153.96 131.304 154.168 130.938 154.168 130.667C154.168 130.381 153.952 130.25 153.709 130.354Z" fill="#1BA3FF"/>
<path d="M156.716 122.321C156.421 122.296 156.3 122.365 156.04 122.766C155.901 122.965 155.763 123.158 155.615 123.332C155.304 123.707 155.207 123.959 155.207 124.291C155.207 124.63 155.433 124.639 155.71 124.351C156.083 123.959 156.439 123.506 156.751 123.01C156.976 122.652 157.011 122.356 156.716 122.329V122.321Z" fill="#1BA3FF"/>
<path d="M158.874 122.513C158.641 122.495 158.381 122.722 158.208 123.062C157.513 124.403 156.604 125.562 155.632 126.408C155.425 126.59 155.207 127.017 155.207 127.288C155.207 127.531 155.433 127.653 155.658 127.462C156.916 126.408 158.086 124.918 158.962 123.175C159.152 122.8 159.092 122.522 158.884 122.504L158.874 122.513Z" fill="#1BA3FF"/>
<path d="M160.296 123.288C159.125 125.772 157.462 127.897 155.685 129.308C155.442 129.5 155.207 129.919 155.207 130.197C155.207 130.459 155.425 130.572 155.658 130.398C157.756 128.786 159.715 126.277 161.068 123.34C161.215 123.01 161.155 122.714 160.955 122.696C160.747 122.679 160.452 122.957 160.296 123.28V123.288Z" fill="#1BA3FF"/>
<path d="M157.349 118.828C157.054 119.211 156.994 119.367 157.029 119.751C157.045 119.943 157.054 120.143 157.037 120.353C157.011 120.788 157.106 120.927 157.34 120.945C157.583 120.97 157.8 120.674 157.852 120.282C157.921 119.769 157.93 119.272 157.852 118.836C157.8 118.522 157.618 118.462 157.332 118.836L157.349 118.828Z" fill="#1BA3FF"/>
<path d="M159.508 116.013C159.273 116.318 159.195 116.667 159.273 116.928C159.586 117.93 159.568 119.185 159.273 120.518C159.213 120.796 159.308 121.119 159.508 121.136C159.681 121.154 159.976 120.866 160.054 120.562C160.479 118.845 160.504 117.216 160.071 115.953C159.976 115.682 159.725 115.744 159.516 116.013H159.508Z" fill="#1BA3FF"/>
<path d="M161.397 114.201C162.081 115.9 162.048 118.217 161.397 120.639C161.31 120.97 161.388 121.31 161.588 121.328C161.77 121.345 162.064 121.067 162.151 120.753C162.957 117.904 163 115.16 162.151 113.2C162.056 112.982 161.778 113.051 161.588 113.304C161.38 113.573 161.302 113.975 161.397 114.201Z" fill="#1BA3FF"/>
<path d="M177.647 103.649C177.647 104.058 177.699 104.155 178.012 104.128C178.167 104.111 178.315 104.128 178.445 104.155C178.731 104.224 178.921 104.093 179.156 103.788C179.399 103.475 179.389 103.169 179.156 103.074C178.853 102.943 178.505 102.908 178.124 102.97C177.847 103.013 177.639 103.248 177.639 103.649H177.647Z" fill="#1BA3FF"/>
<path d="M178.115 98.0464C179.972 97.2545 181.6 97.454 182.736 98.4648C182.892 98.605 183.204 98.5168 183.404 98.2556C183.585 98.0126 183.664 97.6196 183.517 97.4806C182.225 96.2437 180.3 96.0079 178.107 96.9837C177.864 97.0973 177.657 97.4637 177.657 97.7333C177.657 98.021 177.874 98.1516 178.115 98.0464Z" fill="#1BA3FF"/>
<path d="M175.107 106.08C175.401 106.106 175.523 106.036 175.783 105.636C175.922 105.435 176.061 105.243 176.207 105.069C176.52 104.694 176.615 104.441 176.615 104.111C176.615 103.771 176.39 103.762 176.112 104.049C175.739 104.441 175.385 104.895 175.072 105.392C174.847 105.748 174.812 106.044 175.107 106.071V106.08Z" fill="#1BA3FF"/>
<path d="M172.948 105.879C173.183 105.897 173.443 105.67 173.616 105.33C174.309 103.989 175.22 102.83 176.19 101.984C176.399 101.802 176.615 101.375 176.615 101.105C176.615 100.861 176.39 100.739 176.165 100.93C174.908 101.984 173.738 103.475 172.862 105.217C172.672 105.592 172.732 105.87 172.94 105.888L172.948 105.879Z" fill="#1BA3FF"/>
<path d="M171.526 105.104C172.697 102.62 174.361 100.495 176.139 99.0838C176.381 98.8915 176.615 98.4732 176.615 98.1951C176.615 97.934 176.399 97.8203 176.164 97.9944C174.066 99.6061 172.107 102.115 170.755 105.052C170.607 105.383 170.669 105.679 170.867 105.696C171.075 105.713 171.37 105.435 171.526 105.112V105.104Z" fill="#1BA3FF"/>
<path d="M174.474 109.565C174.768 109.181 174.83 109.025 174.795 108.642C174.777 108.449 174.768 108.249 174.785 108.039C174.812 107.604 174.717 107.465 174.482 107.447C174.24 107.422 174.023 107.718 173.971 108.11C173.901 108.623 173.893 109.12 173.971 109.556C174.023 109.87 174.205 109.93 174.491 109.556L174.474 109.565Z" fill="#1BA3FF"/>
<path d="M172.316 112.379C172.55 112.074 172.628 111.726 172.55 111.463C172.239 110.462 172.255 109.207 172.55 107.875C172.61 107.596 172.515 107.273 172.316 107.256C172.142 107.239 171.848 107.526 171.769 107.831C171.345 109.547 171.32 111.177 171.753 112.439C171.848 112.71 172.099 112.648 172.307 112.379H172.316Z" fill="#1BA3FF"/>
<path d="M170.426 114.2C169.741 112.501 169.776 110.183 170.426 107.761C170.512 107.43 170.435 107.09 170.236 107.073C170.053 107.055 169.758 107.335 169.671 107.648C168.865 110.497 168.822 113.241 169.671 115.202C169.768 115.42 170.044 115.349 170.236 115.097C170.444 114.827 170.522 114.426 170.426 114.2Z" fill="#1BA3FF"/>
<path d="M176.382 110.628C176.382 110.218 176.33 110.123 176.017 110.148C175.862 110.166 175.714 110.148 175.584 110.123C175.298 110.053 175.108 110.183 174.873 110.488C174.63 110.802 174.64 111.107 174.873 111.202C175.176 111.333 175.524 111.368 175.905 111.308C176.182 111.264 176.39 111.028 176.39 110.628H176.382Z" fill="#1BA3FF"/>
<path d="M176.381 113.634C176.381 113.302 176.199 113.189 175.948 113.276C174.942 113.616 174.058 113.512 173.382 113.033C173.243 112.928 172.914 113.041 172.722 113.294C172.549 113.52 172.48 113.93 172.627 114.042C173.46 114.705 174.612 114.854 175.913 114.365C176.191 114.261 176.39 113.922 176.39 113.634H176.381Z" fill="#1BA3FF"/>
<path d="M175.914 116.23C174.059 117.023 172.429 116.822 171.293 115.811C171.138 115.672 170.825 115.759 170.626 116.021C170.444 116.265 170.366 116.656 170.514 116.796C171.804 118.034 173.729 118.268 175.922 117.292C176.165 117.18 176.373 116.814 176.373 116.543C176.373 116.256 176.157 116.126 175.914 116.23Z" fill="#1BA3FF"/>
<path d="M178.921 108.197C178.626 108.171 178.505 108.24 178.245 108.642C178.107 108.841 177.968 109.033 177.82 109.207C177.509 109.582 177.413 109.835 177.413 110.166C177.413 110.506 177.639 110.514 177.915 110.227C178.288 109.835 178.644 109.382 178.956 108.886C179.181 108.528 179.216 108.232 178.921 108.205V108.197Z" fill="#1BA3FF"/>
<path d="M181.079 108.389C180.846 108.371 180.586 108.598 180.413 108.938C179.719 110.279 178.809 111.438 177.837 112.283C177.63 112.466 177.413 112.893 177.413 113.163C177.413 113.406 177.639 113.529 177.864 113.338C179.121 112.283 180.291 110.794 181.167 109.05C181.357 108.675 181.297 108.397 181.089 108.379L181.079 108.389Z" fill="#1BA3FF"/>
<path d="M182.501 109.164C181.331 111.647 179.667 113.773 177.89 115.184C177.647 115.376 177.413 115.794 177.413 116.073C177.413 116.335 177.63 116.447 177.864 116.273C179.962 114.662 181.92 112.153 183.274 109.216C183.42 108.886 183.36 108.59 183.161 108.571C182.952 108.554 182.658 108.833 182.501 109.155V109.164Z" fill="#1BA3FF"/>
<path d="M179.554 104.704C179.259 105.087 179.199 105.243 179.234 105.626C179.251 105.818 179.259 106.019 179.242 106.228C179.216 106.664 179.311 106.803 179.546 106.821C179.789 106.846 180.005 106.55 180.057 106.158C180.127 105.644 180.135 105.147 180.057 104.712C180.005 104.398 179.823 104.337 179.537 104.712L179.554 104.704Z" fill="#1BA3FF"/>
<path d="M181.713 101.889C181.479 102.194 181.401 102.543 181.479 102.804C181.792 103.805 181.774 105.06 181.479 106.394C181.419 106.672 181.514 106.995 181.713 107.012C181.887 107.03 182.181 106.742 182.26 106.437C182.684 104.72 182.709 103.092 182.276 101.828C182.181 101.558 181.93 101.619 181.722 101.889H181.713Z" fill="#1BA3FF"/>
<path d="M183.602 100.076C184.287 101.775 184.253 104.093 183.602 106.515C183.515 106.846 183.594 107.186 183.793 107.204C183.975 107.221 184.27 106.943 184.356 106.628C185.162 103.78 185.206 101.035 184.356 99.0753C184.261 98.8577 183.983 98.9266 183.793 99.1793C183.585 99.4489 183.507 99.8503 183.602 100.076Z" fill="#1BA3FF"/>
<path d="M114.442 98.4051L142.478 81.3893C144.306 80.2804 144.306 77.6233 142.478 76.5143L114.041 59.2609C111.132 57.4967 107.493 57.4967 104.591 59.2609L76.1539 76.5143C74.3269 77.6233 74.3269 80.2804 76.1539 81.3893L104.197 98.4051C107.349 100.321 111.29 100.321 114.442 98.4051Z" fill="#D1D1D1" stroke="#D1D1D1" stroke-linecap="round" stroke-linejoin="round"/>
<path d="M103.659 91.8596L131.694 74.8438C133.522 73.7348 133.522 71.0778 131.694 69.9688L103.257 52.7153C100.349 50.9512 96.7089 50.9512 93.8072 52.7153L65.3702 69.9688C63.5433 71.0778 63.5433 73.7348 65.3702 74.8438L93.4131 91.8596C96.5655 93.7751 100.506 93.7751 103.659 91.8596Z" fill="#D1D1D1" stroke="#D1D1D1" stroke-linecap="round" stroke-linejoin="round"/>
<path d="M148.289 22.7738L115.045 2.604C111.527 0.465333 107.113 0.465333 103.595 2.604L70.3508 22.781C67.0264 24.7972 64.9988 28.4121 64.9988 32.3079V73.5187C64.9988 77.4289 67.0407 81.0509 70.3723 83.06L103.581 103.093C107.084 105.21 111.462 105.21 114.973 103.093L148.26 83.0528C151.599 81.0437 153.648 77.4145 153.648 73.5044V32.3079C153.648 28.4121 151.621 24.7901 148.296 22.781L148.289 22.7738Z" stroke="#1BA3FF" stroke-miterlimit="10"/>
<path d="M139.621 29.1778L113.398 13.2637C110.619 11.5788 107.144 11.5788 104.371 13.2637L78.148 29.1778C75.5257 30.7692 73.928 33.6208 73.928 36.6956V69.2005C73.928 72.2826 75.54 75.1413 78.1695 76.7256L104.357 92.5244C107.122 94.195 110.576 94.195 113.341 92.5244L139.593 76.7183C142.23 75.1342 143.842 72.2753 143.842 69.1861V36.6956C143.842 33.6208 142.244 30.7692 139.621 29.1778Z" fill="#7B36B6"/>
<path d="M94.0363 69H86.9511L97.7469 37.7273H106.267L117.048 69H109.963L102.129 44.8736H101.885L94.0363 69ZM93.5935 56.7077H110.329V61.869H93.5935V56.7077ZM127.424 37.7273V69H120.812V37.7273H127.424Z" fill="white"/>
<path d="M82.594 227.617V216.012C82.594 215.306 83.3569 214.871 83.9551 215.237C84.5705 215.611 84.9432 216.282 84.9432 217.005V228.611C84.9432 229.316 84.1804 229.752 83.5823 229.386C82.9668 229.011 82.594 228.34 82.594 227.617Z" fill="#1BA3FF" stroke="#1BA3FF" stroke-linecap="round" stroke-linejoin="round"/>
<path d="M76.5344 223.932V212.327C76.5344 211.621 77.2974 211.185 77.8955 211.552C78.511 211.925 78.8836 212.596 78.8836 213.319V224.925C78.8836 225.63 78.1208 226.067 77.5227 225.7C76.9072 225.326 76.5344 224.655 76.5344 223.932Z" fill="#1BA3FF" stroke="#1BA3FF" stroke-linecap="round" stroke-linejoin="round"/>
<path d="M70.4761 220.255V208.65C70.4761 207.944 71.2389 207.509 71.837 207.874C72.4525 208.249 72.8253 208.92 72.8253 209.643V221.249C72.8253 221.953 72.0625 222.39 71.4643 222.024C70.8489 221.649 70.4761 220.978 70.4761 220.255Z" fill="#1BA3FF" stroke="#1BA3FF" stroke-linecap="round" stroke-linejoin="round"/>
<path d="M64.4165 216.578V204.973C64.4165 204.268 65.1793 203.832 65.7775 204.198C66.3929 204.573 66.7657 205.243 66.7657 205.966V217.572C66.7657 218.277 66.0029 218.713 65.4048 218.347C64.7892 217.972 64.4165 217.301 64.4165 216.578Z" fill="#1BA3FF" stroke="#1BA3FF" stroke-linecap="round" stroke-linejoin="round"/>
<path d="M58.3567 212.901V201.297C58.3567 200.591 59.1195 200.155 59.7176 200.521C60.3331 200.896 60.7059 201.567 60.7059 202.29V213.895C60.7059 214.601 59.9431 215.036 59.345 214.67C58.7294 214.295 58.3567 213.624 58.3567 212.901Z" fill="#1BA3FF" stroke="#1BA3FF" stroke-linecap="round" stroke-linejoin="round"/>
<path d="M52.2971 209.225V197.62C52.2971 196.914 53.0599 196.479 53.6581 196.845C54.2735 197.219 54.6463 197.89 54.6463 198.613V210.218C54.6463 210.924 53.8835 211.36 53.2853 210.993C52.6698 210.618 52.2971 209.948 52.2971 209.225Z" fill="#1BA3FF" stroke="#1BA3FF" stroke-linecap="round" stroke-linejoin="round"/>
<path d="M46.2375 205.548V193.943C46.2375 193.238 47.0004 192.802 47.5985 193.168C48.214 193.543 48.5868 194.213 48.5868 194.937V206.542C48.5868 207.247 47.8238 207.683 47.2257 207.317C46.6102 206.942 46.2375 206.271 46.2375 205.548Z" fill="#1BA3FF" stroke="#1BA3FF" stroke-linecap="round" stroke-linejoin="round"/>
<path d="M40.1785 201.872V190.267C40.1785 189.561 40.9414 189.125 41.5395 189.491C42.155 189.866 42.5277 190.537 42.5277 191.26V202.865C42.5277 203.571 41.7649 204.006 41.1667 203.64C40.5513 203.266 40.1785 202.595 40.1785 201.872Z" fill="#1BA3FF" stroke="#1BA3FF" stroke-linecap="round" stroke-linejoin="round"/>
<path d="M133.237 219.898C133.237 220.307 133.288 220.403 133.601 220.377C133.756 220.36 133.904 220.377 134.034 220.403C134.321 220.472 134.511 220.342 134.745 220.037C134.988 219.724 134.979 219.418 134.745 219.323C134.442 219.192 134.094 219.157 133.713 219.219C133.436 219.262 133.228 219.497 133.228 219.898H133.237Z" fill="#1BA3FF"/>
<path d="M133.705 214.295C135.561 213.503 137.19 213.703 138.325 214.714C138.482 214.854 138.793 214.766 138.993 214.504C139.175 214.261 139.253 213.868 139.106 213.729C137.814 212.492 135.889 212.257 133.696 213.232C133.453 213.346 133.246 213.712 133.246 213.982C133.246 214.27 133.463 214.4 133.705 214.295Z" fill="#1BA3FF"/>
<path d="M130.696 222.328C130.991 222.355 131.112 222.285 131.372 221.885C131.512 221.684 131.65 221.492 131.797 221.318C132.109 220.943 132.205 220.69 132.205 220.36C132.205 220.02 131.98 220.011 131.702 220.298C131.329 220.69 130.974 221.143 130.661 221.64C130.436 221.997 130.401 222.293 130.696 222.32V222.328Z" fill="#1BA3FF"/>
<path d="M128.538 222.128C128.772 222.146 129.032 221.918 129.205 221.579C129.898 220.238 130.809 219.078 131.78 218.233C131.988 218.051 132.204 217.624 132.204 217.354C132.204 217.11 131.979 216.988 131.755 217.179C130.497 218.233 129.327 219.724 128.451 221.466C128.261 221.841 128.321 222.119 128.529 222.137L128.538 222.128Z" fill="#1BA3FF"/>
<path d="M127.116 221.353C128.286 218.869 129.95 216.744 131.728 215.333C131.97 215.14 132.204 214.722 132.204 214.444C132.204 214.183 131.988 214.069 131.753 214.243C129.655 215.855 127.697 218.364 126.345 221.301C126.197 221.632 126.258 221.928 126.457 221.945C126.665 221.962 126.959 221.684 127.116 221.361V221.353Z" fill="#1BA3FF"/>
<path d="M130.063 225.814C130.358 225.43 130.419 225.274 130.384 224.89C130.366 224.698 130.358 224.497 130.375 224.288C130.401 223.853 130.306 223.714 130.071 223.696C129.83 223.67 129.612 223.967 129.56 224.358C129.49 224.872 129.482 225.369 129.56 225.804C129.612 226.119 129.795 226.179 130.08 225.804L130.063 225.814Z" fill="#1BA3FF"/>
<path d="M127.905 228.628C128.14 228.323 128.218 227.975 128.14 227.712C127.828 226.711 127.845 225.456 128.14 224.124C128.2 223.844 128.105 223.522 127.905 223.505C127.732 223.488 127.437 223.774 127.359 224.08C126.934 225.796 126.909 227.426 127.342 228.688C127.437 228.959 127.688 228.897 127.897 228.628H127.905Z" fill="#1BA3FF"/>
<path d="M126.015 230.448C125.331 228.75 125.365 226.432 126.015 224.01C126.102 223.679 126.025 223.339 125.825 223.322C125.642 223.304 125.347 223.583 125.261 223.896C124.455 226.746 124.411 229.49 125.261 231.451C125.357 231.668 125.634 231.598 125.825 231.346C126.033 231.076 126.111 230.674 126.015 230.448Z" fill="#1BA3FF"/>
<path d="M131.971 226.877C131.971 226.467 131.919 226.371 131.607 226.397C131.451 226.415 131.303 226.397 131.174 226.371C130.887 226.301 130.697 226.432 130.463 226.737C130.22 227.051 130.229 227.356 130.463 227.451C130.766 227.582 131.113 227.617 131.495 227.556C131.771 227.513 131.98 227.277 131.98 226.877H131.971Z" fill="#1BA3FF"/>
<path d="M131.97 229.883C131.97 229.551 131.788 229.438 131.537 229.525C130.531 229.864 129.647 229.76 128.971 229.282C128.833 229.176 128.503 229.29 128.312 229.543C128.138 229.769 128.07 230.179 128.217 230.291C129.049 230.954 130.202 231.103 131.502 230.614C131.78 230.51 131.98 230.17 131.98 229.883H131.97Z" fill="#1BA3FF"/>
<path d="M131.503 232.478C129.648 233.272 128.018 233.071 126.883 232.06C126.727 231.921 126.415 232.008 126.215 232.269C126.033 232.514 125.955 232.905 126.103 233.044C127.394 234.282 129.319 234.517 131.512 233.541C131.755 233.429 131.963 233.062 131.963 232.792C131.963 232.505 131.746 232.374 131.503 232.478Z" fill="#1BA3FF"/>
<path d="M134.511 224.445C134.216 224.42 134.094 224.489 133.834 224.89C133.696 225.09 133.558 225.282 133.41 225.456C133.098 225.831 133.002 226.084 133.002 226.415C133.002 226.755 133.228 226.763 133.505 226.475C133.878 226.084 134.234 225.63 134.545 225.135C134.77 224.777 134.805 224.48 134.511 224.454V224.445Z" fill="#1BA3FF"/>
<path d="M136.669 224.638C136.435 224.619 136.175 224.847 136.002 225.187C135.308 226.527 134.399 227.687 133.427 228.532C133.22 228.715 133.002 229.141 133.002 229.412C133.002 229.655 133.228 229.777 133.453 229.586C134.71 228.532 135.881 227.042 136.757 225.299C136.947 224.924 136.886 224.646 136.678 224.628L136.669 224.638Z" fill="#1BA3FF"/>
<path d="M138.091 225.413C136.92 227.896 135.256 230.022 133.48 231.433C133.237 231.625 133.002 232.043 133.002 232.321C133.002 232.584 133.22 232.696 133.453 232.522C135.551 230.91 137.51 228.401 138.863 225.465C139.01 225.135 138.95 224.838 138.75 224.82C138.542 224.803 138.247 225.081 138.091 225.404V225.413Z" fill="#1BA3FF"/>
<path d="M135.143 220.952C134.849 221.336 134.788 221.492 134.823 221.875C134.84 222.067 134.849 222.268 134.832 222.477C134.805 222.912 134.9 223.051 135.135 223.069C135.378 223.095 135.594 222.799 135.646 222.407C135.716 221.893 135.724 221.396 135.646 220.961C135.594 220.646 135.413 220.586 135.126 220.961L135.143 220.952Z" fill="#1BA3FF"/>
<path d="M137.303 218.138C137.068 218.442 136.99 218.792 137.068 219.053C137.381 220.054 137.363 221.309 137.068 222.643C137.008 222.921 137.103 223.244 137.303 223.26C137.476 223.279 137.771 222.991 137.849 222.686C138.274 220.969 138.299 219.341 137.866 218.077C137.771 217.806 137.519 217.868 137.311 218.138H137.303Z" fill="#1BA3FF"/>
<path d="M139.191 216.325C139.876 218.024 139.842 220.342 139.191 222.764C139.105 223.095 139.183 223.435 139.383 223.453C139.564 223.47 139.859 223.192 139.946 222.877C140.752 220.029 140.795 217.284 139.946 215.324C139.851 215.106 139.573 215.175 139.383 215.428C139.175 215.698 139.096 216.099 139.191 216.325Z" fill="#1BA3FF"/>
<path d="M155.442 205.774C155.442 206.182 155.494 206.279 155.807 206.252C155.962 206.236 156.11 206.252 156.24 206.279C156.526 206.348 156.716 206.217 156.951 205.913C157.194 205.6 157.184 205.294 156.951 205.198C156.647 205.068 156.3 205.032 155.918 205.094C155.642 205.138 155.434 205.372 155.434 205.774H155.442Z" fill="#1BA3FF"/>
<path d="M155.91 200.171C157.766 199.379 159.395 199.578 160.531 200.589C160.687 200.729 160.999 200.641 161.198 200.38C161.38 200.137 161.458 199.744 161.311 199.605C160.019 198.368 158.095 198.132 155.902 199.108C155.659 199.222 155.452 199.588 155.452 199.858C155.452 200.145 155.668 200.276 155.91 200.171Z" fill="#1BA3FF"/>
<path d="M152.901 208.204C153.196 208.231 153.318 208.16 153.577 207.76C153.717 207.559 153.855 207.367 154.002 207.193C154.315 206.818 154.41 206.566 154.41 206.236C154.41 205.896 154.185 205.886 153.907 206.174C153.534 206.566 153.179 207.019 152.866 207.516C152.641 207.873 152.607 208.169 152.901 208.195V208.204Z" fill="#1BA3FF"/>
<path d="M150.743 208.003C150.978 208.021 151.237 207.794 151.411 207.454C152.104 206.113 153.014 204.954 153.985 204.109C154.193 203.926 154.41 203.499 154.41 203.23C154.41 202.986 154.185 202.863 153.96 203.054C152.703 204.109 151.532 205.6 150.656 207.342C150.466 207.717 150.526 207.995 150.735 208.013L150.743 208.003Z" fill="#1BA3FF"/>
<path d="M149.321 207.228C150.492 204.745 152.155 202.619 153.933 201.208C154.175 201.016 154.41 200.598 154.41 200.32C154.41 200.058 154.193 199.945 153.959 200.119C151.861 201.73 149.902 204.239 148.55 207.176C148.402 207.507 148.463 207.804 148.662 207.821C148.87 207.838 149.165 207.559 149.321 207.237V207.228Z" fill="#1BA3FF"/>
<path d="M152.268 211.69C152.563 211.305 152.624 211.149 152.59 210.766C152.571 210.574 152.563 210.373 152.58 210.164C152.606 209.729 152.511 209.589 152.277 209.571C152.035 209.546 151.817 209.842 151.765 210.234C151.696 210.748 151.687 211.245 151.765 211.68C151.817 211.994 152 212.055 152.285 211.68L152.268 211.69Z" fill="#1BA3FF"/>
<path d="M150.11 214.503C150.345 214.198 150.423 213.85 150.345 213.588C150.033 212.587 150.05 211.332 150.345 209.999C150.405 209.72 150.31 209.397 150.11 209.38C149.937 209.363 149.642 209.65 149.564 209.956C149.139 211.671 149.114 213.301 149.547 214.564C149.642 214.834 149.894 214.773 150.102 214.503H150.11Z" fill="#1BA3FF"/>
<path d="M148.22 216.324C147.536 214.625 147.571 212.307 148.22 209.886C148.307 209.554 148.23 209.215 148.03 209.198C147.847 209.18 147.553 209.459 147.466 209.772C146.66 212.622 146.617 215.365 147.466 217.326C147.562 217.544 147.839 217.474 148.03 217.221C148.238 216.952 148.317 216.55 148.22 216.324Z" fill="#1BA3FF"/>
<path d="M154.176 212.752C154.176 212.343 154.125 212.247 153.812 212.272C153.657 212.291 153.509 212.272 153.379 212.247C153.093 212.177 152.903 212.307 152.668 212.612C152.425 212.927 152.435 213.231 152.668 213.327C152.971 213.457 153.319 213.492 153.7 213.432C153.977 213.388 154.185 213.153 154.185 212.752H154.176Z" fill="#1BA3FF"/>
<path d="M154.175 215.758C154.175 215.427 153.994 215.313 153.742 215.4C152.736 215.74 151.852 215.636 151.176 215.157C151.038 215.052 150.708 215.166 150.517 215.418C150.344 215.645 150.275 216.054 150.422 216.167C151.254 216.829 152.407 216.978 153.707 216.49C153.985 216.386 154.185 216.046 154.185 215.758H154.175Z" fill="#1BA3FF"/>
<path d="M153.709 218.354C151.854 219.147 150.223 218.947 149.088 217.936C148.933 217.797 148.62 217.884 148.42 218.145C148.239 218.389 148.16 218.781 148.308 218.92C149.599 220.158 151.524 220.393 153.717 219.417C153.96 219.304 154.168 218.938 154.168 218.667C154.168 218.381 153.952 218.25 153.709 218.354Z" fill="#1BA3FF"/>
<path d="M156.716 210.321C156.421 210.296 156.3 210.365 156.04 210.766C155.901 210.965 155.763 211.158 155.615 211.332C155.304 211.707 155.207 211.959 155.207 212.291C155.207 212.63 155.433 212.639 155.71 212.351C156.083 211.959 156.439 211.506 156.751 211.01C156.976 210.652 157.011 210.356 156.716 210.329V210.321Z" fill="#1BA3FF"/>
<path d="M158.874 210.513C158.641 210.495 158.381 210.722 158.208 211.062C157.513 212.403 156.604 213.562 155.632 214.408C155.425 214.59 155.207 215.017 155.207 215.288C155.207 215.531 155.433 215.653 155.658 215.462C156.916 214.408 158.086 212.918 158.962 211.175C159.152 210.8 159.092 210.522 158.884 210.504L158.874 210.513Z" fill="#1BA3FF"/>
<path d="M160.296 211.288C159.125 213.772 157.462 215.897 155.685 217.308C155.442 217.5 155.207 217.919 155.207 218.197C155.207 218.459 155.425 218.572 155.658 218.398C157.756 216.786 159.715 214.277 161.068 211.34C161.215 211.01 161.155 210.714 160.955 210.696C160.747 210.679 160.452 210.957 160.296 211.28V211.288Z" fill="#1BA3FF"/>
<path d="M157.349 206.828C157.054 207.211 156.994 207.367 157.029 207.751C157.045 207.943 157.054 208.143 157.037 208.353C157.011 208.788 157.106 208.927 157.34 208.945C157.583 208.97 157.8 208.674 157.852 208.282C157.921 207.769 157.93 207.272 157.852 206.836C157.8 206.522 157.618 206.462 157.332 206.836L157.349 206.828Z" fill="#1BA3FF"/>
<path d="M159.508 204.013C159.273 204.318 159.195 204.667 159.273 204.928C159.586 205.93 159.568 207.185 159.273 208.518C159.213 208.796 159.308 209.119 159.508 209.136C159.681 209.154 159.976 208.866 160.054 208.562C160.479 206.845 160.504 205.216 160.071 203.953C159.976 203.682 159.725 203.744 159.516 204.013H159.508Z" fill="#1BA3FF"/>
<path d="M161.397 202.201C162.081 203.9 162.048 206.217 161.397 208.639C161.31 208.97 161.388 209.31 161.588 209.328C161.77 209.345 162.064 209.067 162.151 208.753C162.957 205.904 163 203.16 162.151 201.2C162.056 200.982 161.778 201.051 161.588 201.304C161.38 201.573 161.302 201.975 161.397 202.201Z" fill="#1BA3FF"/>
<path d="M177.647 191.649C177.647 192.058 177.699 192.155 178.012 192.128C178.167 192.111 178.315 192.128 178.445 192.155C178.731 192.224 178.921 192.093 179.156 191.788C179.399 191.475 179.389 191.169 179.156 191.074C178.853 190.943 178.505 190.908 178.124 190.97C177.847 191.013 177.639 191.248 177.639 191.649H177.647Z" fill="#1BA3FF"/>
<path d="M178.115 186.046C179.972 185.254 181.6 185.454 182.736 186.465C182.892 186.605 183.204 186.517 183.404 186.256C183.585 186.013 183.664 185.62 183.517 185.481C182.225 184.244 180.3 184.008 178.107 184.984C177.864 185.097 177.657 185.464 177.657 185.733C177.657 186.021 177.874 186.152 178.115 186.046Z" fill="#1BA3FF"/>
<path d="M175.107 194.08C175.401 194.106 175.523 194.036 175.783 193.636C175.922 193.435 176.061 193.243 176.207 193.069C176.52 192.694 176.615 192.441 176.615 192.111C176.615 191.771 176.39 191.762 176.112 192.049C175.739 192.441 175.385 192.895 175.072 193.392C174.847 193.748 174.812 194.044 175.107 194.071V194.08Z" fill="#1BA3FF"/>
<path d="M172.948 193.879C173.183 193.897 173.443 193.67 173.616 193.33C174.309 191.989 175.22 190.83 176.19 189.984C176.399 189.802 176.615 189.375 176.615 189.105C176.615 188.861 176.39 188.739 176.165 188.93C174.908 189.984 173.738 191.475 172.862 193.217C172.672 193.592 172.732 193.87 172.94 193.888L172.948 193.879Z" fill="#1BA3FF"/>
<path d="M171.526 193.104C172.697 190.62 174.361 188.495 176.139 187.084C176.381 186.892 176.615 186.473 176.615 186.195C176.615 185.934 176.399 185.82 176.164 185.994C174.066 187.606 172.107 190.115 170.755 193.052C170.607 193.383 170.669 193.679 170.867 193.696C171.075 193.713 171.37 193.435 171.526 193.112V193.104Z" fill="#1BA3FF"/>
<path d="M174.474 197.565C174.768 197.181 174.83 197.025 174.795 196.642C174.777 196.449 174.768 196.249 174.785 196.039C174.812 195.604 174.717 195.465 174.482 195.447C174.24 195.422 174.023 195.718 173.971 196.11C173.901 196.623 173.893 197.12 173.971 197.556C174.023 197.87 174.205 197.93 174.491 197.556L174.474 197.565Z" fill="#1BA3FF"/>
<path d="M172.316 200.379C172.55 200.074 172.628 199.726 172.55 199.463C172.239 198.462 172.255 197.207 172.55 195.875C172.61 195.596 172.515 195.273 172.316 195.256C172.142 195.239 171.848 195.526 171.769 195.831C171.345 197.547 171.32 199.177 171.753 200.439C171.848 200.71 172.099 200.648 172.307 200.379H172.316Z" fill="#1BA3FF"/>
<path d="M170.426 202.2C169.741 200.501 169.776 198.183 170.426 195.761C170.512 195.43 170.435 195.09 170.236 195.073C170.053 195.055 169.758 195.335 169.671 195.648C168.865 198.497 168.822 201.241 169.671 203.202C169.768 203.42 170.044 203.349 170.236 203.097C170.444 202.827 170.522 202.426 170.426 202.2Z" fill="#1BA3FF"/>
<path d="M176.382 198.628C176.382 198.218 176.33 198.123 176.017 198.148C175.862 198.166 175.714 198.148 175.584 198.123C175.298 198.053 175.108 198.183 174.873 198.488C174.63 198.802 174.64 199.107 174.873 199.202C175.176 199.333 175.524 199.368 175.905 199.308C176.182 199.264 176.39 199.028 176.39 198.628H176.382Z" fill="#1BA3FF"/>
<path d="M176.381 201.634C176.381 201.302 176.199 201.189 175.948 201.276C174.942 201.616 174.058 201.512 173.382 201.033C173.243 200.928 172.914 201.041 172.722 201.294C172.549 201.52 172.48 201.93 172.627 202.042C173.46 202.705 174.612 202.854 175.913 202.365C176.191 202.261 176.39 201.922 176.39 201.634H176.381Z" fill="#1BA3FF"/>
<path d="M175.914 204.23C174.059 205.023 172.429 204.822 171.293 203.811C171.138 203.672 170.825 203.759 170.626 204.021C170.444 204.265 170.366 204.656 170.514 204.796C171.804 206.034 173.729 206.268 175.922 205.292C176.165 205.18 176.373 204.814 176.373 204.543C176.373 204.256 176.157 204.126 175.914 204.23Z" fill="#1BA3FF"/>
<path d="M178.921 196.197C178.626 196.171 178.505 196.24 178.245 196.642C178.107 196.841 177.968 197.033 177.82 197.207C177.509 197.582 177.413 197.835 177.413 198.166C177.413 198.506 177.639 198.514 177.915 198.227C178.288 197.835 178.644 197.382 178.956 196.886C179.181 196.528 179.216 196.232 178.921 196.205V196.197Z" fill="#1BA3FF"/>
<path d="M181.079 196.389C180.846 196.371 180.586 196.598 180.413 196.938C179.719 198.279 178.809 199.438 177.837 200.283C177.63 200.466 177.413 200.893 177.413 201.163C177.413 201.406 177.639 201.529 177.864 201.338C179.121 200.283 180.291 198.794 181.167 197.05C181.357 196.675 181.297 196.397 181.089 196.379L181.079 196.389Z" fill="#1BA3FF"/>
<path d="M182.501 197.164C181.331 199.647 179.667 201.773 177.89 203.184C177.647 203.376 177.413 203.794 177.413 204.073C177.413 204.335 177.63 204.447 177.864 204.273C179.962 202.662 181.92 200.153 183.274 197.216C183.42 196.886 183.36 196.59 183.161 196.571C182.952 196.554 182.658 196.833 182.501 197.155V197.164Z" fill="#1BA3FF"/>
<path d="M179.554 192.704C179.259 193.087 179.199 193.243 179.234 193.626C179.251 193.818 179.259 194.019 179.242 194.228C179.216 194.664 179.311 194.803 179.546 194.821C179.789 194.846 180.005 194.55 180.057 194.158C180.127 193.644 180.135 193.147 180.057 192.712C180.005 192.398 179.823 192.337 179.537 192.712L179.554 192.704Z" fill="#1BA3FF"/>
<path d="M181.713 189.889C181.479 190.194 181.401 190.543 181.479 190.804C181.792 191.805 181.774 193.06 181.479 194.394C181.419 194.672 181.514 194.995 181.713 195.012C181.887 195.03 182.181 194.742 182.26 194.437C182.684 192.72 182.709 191.092 182.276 189.828C182.181 189.558 181.93 189.619 181.722 189.889H181.713Z" fill="#1BA3FF"/>
<path d="M183.602 188.076C184.287 189.775 184.253 192.093 183.602 194.515C183.515 194.846 183.594 195.186 183.793 195.204C183.975 195.221 184.27 194.943 184.356 194.628C185.162 191.78 185.206 189.035 184.356 187.075C184.261 186.858 183.983 186.927 183.793 187.179C183.585 187.449 183.507 187.85 183.602 188.076Z" fill="#1BA3FF"/>
</svg>
